<?xml version="1.0" encoding="UTF-8" standalone="no"?>
<svg
   width="48"
   height="208"
   version="1.1"
   id="svg912"
   sodipodi:docname="gun-vss-01 copy.svg"
   inkscape:version="1.4.3 (0d15f75042, 2025-12-25)"
   xml:space="preserve"
   xmlns:inkscape="http://www.inkscape.org/namespaces/inkscape"
   xmlns:sodipodi="http://sodipodi.sourceforge.net/DTD/sodipodi-0.dtd"
   xmlns="http://www.w3.org/2000/svg"
   xmlns:svg="http://www.w3.org/2000/svg"
   xmlns:rdf="http://www.w3.org/1999/02/22-rdf-syntax-ns#"
   xmlns:cc="http://creativecommons.org/ns#"
   xmlns:dc="http://purl.org/dc/elements/1.1/"><metadata
     id="metadata916"><rdf:RDF><cc:Work
         rdf:about=""><dc:format>image/svg+xml</dc:format><dc:type
           rdf:resource="http://purl.org/dc/dcmitype/StillImage" /><dc:title /></cc:Work></rdf:RDF></metadata><sodipodi:namedview
     pagecolor="#ffffff"
     bordercolor="#666666"
     borderopacity="1"
     objecttolerance="10"
     gridtolerance="10"
     guidetolerance="10"
     inkscape:pageopacity="0"
     inkscape:pageshadow="2"
     inkscape:window-width="1920"
     inkscape:window-height="1017"
     id="namedview914"
     showgrid="true"
     fit-margin-top="1"
     fit-margin-left="1"
     fit-margin-bottom="1"
     fit-margin-right="1"
     inkscape:zoom="3.7165354"
     inkscape:cx="42.378178"
     inkscape:cy="89.195975"
     inkscape:window-x="1920"
     inkscape:window-y="0"
     inkscape:window-maximized="1"
     inkscape:current-layer="svg912"
     inkscape:showpageshadow="2"
     inkscape:pagecheckerboard="0"
     inkscape:deskcolor="#d1d1d1"><inkscape:grid
       type="xygrid"
       id="grid857"
       empspacing="4"
       spacingy="2"
       spacingx="2"
       originx="0"
       originy="0"
       units="px" /></sodipodi:namedview><defs
     id="defs908"><clipPath
       clipPathUnits="userSpaceOnUse"
       id="clipPath942"><path
         style="fill:#2e2e2e;fill-opacity:1;stroke-width:10.00078678;stroke-miterlimit:10;stroke-opacity:0.49000005"
         d="m 36,98 4,8 v 40 l -4.000003,8 h -24 L 8,146 v -40 l 4,-8 z"
         id="path944"
         inkscape:connector-curvature="0"
         sodipodi:nodetypes="ccccccccc" /></clipPath><clipPath
       clipPathUnits="userSpaceOnUse"
       id="clipPath960"><path
         sodipodi:nodetypes="ccccc"
         inkscape:connector-curvature="0"
         id="path962"
         d="m 36,146 v 76 H 12 v -76 z"
         style="fill:#5f1308;fill-opacity:1;stroke-width:12.12930012;stroke-miterlimit:10;stroke-opacity:0.49000005" /></clipPath></defs><rect
     style="fill:#a1491f;fill-opacity:1;stroke:#000000;stroke-width:2.79735;stroke-opacity:1;paint-order:stroke fill markers"
     id="rect1-3"
     width="14.331651"
     height="2.9614153"
     x="17.305819"
     y="142.91621" /><path
     d="m 21.681207,64.780139 -0.02793,6.520369 7.663722,-0.198039 0.02617,-6.520371 z"
     fill="#323232"
     id="path10-3"
     sodipodi:nodetypes="ccccc"
     style="isolation:isolate;stroke:#000000;stroke-width:1.79536;stroke-opacity:1" /><path
     d="M 29.178954,35.519908 21.917775,35.58457 22.237476,4.7147613 29.48829,4.6397323 Z"
     fill="rgb(130,119,23)"
     id="path1"
     style="isolation:isolate;fill:#89976e;fill-opacity:1;stroke:#000000;stroke-width:3.96963;stroke-dasharray:none;stroke-opacity:1" /><path
     d="m 30.683769,64.504157 c 3.697699,-7.285594 7.446105,-19.442881 7.511012,-25.455212 0.06456,-6.007233 -8.828571,-21.656332 -8.753248,-28.907431 l -7.253476,0.07295 c -0.07265,7.253168 -9.311633,23.08959 -9.371075,29.097066 -0.06247,6.009908 3.4351,18.092225 6.987854,25.307877 z"
     fill="rgb(130,119,23)"
     id="path2"
     style="isolation:isolate;fill:#a1aa92;fill-opacity:1;stroke:#000000;stroke-width:3.96963;stroke-dasharray:none;stroke-opacity:1" /><path
     d="m 37.818626,42.682952 c 0.206429,-1.203095 0.332147,-2.417337 0.376155,-3.634007 0.01,-0.95918 -0.187582,-2.208087 -0.493397,-3.607033 l -24.326599,0.241229 c -0.325091,1.415956 -0.54547,2.666785 -0.557803,3.628389 -0.02124,1.035644 0.116996,2.282763 0.282788,3.624484 z"
     fill="rgb(99,89,13)"
     id="path4"
     style="isolation:isolate;fill:#89976e;fill-opacity:1;stroke:#000000;stroke-width:3.96963;stroke-dasharray:none;stroke-opacity:1" /><path
     d="m 9.6515382,192.9866 8.2951628,-20.3341 12.149981,-0.11104 7.890616,20.15162 z"
     fill="rgb(55,71,79)"
     id="path6"
     style="isolation:isolate;fill:#676a6f;fill-opacity:1;stroke:#000000;stroke-width:4.43141;stroke-dasharray:none;stroke-opacity:1"
     sodipodi:nodetypes="ccccc" /><path
     d="M 33.473972,131.0612 34.024447,77.859693 30.47378,70.646108 19.59515,70.761054 15.897145,78.04695 15.344236,131.25149 Z"
     fill="rgb(84,110,122)"
     id="path8"
     style="isolation:isolate;fill:#676a6f;fill-opacity:1;stroke:#000000;stroke-width:3.96963;stroke-dasharray:none;stroke-opacity:1"
     sodipodi:nodetypes="ccccccc" /><path
     d="m 29.493604,164.912 c 0.03993,-3.62779 3.74036,-10.91614 3.780549,-14.53888 l 0.197102,-19.30919 -18.127019,0.18757 -0.199774,19.30652 c -0.03751,3.62544 3.512874,10.8387 3.475365,14.4641 z"
     fill="rgb(198,134,50)"
     id="path9"
     style="isolation:isolate;fill:#e98051;fill-opacity:1;stroke:#000000;stroke-width:3.96963;stroke-dasharray:none;stroke-opacity:1"
     sodipodi:nodetypes="ccccssc" /><path
     d="m 7.0943159,201.99081 1.8296464,1.49173 29.5309507,-0.30555 1.860884,-1.52989 0.06248,-6.03858 -33.2214068,0.33905 z"
     fill="#323232"
     id="path5-5"
     style="isolation:isolate;stroke:#000000;stroke-width:1.64219;stroke-opacity:1" /><path
     d="m 17.905573,202.23606 -0.03838,3.6039 10.57126,-0.10946 0.03618,-3.6039 z"
     fill="#323232"
     id="path10"
     sodipodi:nodetypes="ccccc"
     style="isolation:isolate;stroke:#000000;stroke-width:1.56764;stroke-opacity:1" /><rect
     style="fill:#484848;fill-opacity:1;stroke:#000000;stroke-width:4;stroke-linecap:butt;stroke-linejoin:miter;stroke-miterlimit:10;stroke-dasharray:none;stroke-opacity:1"
     id="rect998"
     width="5.3520207"
     height="46.163361"
     x="21.834858"
     y="84.936188" /><rect
     style="fill:#a1491f;fill-opacity:1;stroke:#000000;stroke-width:2.79735;stroke-opacity:1;paint-order:stroke fill markers"
     id="rect1"
     width="14.331651"
     height="2.9614153"
     x="17.176863"
     y="135.93433" /><rect
     style="fill:#494846;fill-opacity:1;stroke:#000000;stroke-width:2.24494;stroke-opacity:1;paint-order:stroke fill markers"
     id="rect1-3-5"
     width="12.648501"
     height="2.1611006"
     x="17.714355"
     y="167.8597" /></svg>
