<?xml version="1.0" encoding="UTF-8" standalone="no"?>
<svg
   xmlns:osb="http://www.openswatchbook.org/uri/2009/osb"
   xmlns:dc="http://purl.org/dc/elements/1.1/"
   xmlns:cc="http://creativecommons.org/ns#"
   xmlns:rdf="http://www.w3.org/1999/02/22-rdf-syntax-ns#"
   xmlns:svg="http://www.w3.org/2000/svg"
   xmlns="http://www.w3.org/2000/svg"
   xmlns:xlink="http://www.w3.org/1999/xlink"
   xmlns:sodipodi="http://sodipodi.sourceforge.net/DTD/sodipodi-0.dtd"
   xmlns:inkscape="http://www.inkscape.org/namespaces/inkscape"
   width="210mm"
   height="297mm"
   viewBox="0 0 210 297"
   version="1.1"
   id="svg8"
   inkscape:version="1.0.2-2 (e86c870879, 2021-01-15)"
   sodipodi:docname="gun-m82a1.svg">
  <defs
     id="defs2">
    <linearGradient
       id="linearGradient3671"
       osb:paint="solid">
      <stop
         style="stop-color:#ae9349;stop-opacity:1;"
         offset="0"
         id="stop3669" />
    </linearGradient>
    <inkscape:perspective
       sodipodi:type="inkscape:persp3d"
       inkscape:vp_x="0 : 148.5 : 1"
       inkscape:vp_y="0 : 1000 : 0"
       inkscape:vp_z="210 : 148.5 : 1"
       inkscape:persp3d-origin="105 : 99 : 1"
       id="perspective3653" />
    <linearGradient
       id="linearGradient3649"
       osb:paint="solid">
      <stop
         style="stop-color:#000000;stop-opacity:1;"
         offset="0"
         id="stop3647" />
    </linearGradient>
    <linearGradient
       id="linearGradient1710"
       osb:paint="solid">
      <stop
         style="stop-color:#f70000;stop-opacity:1;"
         offset="0"
         id="stop1708" />
    </linearGradient>
    <linearGradient
       inkscape:collect="always"
       id="linearGradient1064">
      <stop
         style="stop-color:#a69273;stop-opacity:1"
         offset="0"
         id="stop1060" />
      <stop
         style="stop-color:#ccad60;stop-opacity:0.71887553"
         offset="1"
         id="stop1062" />
    </linearGradient>
    <inkscape:path-effect
       effect="spiro"
       id="path-effect144"
       is_visible="true"
       lpeversion="1" />
    <clipPath
       clipPathUnits="userSpaceOnUse"
       id="clipPath917">
      <path
         inkscape:connector-curvature="0"
         id="path919"
         d="m 24,9.9999981 c 7.479,0 13.5,12.9323089 13.5,28.9961399 V 165.00386 C 37.5,181.06769 31.479,194 24,194 16.521,194 10.5,181.06769 10.5,165.00386 V 38.996138 C 10.5,22.932307 16.521,9.9999981 24,9.9999981 Z"
         clip-path="none"
         style="fill:#7b673c;fill-opacity:1;stroke:none;stroke-width:7.8558445;stroke-miterlimit:10;stroke-dasharray:none;stroke-opacity:1" />
    </clipPath>
    <clipPath
       clipPathUnits="userSpaceOnUse"
       id="clipPath893">
      <path
         style="fill:#515151;stroke-width:11.47149086;stroke-miterlimit:10;stroke-opacity:0.49000005"
         d="M 35.470588,57.999995 40,62.58823 v 72.82354 L 30.882352,140 H 17.117647 L 8,135.41177 V 62.58823 l 4.529412,-4.588235 z"
         id="path895"
         inkscape:connector-curvature="0"
         sodipodi:nodetypes="ccccccccc" />
    </clipPath>
    <clipPath
       clipPathUnits="userSpaceOnUse"
       id="clipPath918">
      <path
         style="fill:#515151;stroke-width:10.00078678;stroke-miterlimit:10;stroke-opacity:0.49000005"
         d="m 32,58 6,6 v 56 l -4,4 v 60 l 2,4 v 8 H 12 v -8 l 2,-4 v -60 l -4,-4 V 64 l 6,-6 z"
         id="path920"
         inkscape:connector-curvature="0"
         sodipodi:nodetypes="ccccccccccccccc" />
    </clipPath>
    <clipPath
       clipPathUnits="userSpaceOnUse"
       id="clipPath1017">
      <path
         style="fill:#515151;stroke-width:10.00078678;stroke-miterlimit:10;stroke-opacity:0.49000005"
         d="M 38,83.999997 46,92 v 48 l -6,6 v 86 l 2,4 v 8 H 18 v -8 l 2,-4 v -86 l -6,-6 V 92 l 8,-8.000003 z"
         id="path1019"
         inkscape:connector-curvature="0"
         sodipodi:nodetypes="ccccccccccccccc" />
    </clipPath>
    <clipPath
       clipPathUnits="userSpaceOnUse"
       id="clipPath952">
      <path
         style="fill:#515151;stroke-width:10.00078678;stroke-miterlimit:10;stroke-opacity:0.49000005"
         d="m 34,50.524645 v 55.999995 l 2,4 v 68 L 34,180 v 16 H 14 v -16 l -2,-1.47536 v -68 l 2,-4 V 50.524645 Z"
         id="path954"
         inkscape:connector-curvature="0"
         sodipodi:nodetypes="ccccccccccccc" />
    </clipPath>
    <clipPath
       clipPathUnits="userSpaceOnUse"
       id="clipPath958">
      <path
         sodipodi:nodetypes="ccccccccc"
         inkscape:connector-curvature="0"
         id="path960"
         d="M 41.470588,63.411765 43.764705,68 v 122.08691 l -6.882352,4.58823 H 23.117647 l -6.882352,-4.58823 V 68 l 2.294117,-4.588235 z"
         style="fill:#515151;stroke-width:11.47149086;stroke-miterlimit:10;stroke-opacity:0.49000005" />
    </clipPath>
    <clipPath
       clipPathUnits="userSpaceOnUse"
       id="clipPath964">
      <path
         style="fill:#515151;stroke-width:10.00078678;stroke-miterlimit:10;stroke-opacity:0.49000005"
         d="M 36,33.786966 V 64 l 6,4 V 194.52464 L 40,196 v 48 H 20 v -48 l -2,-1.47536 V 68 l 6,-4 V 33.786966 Z"
         id="path966"
         inkscape:connector-curvature="0"
         sodipodi:nodetypes="ccccccccccccc" />
    </clipPath>
    <linearGradient
       inkscape:collect="always"
       xlink:href="#linearGradient1064"
       id="linearGradient1066"
       x1="131.49661"
       y1="107.50917"
       x2="133.10023"
       y2="107.50917"
       gradientUnits="userSpaceOnUse"
       gradientTransform="matrix(1.4164527,0,0,0.80342663,-72.517715,12.889728)" />
    <clipPath
       clipPathUnits="userSpaceOnUse"
       id="clipPath917-3">
      <path
         inkscape:connector-curvature="0"
         id="path919-6"
         d="m 24,9.9999981 c 7.479,0 13.5,12.9323089 13.5,28.9961399 V 165.00386 C 37.5,181.06769 31.479,194 24,194 16.521,194 10.5,181.06769 10.5,165.00386 V 38.996138 C 10.5,22.932307 16.521,9.9999981 24,9.9999981 Z"
         clip-path="none"
         style="fill:#7b673c;fill-opacity:1;stroke:none;stroke-width:7.8558445;stroke-miterlimit:10;stroke-dasharray:none;stroke-opacity:1" />
    </clipPath>
    <clipPath
       clipPathUnits="userSpaceOnUse"
       id="clipPath893-6">
      <path
         style="fill:#515151;stroke-width:11.47149086;stroke-miterlimit:10;stroke-opacity:0.49000005"
         d="M 35.470588,57.999995 40,62.58823 v 72.82354 L 30.882352,140 H 17.117647 L 8,135.41177 V 62.58823 l 4.529412,-4.588235 z"
         id="path895-5"
         inkscape:connector-curvature="0"
         sodipodi:nodetypes="ccccccccc" />
    </clipPath>
    <clipPath
       clipPathUnits="userSpaceOnUse"
       id="clipPath918-2">
      <path
         style="fill:#515151;stroke-width:10.00078678;stroke-miterlimit:10;stroke-opacity:0.49000005"
         d="m 32,58 6,6 v 56 l -4,4 v 60 l 2,4 v 8 H 12 v -8 l 2,-4 v -60 l -4,-4 V 64 l 6,-6 z"
         id="path920-9"
         inkscape:connector-curvature="0"
         sodipodi:nodetypes="ccccccccccccccc" />
    </clipPath>
    <clipPath
       clipPathUnits="userSpaceOnUse"
       id="clipPath1017-9">
      <path
         style="fill:#515151;stroke-width:10.00078678;stroke-miterlimit:10;stroke-opacity:0.49000005"
         d="M 38,83.999997 46,92 v 48 l -6,6 v 86 l 2,4 v 8 H 18 v -8 l 2,-4 v -86 l -6,-6 V 92 l 8,-8.000003 z"
         id="path1019-5"
         inkscape:connector-curvature="0"
         sodipodi:nodetypes="ccccccccccccccc" />
    </clipPath>
    <clipPath
       clipPathUnits="userSpaceOnUse"
       id="clipPath952-9">
      <path
         style="fill:#515151;stroke-width:10.00078678;stroke-miterlimit:10;stroke-opacity:0.49000005"
         d="m 34,50.524645 v 55.999995 l 2,4 v 68 L 34,180 v 16 H 14 v -16 l -2,-1.47536 v -68 l 2,-4 V 50.524645 Z"
         id="path954-3"
         inkscape:connector-curvature="0"
         sodipodi:nodetypes="ccccccccccccc" />
    </clipPath>
    <clipPath
       clipPathUnits="userSpaceOnUse"
       id="clipPath958-9">
      <path
         sodipodi:nodetypes="ccccccccc"
         inkscape:connector-curvature="0"
         id="path960-6"
         d="M 41.470588,63.411765 43.764705,68 v 122.08691 l -6.882352,4.58823 H 23.117647 l -6.882352,-4.58823 V 68 l 2.294117,-4.588235 z"
         style="fill:#515151;stroke-width:11.47149086;stroke-miterlimit:10;stroke-opacity:0.49000005" />
    </clipPath>
    <clipPath
       clipPathUnits="userSpaceOnUse"
       id="clipPath964-8">
      <path
         style="fill:#515151;stroke-width:10.00078678;stroke-miterlimit:10;stroke-opacity:0.49000005"
         d="M 36,33.786966 V 64 l 6,4 V 194.52464 L 40,196 v 48 H 20 v -48 l -2,-1.47536 V 68 l 6,-4 V 33.786966 Z"
         id="path966-6"
         inkscape:connector-curvature="0"
         sodipodi:nodetypes="ccccccccccccc" />
    </clipPath>
    <clipPath
       clipPathUnits="userSpaceOnUse"
       id="clipPath917-4">
      <path
         inkscape:connector-curvature="0"
         id="path919-3"
         d="m 24,9.9999981 c 7.479,0 13.5,12.9323089 13.5,28.9961399 V 165.00386 C 37.5,181.06769 31.479,194 24,194 16.521,194 10.5,181.06769 10.5,165.00386 V 38.996138 C 10.5,22.932307 16.521,9.9999981 24,9.9999981 Z"
         clip-path="none"
         style="fill:#7b673c;fill-opacity:1;stroke:none;stroke-width:7.8558445;stroke-miterlimit:10;stroke-dasharray:none;stroke-opacity:1" />
    </clipPath>
    <clipPath
       clipPathUnits="userSpaceOnUse"
       id="clipPath893-67">
      <path
         style="fill:#515151;stroke-width:11.47149086;stroke-miterlimit:10;stroke-opacity:0.49000005"
         d="M 35.470588,57.999995 40,62.58823 v 72.82354 L 30.882352,140 H 17.117647 L 8,135.41177 V 62.58823 l 4.529412,-4.588235 z"
         id="path895-0"
         inkscape:connector-curvature="0"
         sodipodi:nodetypes="ccccccccc" />
    </clipPath>
    <clipPath
       clipPathUnits="userSpaceOnUse"
       id="clipPath918-7">
      <path
         style="fill:#515151;stroke-width:10.00078678;stroke-miterlimit:10;stroke-opacity:0.49000005"
         d="m 32,58 6,6 v 56 l -4,4 v 60 l 2,4 v 8 H 12 v -8 l 2,-4 v -60 l -4,-4 V 64 l 6,-6 z"
         id="path920-6"
         inkscape:connector-curvature="0"
         sodipodi:nodetypes="ccccccccccccccc" />
    </clipPath>
    <clipPath
       clipPathUnits="userSpaceOnUse"
       id="clipPath1017-1">
      <path
         style="fill:#515151;stroke-width:10.00078678;stroke-miterlimit:10;stroke-opacity:0.49000005"
         d="M 38,83.999997 46,92 v 48 l -6,6 v 86 l 2,4 v 8 H 18 v -8 l 2,-4 v -86 l -6,-6 V 92 l 8,-8.000003 z"
         id="path1019-1"
         inkscape:connector-curvature="0"
         sodipodi:nodetypes="ccccccccccccccc" />
    </clipPath>
    <clipPath
       clipPathUnits="userSpaceOnUse"
       id="clipPath958-9-5">
      <path
         sodipodi:nodetypes="ccccccccc"
         inkscape:connector-curvature="0"
         id="path960-6-7"
         d="M 41.470588,63.411765 43.764705,68 v 122.08691 l -6.882352,4.58823 H 23.117647 l -6.882352,-4.58823 V 68 l 2.294117,-4.588235 z"
         style="fill:#515151;stroke-width:11.4715;stroke-miterlimit:10;stroke-opacity:0.49" />
    </clipPath>
    <clipPath
       clipPathUnits="userSpaceOnUse"
       id="clipPath917-5">
      <path
         inkscape:connector-curvature="0"
         id="path919-0"
         d="m 24,9.9999981 c 7.479,0 13.5,12.9323089 13.5,28.9961399 V 165.00386 C 37.5,181.06769 31.479,194 24,194 16.521,194 10.5,181.06769 10.5,165.00386 V 38.996138 C 10.5,22.932307 16.521,9.9999981 24,9.9999981 Z"
         clip-path="none"
         style="fill:#7b673c;fill-opacity:1;stroke:none;stroke-width:7.8558445;stroke-miterlimit:10;stroke-dasharray:none;stroke-opacity:1" />
    </clipPath>
    <clipPath
       clipPathUnits="userSpaceOnUse"
       id="clipPath893-1">
      <path
         style="fill:#515151;stroke-width:11.47149086;stroke-miterlimit:10;stroke-opacity:0.49000005"
         d="M 35.470588,57.999995 40,62.58823 v 72.82354 L 30.882352,140 H 17.117647 L 8,135.41177 V 62.58823 l 4.529412,-4.588235 z"
         id="path895-07"
         inkscape:connector-curvature="0"
         sodipodi:nodetypes="ccccccccc" />
    </clipPath>
    <clipPath
       clipPathUnits="userSpaceOnUse"
       id="clipPath918-4">
      <path
         style="fill:#515151;stroke-width:10.00078678;stroke-miterlimit:10;stroke-opacity:0.49000005"
         d="m 32,58 6,6 v 56 l -4,4 v 60 l 2,4 v 8 H 12 v -8 l 2,-4 v -60 l -4,-4 V 64 l 6,-6 z"
         id="path920-8"
         inkscape:connector-curvature="0"
         sodipodi:nodetypes="ccccccccccccccc" />
    </clipPath>
    <clipPath
       clipPathUnits="userSpaceOnUse"
       id="clipPath1017-3">
      <path
         style="fill:#515151;stroke-width:10.00078678;stroke-miterlimit:10;stroke-opacity:0.49000005"
         d="M 38,83.999997 46,92 v 48 l -6,6 v 86 l 2,4 v 8 H 18 v -8 l 2,-4 v -86 l -6,-6 V 92 l 8,-8.000003 z"
         id="path1019-6"
         inkscape:connector-curvature="0"
         sodipodi:nodetypes="ccccccccccccccc" />
    </clipPath>
  </defs>
  <sodipodi:namedview
     id="base"
     pagecolor="#ffffff"
     bordercolor="#666666"
     borderopacity="1.0"
     inkscape:pageopacity="0.0"
     inkscape:pageshadow="2"
     inkscape:zoom="0.70710678"
     inkscape:cx="190.03935"
     inkscape:cy="432.82942"
     inkscape:document-units="mm"
     inkscape:current-layer="g3845"
     inkscape:document-rotation="0"
     showgrid="false"
     inkscape:snap-nodes="true"
     inkscape:snap-bbox="true"
     inkscape:snap-global="true"
     inkscape:object-paths="false"
     inkscape:object-nodes="false"
     inkscape:snap-intersection-paths="false"
     inkscape:snap-smooth-nodes="false"
     inkscape:snap-midpoints="false"
     inkscape:snap-bbox-midpoints="true"
     inkscape:bbox-paths="false"
     inkscape:window-width="1366"
     inkscape:window-height="697"
     inkscape:window-x="-8"
     inkscape:window-y="-8"
     inkscape:window-maximized="1" />
  <metadata
     id="metadata5">
    <rdf:RDF>
      <cc:Work
         rdf:about="">
        <dc:format>image/svg+xml</dc:format>
        <dc:type
           rdf:resource="http://purl.org/dc/dcmitype/StillImage" />
        <dc:title></dc:title>
      </cc:Work>
    </rdf:RDF>
  </metadata>
  <g
     inkscape:label="Layer 1"
     inkscape:groupmode="layer"
     id="layer1">
    <g
       id="g3950"
       transform="matrix(0.18278359,0,0,0.18278359,43.758106,85.489542)">
      <rect
         ry="2"
         rx="2.5448463"
         y="-23.162209"
         x="137.25494"
         height="130.32852"
         width="13.17851"
         id="rect888-4"
         style="fill:#272727;fill-opacity:1;stroke:#000000;stroke-width:7;stroke-linecap:butt;stroke-linejoin:miter;stroke-miterlimit:4;stroke-dasharray:none;stroke-opacity:1" />
    </g>
    <g
       id="g4013"
       transform="matrix(0.19704916,0,0,0.18204836,19.488461,96.696588)">
      <path
         sodipodi:nodetypes="ccccccccccc"
         inkscape:connector-curvature="0"
         id="path872"
         d="m 264.91825,221.80256 v 60 h 5.71988 v 10 c 0,2 -2,2 -2,2 h -24 c 0,0 -2,0 -2,-2 v -10 h 5.71989 v -60 z"
         style="fill:#323232;fill-opacity:1;stroke:#000000;stroke-width:8;stroke-miterlimit:10;stroke-dasharray:none;stroke-opacity:1"
         clip-path="none" />
    </g>
    <g
       id="g3845"
       transform="matrix(0.26458333,0,0,0.26458333,31.538209,75.689798)">
      <g
         id="g1019"
         transform="matrix(0.85846044,0,0,0.80417707,119.89467,43.992411)">
        <path
           style="fill:#000000;fill-opacity:1;stroke:none;stroke-width:11.8727;stroke-linecap:butt;stroke-linejoin:miter;stroke-miterlimit:4;stroke-dasharray:none;stroke-opacity:1;paint-order:stroke fill markers"
           d="m 0.58757496,106.68026 0.61642654,-1.34711 6.7028395,0.0893 0.5951947,2.71856 4.2654423,0.0568 0.623504,-2.70231 0.04246,-8.131332 -0.595194,-2.718557 -4.2654433,-0.05682 -0.6235031,2.70232 -6.7028389,-0.08928 -0.60227332,-1.363336 c -1.21858862,-0.03704 -1.24672381,5.350685 -1.24672381,5.350685 0,0 -0.0284821,5.45404 1.19010699,5.49108 z"
           id="path1000"
           inkscape:connector-curvature="0"
           sodipodi:nodetypes="cccccccccccccc"
           inkscape:transform-center-x="-1.765054"
           inkscape:transform-center-y="-1.6860485" />
        <path
           style="fill:#000000;fill-opacity:1;stroke:none;stroke-width:12.9065;stroke-linecap:butt;stroke-linejoin:miter;stroke-miterlimit:4;stroke-dasharray:none;stroke-opacity:1;paint-order:stroke fill markers"
           d="m 60.5743,95.580121 -0.729509,1.344967 -7.920867,-0.11255 -0.70122,-2.720625 -5.040551,-0.07162 -0.738938,2.700151 -0.05659,8.131186 0.70122,2.72063 5.040552,0.0716 0.738937,-2.70015 7.920867,0.11255 0.710652,1.36542 c 1.440011,0.0413 1.477498,-5.34636 1.477498,-5.34636 0,0 0.03796,-5.45394 -1.402063,-5.495208 z"
           id="path1000-2"
           inkscape:connector-curvature="0"
           sodipodi:nodetypes="cccccccccccccc"
           inkscape:transform-center-x="2.0877788"
           inkscape:transform-center-y="1.6757559" />
      </g>
      <path
         id="path4043"
         style="fill:#272727;fill-opacity:1;stroke:#000000;stroke-width:3.66556;stroke-linecap:round;stroke-linejoin:round;stroke-miterlimit:4;stroke-dasharray:none;stroke-opacity:1;paint-order:normal"
         d="m 145.55734,8.4280055 -7.02145,7.3772745 v 14.754544 l 7.02145,-7.377279 7.02146,7.377279 V 15.80528 Z"
         sodipodi:nodetypes="ccccccc" />
      <path
         style="fill:#79653c;fill-opacity:1;stroke:#000000;stroke-width:9.91662;stroke-miterlimit:10;stroke-dasharray:none;stroke-opacity:1"
         d="M 41.470588,63.411765 43.764705,68 v 122.08691 l -6.882352,4.58823 H 23.117647 l -6.882352,-4.58823 V 68 l 2.294117,-4.588235 z"
         id="path956-7"
         inkscape:connector-curvature="0"
         sodipodi:nodetypes="ccccccccc"
         clip-path="url(#clipPath958-9-5)"
         transform="matrix(1.1344471,0,0,1.3128424,111.77215,20.493577)" />
      <path
         style="fill:#7e6e4d;fill-opacity:1;stroke:#000000;stroke-width:13.3531;stroke-miterlimit:10;stroke-dasharray:none;stroke-opacity:1"
         d="M 41.470588,63.411765 43.764705,68 v 122.08691 l -6.882352,4.58823 H 23.117647 l -6.882352,-4.58823 V 68 l 2.294117,-4.588235 z"
         id="path956"
         inkscape:connector-curvature="0"
         sodipodi:nodetypes="ccccccccc"
         clip-path="url(#clipPath958-9)"
         transform="matrix(0.47790207,0,0,1.3054984,131.22425,21.380395)" />
      <path
         inkscape:connector-curvature="0"
         id="path970"
         d="m 139.98976,115.02034 h 11.05337"
         style="mix-blend-mode:overlay;fill:none;stroke:#211c0e;stroke-width:2.07251;stroke-linecap:butt;stroke-linejoin:miter;stroke-miterlimit:4;stroke-dasharray:none;stroke-opacity:1" />
      <path
         style="mix-blend-mode:overlay;fill:none;stroke:#211c0e;stroke-width:2.07251;stroke-linecap:butt;stroke-linejoin:miter;stroke-miterlimit:4;stroke-dasharray:none;stroke-opacity:1"
         d="m 139.98976,119.06666 h 11.05337"
         id="path972"
         inkscape:connector-curvature="0" />
      <path
         inkscape:connector-curvature="0"
         id="path974"
         d="m 139.98976,123.11298 h 11.05337"
         style="mix-blend-mode:overlay;fill:none;stroke:#211c0e;stroke-width:2.07251;stroke-linecap:butt;stroke-linejoin:miter;stroke-miterlimit:4;stroke-dasharray:none;stroke-opacity:1" />
      <path
         style="mix-blend-mode:overlay;fill:none;stroke:#211c0e;stroke-width:2.07251;stroke-linecap:butt;stroke-linejoin:miter;stroke-miterlimit:4;stroke-dasharray:none;stroke-opacity:1"
         d="m 139.98976,127.1593 h 11.05337"
         id="path976"
         inkscape:connector-curvature="0" />
      <path
         inkscape:connector-curvature="0"
         id="path978"
         d="m 139.98976,131.20562 h 11.05337"
         style="mix-blend-mode:overlay;fill:none;stroke:#211c0e;stroke-width:2.07251;stroke-linecap:butt;stroke-linejoin:miter;stroke-miterlimit:4;stroke-dasharray:none;stroke-opacity:1" />
      <path
         style="mix-blend-mode:overlay;fill:none;stroke:#211c0e;stroke-width:2.07251;stroke-linecap:butt;stroke-linejoin:miter;stroke-miterlimit:4;stroke-dasharray:none;stroke-opacity:1"
         d="m 139.98976,135.25195 h 11.05337"
         id="path980"
         inkscape:connector-curvature="0" />
      <path
         inkscape:connector-curvature="0"
         id="path982"
         d="m 139.98976,139.29828 h 11.05337"
         style="mix-blend-mode:overlay;fill:none;stroke:#211c0e;stroke-width:2.07251;stroke-linecap:butt;stroke-linejoin:miter;stroke-miterlimit:4;stroke-dasharray:none;stroke-opacity:1" />
      <path
         style="mix-blend-mode:overlay;fill:none;stroke:#211c0e;stroke-width:2.07251;stroke-linecap:butt;stroke-linejoin:miter;stroke-miterlimit:4;stroke-dasharray:none;stroke-opacity:1"
         d="m 139.98976,143.3446 h 11.05337"
         id="path984"
         inkscape:connector-curvature="0" />
      <path
         inkscape:connector-curvature="0"
         id="path986"
         d="m 139.98976,147.39092 h 11.05337"
         style="mix-blend-mode:overlay;fill:none;stroke:#211c0e;stroke-width:2.07251;stroke-linecap:butt;stroke-linejoin:miter;stroke-miterlimit:4;stroke-dasharray:none;stroke-opacity:1" />
      <path
         style="mix-blend-mode:overlay;fill:none;stroke:#211c0e;stroke-width:2.07251;stroke-linecap:butt;stroke-linejoin:miter;stroke-miterlimit:4;stroke-dasharray:none;stroke-opacity:1"
         d="m 139.98976,151.43724 h 11.05337"
         id="path988"
         inkscape:connector-curvature="0" />
      <path
         inkscape:connector-curvature="0"
         id="path990"
         d="m 139.98976,155.48357 h 11.05337"
         style="mix-blend-mode:overlay;fill:none;stroke:#211c0e;stroke-width:2.07251;stroke-linecap:butt;stroke-linejoin:miter;stroke-miterlimit:4;stroke-dasharray:none;stroke-opacity:1" />
      <path
         style="mix-blend-mode:overlay;fill:none;stroke:#211c0e;stroke-width:2.07251;stroke-linecap:butt;stroke-linejoin:miter;stroke-miterlimit:4;stroke-dasharray:none;stroke-opacity:1"
         d="m 139.98976,159.5299 h 11.05337"
         id="path992"
         inkscape:connector-curvature="0" />
      <path
         inkscape:connector-curvature="0"
         id="path998"
         d="m 139.98976,163.57621 h 11.05337"
         style="mix-blend-mode:overlay;fill:none;stroke:#211c0e;stroke-width:2.07251;stroke-linecap:butt;stroke-linejoin:miter;stroke-miterlimit:4;stroke-dasharray:none;stroke-opacity:1" />
      <path
         style="mix-blend-mode:overlay;fill:none;stroke:#211c0e;stroke-width:2.07251;stroke-linecap:butt;stroke-linejoin:miter;stroke-miterlimit:4;stroke-dasharray:none;stroke-opacity:1"
         d="m 139.98976,167.62253 h 11.05337"
         id="path968-9"
         inkscape:connector-curvature="0" />
      <path
         inkscape:connector-curvature="0"
         id="path970-8"
         d="m 139.98976,171.66886 h 11.05337"
         style="mix-blend-mode:overlay;fill:none;stroke:#211c0e;stroke-width:2.07251;stroke-linecap:butt;stroke-linejoin:miter;stroke-miterlimit:4;stroke-dasharray:none;stroke-opacity:1" />
      <path
         style="mix-blend-mode:overlay;fill:none;stroke:#211c0e;stroke-width:2.07251;stroke-linecap:butt;stroke-linejoin:miter;stroke-miterlimit:4;stroke-dasharray:none;stroke-opacity:1"
         d="m 139.98976,175.71518 h 11.05337"
         id="path972-3"
         inkscape:connector-curvature="0" />
      <path
         inkscape:connector-curvature="0"
         id="path974-8"
         d="m 139.98976,179.7615 h 11.05337"
         style="mix-blend-mode:overlay;fill:none;stroke:#211c0e;stroke-width:2.07251;stroke-linecap:butt;stroke-linejoin:miter;stroke-miterlimit:4;stroke-dasharray:none;stroke-opacity:1" />
      <path
         style="mix-blend-mode:overlay;fill:none;stroke:#211c0e;stroke-width:2.07251;stroke-linecap:butt;stroke-linejoin:miter;stroke-miterlimit:4;stroke-dasharray:none;stroke-opacity:1"
         d="m 139.98976,183.80782 h 11.05337"
         id="path976-1"
         inkscape:connector-curvature="0" />
      <path
         inkscape:connector-curvature="0"
         id="path978-8"
         d="m 139.98976,187.85414 h 11.05337"
         style="mix-blend-mode:overlay;fill:none;stroke:#211c0e;stroke-width:2.07251;stroke-linecap:butt;stroke-linejoin:miter;stroke-miterlimit:4;stroke-dasharray:none;stroke-opacity:1" />
      <path
         style="mix-blend-mode:overlay;fill:none;stroke:#211c0e;stroke-width:2.07251;stroke-linecap:butt;stroke-linejoin:miter;stroke-miterlimit:4;stroke-dasharray:none;stroke-opacity:1"
         d="m 139.98976,191.90047 h 11.05337"
         id="path980-1"
         inkscape:connector-curvature="0" />
      <path
         inkscape:connector-curvature="0"
         id="path982-1"
         d="m 139.98976,195.9468 h 11.05337"
         style="mix-blend-mode:overlay;fill:none;stroke:#211c0e;stroke-width:2.07251;stroke-linecap:butt;stroke-linejoin:miter;stroke-miterlimit:4;stroke-dasharray:none;stroke-opacity:1" />
      <path
         style="mix-blend-mode:overlay;fill:none;stroke:#211c0e;stroke-width:2.07251;stroke-linecap:butt;stroke-linejoin:miter;stroke-miterlimit:4;stroke-dasharray:none;stroke-opacity:1"
         d="m 139.98976,199.99312 h 11.05337"
         id="path984-9"
         inkscape:connector-curvature="0" />
      <path
         inkscape:connector-curvature="0"
         id="path986-1"
         d="m 139.98976,204.03944 h 11.05337"
         style="mix-blend-mode:overlay;fill:none;stroke:#211c0e;stroke-width:2.07251;stroke-linecap:butt;stroke-linejoin:miter;stroke-miterlimit:4;stroke-dasharray:none;stroke-opacity:1" />
      <path
         style="mix-blend-mode:overlay;fill:none;stroke:#211c0e;stroke-width:2.07251;stroke-linecap:butt;stroke-linejoin:miter;stroke-miterlimit:4;stroke-dasharray:none;stroke-opacity:1"
         d="m 139.98976,208.08576 h 11.05337"
         id="path988-7"
         inkscape:connector-curvature="0" />
      <rect
         y="-148.37988"
         x="210.99025"
         height="5.8394713"
         width="4.8511519"
         id="rect1037-8"
         style="fill:#323232;fill-opacity:1;stroke:#000000;stroke-width:2.76334;stroke-linecap:butt;stroke-linejoin:miter;stroke-miterlimit:10;stroke-dasharray:none;stroke-opacity:1"
         transform="rotate(90)" />
      <path
         id="path4381-1-1"
         style="fill:#000000;fill-opacity:1;stroke:none;stroke-width:31.2524;stroke-linecap:round;stroke-linejoin:round;stroke-miterlimit:10;stroke-dasharray:none;stroke-opacity:1;paint-order:markers fill stroke"
         d="m 138.41977,114.02572 -0.0162,3.11568 c -0.007,1.4022 -0.0915,3.03575 -1.0444,3.38458 -0.46182,0.16906 -1.09247,-0.30156 -1.09243,-1.11633 l 1.7e-4,-2.86879 c 1.2e-4,-1.97663 0.27049,-3.24844 1.03855,-3.4876 0.99013,0 1.11424,0.45531 1.11424,0.97246 z"
         sodipodi:nodetypes="csssscc" />
      <path
         id="path4381-1-16"
         style="fill:#000000;fill-opacity:1;stroke:none;stroke-width:31.2524;stroke-linecap:round;stroke-linejoin:round;stroke-miterlimit:10;stroke-dasharray:none;stroke-opacity:1;paint-order:markers fill stroke"
         d="m 138.41977,123.69741 -0.0162,3.11568 c -0.007,1.40221 -0.0915,3.03576 -1.0444,3.38459 -0.46182,0.16906 -1.09247,-0.30156 -1.09243,-1.11634 l 1.8e-4,-2.86879 c 1.2e-4,-1.97662 0.27049,-3.24843 1.03855,-3.48759 0.99012,0 1.11424,0.4553 1.11424,0.97245 z"
         sodipodi:nodetypes="csssscc" />
      <path
         id="path4381-1-5"
         style="fill:#000000;fill-opacity:1;stroke:none;stroke-width:31.2524;stroke-linecap:round;stroke-linejoin:round;stroke-miterlimit:10;stroke-dasharray:none;stroke-opacity:1;paint-order:markers fill stroke"
         d="m 138.41977,133.36911 -0.0162,3.11568 c -0.007,1.40221 -0.0915,3.03576 -1.0444,3.38459 -0.46182,0.16906 -1.09247,-0.30156 -1.09243,-1.11634 l 1.8e-4,-2.86879 c 1.2e-4,-1.97663 0.27049,-3.24843 1.03855,-3.4876 0.99012,0 1.11424,0.45531 1.11424,0.97246 z"
         sodipodi:nodetypes="csssscc" />
      <path
         id="path4381-1-5-6"
         style="fill:#000000;fill-opacity:1;stroke:none;stroke-width:31.2524;stroke-linecap:round;stroke-linejoin:round;stroke-miterlimit:10;stroke-dasharray:none;stroke-opacity:1;paint-order:markers fill stroke"
         d="m 138.41977,143.04081 -0.0162,3.11568 c -0.007,1.40221 -0.0915,3.03576 -1.0444,3.38459 -0.46182,0.16905 -1.09247,-0.30156 -1.09243,-1.11634 l 1.8e-4,-2.86879 c 1.2e-4,-1.97663 0.27049,-3.24843 1.03855,-3.4876 0.99012,0 1.11424,0.45531 1.11424,0.97246 z"
         sodipodi:nodetypes="csssscc" />
      <path
         id="path4381-1-5-68"
         style="fill:#000000;fill-opacity:1;stroke:none;stroke-width:31.2524;stroke-linecap:round;stroke-linejoin:round;stroke-miterlimit:10;stroke-dasharray:none;stroke-opacity:1;paint-order:markers fill stroke"
         d="m 138.41977,152.71251 -0.0162,3.11568 c -0.007,1.40221 -0.0915,3.03576 -1.0444,3.38459 -0.46182,0.16905 -1.09247,-0.30156 -1.09243,-1.11634 l 1.8e-4,-2.86879 c 1.2e-4,-1.97663 0.27049,-3.24843 1.03855,-3.4876 0.99012,0 1.11424,0.45531 1.11424,0.97246 z"
         sodipodi:nodetypes="csssscc" />
      <path
         id="path4381-1-1-8"
         style="fill:#000000;fill-opacity:1;stroke:none;stroke-width:31.2524;stroke-linecap:round;stroke-linejoin:round;stroke-miterlimit:10;stroke-dasharray:none;stroke-opacity:1;paint-order:markers fill stroke"
         d="m 154.94223,158.26244 -0.0162,-3.11567 c -0.007,-1.40221 -0.0915,-3.03576 -1.0444,-3.38459 -0.46182,-0.16906 -1.09247,0.30156 -1.09243,1.11634 l 1.7e-4,2.86879 c 1.2e-4,1.97663 0.27049,3.24843 1.03855,3.48759 0.99013,0 1.11424,-0.45531 1.11424,-0.97246 z"
         sodipodi:nodetypes="csssscc" />
      <path
         id="path4381-1-16-7"
         style="fill:#000000;fill-opacity:1;stroke:none;stroke-width:31.2524;stroke-linecap:round;stroke-linejoin:round;stroke-miterlimit:10;stroke-dasharray:none;stroke-opacity:1;paint-order:markers fill stroke"
         d="m 154.94223,148.59075 -0.0162,-3.11568 c -0.007,-1.40221 -0.0915,-3.03576 -1.0444,-3.38459 -0.46182,-0.16905 -1.09247,0.30156 -1.09243,1.11634 l 1.7e-4,2.86879 c 1.3e-4,1.97663 0.2705,3.24843 1.03856,3.4876 0.99012,0 1.11424,-0.45531 1.11424,-0.97246 z"
         sodipodi:nodetypes="csssscc" />
      <path
         id="path4381-1-5-0"
         style="fill:#000000;fill-opacity:1;stroke:none;stroke-width:31.2524;stroke-linecap:round;stroke-linejoin:round;stroke-miterlimit:10;stroke-dasharray:none;stroke-opacity:1;paint-order:markers fill stroke"
         d="m 154.94223,138.91905 -0.0162,-3.11568 c -0.007,-1.40221 -0.0915,-3.03576 -1.0444,-3.38459 -0.46182,-0.16905 -1.09247,0.30156 -1.09243,1.11634 l 1.7e-4,2.86879 c 1.3e-4,1.97663 0.2705,3.24843 1.03856,3.4876 0.99012,0 1.11424,-0.45531 1.11424,-0.97246 z"
         sodipodi:nodetypes="csssscc" />
      <path
         id="path4381-1-5-6-2"
         style="fill:#000000;fill-opacity:1;stroke:none;stroke-width:31.2524;stroke-linecap:round;stroke-linejoin:round;stroke-miterlimit:10;stroke-dasharray:none;stroke-opacity:1;paint-order:markers fill stroke"
         d="m 154.94223,129.24735 -0.0162,-3.11568 c -0.007,-1.4022 -0.0915,-3.03575 -1.0444,-3.38458 -0.46182,-0.16906 -1.09247,0.30155 -1.09243,1.11633 l 1.7e-4,2.86879 c 1.3e-4,1.97663 0.2705,3.24844 1.03856,3.4876 0.99012,0 1.11424,-0.45531 1.11424,-0.97246 z"
         sodipodi:nodetypes="csssscc" />
      <path
         id="path4381-1-5-68-8"
         style="fill:#000000;fill-opacity:1;stroke:none;stroke-width:31.2524;stroke-linecap:round;stroke-linejoin:round;stroke-miterlimit:10;stroke-dasharray:none;stroke-opacity:1;paint-order:markers fill stroke"
         d="m 154.94223,119.57565 -0.0162,-3.11567 c -0.007,-1.40221 -0.0915,-3.03576 -1.0444,-3.38459 -0.46182,-0.16906 -1.09247,0.30155 -1.09243,1.11633 l 1.7e-4,2.86879 c 1.3e-4,1.97663 0.2705,3.24844 1.03856,3.4876 0.99012,0 1.11424,-0.45531 1.11424,-0.97246 z"
         sodipodi:nodetypes="csssscc" />
      <path
         id="path4381-1-5-68-1"
         style="fill:#000000;fill-opacity:1;stroke:none;stroke-width:31.2524;stroke-linecap:round;stroke-linejoin:round;stroke-miterlimit:10;stroke-dasharray:none;stroke-opacity:1;paint-order:markers fill stroke"
         d="m 138.41977,162.38421 -0.0162,3.11568 c -0.007,1.4022 -0.0915,3.03575 -1.0444,3.38458 -0.46182,0.16906 -1.09247,-0.30155 -1.09243,-1.11633 l 1.8e-4,-2.86879 c 1.2e-4,-1.97663 0.27049,-3.24844 1.03855,-3.4876 0.99012,0 1.11424,0.45531 1.11424,0.97246 z"
         sodipodi:nodetypes="csssscc" />
      <path
         id="path4381-1-1-8-8"
         style="fill:#000000;fill-opacity:1;stroke:none;stroke-width:31.2524;stroke-linecap:round;stroke-linejoin:round;stroke-miterlimit:10;stroke-dasharray:none;stroke-opacity:1;paint-order:markers fill stroke"
         d="m 154.94223,167.93414 -0.0162,-3.11567 c -0.007,-1.40221 -0.0915,-3.03576 -1.0444,-3.38459 -0.46182,-0.16906 -1.09247,0.30156 -1.09243,1.11634 l 1.7e-4,2.86878 c 1.2e-4,1.97663 0.27049,3.24843 1.03855,3.4876 0.99013,0 1.11424,-0.45531 1.11424,-0.97246 z"
         sodipodi:nodetypes="csssscc" />
      <path
         id="path4619"
         style="fill:#000000;fill-opacity:1;stroke:none;stroke-width:10.1855;stroke-linecap:round;stroke-linejoin:round;stroke-miterlimit:10;stroke-dasharray:none;stroke-opacity:1;paint-order:markers fill stroke"
         inkscape:transform-center-x="-1.2818864"
         inkscape:transform-center-y="1.7125291"
         d="m 154.80232,174.34791 c 0,0.0364 -4.7e-4,45.66782 -0.001,45.70392 -0.0405,1.56833 -0.95389,2.82219 -2.07469,2.82219 -1.1079,1e-5 -2.07296,-1.18044 -2.07296,-2.76815 0,-0.054 -0.003,-45.70333 -0.003,-45.75796 0,-1.61873 0.9295,-2.93098 2.0761,-2.93097 1.1466,1e-5 2.0761,1.31224 2.0761,2.93097 z"
         sodipodi:nodetypes="ssssssss" />
      <path
         id="rect4625"
         style="fill:#000000;fill-opacity:1;stroke:none;stroke-width:13.1334;stroke-linecap:round;stroke-linejoin:round;stroke-miterlimit:10;stroke-dasharray:none;stroke-opacity:1;paint-order:markers fill stroke"
         d="m 154.51164,173.44521 8.29412,-1.68391 c 1.1241,-0.22822 2.07046,0.61623 2.07046,1.38167 v 1.7055 c 0,0.76545 -0.94636,1.15346 -2.07046,1.38167 l -8.29412,1.68392 c -1.1241,0.22821 -2.07046,-0.61623 -2.07046,-1.38168 v -1.7055 c 0,-0.76544 0.94636,-1.15345 2.07046,-1.38167 z"
         sodipodi:nodetypes="sssssssss" />
      <rect
         style="fill:#000000;fill-opacity:1;stroke:none;stroke-width:8.80214;stroke-linecap:round;stroke-linejoin:round;stroke-miterlimit:10;stroke-dasharray:none;stroke-opacity:1;paint-order:markers fill stroke"
         id="rect4628"
         width="8.6090994"
         height="3.1754327"
         x="161.77052"
         y="171.65337"
         rx="1.4743845"
         ry="1.0264025" />
    </g>
  </g>
</svg>
