<?xml version="1.0" encoding="UTF-8" standalone="no"?>
<svg
   width="120"
   height="120"
   viewBox="0 0 31.75 31.75"
   version="1.1"
   id="svg4"
   sodipodi:docname="map-stone-res-01l.svg"
   inkscape:version="1.4.2 (ebf0e940d0, 2025-05-08)"
   xml:space="preserve"
   xmlns:inkscape="http://www.inkscape.org/namespaces/inkscape"
   xmlns:sodipodi="http://sodipodi.sourceforge.net/DTD/sodipodi-0.dtd"
   xmlns="http://www.w3.org/2000/svg"
   xmlns:svg="http://www.w3.org/2000/svg"
   xmlns:rdf="http://www.w3.org/1999/02/22-rdf-syntax-ns#"
   xmlns:cc="http://creativecommons.org/ns#"
   xmlns:dc="http://purl.org/dc/elements/1.1/"><metadata
     id="metadata10"><rdf:RDF><cc:Work
         rdf:about=""><dc:format>image/svg+xml</dc:format><dc:type
           rdf:resource="http://purl.org/dc/dcmitype/StillImage" /></cc:Work></rdf:RDF></metadata><defs
     id="defs8"><clipPath
       clipPathUnits="userSpaceOnUse"
       id="clipPath847"><path
         inkscape:connector-curvature="0"
         style="fill:#6c6c6c;fill-opacity:1;stroke:#2d2d2d;stroke-width:2.48946452;stroke-miterlimit:4;stroke-dasharray:none"
         d="m 44.149071,2.3893563 c 9.800254,1.9820025 14.075238,3.7690213 19.882371,9.9024657 5.807128,6.131363 9.83633,15.359928 10.301901,25.159719 0.467646,9.797714 -2.986362,20.045238 -9.25282,26.581893 -6.264386,6.536661 -15.33915,9.358297 -24.203647,9.825943 C 32.010297,74.324948 25.506244,73.987927 19.430997,70.64997 13.35575,67.312016 7.7155479,60.977277 5.3419822,56.043087 2.9684168,51.110975 1.9541436,45.910746 1.8356731,40.192989 1.7192811,34.475232 2.494535,27.163818 4.9741005,21.647667 7.4536657,16.133596 10.909038,12.301686 15.038875,9.0343958 19.166634,5.767106 22.530555,4.4965033 27.092706,3.2785442 32.056411,2.5086953 34.855608,1.7986587 44.149071,2.3893563 Z"
         id="path849"
         sodipodi:nodetypes="cccccscccccc" /></clipPath></defs><sodipodi:namedview
     pagecolor="#ffffff"
     bordercolor="#666666"
     borderopacity="1"
     objecttolerance="10"
     gridtolerance="10"
     guidetolerance="10"
     inkscape:pageopacity="0"
     inkscape:pageshadow="2"
     inkscape:window-width="1920"
     inkscape:window-height="1017"
     id="namedview6"
     showgrid="false"
     inkscape:zoom="1.9666667"
     inkscape:cx="60.254236"
     inkscape:cy="59.745762"
     inkscape:window-x="0"
     inkscape:window-y="0"
     inkscape:window-maximized="1"
     inkscape:current-layer="svg4"
     inkscape:showpageshadow="2"
     inkscape:pagecheckerboard="0"
     inkscape:deskcolor="#d1d1d1" /><path
     d="M18.562.622c2.674.451 5.866 1.648 8.35 4.27 2.482 2.623 4.256 6.67 4.456 10.86.2 4.19-1.176 8.52-3.855 11.316-2.679 2.795-6.661 4.053-10.452 4.253-3.79.2-7.388-.66-9.986-2.087-2.597-1.427-4.193-3.422-5.208-5.532C.852 21.593.419 19.37.368 16.925c-.05-2.445.282-5.112 1.342-7.47C2.77 7.097 4.554 5.05 6.32 3.653 8.083 2.256 9.83 1.509 11.78.988 13.73.467 15.887.17 18.562.622z"
     fill="#2d4a17"
     fill-opacity=".704"
     id="path2"
     style="fill:#d58111;fill-opacity:1" /></svg>
