<?xml version="1.0" encoding="UTF-8" standalone="no"?>
<svg
   width="144"
   height="144"
   viewBox="0 0 38.1 38.1"
   version="1.1"
   id="svg7"
   sodipodi:docname="map-vat-10.svg"
   xml:space="preserve"
   inkscape:version="1.4.2 (ebf0e940d0, 2025-05-08)"
   xmlns:inkscape="http://www.inkscape.org/namespaces/inkscape"
   xmlns:sodipodi="http://sodipodi.sourceforge.net/DTD/sodipodi-0.dtd"
   xmlns="http://www.w3.org/2000/svg"
   xmlns:svg="http://www.w3.org/2000/svg"><sodipodi:namedview
     id="namedview7"
     pagecolor="#ffffff"
     bordercolor="#000000"
     borderopacity="0.25"
     inkscape:showpageshadow="2"
     inkscape:pageopacity="0.0"
     inkscape:pagecheckerboard="0"
     inkscape:deskcolor="#d1d1d1"
     inkscape:zoom="1.9911931"
     inkscape:cx="6.2776433"
     inkscape:cy="44.947926"
     inkscape:window-width="1920"
     inkscape:window-height="1017"
     inkscape:window-x="0"
     inkscape:window-y="0"
     inkscape:window-maximized="1"
     inkscape:current-layer="svg7" /><defs
     id="defs1"><clipPath
       id="a"><circle
         r="16.933"
         cy="49.741"
         cx="-71.967"
         fill="#0097f0"
         fill-opacity=".586"
         stroke-width="1.881"
         id="circle1" /></clipPath></defs><g
     fill="#ffffff"
     id="g2"
     transform="matrix(0.21348431,0,0,0.21348431,5.6722515,6.4288657)"><path
       d="m 47.38,31.936 c -11.096,0 -20.025,9.322 -20.025,21.22 0,12.952 10.53,21.642 26.115,34.797 7.724,6.513 8.203,6.113 10.53,8.111 2.22,-1.905 2.763,-1.358 10.769,-8.117 12.384,-10.453 25.876,-20.648 25.876,-34.79 0,-11.899 -8.693,-21.221 -19.79,-21.221 -8.68,0 -14.01,5.568 -16.855,10.235 C 61.158,37.504 56.062,31.936 47.38,31.936 Z"
       id="path1-5" /><path
       d="m 105.247,44.15 c 0.91,2.824 1.505,5.817 1.505,9.007 0,12.7 -8.176,22.113 -17.785,30.692 8.223,0 17.725,-0.027 16.95,-0.027 a 9.161,9.161 0 0 0 9.162,-9.161 c -1.383,0 -8.834,0.027 -8.039,0.027 v -6.107 h 6.108 a 9.161,9.161 0 0 0 9.16,-9.162 h -9.16 v -6.107 h 6.77 a 6.107,6.107 0 0 0 6.108,-6.108 v -3.053 h -20.78 z m -83.999,9.007 c 0,-3.19 0.6,-6.183 1.52,-9.006 H 1.975 v 3.053 a 6.107,6.107 0 0 0 6.107,6.108 h 6.77 v 6.107 h -9.16 a 9.161,9.161 0 0 0 9.16,9.161 h 6.108 v 6.108 h -8.066 c 0,4.986 4.175,9.161 9.161,9.161 H 39.351 C 28.481,74.122 21.248,65.438 21.248,53.157 Z"
       id="path2-1" /></g><circle
     cx="15.001"
     cy="30.023"
     r="1.113"
     fill="none"
     stroke="#292929"
     stroke-width=".403"
     stroke-opacity=".706"
     id="circle3" /><circle
     r="1.451"
     cy="21.062"
     cx="31.25"
     fill="none"
     stroke="#292929"
     stroke-width=".525"
     stroke-opacity=".706"
     id="circle4" /><circle
     cx="18.75"
     cy="6.534"
     r=".726"
     fill="none"
     stroke="#292929"
     stroke-width=".263"
     stroke-opacity=".706"
     id="circle5" /><circle
     r="1.862"
     cy="14.584"
     cx="7.591"
     fill="none"
     stroke="#292929"
     stroke-width=".674"
     stroke-opacity=".706"
     id="circle6" /><circle
     cx="-71.967"
     cy="49.741"
     r="16.933"
     clip-path="url(#a)"
     transform="matrix(1 0 0 1 91.017 -30.691)"
     fill="#0097f0"
     fill-opacity=".584"
     stroke="#191919"
     stroke-width="3.175"
     id="circle7" /></svg>
