<?xml version="1.0" encoding="UTF-8" standalone="no"?>
<svg
   width="144"
   height="144"
   viewBox="0 0 38.1 38.1"
   version="1.1"
   id="svg7"
   sodipodi:docname="map-vat-07.svg"
   xml:space="preserve"
   inkscape:version="1.4.2 (ebf0e940d0, 2025-05-08)"
   xmlns:inkscape="http://www.inkscape.org/namespaces/inkscape"
   xmlns:sodipodi="http://sodipodi.sourceforge.net/DTD/sodipodi-0.dtd"
   xmlns="http://www.w3.org/2000/svg"
   xmlns:svg="http://www.w3.org/2000/svg"><sodipodi:namedview
     id="namedview7"
     pagecolor="#ffffff"
     bordercolor="#000000"
     borderopacity="0.25"
     inkscape:showpageshadow="2"
     inkscape:pageopacity="0.0"
     inkscape:pagecheckerboard="0"
     inkscape:deskcolor="#d1d1d1"
     inkscape:zoom="1.9911931"
     inkscape:cx="6.2776433"
     inkscape:cy="44.947926"
     inkscape:window-width="1920"
     inkscape:window-height="1017"
     inkscape:window-x="0"
     inkscape:window-y="0"
     inkscape:window-maximized="1"
     inkscape:current-layer="svg7" /><defs
     id="defs1"><clipPath
       id="a"><circle
         r="16.933"
         cy="49.741"
         cx="-71.967"
         fill="#0097f0"
         fill-opacity=".586"
         stroke-width="1.881"
         id="circle1" /></clipPath></defs><g
     style="fill:none"
     id="g1"
     transform="matrix(0,-0.23150409,0.23150409,0,2.0550471,33.805974)"><path
       d="M 32,46.5022 C 32,63.8992 46.103,78.0017 63.5,78.0011 80.897,78.0005 95,63.897 95,46.5 95,29.103 80.897,15.0005 63.5,15.0011 46.103,15.0017 32,29.1052 32,46.5022 Z"
       fill="#084d40"
       id="path1-9" /><path
       fill-rule="evenodd"
       clip-rule="evenodd"
       d="M 64,12.0012 C 82.7777,12.0005 98,27.2223 98,46 98,64.7777 82.7777,80.0005 64,80.0012 45.2223,80.0018 30,64.7801 30,46.0024 30,27.2247 45.2223,12.0018 64,12.0012 Z m 28.8097,33.999 C 92.8097,30.089 79.9112,17.1909 64,17.1915 48.0888,17.192 35.1903,30.091 35.1903,46.0022 35.1903,61.9134 48.0888,74.8115 64,74.8109 79.9112,74.8104 92.8097,61.9114 92.8097,46.0002 Z"
       fill="#000000"
       id="path2-0" /><path
       d="m 63,29 c 22.6437,0 41,18.3683 41,41 0,22.6317 -18.3563,41 -41,41 C 40.3563,111 22,92.6317 22,70 22,47.3683 40.3563,29 63,29 Z"
       fill="#21c7a8"
       id="path3-9" /><path
       fill-rule="evenodd"
       clip-rule="evenodd"
       d="m 38.8072,43.3555 c 0.8954,0 1.624,0.7286 1.624,1.624 0,0.8954 -0.7286,1.6241 -1.624,1.6241 -0.8954,0 -1.6241,-0.7287 -1.6241,-1.6241 0,-0.9015 0.7225,-1.624 1.6241,-1.624 z"
       fill="#12806b"
       id="path4" /><path
       fill-rule="evenodd"
       clip-rule="evenodd"
       d="m 38.4962,43.627 c 0.5187,0 0.9387,0.4199 0.9387,0.9386 0,0.5187 -0.42,0.9386 -0.9387,0.9386 -0.5187,0 -0.9386,-0.4199 -0.9386,-0.9386 0,-0.5126 0.4199,-0.9386 0.9386,-0.9386 z"
       fill="#8fe8d9"
       id="path5-8" /><path
       fill-rule="evenodd"
       clip-rule="evenodd"
       d="m 31.1397,53.2305 c 0.8954,0 1.624,0.7286 1.624,1.624 0,0.8954 -0.7286,1.6241 -1.624,1.6241 -0.8954,0 -1.6241,-0.7287 -1.6241,-1.6241 0,-0.8954 0.7287,-1.624 1.6241,-1.624 z"
       fill="#12806b"
       id="path6-8" /><path
       fill-rule="evenodd"
       clip-rule="evenodd"
       d="m 30.8371,53.5078 c 0.5187,0 0.9386,0.4199 0.9386,0.9386 0,0.5187 -0.4199,0.9386 -0.9386,0.9386 -0.5187,0 -0.9386,-0.4199 -0.9386,-0.9386 -0.0062,-0.5187 0.4199,-0.9386 0.9386,-0.9386 z"
       fill="#8fe8d9"
       id="path7-5" /><path
       fill-rule="evenodd"
       clip-rule="evenodd"
       d="m 49.9888,103.046 c 0.8954,0 1.6241,0.729 1.6241,1.624 0,0.895 -0.7287,1.624 -1.6241,1.624 -0.8954,0 -1.6241,-0.729 -1.6241,-1.624 0,-0.895 0.7287,-1.624 1.6241,-1.624 z"
       fill="#12806b"
       id="path8" /><path
       fill-rule="evenodd"
       clip-rule="evenodd"
       d="m 49.6862,103.323 c 0.5188,0 0.9387,0.42 0.9387,0.939 0,0.519 -0.4199,0.938 -0.9387,0.938 -0.5187,0 -0.9386,-0.419 -0.9386,-0.938 -0.0062,-0.519 0.4199,-0.939 0.9386,-0.939 z"
       fill="#8fe8d9"
       id="path9" /><path
       fill-rule="evenodd"
       clip-rule="evenodd"
       d="m 40.0513,97.6611 c 0.8954,0 1.6241,0.7287 1.6241,1.6241 0,0.8958 -0.7287,1.6238 -1.6241,1.6238 -0.8954,0 -1.6241,-0.728 -1.6241,-1.6238 0,-0.8954 0.7287,-1.6241 1.6241,-1.6241 z"
       fill="#12806b"
       id="path10-8" /><path
       fill-rule="evenodd"
       clip-rule="evenodd"
       d="m 39.7404,97.9385 c 0.5187,0 0.9386,0.4199 0.9386,0.9386 0,0.5187 -0.4199,0.9386 -0.9386,0.9386 -0.5187,0 -0.9386,-0.4199 -0.9386,-0.9386 0,-0.5187 0.4199,-0.9386 0.9386,-0.9386 z"
       fill="#8fe8d9"
       id="path11-4" /><path
       fill-rule="evenodd"
       clip-rule="evenodd"
       d="m 33.2012,90.54 c 0.8954,0 1.6241,0.7287 1.6241,1.6241 0,0.8954 -0.7287,1.6241 -1.6241,1.6241 -0.8954,0 -1.6241,-0.7287 -1.6241,-1.6241 0,-0.8954 0.7287,-1.6241 1.6241,-1.6241 z"
       fill="#12806b"
       id="path12-3" /><path
       fill-rule="evenodd"
       clip-rule="evenodd"
       d="m 32.8903,90.8174 c 0.5187,0 0.9386,0.4199 0.9386,0.9386 0,0.5187 -0.4199,0.9386 -0.9386,0.9386 -0.5187,0 -0.9386,-0.4199 -0.9386,-0.9386 0,-0.5187 0.4199,-0.9386 0.9386,-0.9386 z"
       fill="#8fe8d9"
       id="path13-7" /><path
       fill-rule="evenodd"
       clip-rule="evenodd"
       d="m 50.628,36.5137 c 0.8954,0 1.624,0.7286 1.624,1.624 0,0.8954 -0.7286,1.6241 -1.624,1.6241 -0.8954,0 -1.6241,-0.7287 -1.6241,-1.6241 0,-0.8954 0.7287,-1.624 1.6241,-1.624 z"
       fill="#12806b"
       id="path14-1" /><path
       fill-rule="evenodd"
       clip-rule="evenodd"
       d="m 50.3254,36.791 c 0.5187,0 0.9386,0.4199 0.9386,0.9386 0,0.5187 -0.4199,0.9387 -0.9386,0.9387 -0.5187,0 -0.9386,-0.42 -0.9386,-0.9387 -0.0062,-0.5187 0.4137,-0.9386 0.9386,-0.9386 z"
       fill="#8fe8d9"
       id="path15-3" /><path
       fill-rule="evenodd"
       clip-rule="evenodd"
       d="m 87.3253,60.2662 c 1.8553,8.4774 1.6546,15.9882 0,22.8185 -2.0859,8.6076 -19.6135,9.2397 -22.1939,0 -2.1231,-7.6074 -2.5581,-15.2149 0,-22.8185 3.2609,-9.6859 20.3757,-8.3102 22.1939,0 z"
       fill="#084d40"
       id="path16-8" /><path
       fill-rule="evenodd"
       clip-rule="evenodd"
       d="m 86.3171,60.4793 c 1.6917,8.0238 1.5096,15.1367 0,21.6026 -1.9,8.1466 -17.8696,8.7452 -20.2195,0 -1.9335,-7.2021 -2.3313,-14.4005 0,-21.6026 2.9708,-9.1654 18.5649,-7.864 20.2195,0 z"
       fill="#12806b"
       id="path17" /><path
       fill-rule="evenodd"
       clip-rule="evenodd"
       d="m 84.7671,63.4653 c 1.4352,6.9939 1.2827,13.1921 0,18.8251 -1.6137,7.0981 -15.1777,7.6223 -17.1781,0 -1.6434,-6.2763 -1.9818,-12.5488 0,-18.8251 2.5247,-7.9904 15.7689,-6.8564 17.1781,0 z"
       fill="#c2e8fa"
       id="path18" /><path
       fill-rule="evenodd"
       clip-rule="evenodd"
       d="m 83.7845,64.5518 c 0.264,1.2902 0.4722,2.5544 0.6247,3.7889 -1.9818,-4.8895 -6.7597,-8.3437 -12.3481,-8.3883 4.551,-1.755 10.805,0.1339 11.7234,4.5994 z"
       fill="#ffffff"
       id="path19" /><path
       fill-rule="evenodd"
       clip-rule="evenodd"
       d="m 60.712,60.271 c 1.8554,8.4775 1.6546,15.9882 0,22.8185 -2.0859,8.6076 -19.6135,9.2397 -22.1939,0 -2.1231,-7.6074 -2.5581,-15.2148 0,-22.8185 3.2609,-9.6858 20.3757,-8.3101 22.1939,0 z"
       fill="#084d40"
       id="path20" /><path
       fill-rule="evenodd"
       clip-rule="evenodd"
       d="m 59.7038,60.4841 c 1.6918,8.0239 1.5096,15.1368 0,21.6027 -1.9,8.1466 -17.8696,8.7452 -20.2195,0 -1.9335,-7.2021 -2.3313,-14.4005 0,-21.6027 2.9708,-9.1653 18.5649,-7.8639 20.2195,0 z"
       fill="#12806b"
       id="path21" /><path
       fill-rule="evenodd"
       clip-rule="evenodd"
       d="m 58.1538,63.4701 c 1.4352,6.994 1.2828,13.1922 0,18.8252 -1.6137,7.098 -15.1777,7.6223 -17.178,0 -1.6435,-6.2763 -1.9818,-12.5489 0,-18.8252 2.5246,-7.9903 15.7688,-6.8563 17.178,0 z"
       fill="#c2e8fa"
       id="path22" /><path
       fill-rule="evenodd"
       clip-rule="evenodd"
       d="m 57.1712,64.5567 c 0.264,1.2902 0.4723,2.5544 0.6247,3.7888 -1.9818,-4.8894 -6.7597,-8.3436 -12.3481,-8.3882 4.5511,-1.755 10.8051,0.1339 11.7234,4.5994 z"
       fill="#ffffff"
       id="path23" /><path
       fill-rule="evenodd"
       clip-rule="evenodd"
       d="m 96.8682,62.0117 c 0.8954,0 1.6241,0.7287 1.6241,1.6241 0,0.8954 -0.7287,1.624 -1.6241,1.624 -0.8954,0 -1.624,-0.7286 -1.624,-1.624 -0.0062,-0.9016 0.7225,-1.6241 1.624,-1.6241 z"
       fill="#12806b"
       id="path24" /><path
       fill-rule="evenodd"
       clip-rule="evenodd"
       d="m 96.5573,62.2832 c 0.5187,0 0.9386,0.4199 0.9386,0.9386 0,0.5187 -0.4199,0.9386 -0.9386,0.9386 -0.5187,0 -0.9386,-0.4199 -0.9386,-0.9386 0,-0.5125 0.4199,-0.9386 0.9386,-0.9386 z"
       fill="#8fe8d9"
       id="path25" /><path
       fill-rule="evenodd"
       clip-rule="evenodd"
       d="m 93.8023,51.6064 c 0.8954,0 1.624,0.7287 1.624,1.6241 0,0.8954 -0.7286,1.6241 -1.624,1.6241 -0.8954,0 -1.6241,-0.7287 -1.6241,-1.6241 0,-0.8954 0.7225,-1.6241 1.6241,-1.6241 z"
       fill="#12806b"
       id="path26" /><path
       fill-rule="evenodd"
       clip-rule="evenodd"
       d="m 93.4914,51.8838 c 0.5187,0 0.9386,0.4199 0.9386,0.9386 0,0.5187 -0.4199,0.9386 -0.9386,0.9386 -0.5188,0 -0.9387,-0.4199 -0.9387,-0.9386 0,-0.5187 0.4199,-0.9386 0.9387,-0.9386 z"
       fill="#8fe8d9"
       id="path27" /><path
       fill-rule="evenodd"
       clip-rule="evenodd"
       d="m 86.148,42.8184 c 0.8954,0 1.6241,0.7286 1.6241,1.624 0,0.8954 -0.7287,1.6241 -1.6241,1.6241 -0.8954,0 -1.624,-0.7287 -1.624,-1.6241 -0.0062,-0.8954 0.7225,-1.624 1.624,-1.624 z"
       fill="#12806b"
       id="path28" /><path
       fill-rule="evenodd"
       clip-rule="evenodd"
       d="m 85.8371,43.0957 c 0.5187,0 0.9386,0.4199 0.9386,0.9386 0,0.5187 -0.4199,0.9386 -0.9386,0.9386 -0.5188,0 -0.9387,-0.4199 -0.9387,-0.9386 0,-0.5187 0.4199,-0.9386 0.9387,-0.9386 z"
       fill="#8fe8d9"
       id="path29" /><path
       fill-rule="evenodd"
       clip-rule="evenodd"
       d="m 76.4405,36.8604 c 0.8954,0 1.624,0.7286 1.624,1.624 0,0.8954 -0.7286,1.6241 -1.624,1.6241 -0.8954,0 -1.6241,-0.7287 -1.6241,-1.6241 0,-0.8954 0.7225,-1.624 1.6241,-1.624 z"
       fill="#12806b"
       id="path30" /><path
       fill-rule="evenodd"
       clip-rule="evenodd"
       d="m 76.1295,37.1318 c 0.5187,0 0.9387,0.4199 0.9387,0.9387 0,0.5187 -0.42,0.9386 -0.9387,0.9386 -0.5187,0 -0.9386,-0.4199 -0.9386,-0.9386 0,-0.5126 0.4199,-0.9387 0.9386,-0.9387 z"
       fill="#8fe8d9"
       id="path31" /><path
       fill-rule="evenodd"
       clip-rule="evenodd"
       d="m 63.2583,33.7051 c 0.8954,0 1.6241,0.7286 1.6241,1.624 0,0.8954 -0.7287,1.6241 -1.6241,1.6241 -0.8954,0 -1.624,-0.7287 -1.624,-1.6241 0,-0.8954 0.7286,-1.624 1.624,-1.624 z"
       fill="#12806b"
       id="path32" /><path
       fill-rule="evenodd"
       clip-rule="evenodd"
       d="m 62.9474,33.9824 c 0.5187,0 0.9386,0.4199 0.9386,0.9386 0,0.5188 -0.4199,0.9387 -0.9386,0.9387 -0.5187,0 -0.9386,-0.4199 -0.9386,-0.9387 0,-0.5187 0.4199,-0.9386 0.9386,-0.9386 z"
       fill="#8fe8d9"
       id="path33" /><path
       fill-rule="evenodd"
       clip-rule="evenodd"
       d="m 94.5635,84.1621 c 0.8954,0 1.6241,0.7287 1.6241,1.6241 0,0.8954 -0.7287,1.624 -1.6241,1.624 -0.8954,0 -1.624,-0.7286 -1.624,-1.624 0,-0.9016 0.7286,-1.6241 1.624,-1.6241 z"
       fill="#12806b"
       id="path34" /><path
       fill-rule="evenodd"
       clip-rule="evenodd"
       d="m 94.2609,84.4336 c 0.5188,0 0.9387,0.4199 0.9387,0.9386 0,0.5187 -0.4199,0.9386 -0.9387,0.9386 -0.5187,0 -0.9386,-0.4199 -0.9386,-0.9386 -0.0061,-0.5125 0.4138,-0.9386 0.9386,-0.9386 z"
       fill="#8fe8d9"
       id="path35" /><path
       fill-rule="evenodd"
       clip-rule="evenodd"
       d="m 88.166,95.0908 c 0.8954,0 1.6241,0.7287 1.6241,1.6241 0,0.8954 -0.7287,1.624 -1.6241,1.624 -0.8953,0 -1.624,-0.7286 -1.624,-1.624 0,-0.8954 0.7287,-1.6241 1.624,-1.6241 z"
       fill="#12806b"
       id="path36" /><path
       fill-rule="evenodd"
       clip-rule="evenodd"
       d="m 87.8635,95.3682 c 0.5187,0 0.9386,0.4199 0.9386,0.9386 0,0.5187 -0.4199,0.9386 -0.9386,0.9386 -0.5187,0 -0.9386,-0.4199 -0.9386,-0.9386 -0.0062,-0.5187 0.4137,-0.9386 0.9386,-0.9386 z"
       fill="#8fe8d9"
       id="path37" /><path
       fill-rule="evenodd"
       clip-rule="evenodd"
       d="m 75.6314,102.706 c 0.8954,0 1.624,0.729 1.624,1.624 0,0.896 -0.7286,1.624 -1.624,1.624 -0.8954,0 -1.6241,-0.728 -1.6241,-1.624 0,-0.895 0.7287,-1.624 1.6241,-1.624 z"
       fill="#12806b"
       id="path38" /><path
       fill-rule="evenodd"
       clip-rule="evenodd"
       d="m 75.3288,102.978 c 0.5187,0 0.9386,0.419 0.9386,0.938 0,0.519 -0.4199,0.939 -0.9386,0.939 -0.5187,0 -0.9386,-0.42 -0.9386,-0.939 -0.0062,-0.512 0.4199,-0.938 0.9386,-0.938 z"
       fill="#8fe8d9"
       id="path39" /><path
       fill-rule="evenodd"
       clip-rule="evenodd"
       d="m 63.002,105.305 c 0.8954,0 1.624,0.728 1.624,1.624 0,0.895 -0.7286,1.624 -1.624,1.624 -0.8954,0 -1.6241,-0.729 -1.6241,-1.624 0,-0.896 0.7287,-1.624 1.6241,-1.624 z"
       fill="#12806b"
       id="path40" /><path
       fill-rule="evenodd"
       clip-rule="evenodd"
       d="m 62.6994,105.582 c 0.5187,0 0.9386,0.42 0.9386,0.939 0,0.518 -0.4199,0.938 -0.9386,0.938 -0.5187,0 -0.9386,-0.42 -0.9386,-0.938 -0.0062,-0.519 0.4137,-0.939 0.9386,-0.939 z"
       fill="#8fe8d9"
       id="path41" /><path
       d="m 22,102.495 c 0,6.904 5.5964,12.501 12.5,12.503 C 41.4036,114.999 47,109.404 47,102.5 47,95.5964 41.4036,89.9989 34.5,89.9975 27.5964,89.9961 22,95.5914 22,102.495 Z"
       fill="#c1c1c1"
       id="path42" /><path
       fill-rule="evenodd"
       clip-rule="evenodd"
       d="M 34.5,87.997 C 42.5081,87.9987 49,94.4919 49,102.5 49,110.508 42.5081,116.999 34.5,116.997 26.4919,116.995 20,110.502 20,102.494 20,94.4859 26.4919,87.9954 34.5,87.997 Z m 10.0694,14.502 c 0,-5.5611 -4.5082,-10.0703 -10.0694,-10.0714 -5.5612,-0.0011 -10.0694,4.5062 -10.0694,10.0674 0,5.561 4.5082,10.07 10.0694,10.071 5.5612,0.002 10.0694,-4.506 10.0694,-10.067 z"
       fill="#000000"
       id="path43" /><path
       d="m 80,102.495 c 0,6.904 5.5964,12.501 12.5,12.503 C 99.4036,114.999 105,109.404 105,102.5 105,95.5964 99.4036,89.9989 92.5,89.9975 85.5964,89.9961 80,95.5914 80,102.495 Z"
       fill="#c1c1c1"
       id="path44" /><path
       fill-rule="evenodd"
       clip-rule="evenodd"
       d="m 92.5,87.997 c 8.008,0.0017 14.5,6.4949 14.5,14.503 0,8.008 -6.492,14.499 -14.5,14.497 C 84.4919,116.995 78,110.502 78,102.494 78,94.4859 84.4919,87.9954 92.5,87.997 Z m 10.069,14.502 c 0,-5.5611 -4.5078,-10.0703 -10.069,-10.0714 -5.5612,-0.0011 -10.0694,4.5062 -10.0694,10.0674 0,5.561 4.5082,10.07 10.0694,10.071 5.5612,0.002 10.069,-4.506 10.069,-10.067 z"
       fill="#000000"
       id="path45" /></g><circle
     cx="15.001"
     cy="30.023"
     r="1.113"
     fill="none"
     stroke="#292929"
     stroke-width=".403"
     stroke-opacity=".706"
     id="circle3" /><circle
     r="1.451"
     cy="21.062"
     cx="31.25"
     fill="none"
     stroke="#292929"
     stroke-width=".525"
     stroke-opacity=".706"
     id="circle4" /><circle
     cx="18.75"
     cy="6.534"
     r=".726"
     fill="none"
     stroke="#292929"
     stroke-width=".263"
     stroke-opacity=".706"
     id="circle5" /><circle
     r="1.862"
     cy="14.584"
     cx="7.591"
     fill="none"
     stroke="#292929"
     stroke-width=".674"
     stroke-opacity=".706"
     id="circle6" /><circle
     cx="-71.967"
     cy="49.741"
     r="16.933"
     clip-path="url(#a)"
     transform="matrix(1 0 0 1 91.017 -30.691)"
     fill="#0097f0"
     fill-opacity=".584"
     stroke="#191919"
     stroke-width="3.175"
     id="circle7" /></svg>
