<?xml version="1.0" encoding="UTF-8" standalone="no"?>
<svg
   width="144"
   height="144"
   viewBox="0 0 38.1 38.1"
   version="1.1"
   id="svg7"
   sodipodi:docname="map-vat-08.svg"
   xml:space="preserve"
   inkscape:version="1.4.2 (ebf0e940d0, 2025-05-08)"
   xmlns:inkscape="http://www.inkscape.org/namespaces/inkscape"
   xmlns:sodipodi="http://sodipodi.sourceforge.net/DTD/sodipodi-0.dtd"
   xmlns="http://www.w3.org/2000/svg"
   xmlns:svg="http://www.w3.org/2000/svg"><sodipodi:namedview
     id="namedview7"
     pagecolor="#ffffff"
     bordercolor="#000000"
     borderopacity="0.25"
     inkscape:showpageshadow="2"
     inkscape:pageopacity="0.0"
     inkscape:pagecheckerboard="0"
     inkscape:deskcolor="#d1d1d1"
     inkscape:zoom="1.9911931"
     inkscape:cx="6.2776433"
     inkscape:cy="165.47868"
     inkscape:window-width="1920"
     inkscape:window-height="1017"
     inkscape:window-x="0"
     inkscape:window-y="0"
     inkscape:window-maximized="1"
     inkscape:current-layer="svg7" /><defs
     id="defs1"><clipPath
       id="a"><circle
         r="16.933"
         cy="49.741"
         cx="-71.967"
         fill="#0097f0"
         fill-opacity=".586"
         stroke-width="1.881"
         id="circle1" /></clipPath><linearGradient
       id="paint0_linear"
       x1="63.873"
       y1="15.001"
       x2="63.873"
       y2="78.001"
       gradientUnits="userSpaceOnUse"><stop
         stop-color="#A61E00"
         id="stop8" /><stop
         offset="1"
         id="stop9" /></linearGradient><linearGradient
       id="paint1_linear"
       x1="63.373"
       y1="29"
       x2="63.373"
       y2="111"
       gradientUnits="userSpaceOnUse"><stop
         id="stop10" /><stop
         offset="1"
         stop-color="#3A0068"
         id="stop11" /></linearGradient><linearGradient
       id="paint2_linear"
       x1="63.3724"
       y1="40.917"
       x2="63.3724"
       y2="99.0823"
       gradientUnits="userSpaceOnUse"><stop
         stop-color="#00FFFF"
         id="stop12" /><stop
         offset="0.557292"
         stop-color="#7000C8"
         id="stop13" /><stop
         offset="1"
         stop-color="#FF007A"
         id="stop14" /></linearGradient><linearGradient
       id="paint3_linear"
       x1="34.875"
       y1="89.998"
       x2="34.875"
       y2="114.998"
       gradientUnits="userSpaceOnUse"><stop
         id="stop15" /><stop
         offset="1"
         stop-color="#3A0068"
         id="stop16" /></linearGradient><linearGradient
       id="paint4_linear"
       x1="92.875"
       y1="89.998"
       x2="92.875"
       y2="114.998"
       gradientUnits="userSpaceOnUse"><stop
         id="stop17" /><stop
         offset="1"
         stop-color="#3A0068"
         id="stop18" /></linearGradient></defs><g
     style="fill:none"
     id="g1"
     transform="matrix(0,-0.2279259,0.2279259,0,1.8135156,33.752806)"><path
       d="m 63.8752,78.001 c 17.397,0 31.4996,-14.1031 31.4989,-31.5 -6e-4,-17.397 -14.1041,-31.5 -31.5011,-31.5 -17.3969,0 -31.4995,14.103 -31.4989,31.5 7e-4,17.3969 14.1042,31.5 31.5011,31.5 z"
       fill="url(#paint0_linear)"
       id="path1-0"
       style="fill:url(#paint0_linear)" /><path
       fill-rule="evenodd"
       clip-rule="evenodd"
       d="m 64.373,12.0012 c 18.7777,-7e-4 34,15.2211 34,33.9988 0,18.7777 -15.2223,34.0005 -34,34.0012 -18.7776,6e-4 -34,-15.2211 -34,-33.9988 0,-18.7777 15.2224,-34.0006 34,-34.0012 z m 28.8098,33.999 C 93.1828,30.089 80.2842,17.1909 64.373,17.1915 48.4619,17.192 35.5633,30.091 35.5633,46.0022 c 0,15.9112 12.8986,28.8093 28.8097,28.8087 15.9112,-5e-4 28.8098,-12.8995 28.8098,-28.8107 z"
       fill="#000000"
       id="path2-9" /><path
       d="m 22.373,70 c 0,-22.6437 18.3684,-41 41,-41 22.6317,0 41,18.3563 41,41 0,22.6437 -18.3683,41 -41,41 -22.6316,0 -41,-18.3563 -41,-41 z"
       fill="url(#paint1_linear)"
       id="path3-7"
       style="fill:url(#paint1_linear)" /><path
       fill-rule="evenodd"
       clip-rule="evenodd"
       d="M 67.2911,68.8152 H 81.815 l -28.0963,30.2671 5.741,-28.3754 h -14.53 L 73.026,40.917 Z"
       fill="url(#paint2_linear)"
       id="path4"
       style="fill:url(#paint2_linear)" /><path
       d="m 34.87,114.998 c 6.9036,0 12.5011,-5.596 12.5025,-12.5 0.0014,-6.9035 -5.5939,-12.5 -12.4975,-12.5 -6.9036,0 -12.5011,5.5965 -12.5025,12.5 -0.0014,6.904 5.5939,12.5 12.4975,12.5 z"
       fill="url(#paint3_linear)"
       id="path5-9"
       style="fill:url(#paint3_linear)" /><path
       fill-rule="evenodd"
       clip-rule="evenodd"
       d="m 34.873,87.997 c 8.0082,0.0017 14.5,6.4949 14.5,14.503 0,8.008 -6.4918,14.499 -14.5,14.497 -8.0081,-0.002 -14.5,-6.495 -14.5,-14.503 0,-8.0081 6.4919,-14.4986 14.5,-14.497 z m 10.0695,14.502 c 0,-5.5611 -4.5083,-10.0703 -10.0695,-10.0714 -5.5612,-0.0011 -10.0694,4.5062 -10.0694,10.0674 0,5.561 4.5082,10.07 10.0694,10.071 5.5612,0.002 10.0695,-4.506 10.0695,-10.067 z"
       fill="#000000"
       id="path6-9" /><path
       d="m 92.87,114.998 c 6.9036,0 12.501,-5.596 12.503,-12.5 10e-4,-6.9035 -5.5944,-12.5 -12.498,-12.5 -6.9036,0 -12.5011,5.5965 -12.5025,12.5 -0.0014,6.904 5.5939,12.5 12.4975,12.5 z"
       fill="url(#paint4_linear)"
       id="path7-3"
       style="fill:url(#paint4_linear)" /><path
       fill-rule="evenodd"
       clip-rule="evenodd"
       d="m 92.873,87.997 c 8.008,0.0017 14.5,6.4949 14.5,14.503 0,8.008 -6.492,14.499 -14.5,14.497 -8.0081,-0.002 -14.5,-6.495 -14.5,-14.503 0,-8.0081 6.4919,-14.4986 14.5,-14.497 z m 10.069,14.502 c 0,-5.5611 -4.5078,-10.0703 -10.069,-10.0714 -5.5612,-0.0011 -10.0694,4.5062 -10.0694,10.0674 0,5.561 4.5082,10.07 10.0694,10.071 5.5612,0.002 10.069,-4.506 10.069,-10.067 z"
       fill="#000000"
       id="path8" /></g><circle
     cx="15.001"
     cy="30.023"
     r="1.113"
     fill="none"
     stroke="#292929"
     stroke-width=".403"
     stroke-opacity=".706"
     id="circle3" /><circle
     r="1.451"
     cy="21.062"
     cx="31.25"
     fill="none"
     stroke="#292929"
     stroke-width=".525"
     stroke-opacity=".706"
     id="circle4" /><circle
     cx="18.75"
     cy="6.534"
     r=".726"
     fill="none"
     stroke="#292929"
     stroke-width=".263"
     stroke-opacity=".706"
     id="circle5" /><circle
     r="1.862"
     cy="14.584"
     cx="7.591"
     fill="none"
     stroke="#292929"
     stroke-width=".674"
     stroke-opacity=".706"
     id="circle6" /><circle
     cx="-71.967"
     cy="49.741"
     r="16.933"
     clip-path="url(#a)"
     transform="matrix(1 0 0 1 91.017 -30.691)"
     fill="#0097f0"
     fill-opacity=".584"
     stroke="#191919"
     stroke-width="3.175"
     id="circle7" /></svg>
