<?xml version="1.0" encoding="UTF-8" standalone="no"?>
<svg
   width="144"
   height="144"
   viewBox="0 0 38.1 38.1"
   version="1.1"
   id="svg6"
   sodipodi:docname="map-displays-res.svg"
   inkscape:version="1.4.2 (ebf0e940d0, 2025-05-08)"
   xmlns:inkscape="http://www.inkscape.org/namespaces/inkscape"
   xmlns:sodipodi="http://sodipodi.sourceforge.net/DTD/sodipodi-0.dtd"
   xmlns="http://www.w3.org/2000/svg"
   xmlns:svg="http://www.w3.org/2000/svg">
  <sodipodi:namedview
     id="namedview6"
     pagecolor="#ffffff"
     bordercolor="#000000"
     borderopacity="0.25"
     inkscape:showpageshadow="2"
     inkscape:pageopacity="0.0"
     inkscape:pagecheckerboard="0"
     inkscape:deskcolor="#d1d1d1"
     inkscape:zoom="5.6319444"
     inkscape:cx="72.000001"
     inkscape:cy="80.167695"
     inkscape:window-width="1920"
     inkscape:window-height="1017"
     inkscape:window-x="0"
     inkscape:window-y="0"
     inkscape:window-maximized="1"
     inkscape:current-layer="svg6" />
  <defs
     id="defs3">
    <clipPath
       id="c">
      <path
         d="M31.482 15.852l-5.51 2.906-3.036 7.195-4.973 3.932.031 4.23a16.933 16.933 0 0 0 11.324-8.113 16.933 16.933 0 0 0 2.164-10.15z"
         fill="#0097f0"
         fill-opacity=".586"
         stroke-width="1.881"
         id="path1" />
    </clipPath>
    <clipPath
       id="b">
      <path
         d="M22.48 2.929l-2.503 3.067-5.166.566 4.44 2.825 1.533 5.004 2.422-4.036 4.036-1.13-3.794-2.26z"
         fill="#0097f0"
         fill-opacity=".586"
         stroke-width="1.881"
         id="path2" />
    </clipPath>
    <clipPath
       id="a">
      <path
         d="M7.44 8.946a16.933 16.933 0 0 0-.97 2.072 16.933 16.933 0 0 0 .914 13.97l2.233-4.32-2.16-4.098 1.667-4.634z"
         fill="#0097f0"
         fill-opacity=".586"
         stroke-width="1.881"
         id="path3" />
    </clipPath>
    <clipPath
       id="c-3">
      <path
         d="m 31.482,15.852 -5.51,2.906 -3.036,7.195 -4.973,3.932 0.031,4.23 a 16.933,16.933 0 0 0 11.324,-8.113 16.933,16.933 0 0 0 2.164,-10.15 z"
         fill="#0097f0"
         fill-opacity="0.586"
         stroke-width="1.881"
         id="path1-6" />
    </clipPath>
  </defs>
  <path
     d="m 7.44,8.946 a 16.933,16.933 0 0 0 -0.97,2.072 16.933,16.933 0 0 0 0.914,13.97 l 2.233,-4.32 -2.16,-4.098 1.667,-4.634 z"
     clip-path="url(#a)"
     fill="#0097f0"
     fill-opacity=".586"
     stroke="#191919"
     stroke-width="1.587"
     id="path4"
     style="fill:#fffaff;fill-opacity:1"
     transform="matrix(1.2106444,0,0,1.0761411,-1.3210811,-0.68115798)" />
  <path
     d="M31.482 15.852l-5.51 2.906-3.036 7.195-4.973 3.932.031 4.23a16.933 16.933 0 0 0 11.324-8.113 16.933 16.933 0 0 0 2.164-10.15z"
     clip-path="url(#c)"
     transform="translate(2.18 .726)"
     fill="#0097f0"
     fill-opacity=".586"
     stroke="#191919"
     stroke-width="1.587"
     id="path6"
     style="fill:#fffaff;fill-opacity:1" />
  <path
     d="m 31.482,15.852 -5.51,2.906 -3.036,7.195 -4.973,3.932 0.031,4.23 a 16.933,16.933 0 0 0 11.324,-8.113 16.933,16.933 0 0 0 2.164,-10.15 z"
     clip-path="url(#c-3)"
     transform="matrix(-0.13015071,-0.91692844,0.95342251,-0.12516894,1.5449416,34.854127)"
     fill="#0097f0"
     fill-opacity=".586"
     stroke="#191919"
     stroke-width="1.587"
     id="path6-5"
     style="fill:#fffaff;fill-opacity:1" />
</svg>
