<?xml version="1.0" encoding="UTF-8" standalone="no"?>
<svg
   width="144"
   height="144"
   viewBox="0 0 38.1 38.1"
   version="1.1"
   id="svg7"
   sodipodi:docname="map-vat-09.svg"
   xml:space="preserve"
   inkscape:version="1.4.2 (ebf0e940d0, 2025-05-08)"
   xmlns:inkscape="http://www.inkscape.org/namespaces/inkscape"
   xmlns:sodipodi="http://sodipodi.sourceforge.net/DTD/sodipodi-0.dtd"
   xmlns="http://www.w3.org/2000/svg"
   xmlns:svg="http://www.w3.org/2000/svg"><sodipodi:namedview
     id="namedview7"
     pagecolor="#ffffff"
     bordercolor="#000000"
     borderopacity="0.25"
     inkscape:showpageshadow="2"
     inkscape:pageopacity="0.0"
     inkscape:pagecheckerboard="0"
     inkscape:deskcolor="#d1d1d1"
     inkscape:zoom="1.9911931"
     inkscape:cx="6.2776433"
     inkscape:cy="-15.31745"
     inkscape:window-width="1920"
     inkscape:window-height="1017"
     inkscape:window-x="0"
     inkscape:window-y="0"
     inkscape:window-maximized="1"
     inkscape:current-layer="svg7" /><defs
     id="defs1"><clipPath
       id="a"><circle
         r="16.933"
         cy="49.741"
         cx="-71.967"
         fill="#0097f0"
         fill-opacity=".586"
         stroke-width="1.881"
         id="circle1" /></clipPath></defs><g
     style="fill:none"
     id="g1"
     transform="matrix(0,-0.22993337,0.22993337,0,1.9169496,33.850781)"><path
       d="m 32.3633,46.7444 c 0,17.397 14.103,31.4995 31.5,31.4989 17.3969,-6e-4 31.5,-14.1041 31.5,-31.5011 0,-17.397 -14.103,-31.4995 -31.5,-31.4989 -17.397,6e-4 -31.5,14.1041 -31.5,31.5011 z"
       fill="#1386b8"
       id="path1-2" /><path
       fill-rule="evenodd"
       clip-rule="evenodd"
       d="m 64.3633,12.2434 c 18.7777,-7e-4 34,15.2211 34,33.9988 0,18.7777 -15.2223,34.0005 -34,34.0012 -18.7777,6e-4 -34,-15.2212 -34,-33.9988 0,-18.7777 15.2223,-34.0006 34,-34.0012 z m 28.8097,33.999 c 0,-15.9112 -12.8985,-28.8093 -28.8097,-28.8088 -15.9112,6e-4 -28.8098,12.8996 -28.8098,28.8108 0,15.9112 12.8986,28.8093 28.8098,28.8087 15.9112,-5e-4 28.8097,-12.8996 28.8097,-28.8107 z"
       fill="#000000"
       id="path2-4" /><path
       d="m 63.3633,29.2422 c 22.6437,0 40.9997,18.3683 40.9997,41 0,22.6317 -18.356,40.9998 -40.9997,40.9998 -22.6437,0 -41,-18.3681 -41,-40.9998 0,-22.6317 18.3563,-41 41,-41 z"
       fill="#0adbd5"
       id="path3-3" /><path
       d="m 63.3633,40.2422 c 16.5685,0 30,13.4402 30,30 0,16.5598 -13.4315,29.9998 -30,29.9998 -16.5686,0 -30,-13.44 -30,-29.9998 0,-16.5598 13.4314,-30 30,-30 z"
       fill="#022120"
       id="path4" /><path
       d="m 76.2075,72.1437 c -0.3002,1.5257 -1.016,2.488 -1.0391,2.5584 -0.277,0.3756 -0.8312,0.4694 -1.2237,0.1878 -0.3925,-0.2582 -0.4618,-0.7746 -0.2078,-1.1736 0.4387,-0.6337 1.0159,-2.3471 0.7388,-3.8493 -0.277,-1.5021 -0.7157,-2.7227 -3.1863,-3.1686 -1.5701,-0.2817 -1.7087,-1.5022 -1.8241,-2.3941 -0.1155,-0.9858 -0.2771,-2.2063 -1.7779,-3.5442 -0.5773,-0.5163 -1.3392,-0.9154 -2.1243,-1.3378 -0.3925,-0.2113 -0.8081,-0.4225 -1.2237,-0.6572 -0.6234,1.3144 -1.1314,3.5911 -1.0852,4.9524 0.0462,1.69 0.6234,3.286 1.6624,4.6239 l 0.2309,0.2816 -0.0692,0.3521 c -0.1155,0.6337 -0.1848,1.2675 -0.1617,1.9012 0.3002,-0.0939 0.7158,-0.1643 1.1083,-0.1643 1.6856,0.0235 2.9555,0.6807 3.8329,1.7369 1.5008,1.8307 1.1545,3.8493 1.0852,4.929 -0.0692,1.0562 -0.1385,1.9011 -0.254,3.1216 -0.1847,1.8543 -0.4387,4.1779 -0.2539,4.9994 0.5772,2.535 1.8471,2.488 2.332,2.488 0.4849,-0.0235 0.8774,0.3521 0.9005,0.798 0.0231,0.4695 -0.3694,0.845 -0.8543,0.8685 -1.2007,0.0469 -3.348,-0.399 -4.0869,-3.8024 -0.2309,-1.0797 0,-3.3329 0.2309,-5.5158 0.1155,-1.197 0.2309,-2.0654 0.254,-3.0278 0.0231,-0.9623 0.1847,-2.7461 -0.7158,-3.8258 -0.5541,-0.6807 -1.4084,-1.0327 -2.5629,-1.1031 -0.4156,-0.0235 -1.3623,0.399 -1.8472,1.2674 -0.3002,0.6572 -0.4387,1.3848 -0.4156,2.1359 0.0231,1.0797 0.4156,2.1124 1.1083,2.9574 l 0.4387,0.5164 -0.4387,0.5163 c -0.8312,0.9624 -1.2469,2.1594 -1.2238,3.3799 0.0231,1.0328 0.3926,2.0185 1.016,2.84 l 0.3925,0.5164 -0.4156,0.4929 c -0.7851,0.9389 -1.2007,2.1359 -1.1545,3.3329 0.0462,2.9574 2.0781,4.9525 4.8488,4.8821 1.9165,-0.0704 3.3711,-0.8685 4.1562,-2.7696 1.9626,0.5163 4.2254,-1.1971 4.7333,-2.9105 0.5311,-1.7603 0.2079,-3.8962 -2.0088,-6.572 -0.3232,-0.399 -0.6696,-0.751 -1.039,-1.0562 -0.3694,-0.3051 -0.3925,-0.8215 -0.0693,-1.1735 0.1617,-0.1878 0.3926,-0.2817 0.6235,-0.2817 0.2078,0 0.4387,0.0704 0.6003,0.2112 0.4387,0.3756 0.8543,0.7981 1.2468,1.2675 1.5701,1.9246 2.1474,4.084 2.3321,5.5392 3.3249,-2.3002 3.7636,-6.5719 2.2397,-8.8956 1.9857,-2.9809 -1.039,-6.6189 -4.8488,-6.4312 z"
       fill="#ef7197"
       id="path5-7" /><path
       d="m 66.3945,57.9437 c 0.8774,0.3756 1.7317,0.9154 2.4937,1.5726 1.9626,1.7604 2.1704,3.4268 2.3089,4.5535 0.1155,0.9153 0.1616,0.9153 0.4387,0.9623 1.4316,0.2582 2.4013,0.7276 3.0709,1.3144 0.8544,-0.3756 1.6625,-0.5399 2.4475,-0.5633 2.2628,-0.0704 3.9715,1.0092 4.0869,1.0562 0.3925,0.2582 0.508,0.7745 0.2309,1.1501 -0.2771,0.3755 -0.8081,0.4929 -1.2007,0.2347 -0.0923,-0.0704 -2.1935,-1.3379 -4.5255,-0.4929 0.2309,0.4929 0.6696,1.5022 0.6465,2.6992 3.6481,-0.0704 7.0423,2.1359 7.2039,5.8209 4.7565,-7.0884 -0.9004,-13.7308 -7.3655,-15.6085 -1.7318,-0.5163 -2.9786,-2.2767 -3.0017,-4.1074 0,-0.3286 0.0462,-0.7981 0.2309,-1.3379 -0.6927,-0.1408 -1.5008,-0.3756 -2.309,-0.7511 0.2078,1.2675 0.0462,2.3237 0.0231,2.3941 -0.0692,0.4459 -0.5079,0.7745 -0.9928,0.7041 -0.4849,-0.0704 -0.8082,-0.4929 -0.7389,-0.9388 0,-0.0235 0.3925,-2.6758 -0.762,-3.9198 -0.6234,-0.6572 -1.2237,-1.7603 -1.4084,-2.9808 -0.0693,-0.446 0.2771,-0.8685 0.7388,-0.9389 0.0231,0 0.0693,0 0.0924,0 0.4387,-0.0234 0.8312,0.2817 0.9005,0.7276 0.508,3.5677 4.11,4.0606 5.3799,4.1779 0.5772,-0.5867 1.4085,-1.1501 2.6553,-1.5725 0.0924,-0.0235 0.1847,-0.047 0.254,-0.047 0.3694,-0.0235 0.7158,0.2113 0.8543,0.5633 0.1616,0.4225 -0.0693,0.9154 -0.5311,1.0562 -1.7317,0.5868 -2.7015,1.6196 -2.6784,2.8636 0,1.1031 0.8082,2.2297 1.801,2.5583 3.602,1.1267 6.2342,2.9809 7.8736,5.4923 2.1012,-5.6096 -2.4706,-7.9802 -5.3799,-7.6282 -0.4618,0.047 -0.9236,-0.2582 -0.9698,-0.7276 -0.0461,-0.4694 0.2771,-0.8684 0.762,-0.9388 0.2309,-0.0235 0.4618,-0.047 0.6927,-0.047 1.0159,-0.0234 1.8933,0.1409 2.6784,0.399 0.6927,-3.0982 -2.4244,-8.2619 -8.1276,-6.126 -0.7157,-4.0605 -6.6036,-5.9382 -9.9978,-2.0889 -3.3018,3.7554 -0.9928,9.2007 2.1243,10.5151 z"
       fill="#ef7197"
       id="path6-1" /><path
       d="m 62.1917,83.6212 c 0,-0.2112 -0.0231,-0.4224 -0.0693,-0.6102 -0.6696,0.9154 -1.4316,1.6899 -1.9164,2.0889 -0.2079,0.1643 -0.3926,0.3286 -0.5773,0.4695 -1.8472,1.4787 -2.7707,2.2298 -2.6091,4.7177 0.0231,0.446 -0.3233,0.8215 -0.7851,0.8685 -0.4848,0.0234 -0.8774,-0.3052 -0.9005,-0.7511 -0.2078,-3.3095 1.2238,-4.4596 3.2095,-6.0556 0.1847,-0.1409 0.3694,-0.3052 0.5772,-0.4695 0.7389,-0.6102 1.6856,-1.7134 2.2859,-2.7696 v -0.0235 l 0.1847,-0.3755 c 0.3464,-0.7041 0.508,-1.4552 0.4849,-2.2063 -0.0231,-0.7276 -0.2078,-1.4318 -0.5541,-2.0655 l -0.1617,-0.3286 0.1386,-0.3286 c 0.3694,-0.8919 0.531,-1.8073 0.5079,-2.7696 -0.023,-0.7746 -0.1847,-1.5022 -0.4617,-2.2298 -0.6235,0.798 -1.4316,1.4787 -2.4014,1.9951 -1.3853,0.7511 -3.0016,1.1031 -4.2023,0.9388 -1.7086,1.9716 -4.0638,3.0983 -6.6729,3.1921 -0.0231,0 -0.0462,0 -0.0693,0 -1.5008,0.047 -4.4332,-0.3755 -5.7493,-2.1593 -0.5772,3.2156 0.5773,5.8678 3.8791,6.572 -0.6465,2.6522 1.0159,5.1167 2.5398,5.9852 0.6235,-1.8543 1.6394,-2.8636 2.7246,-3.6616 -0.3925,-0.5398 -1.3392,-1.995 -1.3623,-3.5676 0,-0.446 0.3695,-0.7981 0.8313,-0.8215 0,0 0,0 0.023,0 0.4618,0 0.8544,0.352 0.8544,0.798 0.0231,1.1032 0.7388,2.2298 1.039,2.6523 1.3623,-0.9154 2.6322,-1.9012 3.4404,-4.3892 0.1154,-0.3286 0.4387,-0.5633 0.785,-0.5633 0.0924,0 0.1847,0 0.2771,0.0235 0.4387,0.1408 0.6927,0.5868 0.5541,1.0092 -1.039,3.2156 -2.84,4.4127 -4.4332,5.4689 -1.3392,0.8919 -2.5168,1.6664 -3.1633,3.685 l -0.1385,0.6806 c -0.0693,0.3991 -0.1154,0.7981 -0.0924,1.1971 0.0462,3.0747 2.7708,5.5158 6.0264,5.4219 3.2557,-0.0939 5.8186,-2.7227 5.7263,-5.8209 -0.0231,-0.798 -0.2078,-1.5491 -0.5773,-2.2533 l -0.2078,-0.399 0.2309,-0.3755 c 0.5542,-0.845 0.8082,-1.7839 0.7851,-2.7697 z"
       fill="#ef7197"
       id="path7-2" /><path
       d="m 41.8966,63.6937 c 0.6927,-0.845 1.4316,-1.5492 1.5701,-1.6665 0.1616,-0.1408 0.3464,-0.2113 0.5542,-0.2347 0.2309,0 0.4618,0.0704 0.6465,0.2347 0.3232,0.3286 0.3001,0.8215 -0.0231,1.1501 -0.3695,0.3286 -1.1776,1.1736 -1.7548,1.9481 l 0.0231,0.0235 -0.3002,0.4694 c -0.6927,1.1032 -1.039,2.3706 -1.016,3.6381 0.0462,1.7134 0.8082,3.3329 2.1012,4.5299 0.0693,0.047 0.1154,0.1174 0.1847,0.1643 l 0.0693,0.047 c 1.039,0.845 2.586,1.3144 4.2254,1.2674 1.3161,-0.0469 3.7867,-0.4929 5.7262,-2.9574 l 0.3925,-0.4929 0.6004,0.2113 c 0.531,0.1878 1.9395,0.0939 3.4172,-0.6807 1.0391,-0.5633 2.2628,-1.643 2.7477,-3.4503 0.762,-2.8635 -1.4085,-4.5299 -2.1704,-5.0933 -0.3695,-0.2581 -0.5542,-0.7041 -0.3233,-1.1031 0.1617,-0.2582 0.4156,-0.399 0.7158,-0.4225 0.1385,0 0.3002,0.0235 0.4387,0.0939 0.6465,0.3286 1.5239,1.0327 2.1935,2.0655 0.2078,-0.6338 0.3002,-1.291 0.2771,-1.9482 -0.0462,-1.2909 -0.4849,-2.4879 -1.3161,-3.5207 l -0.254,-0.3051 c -0.7158,-0.798 -1.7086,-1.5726 -2.4706,-2.1828 -0.3694,-0.2817 -0.6927,-0.5399 -0.9467,-0.7746 -2.3551,-2.042 -1.8933,-4.5534 -1.3161,-5.5862 0.1386,-0.2581 0.4387,-0.4224 0.7158,-0.4224 0.1385,0 0.2771,0.0234 0.4156,0.0938 0.4156,0.2113 0.5773,0.6807 0.3464,1.0797 -0.1155,0.2113 -0.9698,1.9716 0.9697,3.6616 0.2309,0.2112 0.5311,0.4459 0.8774,0.7041 0.5773,0.4694 1.2931,1.0093 1.9396,1.6195 0.0231,-0.2347 0.0461,-0.4694 0.0461,-0.7041 -0.023,-0.6103 -0.1847,-1.2205 -0.4617,-1.7838 l -0.2079,-0.3756 0.2079,-0.3755 c 0.4617,-0.7981 0.6926,-1.69 0.6696,-2.5819 -0.0924,-2.7461 -2.4937,-4.882 -5.3568,-4.7881 -2.0088,0.0704 -3.7637,1.197 -4.5949,2.9574 l -0.1385,0.3051 -0.3464,0.1173 c -0.9466,0.3286 -1.7317,0.9624 -2.2627,1.7604 0.7157,0.0704 1.4084,0.3051 2.0088,0.6807 1.1544,0.7041 1.8702,1.8777 2.0088,3.1686 0.1154,1.197 -0.2309,2.5349 -0.6466,3.5676 0.7158,-0.2347 1.4778,-0.3755 2.1474,-0.399 0.7158,-0.0234 1.3623,0.0704 1.8241,0.2582 0.4387,0.1643 0.6465,0.6337 0.4617,1.0562 -0.1847,0.4225 -0.6695,0.6103 -1.1082,0.446 -0.9467,-0.3521 -3.9253,-0.047 -4.9412,1.8073 -1.0391,1.9012 -1.3161,2.887 -0.9236,3.8493 0.3694,0.9154 1.1083,1.244 1.6624,1.3613 1.016,0.2113 2.1705,-0.1408 3.0248,-0.9154 0.3463,-0.3051 0.8774,-0.3051 1.2006,0.0235 0.3233,0.3286 0.3002,0.845 -0.0461,1.1501 -1.0622,0.9623 -2.4475,1.4552 -3.7867,1.4083 -0.3926,1.5022 -0.0462,2.9574 -0.0462,2.9574 0.1154,0.4225 -0.1617,0.8684 -0.6234,0.9858 -0.4387,0.0939 -0.9005,-0.1643 -1.016,-0.5868 -0.0231,-0.0939 -0.4618,-1.8308 0.0462,-3.732 -0.9005,-0.399 -1.6163,-1.1266 -1.9857,-2.0654 -0.8082,-1.9951 0.1616,-3.8024 1.8241,-6.5955 0,0 1.4315,-2.5818 1.2468,-4.4126 -0.0924,-0.8215 -0.5311,-1.5491 -1.2468,-1.9716 -4.6641,-2.7227 -10.1826,4.9759 -7.8967,11.2663 z"
       fill="#ef7197"
       id="path8" /><path
       d="m 22.3633,102.737 c 0,6.904 5.5964,12.501 12.5,12.503 6.9035,0.001 12.5,-5.594 12.5,-12.498 0,-6.9034 -5.5965,-12.5009 -12.5,-12.5023 -6.9036,-0.0014 -12.5,5.5939 -12.5,12.4973 z"
       fill="#5d6a85"
       id="path9" /><path
       fill-rule="evenodd"
       clip-rule="evenodd"
       d="m 34.8633,88.2392 c 8.0081,0.0017 14.5,6.4949 14.5,14.5028 0,8.008 -6.4919,14.499 -14.5,14.497 -8.0081,-0.001 -14.5,-6.495 -14.5,-14.503 0,-8.0079 6.4919,-14.4984 14.5,-14.4968 z m 10.0694,14.5018 c 0,-5.5609 -4.5082,-10.0701 -10.0694,-10.0712 -5.5612,-0.0012 -10.0695,4.5062 -10.0695,10.0672 0,5.561 4.5083,10.071 10.0695,10.072 5.5612,0.001 10.0694,-4.507 10.0694,-10.068 z"
       fill="#000000"
       id="path10-2" /><path
       d="m 80.3633,102.737 c 0,6.904 5.5964,12.501 12.5,12.503 6.9035,0.001 12.4997,-5.594 12.4997,-12.498 0,-6.9034 -5.5962,-12.5009 -12.4997,-12.5023 -6.9036,-0.0014 -12.5,5.5939 -12.5,12.4973 z"
       fill="#5d6a85"
       id="path11-0" /><path
       fill-rule="evenodd"
       clip-rule="evenodd"
       d="m 92.8633,88.2392 c 8.0077,0.0017 14.4997,6.4949 14.4997,14.5028 0,8.008 -6.492,14.499 -14.4997,14.497 -8.0081,-0.001 -14.5,-6.495 -14.5,-14.503 0,-8.0079 6.4919,-14.4984 14.5,-14.4968 z m 10.0697,14.5018 c 0,-5.5609 -4.5085,-10.0701 -10.0697,-10.0712 -5.5612,-0.0012 -10.0695,4.5062 -10.0695,10.0672 0,5.561 4.5083,10.071 10.0695,10.072 5.5612,0.001 10.0697,-4.507 10.0697,-10.068 z"
       fill="#000000"
       id="path12-2" /></g><circle
     cx="15.001"
     cy="30.023"
     r="1.113"
     fill="none"
     stroke="#292929"
     stroke-width=".403"
     stroke-opacity=".706"
     id="circle3" /><circle
     r="1.451"
     cy="21.062"
     cx="31.25"
     fill="none"
     stroke="#292929"
     stroke-width=".525"
     stroke-opacity=".706"
     id="circle4" /><circle
     cx="18.75"
     cy="6.534"
     r=".726"
     fill="none"
     stroke="#292929"
     stroke-width=".263"
     stroke-opacity=".706"
     id="circle5" /><circle
     r="1.862"
     cy="14.584"
     cx="7.591"
     fill="none"
     stroke="#292929"
     stroke-width=".674"
     stroke-opacity=".706"
     id="circle6" /><circle
     cx="-71.967"
     cy="49.741"
     r="16.933"
     clip-path="url(#a)"
     transform="matrix(1 0 0 1 91.017 -30.691)"
     fill="#0097f0"
     fill-opacity=".584"
     stroke="#191919"
     stroke-width="3.175"
     id="circle7" /></svg>
