<?xml version="1.0" encoding="UTF-8" standalone="no"?>
<svg
   width="144"
   height="144"
   viewBox="0 0 38.1 38.1"
   version="1.1"
   id="svg7"
   sodipodi:docname="map-vat-01.svg"
   xml:space="preserve"
   inkscape:version="1.4.2 (ebf0e940d0, 2025-05-08)"
   xmlns:inkscape="http://www.inkscape.org/namespaces/inkscape"
   xmlns:sodipodi="http://sodipodi.sourceforge.net/DTD/sodipodi-0.dtd"
   xmlns="http://www.w3.org/2000/svg"
   xmlns:svg="http://www.w3.org/2000/svg"><sodipodi:namedview
     id="namedview7"
     pagecolor="#ffffff"
     bordercolor="#000000"
     borderopacity="0.25"
     inkscape:showpageshadow="2"
     inkscape:pageopacity="0.0"
     inkscape:pagecheckerboard="0"
     inkscape:deskcolor="#d1d1d1"
     inkscape:zoom="1.9911931"
     inkscape:cx="5.775432"
     inkscape:cy="44.947927"
     inkscape:window-width="1920"
     inkscape:window-height="1017"
     inkscape:window-x="0"
     inkscape:window-y="0"
     inkscape:window-maximized="1"
     inkscape:current-layer="g7" /><defs
     id="defs1"><clipPath
       id="a"><circle
         r="16.933"
         cy="49.741"
         cx="-71.967"
         fill="#0097f0"
         fill-opacity=".586"
         stroke-width="1.881"
         id="circle1" /></clipPath></defs><g
     transform="matrix(1 0 0 1 43.196 -11.114)"
     fill="#f8c574"
     id="g3"><g
       style="fill:none"
       id="g7"
       transform="matrix(0,-0.23281527,0.23281527,0,-41.512042,45.034679)"><path
         d="M 32.5,46.5022 C 32.5,63.8992 46.603,78.0017 64,78.0011 81.397,78.0005 95.5,63.897 95.5,46.5 95.5,29.103 81.397,15.0005 64,15.0011 46.603,15.0017 32.5,29.1052 32.5,46.5022 Z"
         fill="#ffcfbb"
         id="path1" /><path
         fill-rule="evenodd"
         clip-rule="evenodd"
         d="m 64.5,12.0012 c 18.7777,-7e-4 34,15.2211 34,33.9988 0,18.7777 -15.2223,34.0005 -34,34.0012 -18.7777,6e-4 -34,-15.2211 -34,-33.9988 0,-18.7777 15.2223,-34.0006 34,-34.0012 z m 28.8097,33.999 C 93.3097,30.089 80.4112,17.1909 64.5,17.1915 48.5888,17.192 35.6903,30.091 35.6903,46.0022 c 0,15.9112 12.8985,28.8093 28.8097,28.8087 15.9112,-5e-4 28.8097,-12.8995 28.8097,-28.8107 z"
         fill="#000000"
         id="path2" /><path
         d="m 22.5,70 c 0,-22.6437 18.3683,-41 41,-41 22.6316,0 41,18.3563 41,41 0,22.6436 -18.3684,41 -41,41 -22.6317,0 -41,-18.3564 -41,-41 z"
         fill="#ffffff"
         id="path3" /><g
         mask="url(#mask0)"
         id="g5"><path
           d="m 25.891,49.9627 4.0075,1.8496 -0.9248,3.6993 2.9285,-0.4624 m 2.9286,-0.4624 -2.9286,0.4624 m 0,0 v 3.8534 m 30.6729,-31.4436 1.5414,2.7744 3.0827,2.1579 m 0,0 3.0827,1.8496 -0.6165,2.7745 m -2.4662,-4.6241 -1.2331,1.079 m -4.0075,2.312 2.7744,-1.2331 1.2331,-1.0789 m 0,0 1.8496,2.312 m 36.6843,26.203 -4.6242,2.1578 m 0,0 -1.5413,-3.0827 h -2.0038 m 3.5451,3.0827 -0.6165,2.7745 2.1577,3.0827 -2.1577,1.6955 M 94.327,61.0604 h 2.0037 m 0,0 v 2.4662 m 0.7707,9.8647 2.1579,-1.6955 m 0,0 1.5417,3.2368 M 84.4623,105.76 84.1541,104.064 m 2.4661,-9.4021 -0.6165,4.6241 -2.1579,3.083 0.3083,1.695 m 0,0 h -2.1579 v -3.545 h -2.3121 m -2.312,0 h 2.312 m 0,0 1.079,-2.4661 m 5.2406,0 -2.1579,-0.6166 m -35.7594,11.7147 -0.9248,-4.624 3.6993,-1.234 m -18.9587,-6.4732 1.3873,-3.0827 -1.3873,-2.7744 2.5433,-0.6166 m 2.5432,-0.6165 -2.5432,0.6165 m 0,0 0.3853,-2.4661 M 22.5,75.5491 l 3.6992,-1.8496 1.8497,3.6993 m 8.3233,-39.1504 3.6992,1.5414 m 0,0 -0.6165,3.391 h 1.5413 v 1.8496 m -0.9248,-5.2406 2.4662,1.5413 1.2331,-0.9248 1.233,1.2331 m 47.4737,-1.8496 -0.9249,1.5413 -2.0037,-0.1541 m -2.9286,2.0038 0.9248,-2.1579 2.0038,0.1541 m 0,0 1.0789,3.8534 m 8.6316,4.9323 -0.9248,0.9248 -4.3158,-0.6165 -1.5413,2.1579 M 99.8758,89.113 98.3345,87.88 v -3.0827 l -4.9323,-1.2331 m -28.9774,28.0528 -0.3083,-2.466 1.6955,-1.388 m 0.1541,-3.236 1.5414,1.849 -1.6955,1.387 m 0,0 -2.312,-0.77"
           stroke="#ff7e7e"
           stroke-width="1.24"
           id="path5" /></g><path
         d="m 33.5977,69.9989 c 0,-16.5145 13.3964,-29.9022 29.9022,-29.9022 16.5058,0 29.9022,13.3877 29.9022,29.9022 0,16.5145 -13.3964,29.9022 -29.9022,29.9022 -16.5058,0 -29.9022,-13.3877 -29.9022,-29.9022 z"
         fill="#0153b4"
         id="path6" /><path
         d="m 33.5977,69.9989 c 0,-16.5145 13.3964,-29.9022 29.9022,-29.9022 16.5058,0 29.9022,13.3877 29.9022,29.9022 0,16.5145 -13.3964,29.9022 -29.9022,29.9022 -16.5058,0 -29.9022,-13.3877 -29.9022,-29.9022 z"
         fill="#0153b4"
         id="path7" /><g
         mask="url(#mask1)"
         id="g10"><path
           d="M 87.1066,80.4279 C 87.1066,93.204 74.6626,99.9 63.2704,99.9 51.8782,99.9 39.8926,93.204 39.8926,80.4279 c 0,-12.7762 16.9604,-1.7104 23.3778,-1.7104 6.8758,0 23.8362,-11.0658 23.8362,1.7104 z"
           fill="#067af4"
           id="path10" /></g><path
         d="m 52.3203,69.9992 c 0,-6.175 5.0091,-11.1808 11.1808,-11.1808 6.1718,0 11.1809,5.0058 11.1809,11.1808 0,6.175 -5.0091,11.1808 -11.1809,11.1808 -6.1717,0 -11.1808,-5.0058 -11.1808,-11.1808 z"
         fill="#00204d"
         id="path11" /><path
         d="m 61.1602,57.2587 c 0,-6.0314 5.0091,-10.9208 11.1808,-10.9208 6.1717,0 11.1808,4.8894 11.1808,10.9208 0,6.0314 -5.0091,10.9208 -11.1808,10.9208 -6.1717,0 -11.1808,-4.8894 -11.1808,-10.9208 z"
         fill="#ffffff"
         fill-opacity="0.75"
         id="path12" /><path
         d="m 22.5,102.495 c 0,6.904 5.5964,12.501 12.5,12.503 6.9036,10e-4 12.5,-5.594 12.5,-12.498 C 47.5,95.5964 41.9036,89.9989 35,89.9975 28.0964,89.9961 22.5,95.5914 22.5,102.495 Z"
         fill="#bfd4ec"
         id="path13" /><path
         fill-rule="evenodd"
         clip-rule="evenodd"
         d="m 35,87.997 c 8.0081,0.0017 14.5,6.4949 14.5,14.503 0,8.008 -6.4919,14.499 -14.5,14.497 -8.0081,-0.002 -14.5,-6.495 -14.5,-14.503 0,-8.0081 6.4919,-14.4986 14.5,-14.497 z m 10.0694,14.502 C 45.0694,96.9379 40.5612,92.4287 35,92.4276 29.4388,92.4265 24.9306,96.9338 24.9306,102.495 c 0,5.561 4.5082,10.07 10.0694,10.071 5.5612,0.002 10.0694,-4.506 10.0694,-10.067 z"
         fill="#000000"
         id="path14" /><path
         d="m 80.5,102.495 c 0,6.904 5.5964,12.501 12.5,12.503 6.9036,10e-4 12.5,-5.594 12.5,-12.498 0,-6.9036 -5.5964,-12.5011 -12.5,-12.5025 -6.9036,-0.0014 -12.5,5.5939 -12.5,12.4975 z"
         fill="#bfd4ec"
         id="path15" /><path
         fill-rule="evenodd"
         clip-rule="evenodd"
         d="m 93,87.997 c 8.008,0.0017 14.5,6.4949 14.5,14.503 0,8.008 -6.492,14.499 -14.5,14.497 -8.0081,-0.002 -14.5,-6.495 -14.5,-14.503 0,-8.0081 6.4919,-14.4986 14.5,-14.497 z m 10.069,14.502 c 0,-5.5611 -4.5078,-10.0703 -10.069,-10.0714 -5.5612,-0.0011 -10.0694,4.5062 -10.0694,10.0674 0,5.561 4.5082,10.07 10.0694,10.071 5.5612,0.002 10.069,-4.506 10.069,-10.067 z"
         fill="#000000"
         id="path16" /></g></g><circle
     cx="15.001"
     cy="30.023"
     r="1.113"
     fill="none"
     stroke="#292929"
     stroke-width=".403"
     stroke-opacity=".706"
     id="circle3" /><circle
     r="1.451"
     cy="21.062"
     cx="31.25"
     fill="none"
     stroke="#292929"
     stroke-width=".525"
     stroke-opacity=".706"
     id="circle4" /><circle
     cx="18.75"
     cy="6.534"
     r=".726"
     fill="none"
     stroke="#292929"
     stroke-width=".263"
     stroke-opacity=".706"
     id="circle5" /><circle
     r="1.862"
     cy="14.584"
     cx="7.591"
     fill="none"
     stroke="#292929"
     stroke-width=".674"
     stroke-opacity=".706"
     id="circle6" /><circle
     cx="-71.967"
     cy="49.741"
     r="16.933"
     clip-path="url(#a)"
     transform="matrix(1 0 0 1 91.017 -30.691)"
     fill="#0097f0"
     fill-opacity=".584"
     stroke="#191919"
     stroke-width="3.175"
     id="circle7" /></svg>
