<?xml version="1.0" encoding="UTF-8" standalone="no"?>
<svg
   width="144"
   height="144"
   viewBox="0 0 38.1 38.1"
   version="1.1"
   id="svg7"
   sodipodi:docname="map-vat-06.svg"
   xml:space="preserve"
   inkscape:version="1.4.2 (ebf0e940d0, 2025-05-08)"
   xmlns:inkscape="http://www.inkscape.org/namespaces/inkscape"
   xmlns:sodipodi="http://sodipodi.sourceforge.net/DTD/sodipodi-0.dtd"
   xmlns="http://www.w3.org/2000/svg"
   xmlns:svg="http://www.w3.org/2000/svg"><sodipodi:namedview
     id="namedview7"
     pagecolor="#ffffff"
     bordercolor="#000000"
     borderopacity="0.25"
     inkscape:showpageshadow="2"
     inkscape:pageopacity="0.0"
     inkscape:pagecheckerboard="0"
     inkscape:deskcolor="#d1d1d1"
     inkscape:zoom="3.9823862"
     inkscape:cx="66.16636"
     inkscape:cy="73.950638"
     inkscape:window-width="1920"
     inkscape:window-height="1017"
     inkscape:window-x="0"
     inkscape:window-y="0"
     inkscape:window-maximized="1"
     inkscape:current-layer="g3" /><defs
     id="defs1"><clipPath
       id="a"><circle
         r="16.933"
         cy="49.741"
         cx="-71.967"
         fill="#0097f0"
         fill-opacity=".586"
         stroke-width="1.881"
         id="circle1" /></clipPath><radialGradient
       id="paint0_radial_1153_1266"
       cx="0"
       cy="0"
       r="1"
       gradientUnits="userSpaceOnUse"
       gradientTransform="matrix(57.1992,0,0,46.0339,66.8739,51.7808)"><stop
         stop-color="#002CAC"
         id="stop117" /><stop
         offset="1"
         stop-color="#00C7EF"
         id="stop118" /></radialGradient><radialGradient
       id="paint1_radial_1153_1266"
       cx="0"
       cy="0"
       r="1"
       gradientUnits="userSpaceOnUse"
       gradientTransform="matrix(40.9678,0,0,40.9678,63.1671,69.9678)"><stop
         offset="0.7207"
         stop-color="#00C2FF"
         id="stop119" /><stop
         offset="0.9617"
         stop-color="#8EEBFF"
         id="stop120" /></radialGradient><radialGradient
       id="paint2_radial_1153_1266"
       cx="0"
       cy="0"
       r="1"
       gradientUnits="userSpaceOnUse"
       gradientTransform="matrix(40.9678,0,0,40.9678,63.1671,69.9678)"><stop
         offset="0.7207"
         stop-color="#00C2FF"
         id="stop121" /><stop
         offset="0.9617"
         stop-color="#8EEBFF"
         id="stop122" /></radialGradient><linearGradient
       id="paint3_linear_1153_1266"
       x1="77.0661"
       y1="75.6061"
       x2="77.0661"
       y2="44.5212"
       gradientUnits="userSpaceOnUse"><stop
         stop-color="#0095FF"
         stop-opacity="0"
         id="stop123" /><stop
         offset="0.2372"
         stop-color="#43B1F5"
         stop-opacity="0.2372"
         id="stop124" /><stop
         offset="0.6139"
         stop-color="#A7DAE6"
         stop-opacity="0.6139"
         id="stop125" /><stop
         offset="0.8764"
         stop-color="#E6F5DD"
         stop-opacity="0.8764"
         id="stop126" /><stop
         offset="1"
         stop-color="#FFFFD9"
         id="stop127" /></linearGradient><linearGradient
       id="paint4_linear_1153_1266"
       x1="88.9908"
       y1="75.6058"
       x2="88.9908"
       y2="43.1175"
       gradientUnits="userSpaceOnUse"><stop
         stop-color="#0095FF"
         stop-opacity="0"
         id="stop128" /><stop
         offset="0.2372"
         stop-color="#43B1F5"
         stop-opacity="0.2372"
         id="stop129" /><stop
         offset="0.6139"
         stop-color="#A7DAE6"
         stop-opacity="0.6139"
         id="stop130" /><stop
         offset="0.8764"
         stop-color="#E6F5DD"
         stop-opacity="0.8764"
         id="stop131" /><stop
         offset="1"
         stop-color="#FFFFD9"
         id="stop132" /></linearGradient><linearGradient
       id="paint5_linear_1153_1266"
       x1="66.9645"
       y1="97.7354"
       x2="31.0042"
       y2="97.7354"
       gradientUnits="userSpaceOnUse"><stop
         stop-color="#0095FF"
         stop-opacity="0"
         id="stop133" /><stop
         offset="0.2372"
         stop-color="#43B1F5"
         stop-opacity="0.2372"
         id="stop134" /><stop
         offset="0.6139"
         stop-color="#A7DAE6"
         stop-opacity="0.6139"
         id="stop135" /><stop
         offset="0.8764"
         stop-color="#E6F5DD"
         stop-opacity="0.8764"
         id="stop136" /><stop
         offset="1"
         stop-color="#FFFFD9"
         id="stop137" /></linearGradient><linearGradient
       id="paint6_linear_1153_1266"
       x1="33.6493"
       y1="58.3498"
       x2="33.6493"
       y2="40.2007"
       gradientUnits="userSpaceOnUse"><stop
         stop-color="#0095FF"
         stop-opacity="0"
         id="stop138" /><stop
         offset="0.2372"
         stop-color="#43B1F5"
         stop-opacity="0.2372"
         id="stop139" /><stop
         offset="0.6139"
         stop-color="#A7DAE6"
         stop-opacity="0.6139"
         id="stop140" /><stop
         offset="0.8764"
         stop-color="#E6F5DD"
         stop-opacity="0.8764"
         id="stop141" /><stop
         offset="1"
         stop-color="#FFFFD9"
         id="stop142" /></linearGradient><radialGradient
       id="paint7_radial_1153_1266"
       cx="0"
       cy="0"
       r="1"
       gradientUnits="userSpaceOnUse"
       gradientTransform="matrix(13.2483,0,0,13.2483,62.987,69.7858)"><stop
         offset="0.7207"
         stop-color="#00C2FF"
         id="stop143" /><stop
         offset="0.9617"
         stop-color="#8EEBFF"
         id="stop144" /></radialGradient></defs><g
     transform="matrix(1 0 0 1 43.196 -11.114)"
     fill="#f8c574"
     id="g3"><g
       style="fill:none"
       id="g1"
       transform="matrix(0,-0.2342545,0.2342545,0,-41.646901,44.885464)"><path
         d="M 32,46.5022 C 32,63.8992 46.103,78.0017 63.5,78.0011 80.897,78.0005 95,63.897 95,46.5 95,29.103 80.897,15.0005 63.5,15.0011 46.103,15.0017 32,29.1052 32,46.5022 Z"
         fill="#ed937f"
         id="path1-6" /><path
         d="m 63.0625,15 c -17.1194,0 -31,13.8806 -31,31 0,17.1194 13.8806,31 31,31 17.1194,0 31,-13.8806 31,-31 0,-17.1194 -13.8806,-31 -31,-31 z"
         fill="#b57b45"
         id="path2-0" /><path
         d="m 63.9018,45.75 c -0.6016,0 -1.0893,-0.4877 -1.0893,-1.0893 0,-0.6015 0.4877,-1.0893 1.0893,-1.0893 0.6015,0 1.0893,0.4878 1.0893,1.0893 0,0.6016 -0.4878,1.0893 -1.0893,1.0893 z"
         fill="#ce9764"
         id="path3-4" /><path
         d="m 67.2494,26.5407 c 0.009,0.6015 -0.4715,1.0964 -1.0729,1.1054 -0.6015,0.0089 -1.0965,-0.4715 -1.1054,-1.073 -0.0089,-0.6015 0.4715,-1.0964 1.073,-1.1054 0.6015,-0.0089 1.0964,0.4715 1.1053,1.073 z"
         fill="#ce9764"
         id="path4" /><path
         d="m 41.7494,48.0407 c 0.009,0.6015 -0.4715,1.0964 -1.0729,1.1054 -0.6015,0.0089 -1.0965,-0.4715 -1.1054,-1.073 -0.0089,-0.6015 0.4715,-1.0964 1.073,-1.1054 0.6015,-0.0089 1.0964,0.4715 1.1053,1.073 z"
         fill="#ce9764"
         id="path5-6" /><path
         d="m 46.944,30.0128 c 0.5983,-0.0626 1.1341,0.3717 1.1968,0.97 0.0626,0.5983 -0.3717,1.1341 -0.97,1.1968 -0.5983,0.0626 -1.1341,-0.3717 -1.1968,-0.97 -0.0626,-0.5983 0.3717,-1.1341 0.97,-1.1968 z"
         fill="#ce9764"
         id="path6-7" /><path
         d="m 50.944,65.5128 c 0.5983,-0.0626 1.1341,0.3717 1.1968,0.97 0.0626,0.5983 -0.3717,1.1341 -0.97,1.1968 -0.5983,0.0626 -1.1341,-0.3717 -1.1968,-0.97 -0.0626,-0.5983 0.3717,-1.1341 0.97,-1.1968 z"
         fill="#ce9764"
         id="path7-6" /><path
         d="m 80.944,43.0128 c 0.5983,-0.0626 1.1341,0.3717 1.1968,0.97 0.0626,0.5983 -0.3717,1.1341 -0.97,1.1968 -0.5983,0.0626 -1.1341,-0.3717 -1.1968,-0.97 -0.0626,-0.5983 0.3717,-1.1341 0.97,-1.1968 z"
         fill="#ce9764"
         id="path8" /><path
         d="m 69.444,67.0128 c 0.5983,-0.0626 1.1341,0.3717 1.1968,0.97 0.0626,0.5983 -0.3717,1.1341 -0.97,1.1968 -0.5983,0.0626 -1.1341,-0.3717 -1.1968,-0.97 -0.0626,-0.5983 0.3717,-1.1341 0.97,-1.1968 z"
         fill="#ce9764"
         id="path9" /><path
         d="m 88.944,59.0128 c 0.5983,-0.0626 1.1341,0.3717 1.1968,0.97 0.0626,0.5983 -0.3717,1.1341 -0.97,1.1968 -0.5983,0.0626 -1.1341,-0.3717 -1.1968,-0.97 -0.0626,-0.5983 0.3717,-1.1341 0.97,-1.1968 z"
         fill="#ce9764"
         id="path10-0" /><path
         d="m 68.3829,50.0985 c 0.0776,0.5965 -0.3431,1.1432 -0.9396,1.2208 -0.5966,0.0776 -1.1432,-0.3431 -1.2208,-0.9396 -0.0776,-0.5965 0.3431,-1.1432 0.9396,-1.2208 0.5965,-0.0776 1.1431,0.3431 1.2208,0.9396 z"
         fill="#996637"
         id="path11-9" /><path
         d="m 71.5314,21.9981 c 0.5953,-0.0863 1.148,0.3264 1.2343,0.9217 0.0863,0.5953 -0.3263,1.148 -0.9217,1.2344 -0.5953,0.0863 -1.148,-0.3264 -1.2343,-0.9217 -0.0863,-0.5953 0.3263,-1.148 0.9217,-1.2344 z"
         fill="#996637"
         id="path12-7" /><path
         d="m 46.0314,43.4981 c 0.5953,-0.0863 1.148,0.3264 1.2343,0.9217 0.0863,0.5953 -0.3263,1.148 -0.9217,1.2344 -0.5953,0.0863 -1.148,-0.3264 -1.2343,-0.9217 -0.0863,-0.5953 0.3263,-1.148 0.9217,-1.2344 z"
         fill="#996637"
         id="path13-5" /><path
         d="m 42.0372,26.1545 c -0.1392,-0.5853 0.2225,-1.1726 0.8077,-1.3118 0.5852,-0.1391 1.1726,0.2225 1.3117,0.8077 0.1392,0.5853 -0.2225,1.1726 -0.8077,1.3118 -0.5852,0.1392 -1.1726,-0.2225 -1.3117,-0.8077 z"
         fill="#996637"
         id="path14-9" /><path
         d="m 46.0372,61.6545 c -0.1392,-0.5853 0.2225,-1.1726 0.8077,-1.3118 0.5852,-0.1391 1.1726,0.2225 1.3117,0.8077 0.1392,0.5853 -0.2225,1.1726 -0.8077,1.3118 -0.5852,0.1392 -1.1726,-0.2225 -1.3117,-0.8077 z"
         fill="#996637"
         id="path15-7" /><path
         d="m 76.0372,39.1545 c -0.1392,-0.5853 0.2225,-1.1726 0.8077,-1.3118 0.5852,-0.1391 1.1726,0.2225 1.3117,0.8077 0.1392,0.5853 -0.2225,1.1726 -0.8077,1.3118 -0.5852,0.1392 -1.1726,-0.2225 -1.3117,-0.8077 z"
         fill="#996637"
         id="path16-8" /><path
         d="m 64.5372,63.1545 c -0.1392,-0.5853 0.2225,-1.1726 0.8077,-1.3118 0.5852,-0.1391 1.1726,0.2225 1.3117,0.8077 0.1392,0.5853 -0.2225,1.1726 -0.8077,1.3118 -0.5852,0.1392 -1.1726,-0.2225 -1.3117,-0.8077 z"
         fill="#996637"
         id="path17" /><path
         d="m 84.0372,55.1545 c -0.1392,-0.5853 0.2225,-1.1726 0.8077,-1.3118 0.5852,-0.1391 1.1726,0.2225 1.3117,0.8077 0.1392,0.5853 -0.2225,1.1726 -0.8077,1.3118 -0.5852,0.1392 -1.1726,-0.2225 -1.3117,-0.8077 z"
         fill="#996637"
         id="path18" /><path
         d="m 67.1713,40.3037 c -0.6015,0 -1.0893,-0.4877 -1.0893,-1.0893 0,-0.6015 0.4878,-1.0893 1.0893,-1.0893 0.6016,0 1.0893,0.4878 1.0893,1.0893 0,0.6016 -0.4877,1.0893 -1.0893,1.0893 z"
         fill="#996637"
         id="path19" /><path
         d="m 61.7575,23.3532 c 0.0088,0.6015 -0.4718,1.0963 -1.0732,1.1051 -0.6015,0.0088 -1.0963,-0.4718 -1.1051,-1.0733 -0.0088,-0.6014 0.4718,-1.0962 1.0732,-1.105 0.6015,-0.0088 1.0963,0.4717 1.1051,1.0732 z"
         fill="#996637"
         id="path20" /><path
         d="m 36.2575,44.8532 c 0.0088,0.6015 -0.4718,1.0963 -1.0732,1.1051 -0.6015,0.0088 -1.0963,-0.4718 -1.1051,-1.0733 -0.0088,-0.6014 0.4718,-1.0962 1.0732,-1.105 0.6015,-0.0088 1.0963,0.4717 1.1051,1.0732 z"
         fill="#996637"
         id="path21" /><path
         d="m 44.2604,35.7704 c 0.5982,-0.0625 1.134,0.3719 1.1965,0.9702 0.0625,0.5983 -0.372,1.1341 -0.9703,1.1966 -0.5982,0.0624 -1.134,-0.372 -1.1965,-0.9703 -0.0625,-0.5983 0.372,-1.134 0.9703,-1.1965 z"
         fill="#996637"
         id="path22" /><path
         d="m 48.2604,71.2704 c 0.5982,-0.0625 1.134,0.3719 1.1965,0.9702 0.0625,0.5983 -0.372,1.1341 -0.9703,1.1966 -0.5982,0.0624 -1.134,-0.372 -1.1965,-0.9703 -0.0625,-0.5983 0.372,-1.134 0.9703,-1.1965 z"
         fill="#996637"
         id="path23" /><path
         d="m 78.2604,48.7704 c 0.5982,-0.0625 1.134,0.3719 1.1965,0.9702 0.0625,0.5983 -0.372,1.1341 -0.9703,1.1966 -0.5982,0.0624 -1.134,-0.372 -1.1965,-0.9703 -0.0625,-0.5983 0.372,-1.134 0.9703,-1.1965 z"
         fill="#996637"
         id="path24" /><path
         d="m 66.7604,72.7704 c 0.5982,-0.0625 1.134,0.3719 1.1965,0.9702 0.0625,0.5983 -0.372,1.1341 -0.9703,1.1966 -0.5982,0.0624 -1.134,-0.372 -1.1965,-0.9703 -0.0625,-0.5983 0.372,-1.134 0.9703,-1.1965 z"
         fill="#996637"
         id="path25" /><path
         d="m 86.2604,64.7704 c 0.5982,-0.0625 1.134,0.3719 1.1965,0.9702 0.0625,0.5983 -0.372,1.1341 -0.9703,1.1966 -0.5982,0.0624 -1.134,-0.372 -1.1965,-0.9703 -0.0625,-0.5983 0.372,-1.134 0.9703,-1.1965 z"
         fill="#996637"
         id="path26" /><path
         d="m 60.7579,41.3837 c 0.0776,0.5965 -0.3431,1.1431 -0.9396,1.2207 -0.5966,0.0777 -1.1432,-0.3431 -1.2208,-0.9396 -0.0776,-0.5965 0.3431,-1.1431 0.9396,-1.2207 0.5965,-0.0776 1.1431,0.3431 1.2208,0.9396 z"
         fill="#996637"
         id="path27" /><path
         d="m 62.9298,29.7491 c 0.5953,-0.0863 1.148,0.3264 1.2343,0.9217 0.0864,0.5953 -0.3263,1.148 -0.9216,1.2343 -0.5953,0.0864 -1.148,-0.3263 -1.2344,-0.9216 -0.0863,-0.5954 0.3264,-1.1481 0.9217,-1.2344 z"
         fill="#996637"
         id="path28" /><path
         d="m 37.4298,51.2491 c 0.5953,-0.0863 1.148,0.3264 1.2343,0.9217 0.0864,0.5953 -0.3263,1.148 -0.9216,1.2343 -0.5953,0.0864 -1.148,-0.3263 -1.2344,-0.9216 -0.0863,-0.5954 0.3264,-1.1481 0.9217,-1.2344 z"
         fill="#996637"
         id="path29" /><path
         d="m 50.5254,34.0304 c -0.1391,-0.5852 0.2225,-1.1725 0.8078,-1.3117 0.5852,-0.1392 1.1725,0.2225 1.3117,0.8077 0.1392,0.5853 -0.2225,1.1726 -0.8077,1.3118 -0.5852,0.1391 -1.1726,-0.2225 -1.3118,-0.8078 z"
         fill="#996637"
         id="path30" /><path
         d="m 54.5254,69.5304 c -0.1391,-0.5852 0.2225,-1.1725 0.8078,-1.3117 0.5852,-0.1392 1.1725,0.2225 1.3117,0.8077 0.1392,0.5853 -0.2225,1.1726 -0.8077,1.3118 -0.5852,0.1391 -1.1726,-0.2225 -1.3118,-0.8078 z"
         fill="#996637"
         id="path31" /><path
         d="m 84.5254,47.0304 c -0.1391,-0.5852 0.2225,-1.1725 0.8078,-1.3117 0.5852,-0.1392 1.1725,0.2225 1.3117,0.8077 0.1392,0.5853 -0.2225,1.1726 -0.8077,1.3118 -0.5852,0.1391 -1.1726,-0.2225 -1.3118,-0.8078 z"
         fill="#996637"
         id="path32" /><path
         d="m 73.0254,71.0304 c -0.1391,-0.5852 0.2225,-1.1725 0.8078,-1.3117 0.5852,-0.1392 1.1725,0.2225 1.3117,0.8077 0.1392,0.5853 -0.2225,1.1726 -0.8077,1.3118 -0.5852,0.1391 -1.1726,-0.2225 -1.3118,-0.8078 z"
         fill="#996637"
         id="path33" /><path
         d="m 92.5254,63.0304 c -0.1391,-0.5852 0.2225,-1.1725 0.8078,-1.3117 0.5852,-0.1392 1.1725,0.2225 1.3117,0.8077 0.1392,0.5853 -0.2225,1.1726 -0.8077,1.3118 -0.5852,0.1391 -1.1726,-0.2225 -1.3118,-0.8078 z"
         fill="#996637"
         id="path34" /><path
         d="m 54.101,41.3936 c -0.6015,0 -1.0893,-0.4878 -1.0893,-1.0893 0,-0.6016 0.4878,-1.0893 1.0893,-1.0893 0.6016,0 1.0893,0.4877 1.0893,1.0893 0,0.6015 -0.4877,1.0893 -1.0893,1.0893 z"
         fill="#ce9764"
         id="path35" /><path
         d="m 63.0388,36.4069 c 0.0088,0.6015 -0.4718,1.0963 -1.0733,1.1051 -0.6015,0.0088 -1.0963,-0.4718 -1.1051,-1.0732 -0.0088,-0.6015 0.4718,-1.0963 1.0733,-1.1051 0.6015,-0.0088 1.0963,0.4717 1.1051,1.0732 z"
         fill="#ce9764"
         id="path36" /><path
         d="m 37.5388,57.9069 c 0.0088,0.6015 -0.4718,1.0963 -1.0733,1.1051 -0.6015,0.0088 -1.0963,-0.4718 -1.1051,-1.0732 -0.0088,-0.6015 0.4718,-1.0963 1.0733,-1.1051 0.6015,-0.0088 1.0963,0.4717 1.1051,1.0732 z"
         fill="#ce9764"
         id="path37" /><path
         d="m 57.1471,33.329 c 0.5983,-0.0625 1.134,0.3719 1.1965,0.9702 0.0625,0.5983 -0.3719,1.1341 -0.9702,1.1966 -0.5983,0.0624 -1.1341,-0.372 -1.1966,-0.9703 -0.0625,-0.5983 0.372,-1.1341 0.9703,-1.1965 z"
         fill="#ce9764"
         id="path38" /><path
         d="m 61.1471,68.829 c 0.5983,-0.0625 1.134,0.3719 1.1965,0.9702 0.0625,0.5983 -0.3719,1.1341 -0.9702,1.1966 -0.5983,0.0624 -1.1341,-0.372 -1.1966,-0.9703 -0.0625,-0.5983 0.372,-1.1341 0.9703,-1.1965 z"
         fill="#ce9764"
         id="path39" /><path
         d="m 91.1471,46.329 c 0.5983,-0.0625 1.134,0.3719 1.1965,0.9702 0.0625,0.5983 -0.3719,1.1341 -0.9702,1.1966 -0.5983,0.0624 -1.1341,-0.372 -1.1966,-0.9703 -0.0625,-0.5983 0.372,-1.1341 0.9703,-1.1965 z"
         fill="#ce9764"
         id="path40" /><path
         d="m 79.6471,70.329 c 0.5983,-0.0625 1.134,0.3719 1.1965,0.9702 0.0625,0.5983 -0.3719,1.1341 -0.9702,1.1966 -0.5983,0.0624 -1.1341,-0.372 -1.1966,-0.9703 -0.0625,-0.5983 0.372,-1.1341 0.9703,-1.1965 z"
         fill="#ce9764"
         id="path41" /><path
         d="m 63.5235,54.2069 c 0.0776,0.5965 -0.3431,1.1431 -0.9396,1.2208 -0.5965,0.0776 -1.1431,-0.3431 -1.2208,-0.9396 -0.0776,-0.5966 0.3431,-1.1432 0.9397,-1.2208 0.5965,-0.0776 1.1431,0.3431 1.2207,0.9396 z"
         fill="#996637"
         id="path42" /><path
         d="m 75.7111,26.795 c 0.5953,-0.0863 1.148,0.3264 1.2343,0.9217 0.0863,0.5953 -0.3264,1.148 -0.9217,1.2343 -0.5953,0.0864 -1.148,-0.3263 -1.2343,-0.9216 -0.0864,-0.5954 0.3263,-1.1481 0.9217,-1.2344 z"
         fill="#996637"
         id="path43" /><path
         d="m 50.2111,48.295 c 0.5953,-0.0863 1.148,0.3264 1.2343,0.9217 0.0863,0.5953 -0.3264,1.148 -0.9217,1.2343 -0.5953,0.0864 -1.148,-0.3263 -1.2343,-0.9216 -0.0864,-0.5954 0.3263,-1.1481 0.9217,-1.2344 z"
         fill="#996637"
         id="path44" /><path
         d="m 46.4395,21.5636 c -0.1392,-0.5852 0.2225,-1.1725 0.8077,-1.3117 0.5853,-0.1392 1.1726,0.2225 1.3118,0.8077 0.1391,0.5853 -0.2225,1.1726 -0.8078,1.3118 -0.5852,0.1391 -1.1725,-0.2225 -1.3117,-0.8078 z"
         fill="#996637"
         id="path45" /><path
         d="m 50.4395,57.0636 c -0.1392,-0.5852 0.2225,-1.1725 0.8077,-1.3117 0.5853,-0.1392 1.1726,0.2225 1.3118,0.8077 0.1391,0.5853 -0.2225,1.1726 -0.8078,1.3118 -0.5852,0.1391 -1.1725,-0.2225 -1.3117,-0.8078 z"
         fill="#996637"
         id="path46" /><path
         d="m 80.4395,34.5636 c -0.1392,-0.5852 0.2225,-1.1725 0.8077,-1.3117 0.5853,-0.1392 1.1726,0.2225 1.3118,0.8077 0.1391,0.5853 -0.2225,1.1726 -0.8078,1.3118 -0.5852,0.1391 -1.1725,-0.2225 -1.3117,-0.8078 z"
         fill="#996637"
         id="path47" /><path
         d="m 68.9395,58.5636 c -0.1392,-0.5852 0.2225,-1.1725 0.8077,-1.3117 0.5853,-0.1392 1.1726,0.2225 1.3118,0.8077 0.1391,0.5853 -0.2225,1.1726 -0.8078,1.3118 -0.5852,0.1391 -1.1725,-0.2225 -1.3117,-0.8078 z"
         fill="#996637"
         id="path48" /><path
         d="m 88.4395,50.5636 c -0.1392,-0.5852 0.2225,-1.1725 0.8077,-1.3117 0.5853,-0.1392 1.1726,0.2225 1.3118,0.8077 0.1391,0.5853 -0.2225,1.1726 -0.8078,1.3118 -0.5852,0.1391 -1.1725,-0.2225 -1.3117,-0.8078 z"
         fill="#996637"
         id="path49" /><path
         d="m 57.3666,51.1963 c -0.6015,0 -1.0893,-0.4878 -1.0893,-1.0893 0,-0.6015 0.4878,-1.0893 1.0893,-1.0893 0.6016,0 1.0893,0.4878 1.0893,1.0893 0,0.6015 -0.4877,1.0893 -1.0893,1.0893 z"
         fill="#ce9764"
         id="path50" /><path
         d="m 72.7927,32.9958 c 0.0088,0.6015 -0.4718,1.0963 -1.0733,1.1051 -0.6015,0.0088 -1.0963,-0.4718 -1.1051,-1.0733 -0.0088,-0.6015 0.4718,-1.0963 1.0733,-1.1051 0.6015,-0.0088 1.0963,0.4718 1.1051,1.0733 z"
         fill="#ce9764"
         id="path51" /><path
         d="m 47.2927,54.4958 c 0.0088,0.6015 -0.4718,1.0963 -1.0733,1.1051 -0.6015,0.0088 -1.0963,-0.4718 -1.1051,-1.0733 -0.0088,-0.6015 0.4718,-1.0963 1.0733,-1.1051 0.6015,-0.0088 1.0963,0.4718 1.1051,1.0733 z"
         fill="#ce9764"
         id="path52" /><path
         d="m 52.8775,23.9178 c 0.5983,-0.0625 1.1341,0.372 1.1966,0.9703 0.0625,0.5983 -0.372,1.134 -0.9703,1.1965 -0.5983,0.0625 -1.134,-0.3719 -1.1965,-0.9702 -0.0625,-0.5983 0.372,-1.1341 0.9702,-1.1966 z"
         fill="#ce9764"
         id="path53" /><path
         d="m 56.8775,59.4178 c 0.5983,-0.0625 1.1341,0.372 1.1966,0.9703 0.0625,0.5983 -0.372,1.134 -0.9703,1.1965 -0.5983,0.0625 -1.134,-0.3719 -1.1965,-0.9702 -0.0625,-0.5983 0.372,-1.1341 0.9702,-1.1966 z"
         fill="#ce9764"
         id="path54" /><path
         d="m 86.8775,36.9178 c 0.5983,-0.0625 1.1341,0.372 1.1966,0.9703 0.0625,0.5983 -0.372,1.134 -0.9703,1.1965 -0.5983,0.0625 -1.134,-0.3719 -1.1965,-0.9702 -0.0625,-0.5983 0.372,-1.1341 0.9702,-1.1966 z"
         fill="#ce9764"
         id="path55" /><path
         d="m 75.3775,60.9178 c 0.5983,-0.0625 1.1341,0.372 1.1966,0.9703 0.0625,0.5983 -0.372,1.134 -0.9703,1.1965 -0.5983,0.0625 -1.134,-0.3719 -1.1965,-0.9702 -0.0625,-0.5983 0.372,-1.1341 0.9702,-1.1966 z"
         fill="#ce9764"
         id="path56" /><path
         d="m 94.8775,52.9178 c 0.5983,-0.0625 1.1341,0.372 1.1966,0.9703 0.0625,0.5983 -0.372,1.134 -0.9703,1.1965 -0.5983,0.0625 -1.134,-0.3719 -1.1965,-0.9702 -0.0625,-0.5983 0.372,-1.1341 0.9702,-1.1966 z"
         fill="#ce9764"
         id="path57" /><path
         d="m 72.7422,49.0087 c 0.0777,0.5965 -0.343,1.1431 -0.9396,1.2207 -0.5965,0.0777 -1.1431,-0.3431 -1.2207,-0.9396 -0.0776,-0.5965 0.3431,-1.1431 0.9396,-1.2207 0.5965,-0.0776 1.1431,0.3431 1.2207,0.9396 z"
         fill="#ce9764"
         id="path58" /><path
         d="m 70.379,17.6563 c 0.5953,-0.0863 1.148,0.3264 1.2344,0.9217 0.0863,0.5953 -0.3264,1.148 -0.9217,1.2344 -0.5953,0.0863 -1.148,-0.3264 -1.2343,-0.9217 -0.0864,-0.5953 0.3263,-1.148 0.9216,-1.2344 z"
         fill="#ce9764"
         id="path59" /><path
         d="m 44.879,39.1563 c 0.5953,-0.0863 1.148,0.3264 1.2344,0.9217 0.0863,0.5953 -0.3264,1.148 -0.9217,1.2344 -0.5953,0.0863 -1.148,-0.3264 -1.2343,-0.9217 -0.0864,-0.5953 0.3263,-1.148 0.9216,-1.2344 z"
         fill="#ce9764"
         id="path60" /><path
         d="m 37.8145,27.6906 c -0.1392,-0.5852 0.2225,-1.1726 0.8077,-1.3117 0.5853,-0.1392 1.1726,0.2225 1.3118,0.8077 0.1391,0.5852 -0.2225,1.1726 -0.8078,1.3117 -0.5852,0.1392 -1.1725,-0.2225 -1.3117,-0.8077 z"
         fill="#ce9764"
         id="path61" /><path
         d="m 41.8145,63.1906 c -0.1392,-0.5852 0.2225,-1.1726 0.8077,-1.3117 0.5853,-0.1392 1.1726,0.2225 1.3118,0.8077 0.1391,0.5852 -0.2225,1.1726 -0.8078,1.3117 -0.5852,0.1392 -1.1725,-0.2225 -1.3117,-0.8077 z"
         fill="#ce9764"
         id="path62" /><path
         d="m 71.8145,40.6906 c -0.1392,-0.5852 0.2225,-1.1726 0.8077,-1.3117 0.5853,-0.1392 1.1726,0.2225 1.3118,0.8077 0.1391,0.5852 -0.2225,1.1726 -0.8078,1.3117 -0.5852,0.1392 -1.1725,-0.2225 -1.3117,-0.8077 z"
         fill="#ce9764"
         id="path63" /><path
         d="m 60.3145,64.6906 c -0.1392,-0.5852 0.2225,-1.1726 0.8077,-1.3117 0.5853,-0.1392 1.1726,0.2225 1.3118,0.8077 0.1391,0.5852 -0.2225,1.1726 -0.8078,1.3117 -0.5852,0.1392 -1.1725,-0.2225 -1.3117,-0.8077 z"
         fill="#ce9764"
         id="path64" /><path
         d="m 79.8145,56.6906 c -0.1392,-0.5852 0.2225,-1.1726 0.8077,-1.3117 0.5853,-0.1392 1.1726,0.2225 1.3118,0.8077 0.1391,0.5852 -0.2225,1.1726 -0.8078,1.3117 -0.5852,0.1392 -1.1725,-0.2225 -1.3117,-0.8077 z"
         fill="#ce9764"
         id="path65" /><path
         d="m 38.5625,65.1529 c 5.2919,4.175 11.9733,6.6666 19.2362,6.6666 17.1654,0 31.0833,-13.9179 31.0833,-31.0833 0,-7.2629 -2.4916,-13.9443 -6.6666,-19.2362 7.2152,5.6924 11.8471,14.5141 11.8471,24.4167 C 94.0625,63.0821 80.1446,77 62.9792,77 53.0766,77 44.2549,72.3681 38.5625,65.1529 Z"
         fill="#975c26"
         fill-opacity="0.5"
         id="path66" /><path
         d="m 87.5625,26.8471 c -5.2919,-4.175 -11.9733,-6.6666 -19.2362,-6.6666 -17.1654,0 -31.0833,13.9179 -31.0833,31.0833 0,7.2629 2.4916,13.9443 6.6666,19.2362 C 36.6944,64.8076 32.0625,55.9859 32.0625,46.0833 32.0625,28.9179 45.9804,15 63.1458,15 c 9.9026,0 18.7243,4.6319 24.4167,11.8471 z"
         fill="#cba079"
         fill-opacity="0.5"
         id="path67" /><path
         fill-rule="evenodd"
         clip-rule="evenodd"
         d="M 64,12.0012 C 82.7777,12.0005 98,27.2223 98,46 98,64.7777 82.7777,80.0005 64,80.0012 45.2223,80.0018 30,64.7801 30,46.0024 30,27.2247 45.2223,12.0018 64,12.0012 Z m 28.8097,33.999 C 92.8097,30.089 79.9112,17.1909 64,17.1915 48.0888,17.192 35.1903,30.091 35.1903,46.0022 35.1903,61.9134 48.0888,74.8115 64,74.8109 79.9112,74.8104 92.8097,61.9114 92.8097,46.0002 Z"
         fill="#000000"
         id="path68" /><path
         d="m 63.1992,111 c 22.6437,0 40.9998,-18.3563 40.9998,-41 0,-22.6437 -18.3561,-41 -40.9998,-41 -22.6437,0 -41,18.3563 -41,41 0,22.6437 18.3563,41 41,41 z"
         fill="url(#paint0_radial_1153_1266)"
         id="path69"
         style="fill:url(#paint0_radial_1153_1266)" /><path
         d="m 63.1992,111 c 22.6437,0 40.9998,-18.3563 40.9998,-41 0,-22.6437 -18.3561,-41 -40.9998,-41 -22.6437,0 -41,18.3563 -41,41 0,22.6437 18.3563,41 41,41 z"
         fill="url(#paint1_radial_1153_1266)"
         id="path70"
         style="fill:url(#paint1_radial_1153_1266)" /><path
         d="m 63.1992,30.0199 c 22.0299,0 39.9798,17.9502 39.9798,39.9801 0,22.0299 -17.9499,39.98 -39.9798,39.98 C 41.1694,109.878 23.2191,92.0299 23.2191,70 c 0,-22.0299 17.9503,-39.9801 39.9801,-39.9801 z m 0,-1.0199 c -22.6418,0 -41,18.3582 -41,41 0,22.6418 18.3582,41 41,41 22.6418,0 40.9998,-18.3582 40.9998,-41 0,-22.6418 -18.358,-41 -40.9998,-41 z"
         fill="url(#paint2_radial_1153_1266)"
         id="path71"
         style="fill:url(#paint2_radial_1153_1266)" /><path
         d="m 63.1992,30.0199 c 22.0299,0 39.9798,17.9502 39.9798,39.9801 0,22.0299 -17.9499,39.98 -39.9798,39.98 C 41.1694,109.878 23.2191,92.0299 23.2191,70 c 0,-22.0299 17.9503,-39.9801 39.9801,-39.9801 z m 0,-1.0199 c -22.6418,0 -41,18.3582 -41,41 0,22.6418 18.3582,41 41,41 22.6418,0 40.9998,-18.3582 40.9998,-41 0,-22.6418 -18.358,-41 -40.9998,-41 z"
         fill="#000000"
         fill-opacity="0.2"
         id="path72" /><path
         opacity="0.1"
         fill-rule="evenodd"
         clip-rule="evenodd"
         d="m 57.3864,32.4678 c 0.102,0 0.204,0 0.306,0.102 0.5099,0.2039 1.0199,0.4079 1.5298,0.6119 0.408,0.204 0.714,0.6119 1.0199,0.8159 0.612,0.408 1.2239,0.714 1.9379,0.9179 0.8159,0.306 1.5298,0.816 2.3457,1.1219 2.1418,0.8159 4.5896,0.51 6.7314,0.408 0.5099,0 0.9179,0 1.4278,-0.102 0.306,0 0.714,0 1.0199,0.102 0.714,0.102 1.6319,0.306 2.1418,0.9179 0.306,0.306 0.306,0.8159 0.408,1.3259 0.204,0.6119 0.204,0.9179 -0.408,0.9179 -1.1219,0.102 -2.5497,-0.102 -2.8557,1.3258 -0.204,0.918 -0.51,1.7339 -0.6119,2.6518 -0.102,1.0199 -0.612,2.1418 -0.102,3.1617 0.3059,0.7139 1.2238,1.0199 1.9378,1.4278 0.6119,0.408 1.2239,0.714 1.7338,1.2239 0.408,0.408 0.51,0.9179 0.7139,1.4279 0.408,0.7139 1.0199,1.4278 1.9378,1.2239 0.306,-0.102 0.306,-0.204 0.714,-0.102 0.306,0.102 0.7139,0.4079 0.9179,0.7139 0.7139,0.7139 1.3259,1.5299 2.0398,2.2438 0.5099,0.4079 1.1219,0.8159 1.7338,1.1219 0.408,0.204 0.7139,0.6119 1.0199,0.8159 0.204,0.102 0.51,0.102 0.714,0.204 0.7139,0.204 1.1218,0.5099 1.5298,1.1219 0.8159,1.2238 1.6318,3.1617 1.9378,4.5895 0.102,1.0199 -0.204,1.3259 -1.1219,1.5299 -0.7139,0.2039 -1.8358,0.2039 -2.3457,0.8159 -0.408,0.5099 -0.51,1.2239 -0.918,1.7338 -0.4079,0.51 -0.7139,1.0199 -1.3258,1.2239 -1.1219,0.204 -2.3458,-0.102 -3.4677,0 -1.2239,0.102 -2.9577,0.9179 -2.9577,2.3458 0,0.7139 -0.204,1.3258 -0.51,1.9378 -0.2039,0.4079 -0.5099,1.0199 0,1.4278 0.306,0.306 0.918,0.204 1.2239,0.408 0.408,0.306 0.408,0.6119 0.51,1.1219 0,0.6119 0.204,1.4279 0.102,2.0398 -0.204,1.1219 -1.7339,2.2438 -2.8558,2.4478 -1.3258,0.2039 -2.6517,0.6119 -3.8756,-0.102 -0.8159,-0.408 -1.4278,-1.2239 -2.4477,-1.1219 -0.612,0.102 -1.0199,0.5099 -1.5299,0.7139 -0.5099,0.204 -1.1219,0.306 -1.6318,0.6119 -0.51,0.306 -1.0199,0.51 -1.5299,0.714 -0.7139,0.3059 -1.5298,0.6119 -2.2438,0.8159 -0.9179,0.204 -1.8358,0 -2.7537,0 -0.8159,0 -1.4278,-0.306 -2.2438,-0.408 -0.8159,-0.102 -1.7338,-0.4079 -2.6517,-0.3059 -0.6119,0.102 -1.3259,0.3059 -1.9378,0.4079 -1.8358,0.204 -1.9378,-1.7338 -2.0398,-3.1617 0,-0.9179 -0.102,-1.8358 0.102,-2.7537 0.204,-0.7139 0.3059,-1.5299 0.4079,-2.2438 0,-0.7139 0,-1.5298 -0.102,-2.2438 0,-0.3059 -0.1019,-0.6119 -0.1019,-0.9179 0.1019,-0.5099 0.4079,-0.9179 0.8159,-1.2239 0.9179,-0.7139 1.9378,-1.6318 2.9577,-2.0398 1.1219,-0.5099 1.7338,0.612 2.3458,1.4279 0.3059,0.408 0.8159,0.9179 1.3258,0.8159 0.51,-0.102 0.9179,-0.4079 1.4279,-0.5099 0.6119,0 1.0199,0.204 1.3259,0.8159 0.1019,0.204 0.1019,0.5099 0.2039,0.7139 0.102,0.204 0.408,0.306 0.306,0.612 -0.102,0.6119 -1.0199,0.4079 -1.5298,0.4079 -0.816,0 -0.918,0 -1.3259,0.714 -0.204,0.4079 -0.51,1.1218 0,1.4278 0.4079,0.204 1.2239,-0.102 1.6318,0 1.7339,0.102 3.3657,0.204 4.0796,-1.7338 0.204,-0.612 0,-0.8159 0,-1.4279 0,-0.6119 0.408,-1.1219 0.408,-1.8358 -0.102,-0.8159 -0.8159,-1.5298 -1.3259,-2.2438 -0.5099,-0.8159 -1.2239,-1.5298 -1.9378,-2.2438 -0.5099,-0.5099 -0.9179,-0.6119 -1.5298,-0.8159 -0.612,-0.204 -0.714,-0.9179 -1.2239,-1.3258 -0.816,-0.714 -1.7339,-0.612 -2.7538,-0.816 -1.0199,-0.102 -1.6318,0.204 -2.5497,0.51 -1.9378,0.8159 -3.8756,1.7338 -5.5075,2.9577 -1.4278,1.0199 -2.8557,2.2438 -4.4875,2.9577 -0.816,0.306 -1.5299,0.6119 -2.4478,0.8159 -0.306,0.102 -0.306,-0.102 -0.5099,0.204 -0.102,0.102 -0.408,0.7139 -0.51,0.9179 -0.7139,1.1219 -0.6119,1.9378 -0.6119,2.4478 -0.102,0.6119 0,1.1219 0,1.6318 0,0.8159 0.102,1.6319 0.102,2.3458 0.1019,1.3259 -1.1219,2.1418 -1.3259,3.4677 -0.204,1.8358 0.5099,3.2636 1.0199,4.9975 0.4079,1.4278 0.9179,2.7537 1.1219,4.1816 0.102,0.9179 0.102,1.7338 0.3059,2.6517 0.306,1.1219 0.816,2.1418 1.2239,3.2637 0.306,0.8159 0.8159,1.6318 1.4279,2.3458 0.4079,0.4079 0.8159,0.7139 1.2239,1.2238 0.6119,0.9179 1.3258,1.8359 1.9378,2.7536 0.4079,0.51 0.9179,0.714 1.4278,1.02 0.51,0.306 1.0199,0.612 1.5299,1.02 1.3259,0.918 2.7537,2.448 4.4876,2.448 0.5099,0 1.0198,-0.102 1.5298,-0.102 0.408,0 0.7139,0.204 1.1219,0.306 0.306,0.102 0.6119,0.102 0.9179,0.306 0.51,0.204 0.9179,0.204 1.4279,0.306 0.4079,0.102 0.8159,0.204 1.2238,0.408 0.204,0.102 0.51,0.306 0.714,0.408 0.3059,0 0.3059,-0.102 0.5099,-0.204 0.306,-0.102 0.51,-0.204 0.8159,-0.306 0.714,-0.306 1.7339,-0.51 2.6518,-0.204 0.4079,0.204 0.7139,0.408 1.1219,0.51 0.9179,0.204 1.4278,0.204 2.3457,-0.102 0,0 0,0 0,0.102 -8.6691,2.039 -17.7462,1.019 -25.5995,-3.06 -0.1019,-0.306 -0.1019,-0.51 -0.2039,-0.816 -0.102,-0.816 -0.612,-1.428 -1.0199,-2.04 -0.612,-0.9177 -1.2239,-1.8357 -1.6319,-2.7536 -0.4079,-0.9179 -0.9179,-1.6318 -1.5298,-2.4477 -0.714,-1.0199 -1.2239,-2.0398 -1.9378,-3.0597 -0.714,-0.9179 -1.6319,-1.6319 -2.4478,-2.3458 -1.2239,-1.1219 -1.8358,-2.7537 -2.5497,-4.1816 -0.306,-0.7139 -0.408,-1.4279 -0.714,-2.0398 -0.204,-0.408 -0.5099,-0.7139 -0.7139,-1.1219 -0.408,-1.0199 -1.2239,-2.1418 -1.9378,-2.9577 -0.51,-0.5099 -1.1219,-0.408 -1.7339,-0.7139 -0.6119,-0.204 -0.8159,-1.0199 -1.3258,-1.5299 -0.51,-0.5099 -1.3259,-0.6119 -2.1418,-0.5099 -1.7338,-9.8931 0.5099,-20.1941 6.4254,-28.4552 0.6119,0.8159 0.8159,2.5497 1.2238,3.0597 0.204,0.3059 0.51,0.4079 0.816,0.7139 0.2039,0.306 0.3059,0.6119 0.4079,0.9179 0.204,0.5099 0.51,1.1219 1.1219,1.0199 0.612,-0.102 1.0199,-1.0199 1.6319,-0.51 0.3059,0.306 0.2039,0.714 0.6119,1.1219 0.306,0.306 0.5099,0.408 0.7139,0.816 0.408,0.5099 0.612,1.0199 0.8159,1.6318 0.102,0.306 0.408,0.408 0.612,0.6119 0.204,0.204 0.4079,0.612 0.6119,0.714 0.714,0.3059 0.9179,-0.612 1.1219,-1.0199 0.102,-0.204 0.204,-0.612 0.306,-0.816 0.102,-0.3059 0.306,-0.3059 0.5099,-0.5099 0.51,-0.51 0.612,-1.3259 0.714,-2.0398 0.102,-1.1219 0.2039,-2.2438 0.6119,-3.2637 0.204,-0.4079 0.204,-0.8159 0.51,-1.1219 0.2039,-0.3059 0.5099,-0.5099 0.7139,-0.8159 0.306,-0.306 0.5099,-0.6119 0.7139,-1.0199 0.306,-0.5099 0.8159,-0.8159 1.1219,-1.3259 0.306,-0.4079 0.7139,-1.3258 0.7139,-1.8358 0,-0.204 -0.2039,-0.408 -0.2039,-0.7139 0,-0.306 0.2039,-0.408 0.1019,-0.714 -0.1019,-0.6119 -1.2238,-1.2238 -1.6318,-1.5298 -0.7139,-0.51 -1.6318,-0.8159 -2.4478,-1.0199 -0.9179,-0.204 -1.6318,-0.102 -2.5497,-0.102 -0.306,0 -0.9179,-0.102 -1.3259,-0.306 0.306,-0.2039 0.612,-0.4079 0.9179,-0.7139 5.9155,-4.0796 12.7488,-6.4254 19.5821,-6.8333 z m -2.7537,25.7015 c -0.102,0.2039 0,0.7139 0.204,0.9179 0.3059,0.3059 1.0199,0.3059 1.4278,0.4079 0.51,0.102 0.9179,0.102 1.4279,-0.102 l -0.408,-0.1019 c 0.612,0 1.3259,0.2039 1.5299,-0.51 0.102,-0.408 -0.102,-0.7139 -0.408,-0.9179 -0.5099,-0.306 -1.2239,-0.7139 -1.8358,-0.7139 -0.408,0 -0.8159,0.2039 -1.1219,0.5099 -0.204,0.102 -0.6119,0.306 -0.8159,0.51 z M 67.0755,39.4031 c -0.204,0.408 -0.204,0.9179 -0.102,1.3259 0.102,0.3059 0.306,0.8159 0.5099,1.1219 0.51,0.6119 1.4279,0.9179 2.1418,1.1218 0.408,0.102 1.4279,0.306 0.612,-0.4079 0.3059,-0.102 0.6119,-0.102 0.8159,-0.306 0.204,-0.102 0.306,-0.306 0.4079,-0.5099 0.306,-0.408 0.51,-0.816 0.816,-1.2239 0.2039,-0.306 0.5099,-0.612 0.8159,-0.9179 0.306,-0.204 0.5099,-0.306 0.6119,-0.714 0,-0.2039 -0.102,-0.4079 -0.3059,-0.4079 -0.204,-0.102 -0.612,0 -0.816,-0.102 -0.3059,0 -0.5099,0 -0.8159,-0.102 -0.8159,0 -1.6318,0.204 -2.3458,0.204 -0.4079,0 -0.8159,0 -1.2238,0.102 -0.51,0.3059 -0.9179,0.5099 -1.1219,0.8159 z M 43.8217,38.7912 c -0.3059,0.7139 0.102,1.6318 0.408,2.2437 0.51,0.9179 1.4279,1.7339 2.2438,2.4478 0.306,0.306 0.6119,0.408 1.0199,0.6119 0.4079,0.102 0.8159,0.408 0.408,0 0.6119,-0.2039 1.1218,-0.4079 1.6318,-0.6119 0.7139,-0.306 1.4279,-0.51 2.1418,-0.7139 1.1219,-0.408 2.5497,-0.9179 3.3656,-1.9378 0.51,-0.612 0.918,-1.6319 0.612,-2.4478 -0.204,-0.51 -0.6119,-1.1219 -1.1219,-1.5299 -0.6119,-0.4079 -1.3259,-0.6119 -2.0398,-0.8159 -0.7139,-0.204 -1.5298,-0.204 -2.1418,0 -0.5099,0.204 -0.9179,0.408 -1.4279,0.612 -0.3059,0.102 -0.5099,0.102 -0.7139,0.2039 -0.306,0.102 -0.6119,0.102 -1.0199,0.102 -0.5099,0 -0.9179,0 -1.3259,0.306 -0.4079,0.306 -0.7139,0.51 -1.1218,0.8159 -0.408,0.102 -0.714,0.306 -0.918,0.714 z"
         fill="#4d1154"
         id="path73" /><path
         opacity="0.1"
         fill-rule="evenodd"
         clip-rule="evenodd"
         d="m 84.8186,95.2926 c -0.204,-0.102 -0.306,-0.102 -0.4079,-0.204 -0.102,-0.102 -0.204,-0.204 -0.306,-0.306 -0.204,-0.204 -0.408,-0.4079 -0.612,-0.6119 -0.2039,-0.102 -0.4079,-0.102 -0.6119,-0.102 -0.102,0 -0.306,0 -0.408,-0.102 -0.1019,0 -0.1019,0 -0.2039,0 -0.102,0 -0.204,0 -0.306,0 -0.204,0 -0.306,-0.204 -0.51,-0.204 -0.1019,0 -0.3059,0 -0.4079,-0.102 -0.102,-0.102 -0.102,-0.204 -0.204,-0.3059 -0.102,-0.102 -0.204,-0.204 -0.306,-0.306 -0.4079,-0.306 -0.9179,-0.306 -1.3258,-0.51 -0.408,-0.2039 -0.306,-0.8159 -0.408,-1.2238 0,-0.102 -0.102,-0.102 -0.102,-0.204 0,-0.102 0.102,-0.102 0.102,-0.204 0,-0.102 0,-0.204 0,-0.306 0,-0.102 -0.102,0 0,-0.102 0,-0.102 0.102,-0.102 0.204,-0.2039 0.204,-0.102 0.306,-0.102 0.5099,-0.102 0.204,0 0.408,0.102 0.612,0.102 0.204,0 0.3059,0.1019 0.5099,0.1019 0.204,0 0.306,0 0.51,0 0.4079,0 0.6119,0.306 0.9179,0.612 0.306,0.306 0.5099,0.7139 1.0199,0.6119 0.204,0 0.204,-0.102 0.306,-0.204 0.1019,-0.1019 0.3059,-0.2039 0.4079,-0.3059 0,-0.102 0.102,-0.204 0.102,-0.306 0,-0.102 0.102,-0.306 0.102,-0.408 0.102,-0.2039 0.204,-0.2039 0.306,-0.3059 0.102,-0.102 0,-0.102 0.102,-0.102 0,-0.102 0.102,-0.102 0.2039,-0.204 0.102,-0.102 0.204,-0.204 0.408,-0.306 0.102,-0.102 0.306,-0.102 0.408,-0.2039 0.102,-0.102 0.3059,-0.306 0.4079,-0.51 0.102,-0.204 0.204,-0.408 0.204,-0.6119 0,-0.102 0,-0.204 0,-0.306 0,-0.306 0.102,-0.51 0.204,-0.8159 0.102,-0.408 0.5099,-1.0199 0.102,-1.3259 -0.102,-0.102 -0.306,-0.102 -0.408,-0.204 -0.204,-0.3059 -0.102,-0.6119 0,-0.9179 0.204,-0.5099 0.51,-0.9179 0.8159,-1.3259 0.204,-0.3059 0.408,-0.5099 0.714,-0.5099 0.7139,-0.102 1.2238,0.5099 1.8358,0.5099 0.6119,0.102 1.3258,-0.3059 1.9378,-0.4079 0.306,-0.102 0.7139,-0.102 1.0199,0.102 0.102,0.102 0.204,0.204 0.306,0.204 0.2039,0.2039 0.102,0.4079 0.102,0.6119 0,0.204 0.1019,0.204 0.2039,0.306 0.306,0.3059 0.204,0.8159 0.204,1.2238 0,0.51 0.102,1.1219 0.408,1.5299 0.3059,0.5099 0.7139,1.0199 1.1219,1.5298 0.3059,0.306 0.6119,0.714 0.8159,1.1219 0.204,0.306 0.204,0.612 0.306,0.9179 0,0.408 0,0.816 -0.408,1.1219 -0.306,0.306 -0.51,0.204 -0.9179,0.102 -0.102,0 -0.408,-0.102 -0.51,0 -0.3059,0.204 -0.3059,0.51 -0.3059,0.714 0,0.2039 0.102,0.5099 -0.102,0.6119 -0.102,0.102 -0.51,0 -0.612,0 -0.102,0 -0.3059,0.102 -0.4079,0 -0.102,-0.102 -0.102,-0.204 -0.204,-0.306 -0.102,-0.204 -0.306,-0.204 -0.408,-0.3059 -0.102,-0.102 -0.2039,-0.204 -0.3059,-0.306 -0.102,-0.102 -0.306,-0.204 -0.408,-0.408 -0.102,-0.204 -0.102,-0.5099 -0.306,-0.7139 -0.102,-0.102 -0.2039,-0.102 -0.2039,-0.204 -0.102,0 -0.102,-0.102 -0.102,-0.204 -0.102,-0.2039 -0.204,-0.5099 -0.51,-0.5099 -0.306,0 -0.4079,0.306 -0.4079,0.5099 0,0.204 0,0.408 -0.204,0.51 -0.204,0.102 -0.306,0 -0.51,0.102 -0.5099,0.4079 0,1.1219 0,1.5298 0,0.714 -0.6119,1.2239 -1.1219,1.6319 l -0.102,0.102 c -0.102,0.1019 -0.1019,0 -0.2039,0.1019 -0.102,0.102 -0.204,0.204 -0.204,0.306 -0.102,0.204 -0.102,0.306 -0.102,0.408 0,0.204 0.102,0.4079 0,0.6119 0,0.408 -0.408,0.51 -0.8159,0.408 -0.204,0 -0.408,-0.306 -0.612,-0.408 -0.204,-0.102 -0.3059,-0.102 -0.5099,-0.204 -0.102,-0.1019 -0.102,-0.2039 -0.204,-0.2039 -0.204,0 -0.306,-0.102 -0.204,-0.102 z"
         fill="#4d1154"
         id="path74" /><path
         fill-rule="evenodd"
         clip-rule="evenodd"
         d="m 66.9727,47.9706 11.7288,-3.4677 c 0,0 9.2811,9.1791 8.3632,30.495 l -9.1791,0.612 c 0.102,0 -5.5075,-18.3582 -10.9129,-27.6393 z"
         fill="url(#paint3_linear_1153_1266)"
         id="path75"
         style="fill:url(#paint3_linear_1153_1266)" /><path
         fill-rule="evenodd"
         clip-rule="evenodd"
         d="m 81.8633,44.1967 7.9552,-1.0199 c 0,0 8.5672,10.9129 5.7114,32.5348 h -5.8134 c 0,-0.102 -0.5099,-17.9503 -7.8532,-31.5149 z"
         fill="url(#paint4_linear_1153_1266)"
         id="path76"
         style="fill:url(#paint4_linear_1153_1266)" /><path
         fill-rule="evenodd"
         clip-rule="evenodd"
         d="m 30.9688,91.5202 6.9353,-5.5075 c 0,0 8.6691,14.0743 29.0671,17.9503 v 5.303 c 0,0 -24.4776,2.244 -36.0024,-17.7458 z"
         fill="url(#paint5_linear_1153_1266)"
         id="path77"
         style="fill:url(#paint5_linear_1153_1266)" /><path
         fill-rule="evenodd"
         clip-rule="evenodd"
         d="m 27.1992,54.8033 4.3856,3.5697 c 0,0 5.8134,-10.607 8.4652,-14.1766 l -3.1617,-3.9776 c 0,0 -8.2612,7.9552 -9.6891,14.5845 z"
         fill="url(#paint6_linear_1153_1266)"
         id="path78"
         style="fill:url(#paint6_linear_1153_1266)" /><path
         fill-rule="evenodd"
         clip-rule="evenodd"
         d="m 48.7188,69.7962 c 0,-7.8852 6.3934,-14.2786 14.2786,-14.2786 7.8852,0 14.2786,6.3934 14.2786,14.2786 0,7.8852 -6.3934,14.2786 -14.2786,14.2786 -7.8852,0 -14.2786,-6.3934 -14.2786,-14.2786 z m 3.0597,0 c 0,-6.1955 5.0233,-11.2189 11.2189,-11.2189 6.1955,0 11.2189,5.0234 11.2189,11.2189 0,6.1955 -5.0234,11.2189 -11.2189,11.2189 -6.1956,0 -11.2189,-5.0234 -11.2189,-11.2189 z"
         fill="url(#paint7_radial_1153_1266)"
         id="path79"
         style="fill:url(#paint7_radial_1153_1266)" /><path
         fill-rule="evenodd"
         clip-rule="evenodd"
         d="m 48.7188,69.7962 c 0,-7.8852 6.3934,-14.2786 14.2786,-14.2786 7.8852,0 14.2786,6.3934 14.2786,14.2786 0,7.8852 -6.3934,14.2786 -14.2786,14.2786 -7.8852,0 -14.2786,-6.3934 -14.2786,-14.2786 z m 3.0597,0 c 0,-6.1955 5.0233,-11.2189 11.2189,-11.2189 6.1955,0 11.2189,5.0234 11.2189,11.2189 0,6.1955 -5.0234,11.2189 -11.2189,11.2189 -6.1956,0 -11.2189,-5.0234 -11.2189,-11.2189 z"
         fill="#000000"
         fill-opacity="0.2"
         id="path80" /><path
         d="m 62.9966,57.5576 c -6.7587,0 -12.2388,5.4801 -12.2388,12.2388 0,6.7588 5.4801,12.2388 12.2388,12.2388 6.7588,0 12.2388,-5.48 12.2388,-12.2388 0,-6.7587 -5.48,-12.2388 -12.2388,-12.2388 z"
         fill="#b57b45"
         id="path81" /><path
         d="m 64.016,69.7969 c -0.5632,0 -1.0199,-0.4567 -1.0199,-1.0199 0,-0.5633 0.4567,-1.0199 1.0199,-1.0199 0.5632,0 1.0199,0.4566 1.0199,1.0199 0,0.5632 -0.4567,1.0199 -1.0199,1.0199 z"
         fill="#ce9764"
         id="path82" /><path
         d="m 68.2121,73.8675 c 0.0727,0.5586 -0.3212,1.0703 -0.8797,1.143 -0.5585,0.0727 -1.0703,-0.3212 -1.143,-0.8797 -0.0727,-0.5586 0.3212,-1.0703 0.8798,-1.143 0.5585,-0.0727 1.0703,0.3212 1.1429,0.8797 z"
         fill="#996637"
         id="path83" /><path
         d="m 67.0746,64.6973 c -0.5632,0 -1.0199,-0.4567 -1.0199,-1.0199 0,-0.5633 0.4567,-1.0199 1.0199,-1.0199 0.5632,0 1.0199,0.4566 1.0199,1.0199 0,0.5632 -0.4567,1.0199 -1.0199,1.0199 z"
         fill="#996637"
         id="path84" /><path
         d="m 61.0715,65.7084 c 0.0727,0.5585 -0.3212,1.0703 -0.8797,1.1429 -0.5586,0.0727 -1.0704,-0.3212 -1.143,-0.8797 -0.0727,-0.5585 0.3212,-1.0703 0.8797,-1.143 0.5585,-0.0727 1.0703,0.3212 1.143,0.8798 z"
         fill="#996637"
         id="path85" /><path
         d="m 54.8363,65.7168 c -0.5632,0 -1.0199,-0.4567 -1.0199,-1.0199 0,-0.5632 0.4567,-1.0199 1.0199,-1.0199 0.5632,0 1.0199,0.4567 1.0199,1.0199 0,0.5632 -0.4567,1.0199 -1.0199,1.0199 z"
         fill="#ce9764"
         id="path86" /><path
         d="m 63.6614,77.7142 c 0.0726,0.5585 -0.3213,1.0703 -0.8798,1.143 -0.5585,0.0727 -1.0703,-0.3212 -1.143,-0.8798 -0.0727,-0.5585 0.3213,-1.0703 0.8798,-1.1429 0.5585,-0.0727 1.0703,0.3212 1.143,0.8797 z"
         fill="#996637"
         id="path87" /><path
         d="m 57.8988,74.8965 c -0.5632,0 -1.0199,-0.4567 -1.0199,-1.0199 0,-0.5632 0.4567,-1.0199 1.0199,-1.0199 0.5632,0 1.0199,0.4567 1.0199,1.0199 0,0.5632 -0.4567,1.0199 -1.0199,1.0199 z"
         fill="#ce9764"
         id="path88" /><path
         d="m 72.2903,72.848 c 0.0726,0.5585 -0.3213,1.0703 -0.8798,1.143 -0.5585,0.0727 -1.0703,-0.3213 -1.143,-0.8798 -0.0727,-0.5585 0.3213,-1.0703 0.8798,-1.143 0.5585,-0.0726 1.0703,0.3213 1.143,0.8798 z"
         fill="#ce9764"
         id="path89" /><path
         d="m 53.3828,77.3696 c 2.0836,1.6439 4.7144,2.6249 7.5741,2.6249 6.7587,0 12.2388,-5.48 12.2388,-12.2388 0,-2.8597 -0.981,-5.4904 -2.6249,-7.5741 2.8409,2.2414 4.6647,5.7149 4.6647,9.6139 0,6.7588 -5.4801,12.2388 -12.2388,12.2388 -3.8991,0 -7.3726,-1.8237 -9.6139,-4.6647 z"
         fill="#975c26"
         fill-opacity="0.5"
         id="path90" /><path
         d="m 72.6094,62.2232 c -2.0837,-1.6439 -4.7144,-2.625 -7.5741,-2.625 -6.7587,0 -12.2388,5.4801 -12.2388,12.2388 0,2.8597 0.981,5.4905 2.6249,7.5741 -2.8409,-2.2413 -4.6647,-5.7148 -4.6647,-9.6139 0,-6.7587 5.48,-12.2388 12.2388,-12.2388 3.8991,0 7.3725,1.8238 9.6139,4.6648 z"
         fill="#cba079"
         fill-opacity="0.5"
         id="path91" /><path
         d="m 22,102.495 c 0,6.904 5.5964,12.501 12.5,12.503 C 41.4036,114.999 47,109.404 47,102.5 47,95.5964 41.4036,89.9989 34.5,89.9975 27.5964,89.9961 22,95.5914 22,102.495 Z"
         fill="#ed937f"
         id="path92" /><path
         d="M 34.5003,92 C 28.7016,92 24,96.7016 24,102.5 c 0,5.799 4.7016,10.501 10.5003,10.501 5.7987,0 10.5004,-4.702 10.5004,-10.501 0,-5.7984 -4.7017,-10.5 -10.5004,-10.5 z"
         fill="#b57b45"
         id="path93" /><path
         d="m 35.375,102.5 c -0.4832,0 -0.875,-0.392 -0.875,-0.875 0,-0.483 0.3918,-0.875 0.875,-0.875 0.4833,0 0.8751,0.392 0.8751,0.875 0,0.483 -0.3918,0.875 -0.8751,0.875 z"
         fill="#ce9764"
         id="path94" /><path
         d="m 38.973,105.993 c 0.0624,0.479 -0.2756,0.918 -0.7548,0.98 -0.4792,0.063 -0.9182,-0.275 -0.9806,-0.755 -0.0624,-0.479 0.2756,-0.918 0.7548,-0.98 0.4792,-0.063 0.9183,0.275 0.9806,0.755 z"
         fill="#996637"
         id="path95" /><path
         d="m 38,98.125 c -0.4832,0 -0.875,-0.3918 -0.875,-0.875 0,-0.4833 0.3918,-0.8751 0.875,-0.8751 0.4833,0 0.8751,0.3918 0.8751,0.8751 0,0.4832 -0.3918,0.875 -0.8751,0.875 z"
         fill="#996637"
         id="path96" /><path
         d="m 32.8519,98.9926 c 0.0624,0.4792 -0.2756,0.9183 -0.7548,0.9807 -0.4792,0.0627 -0.9182,-0.2756 -0.9806,-0.7548 -0.0624,-0.4792 0.2756,-0.9183 0.7548,-0.9807 0.4792,-0.0623 0.9183,0.2757 0.9806,0.7548 z"
         fill="#996637"
         id="path97" /><path
         d="m 27.5,99 c -0.4832,0 -0.875,-0.3918 -0.875,-0.875 0,-0.4833 0.3918,-0.8751 0.875,-0.8751 0.4833,0 0.8751,0.3918 0.8751,0.8751 0,0.4832 -0.3918,0.875 -0.8751,0.875 z"
         fill="#ce9764"
         id="path98" /><path
         d="m 35.0746,109.293 c 0.0623,0.48 -0.2756,0.919 -0.7548,0.981 -0.4792,0.062 -0.9183,-0.276 -0.9806,-0.755 -0.0624,-0.479 0.2756,-0.918 0.7548,-0.98 0.4791,-0.063 0.9182,0.275 0.9806,0.754 z"
         fill="#996637"
         id="path99" /><path
         d="m 30.125,106.875 c -0.4832,0 -0.875,-0.392 -0.875,-0.875 0,-0.483 0.3918,-0.875 0.875,-0.875 0.4833,0 0.8751,0.392 0.8751,0.875 0,0.483 -0.3918,0.875 -0.8751,0.875 z"
         fill="#ce9764"
         id="path100" /><path
         d="m 42.4769,105.118 c 0.0624,0.479 -0.2756,0.918 -0.7548,0.98 -0.4792,0.063 -0.9182,-0.275 -0.9806,-0.755 -0.0624,-0.479 0.2756,-0.918 0.7548,-0.98 0.4792,-0.063 0.9183,0.275 0.9806,0.755 z"
         fill="#ce9764"
         id="path101" /><path
         d="m 26.2539,108.997 c 1.7877,1.411 4.0447,2.253 6.4982,2.253 5.7987,0 10.5004,-4.702 10.5004,-10.501 0,-2.4533 -0.8417,-4.7104 -2.2521,-6.498 2.4374,1.9229 4.0021,4.903 4.0021,8.248 0,5.799 -4.7016,10.501 -10.5003,10.501 -3.3452,0 -6.3253,-1.565 -8.2483,-4.003 z"
         fill="#975c26"
         fill-opacity="0.5"
         id="path102" /><path
         d="m 42.75,96.0025 c -1.7877,-1.4103 -4.0447,-2.252 -6.4982,-2.252 -5.7987,0 -10.5004,4.7016 -10.5004,10.5005 0,2.453 0.8417,4.71 2.2521,6.498 -2.4374,-1.923 -4.0021,-4.903 -4.0021,-8.248 0,-5.799 4.7016,-10.5006 10.5003,-10.5006 3.3452,0 6.3253,1.5647 8.2483,4.0021 z"
         fill="#cba079"
         fill-opacity="0.5"
         id="path103" /><path
         fill-rule="evenodd"
         clip-rule="evenodd"
         d="M 34.5,87.997 C 42.5081,87.9987 49,94.4919 49,102.5 49,110.508 42.5081,116.999 34.5,116.997 26.4919,116.995 20,110.502 20,102.494 20,94.4859 26.4919,87.9954 34.5,87.997 Z m 10.0694,14.502 c 0,-5.5611 -4.5082,-10.0703 -10.0694,-10.0714 -5.5612,-0.0011 -10.0694,4.5062 -10.0694,10.0674 0,5.561 4.5082,10.07 10.0694,10.071 5.5612,0.002 10.0694,-4.506 10.0694,-10.067 z"
         fill="#000000"
         id="path104" /><path
         d="m 80,102.495 c 0,6.904 5.5964,12.501 12.5,12.503 C 99.4036,114.999 105,109.404 105,102.5 105,95.5964 99.4036,89.9989 92.5,89.9975 85.5964,89.9961 80,95.5914 80,102.495 Z"
         fill="#ed937f"
         id="path105" /><path
         d="M 92.5003,92 C 86.7016,92 82,96.7016 82,102.5 c 0,5.799 4.7016,10.501 10.5003,10.501 5.7987,0 10.5007,-4.702 10.5007,-10.501 0,-5.7984 -4.702,-10.5 -10.5007,-10.5 z"
         fill="#b57b45"
         id="path106" /><path
         d="m 93.375,102.5 c -0.4832,0 -0.875,-0.392 -0.875,-0.875 0,-0.483 0.3918,-0.875 0.875,-0.875 0.4833,0 0.8751,0.392 0.8751,0.875 0,0.483 -0.3918,0.875 -0.8751,0.875 z"
         fill="#ce9764"
         id="path107" /><path
         d="m 96.973,105.993 c 0.0624,0.479 -0.2756,0.918 -0.7548,0.98 -0.4792,0.063 -0.9182,-0.275 -0.9806,-0.755 -0.0624,-0.479 0.2756,-0.918 0.7548,-0.98 0.4792,-0.063 0.9183,0.275 0.9806,0.755 z"
         fill="#996637"
         id="path108" /><path
         d="m 96,98.125 c -0.4832,0 -0.875,-0.3918 -0.875,-0.875 0,-0.4833 0.3918,-0.8751 0.875,-0.8751 0.4833,0 0.8751,0.3918 0.8751,0.8751 0,0.4832 -0.3918,0.875 -0.8751,0.875 z"
         fill="#996637"
         id="path109" /><path
         d="m 90.8519,98.9926 c 0.0624,0.4792 -0.2756,0.9183 -0.7548,0.9807 -0.4792,0.0627 -0.9182,-0.2756 -0.9806,-0.7548 -0.0624,-0.4792 0.2756,-0.9183 0.7548,-0.9807 0.4792,-0.0623 0.9183,0.2757 0.9806,0.7548 z"
         fill="#996637"
         id="path110" /><path
         d="m 85.5,99 c -0.4832,0 -0.875,-0.3918 -0.875,-0.875 0,-0.4833 0.3918,-0.8751 0.875,-0.8751 0.4833,0 0.8751,0.3918 0.8751,0.8751 0,0.4832 -0.3918,0.875 -0.8751,0.875 z"
         fill="#ce9764"
         id="path111" /><path
         d="m 93.0746,109.293 c 0.0623,0.48 -0.2756,0.919 -0.7548,0.981 -0.4792,0.062 -0.9183,-0.276 -0.9806,-0.755 -0.0624,-0.479 0.2756,-0.918 0.7548,-0.98 0.4791,-0.063 0.9182,0.275 0.9806,0.754 z"
         fill="#996637"
         id="path112" /><path
         d="m 88.125,106.875 c -0.4832,0 -0.875,-0.392 -0.875,-0.875 0,-0.483 0.3918,-0.875 0.875,-0.875 0.4833,0 0.8751,0.392 0.8751,0.875 0,0.483 -0.3918,0.875 -0.8751,0.875 z"
         fill="#ce9764"
         id="path113" /><path
         d="m 100.477,105.118 c 0.062,0.479 -0.276,0.918 -0.7549,0.98 -0.4792,0.063 -0.9182,-0.275 -0.9806,-0.755 -0.0624,-0.479 0.2756,-0.918 0.7548,-0.98 0.4792,-0.063 0.9187,0.275 0.9807,0.755 z"
         fill="#ce9764"
         id="path114" /><path
         d="m 84.2539,108.997 c 1.7877,1.411 4.0447,2.253 6.4982,2.253 5.7987,0 10.4999,-4.702 10.4999,-10.501 0,-2.4533 -0.841,-4.7104 -2.2516,-6.498 2.4376,1.9229 4.0026,4.903 4.0026,8.248 0,5.799 -4.7021,10.501 -10.5008,10.501 -3.3452,0 -6.3253,-1.565 -8.2483,-4.003 z"
         fill="#975c26"
         fill-opacity="0.5"
         id="path115" /><path
         d="m 100.75,96.0025 c -1.7877,-1.4103 -4.0447,-2.252 -6.4982,-2.252 -5.7987,0 -10.5004,4.7016 -10.5004,10.5005 0,2.453 0.8417,4.71 2.2521,6.498 -2.4374,-1.923 -4.0021,-4.903 -4.0021,-8.248 0,-5.799 4.7016,-10.5006 10.5003,-10.5006 3.3452,0 6.3253,1.5647 8.2483,4.0021 z"
         fill="#cba079"
         fill-opacity="0.5"
         id="path116" /><path
         fill-rule="evenodd"
         clip-rule="evenodd"
         d="m 92.5,87.997 c 8.008,0.0017 14.5,6.4949 14.5,14.503 0,8.008 -6.492,14.499 -14.5,14.497 C 84.4919,116.995 78,110.502 78,102.494 78,94.4859 84.4919,87.9954 92.5,87.997 Z m 10.069,14.502 c 0,-5.5611 -4.5078,-10.0703 -10.069,-10.0714 -5.5612,-0.0011 -10.0694,4.5062 -10.0694,10.0674 0,5.561 4.5082,10.07 10.0694,10.071 5.5612,0.002 10.069,-4.506 10.069,-10.067 z"
         fill="#000000"
         id="path117" /></g></g><circle
     cx="15.001"
     cy="30.023"
     r="1.113"
     fill="none"
     stroke="#292929"
     stroke-width=".403"
     stroke-opacity=".706"
     id="circle3" /><circle
     r="1.451"
     cy="21.062"
     cx="31.25"
     fill="none"
     stroke="#292929"
     stroke-width=".525"
     stroke-opacity=".706"
     id="circle4" /><circle
     cx="18.75"
     cy="6.534"
     r=".726"
     fill="none"
     stroke="#292929"
     stroke-width=".263"
     stroke-opacity=".706"
     id="circle5" /><circle
     r="1.862"
     cy="14.584"
     cx="7.591"
     fill="none"
     stroke="#292929"
     stroke-width=".674"
     stroke-opacity=".706"
     id="circle6" /><circle
     cx="-71.967"
     cy="49.741"
     r="16.933"
     clip-path="url(#a)"
     transform="matrix(1 0 0 1 91.017 -30.691)"
     fill="#0097f0"
     fill-opacity=".584"
     stroke="#191919"
     stroke-width="3.175"
     id="circle7" /></svg>
