<?xml version="1.0" encoding="UTF-8" standalone="no"?>
<svg
   style="isolation:isolate"
   width="160"
   height="160"
   version="1.1"
   id="svg10"
   sodipodi:docname="posion-proj-pin.svg"
   inkscape:version="1.4.3 (0d15f75042, 2025-12-25)"
   xml:space="preserve"
   xmlns:inkscape="http://www.inkscape.org/namespaces/inkscape"
   xmlns:sodipodi="http://sodipodi.sourceforge.net/DTD/sodipodi-0.dtd"
   xmlns="http://www.w3.org/2000/svg"
   xmlns:svg="http://www.w3.org/2000/svg"
   xmlns:rdf="http://www.w3.org/1999/02/22-rdf-syntax-ns#"
   xmlns:cc="http://creativecommons.org/ns#"
   xmlns:dc="http://purl.org/dc/elements/1.1/"><metadata
     id="metadata16"><rdf:RDF><cc:Work
         rdf:about=""><dc:format>image/svg+xml</dc:format><dc:type
           rdf:resource="http://purl.org/dc/dcmitype/StillImage" /><dc:title /></cc:Work></rdf:RDF></metadata><defs
     id="defs14" /><sodipodi:namedview
     pagecolor="#ffffff"
     bordercolor="#666666"
     borderopacity="1"
     objecttolerance="10"
     gridtolerance="10"
     guidetolerance="10"
     inkscape:pageopacity="0"
     inkscape:pageshadow="2"
     inkscape:window-width="1920"
     inkscape:window-height="1017"
     id="namedview12"
     showgrid="false"
     inkscape:zoom="2.6074564"
     inkscape:cx="34.324639"
     inkscape:cy="53.1169"
     inkscape:window-x="1920"
     inkscape:window-y="0"
     inkscape:window-maximized="1"
     inkscape:current-layer="g4505"
     inkscape:showpageshadow="2"
     inkscape:pagecheckerboard="0"
     inkscape:deskcolor="#d1d1d1" /><g
     id="g4505"
     transform="translate(-1.4710557,2.3054502)"><rect
       rx="0.43832338"
       ry="0.52508819"
       y="71.688377"
       x="15.168265"
       height="110.75871"
       width="55.474266"
       id="rect4498"
       style="opacity:1;fill:#fff000;fill-opacity:1;stroke:#202020;stroke-width:11.5139;stroke-linecap:butt;stroke-linejoin:miter;stroke-miterlimit:4;stroke-dasharray:none;stroke-opacity:1;paint-order:normal"
       transform="matrix(0.86482022,-0.50208166,0.49792123,0.86722226,0,0)" /><g
       id="g4499"
       transform="translate(143.39433,-105.31907)"
       style="isolation:isolate"><g
         id="g4"><rect
           y="108.51188"
           x="-156.09634"
           height="12.20873"
           width="44.063034"
           id="rect4496"
           style="opacity:1;fill:#aeaeae;fill-opacity:1;stroke:none;stroke-width:3.04082;stroke-linecap:butt;stroke-linejoin:miter;stroke-miterlimit:4;stroke-dasharray:none;stroke-opacity:1;paint-order:normal"
           transform="rotate(-30)" /></g><rect
         y="174.46021"
         x="-156.15685"
         height="12.20873"
         width="44.063034"
         id="rect4496-9"
         style="isolation:isolate;fill:#aeaeae;fill-opacity:1;stroke:none;stroke-width:3.04082;stroke-linecap:butt;stroke-linejoin:miter;stroke-miterlimit:4;stroke-dasharray:none;stroke-opacity:1;paint-order:normal"
         transform="rotate(-30)" /></g><path
       sodipodi:nodetypes="ccccc"
       style="fill:#4e4735;fill-opacity:1;stroke:#202020;stroke-width:12;stroke-miterlimit:4;stroke-dasharray:none"
       inkscape:connector-curvature="0"
       id="path2"
       d="M 71.609222,8.8131761 41.773596,26.038782 56.000837,50.681084 85.836462,33.455478 Z" /><path
       style="fill:#4e4735;fill-opacity:1;stroke:#202020;stroke-width:8"
       inkscape:connector-curvature="0"
       id="path6"
       d="m 38.941074,25.333291 -17.320508,10 -11.320509,20.392304 8,13.856408 11.320509,-20.392305 17.320508,-10 z" /><path
       style="fill:#909090;stroke:#202020;stroke-width:4"
       inkscape:connector-curvature="0"
       id="path8"
       d="M 25.956102,20.558271 A 26.451,26.451 0 0 1 38.63762,17.317304 26.451,26.451 0 0 1 65.089979,43.770133 26.451,26.451 0 0 1 38.640249,70.221856 26.451,26.451 0 0 1 12.18739,43.768162 26.451,26.451 0 0 1 25.956968,20.557771 Z m 4.697094,8.323604 A 17.077,17.077 0 0 0 21.763672,43.870768 17.077,17.077 0 0 0 38.83983,60.947543 17.077,17.077 0 0 0 55.915739,43.871885 17.077,17.077 0 0 0 38.838945,26.792012 17.077,17.077 0 0 0 30.653196,28.881875 Z" /><g
       style="fill:#1fc000;fill-opacity:1"
       id="g2"
       transform="matrix(0.08184052,-0.04725065,0.04725065,0.08184052,69.583001,78.61685)"><g
         id="g1"
         style="fill:#1fc000;fill-opacity:1">
	<path
   d="m 436.912,430.19 c -0.03,0.006 -0.077,0 -0.118,0 H 21.184 c -7.566,0 -14.564,-4.037 -18.347,-10.593 -3.783,-6.555 -3.783,-14.629 0,-21.184 L 210.642,38.489 c 3.783,-6.555 10.781,-10.592 18.348,-10.592 7.565,0 14.558,4.037 18.341,10.592 l 206.776,358.139 c 2.506,3.481 3.983,7.749 3.983,12.377 0.006,11.698 -9.481,21.185 -21.178,21.185 z M 57.878,387.822 H 400.1 L 228.989,91.456 Z m 244.434,-33.414 c -1.785,3.818 -5.13,6.206 -8.913,7.093 1.762,3.464 2.181,7.565 0.449,11.378 -2.997,6.609 -10.805,9.511 -17.372,6.508 -6.644,-3.014 -9.552,-10.805 -6.514,-17.4 0.095,-0.296 0.367,-0.432 0.503,-0.71 l -43.072,-19.357 -43.621,18.146 c 0.142,0.278 0.384,0.42 0.479,0.704 2.837,6.679 -0.266,14.404 -6.992,17.241 -6.679,2.784 -14.375,-0.337 -17.188,-7.027 -1.631,-3.89 -1.082,-7.956 0.774,-11.361 -3.742,-0.992 -7.052,-3.511 -8.701,-7.353 -2.784,-6.69 0.308,-14.416 7.022,-17.2 6.679,-2.825 14.375,0.289 17.2,6.975 0.101,0.296 0.071,0.573 0.171,0.846 l 27.538,-11.449 -27.207,-12.224 c -0.118,0.266 -0.071,0.567 -0.213,0.839 -2.997,6.597 -10.805,9.511 -17.401,6.514 -6.579,-3.014 -9.469,-10.805 -6.472,-17.413 1.744,-3.812 5.125,-6.183 8.896,-7.116 -1.785,-3.44 -2.21,-7.555 -0.467,-11.36 3.009,-6.608 10.805,-9.499 17.413,-6.514 6.608,3.015 9.511,10.805 6.466,17.413 -0.094,0.277 -0.366,0.438 -0.461,0.674 l 43.066,19.398 43.592,-18.134 c -0.136,-0.296 -0.378,-0.438 -0.508,-0.733 -2.809,-6.727 0.307,-14.41 7.021,-17.224 6.649,-2.825 14.346,0.284 17.171,7.011 1.638,3.854 1.081,7.955 -0.804,11.36 3.771,1.005 7.087,3.464 8.736,7.376 2.783,6.668 -0.313,14.34 -7.022,17.165 -6.685,2.831 -14.375,-0.296 -17.2,-6.957 -0.13,-0.277 -0.071,-0.591 -0.172,-0.856 l -27.526,11.432 27.189,12.234 c 0.112,-0.26 0.083,-0.555 0.207,-0.839 3.038,-6.597 10.805,-9.517 17.39,-6.502 6.649,3.023 9.557,10.79 6.543,17.422 z M 271.718,240.673 c 3.404,3.114 5.556,7.436 5.556,12.229 0,7.938 -5.881,14.334 -13.701,16.297 v 5.957 c 0,10.279 -8.417,18.714 -18.713,18.714 h -34.685 c -10.297,0 -18.708,-8.435 -18.708,-18.714 v -5.934 c -7.861,-1.963 -13.772,-8.358 -13.772,-16.326 0,-4.822 2.163,-9.144 5.609,-12.247 -5.361,-7.737 -8.535,-16.913 -8.535,-26.811 0,-27.216 23.613,-49.316 52.741,-49.316 29.117,0 52.76,22.1 52.76,49.316 0.018,9.91 -3.179,19.085 -8.552,26.835 z m -52.884,-23.25 c 0,-7.791 -6.543,-14.097 -14.588,-14.097 -8.015,0 -14.594,6.307 -14.594,14.097 0,7.796 6.579,14.1 14.594,14.1 8.045,-0.012 14.588,-6.304 14.588,-14.1 z m 23.927,41.491 -14.15,-23.944 -14.682,24.405 14.541,-7.058 z m 22.614,-41.491 c 0,-7.791 -6.555,-14.097 -14.569,-14.097 -8.051,0 -14.576,6.307 -14.576,14.097 0,7.796 6.525,14.1 14.576,14.1 8.032,-0.012 14.569,-6.304 14.569,-14.1 z"
   id="path1"
   style="fill:#1fc000;fill-opacity:1" />
</g></g><g
       style="isolation:isolate"
       id="g3"
       transform="translate(156.47106,-105.30545)" /></g></svg>
