<svg xmlns="http://www.w3.org/2000/svg" viewBox="0 0 98 96">
  <path fill="#fff" fill-rule="evenodd" d="M49 0C21.9 0 0 22 0 49.1c0 21.7 14 40 33.5 46.5 2.4.5 3.3-1.1 3.3-2.4v-9.1c-13.6 3-16.5-5.8-16.5-5.8-2.2-5.7-5.4-7.2-5.4-7.2-4.5-3.1.3-3 .3-3 4.9.3 7.5 5.1 7.5 5.1 4.4 7.5 11.5 5.3 14.3 4.1.4-3.2 1.7-5.3 3.1-6.6-10.9-1.2-22.3-5.4-22.3-24.2 0-5.4 1.9-9.7 5-13.2-.5-1.2-2.2-6.2.5-13 0 0 4.1-1.3 13.4 5a46.5 46.5 0 0 1 24.4 0c9.3-6.3 13.4-5 13.4-5 2.7 6.8 1 11.8.5 13 3.1 3.5 5 7.8 5 13.2 0 18.8-11.4 23-22.3 24.2 1.8 1.5 3.3 4.5 3.3 9.1v13.5c0 1.3.9 2.9 3.4 2.4A49.1 49.1 0 0 0 98 49.1C98 22 76.1 0 49 0Z" clip-rule="evenodd"/>
</svg>
