<?xml version="1.0" encoding="UTF-8" standalone="no"?>
<svg
   width="128"
   height="128"
   viewBox="0 0 128 128"
   fill="none"
   version="1.1"
   id="svg1"
   sodipodi:docname="emote-son.svg"
   xml:space="preserve"
   inkscape:version="1.4.3 (0d15f75042, 2025-12-25)"
   xmlns:inkscape="http://www.inkscape.org/namespaces/inkscape"
   xmlns:sodipodi="http://sodipodi.sourceforge.net/DTD/sodipodi-0.dtd"
   xmlns="http://www.w3.org/2000/svg"
   xmlns:svg="http://www.w3.org/2000/svg"><defs
     id="defs1" /><sodipodi:namedview
     id="namedview1"
     pagecolor="#ffffff"
     bordercolor="#000000"
     borderopacity="0.25"
     inkscape:showpageshadow="2"
     inkscape:pageopacity="0.0"
     inkscape:pagecheckerboard="0"
     inkscape:deskcolor="#d1d1d1"
     inkscape:zoom="2.2400922"
     inkscape:cx="-49.774736"
     inkscape:cy="132.80703"
     inkscape:window-width="1920"
     inkscape:window-height="1017"
     inkscape:window-x="0"
     inkscape:window-y="0"
     inkscape:window-maximized="1"
     inkscape:current-layer="svg1" /><mask
     id="mask0"
     mask-type="alpha"
     maskUnits="userSpaceOnUse"
     x="0"
     y="0"
     width="128"
     height="128"><rect
       width="128"
       height="128"
       fill="#C4C4C4"
       id="rect1" /></mask><path
     d="m 82.226396,49.014697 0.526904,5.317259 0.43806,-0.01928 c 0.743852,-1.934906 2.04252,-3.455196 3.895873,-4.561071 1.8533,-1.10578 4.581037,-1.738089 8.183097,-1.896731 3.60207,-0.158641 6.32629,0.233433 8.17224,1.176248 1.89294,0.892324 3.19991,2.346158 3.92282,4.362739 0.72289,2.016575 1.16383,4.826059 1.32286,8.428353 l -0.0275,24.450569 -4.57311,0.04957 -0.35544,-22.19516 c -0.31583,-7.179598 -0.76712,-9.549695 -3.12937,-10.375979 -1.238626,-0.433278 -4.63527,-0.586598 -7.50719,-0.46003 -3.06667,0.134989 -4.494088,1.297174 -5.860738,2.381633 -3.741573,2.968841 -4.534515,6.372285 -4.610073,8.164695 l -0.943666,22.385904 -4.862396,0.260661 0.150517,-37.237756 z"
     fill="#ffffff"
     id="path1-7"
     mask="url(#mask1)"
     sodipodi:nodetypes="ccccscsccccscsscccc"
     style="fill:#ffffff;fill-opacity:1;stroke-width:1.12791" /><path
     id="path1"
     style="fill:#ffffff;fill-opacity:1;stroke-width:0.86319"
     d="m 30.371065,48.017081 c -1.576101,-0.191821 -3.449452,-0.333763 -5.61827,-0.424843 -2.168825,-0.09109 -4.146933,-0.09666 -5.935008,-0.01785 -3.986261,0.175494 -7.003951,0.699406 -9.0555998,1.573624 -2.050163,0.911356 -3.4297342,2.241113 -4.1369002,3.98905 -0.7418067,1.787238 -1.0423962,4.264604 -0.903004,7.431045 0.1150779,2.607791 0.5405806,4.659921 1.2785029,6.15784 0.6301038,1.378648 1.7251745,2.421209 3.286733,3.127936 0,0 1.2064901,0.465575 1.2214641,0.463815 1.819072,0.565355 4.298539,0.7794 7.436183,0.641221 3.20376,-0.141174 8.390735,-1.446963 10.640123,0.581263 0.640287,0.979566 1.009583,2.586118 1.107961,4.821263 0.09,2.048695 -0.120152,3.627065 -0.631475,4.731948 -0.474399,1.103088 -1.426686,1.910369 -2.859971,2.421361 -1.395569,0.509549 -3.509415,0.826418 -6.340608,0.951054 -2.868386,0.12638 -8.65003,-1.125764 -13.214541,-1.372636 l 0.1704085,3.855577 c 4.4844875,0.868542 9.0368855,1.606379 13.6180085,1.634778 3.986258,-0.175495 7.003334,-0.701704 9.054984,-1.575926 2.050164,-0.911356 3.428887,-2.239651 4.136051,-3.987585 0.741814,-1.787244 1.043861,-4.263762 0.90447,-7.430211 -0.11507,-2.607785 -0.540588,-4.659925 -1.278502,-6.15784 -4.602531,-6.035002 -13.770928,-3.086509 -20.469122,-3.298959 l -0.0645,0.06788 c -0.925731,-0.336911 -1.610474,-0.86517 -2.052304,-1.583978 -0.640279,-0.979563 -1.0095826,-2.586116 -1.1079604,-4.821259 -0.090104,-2.048731 0.1201518,-3.62707 0.6314754,-4.731959 0.474398,-1.103082 1.42815,-1.909516 2.861427,-2.420516 1.395577,-0.509543 3.509428,-0.826415 6.340612,-0.95105 2.868394,-0.12638 6.583846,-0.06716 11.14835,0.17971 z"
     sodipodi:nodetypes="csccccccccccccccccccccccccccccc" /><g
     style="fill:#17ffff;fill-opacity:1;stroke-width:0;stroke-dasharray:none"
     id="g2"
     transform="matrix(0.75049528,0.43329865,-0.43329865,0.75049528,101.66002,73.490464)"><path
       d="m -38.850117,41.667917 c -5.559301,3.209664 -9.848948,4.958827 -12.868857,5.247627 -3.049934,0.236798 -5.67747,-0.774713 -7.882749,-3.03445 -2.1833,-2.34176 -5.029738,-6.552022 -8.539392,-12.630922 -3.509575,-6.078762 -5.717538,-10.62298 -6.62397,-13.63279 -0.884374,-3.091698 -0.446599,-5.872966 1.313465,-8.3438846 1.730039,-2.52292 5.374751,-5.389144 10.934052,-8.59880819 5.507301,-3.17964131 9.785877,-4.88792981 12.83581,-5.12472801 3.019911,-0.2888003 5.621447,0.7377205 7.804746,3.0794827 2.205359,2.25987441 5.062785,6.4291243 8.57236,12.5078861 3.509654,6.0789 5.706629,10.66413 6.591002,13.755826 0.906353,3.009673 0.494578,5.775931 -1.235463,8.298852 -1.760062,2.470918 -5.393703,5.296267 -10.901004,8.475909 z m -2.419046,-4.189912 c 3.792777,-2.189761 7.79884,-4.952788 8.863653,-6.468178 1.064813,-1.515387 0.332475,-4.823482 -0.375697,-6.769983 -0.686192,-2.028527 -2.439052,-5.48457 -5.258817,-10.368545 -2.819685,-4.8838382 -4.921344,-8.1040182 -6.304901,-9.6604016 -1.361657,-1.6385473 -3.829861,-3.87395603 -5.674632,-3.70949393 -1.844772,0.1644604 -6.240655,2.25229913 -10.033433,4.44205993 -3.792777,2.189762 -6.247584,4.0571696 -7.364399,5.6025816 -1.064813,1.515388 -2.123978,5.787325 -1.437786,7.815851 0.708092,1.946363 2.472021,5.361533 5.291706,10.245371 2.819764,4.883976 4.910356,8.145029 6.272013,9.783576 1.383636,1.556522 5.643343,2.828089 7.488115,2.663627 1.896774,-0.194483 4.7414,-1.386704 8.534178,-3.576465 z"
       fill="#ffffff"
       id="path1-6"
       mask="url(#mask2)"
       sodipodi:nodetypes="sccsccsccsccssscscssccsccs"
       style="fill:#ffffff;fill-opacity:1;stroke-width:0;stroke-dasharray:none" /></g><g
     style="fill:#ff10ff;fill-opacity:1"
     id="g3"
     transform="translate(121.21608,45.2429)"><path
       d="M -3.6312977,30.9073 C -3.6996744,29.357106 -3.9619195,26.413657 -4.4174181,22.077572 -5.0878948,14.605971 -5.4511355,10.227561 -5.5079294,8.9418823 l -0.2572341,-5.8416169 5.33089199,-0.2350128 0.2579498,5.8420298 c 0.056078,1.2851406 0.081226,5.7166996 0.074067,13.2937626 -0.010647,4.925062 0.00459,7.841579 0.044238,8.749014 z m -0.6575907,5.711499 5.3316077,-0.2346 0.241778,5.501083 -5.3308092,0.235059 z"
       fill="#ffffff"
       id="path1-79"
       mask="url(#mask2)"
       sodipodi:nodetypes="cccccccccccccc"
       style="fill:#ffffff;fill-opacity:1;stroke-width:0.917807" /></g></svg>
