<?xml version="1.0" encoding="UTF-8" standalone="no"?>
<svg
   width="73"
   height="73"
   viewBox="0 0 73 73"
   fill="none"
   version="1.1"
   id="svg2"
   xmlns="http://www.w3.org/2000/svg"
   xmlns:svg="http://www.w3.org/2000/svg">
  <defs
     id="defs2" />
  <path
     d="M 5.606536,36.364866 C 5.5146344,53.200015 19.064916,66.924589 35.872047,67.019737 52.679179,67.114786 66.378482,53.544366 66.470383,36.709317 66.562284,19.874268 53.011982,6.1495943 36.204851,6.0544856 19.39772,5.959377 5.698437,19.529817 5.606536,36.364866 Z"
     fill="#EEFF5D"
     id="path1"
     style="fill:#fefdfe;fill-opacity:1" />
  <rect
     style="fill:#c1282d;fill-opacity:1;stroke-width:193.429"
     id="rect2"
     width="16.267742"
     height="49.220345"
     x="10.729358"
     y="-60.678234"
     transform="rotate(90.312769)" />
  <rect
     style="fill:#c1282d;fill-opacity:1;stroke-width:188.189"
     id="rect2-9"
     width="15.016376"
     height="50.47171"
     x="46.44524"
     y="-61.106274"
     transform="rotate(90.312769)" />
  <path
     fill-rule="evenodd"
     clip-rule="evenodd"
     d="M 60.922551,36.678032 C 60.997773,22.898337 49.909044,11.680438 36.174764,11.602664 22.440483,11.52499 11.229968,22.616759 11.154746,36.396453 11.079524,50.176148 22.168253,61.394047 35.902533,61.471821 49.636813,61.549495 60.847329,50.457726 60.922551,36.678032 Z M 36.235337,0.50658552 C 56.115219,0.61908205 72.127212,16.850401 72.018632,36.740804 71.910052,56.631308 55.721843,72.680378 35.841961,72.567856 15.962078,72.455433 -0.04995636,56.224084 0.05862357,36.333681 0.16720405,16.443177 16.355454,0.39408902 36.235337,0.50658552 Z"
     fill="#000000"
     id="path2" />
</svg>
