<?xml version="1.0" encoding="UTF-8" standalone="no"?>
<svg
   width="78"
   height="78"
   viewBox="0 0 78 78"
   fill="none"
   version="1.1"
   id="svg9"
   sodipodi:docname="player-fists-garbanjo-r.svg"
   inkscape:version="1.4.2 (f4327f4, 2025-05-13)"
   xmlns:inkscape="http://www.inkscape.org/namespaces/inkscape"
   xmlns:sodipodi="http://sodipodi.sourceforge.net/DTD/sodipodi-0.dtd"
   xmlns="http://www.w3.org/2000/svg"
   xmlns:svg="http://www.w3.org/2000/svg">
  <sodipodi:namedview
     id="namedview9"
     pagecolor="#ffffff"
     bordercolor="#000000"
     borderopacity="0.25"
     inkscape:showpageshadow="2"
     inkscape:pageopacity="0.0"
     inkscape:pagecheckerboard="0"
     inkscape:deskcolor="#d1d1d1"
     inkscape:zoom="7.0076095"
     inkscape:cx="26.257171"
     inkscape:cy="39.599809"
     inkscape:window-width="1920"
     inkscape:window-height="991"
     inkscape:window-x="-9"
     inkscape:window-y="-9"
     inkscape:window-maximized="1"
     inkscape:current-layer="svg9" />
  <path
     d="M 39.153923,13.577666 C 53.513201,13.518364 65.204156,25.1106 65.266458,39.469965 65.328759,53.829231 53.738714,65.517876 39.379436,65.577178 25.020159,65.636579 13.329204,54.044343 13.266902,39.684978 13.2046,25.325713 24.794646,13.637067 39.153923,13.577666 Z"
     fill="#8a510f"
     id="path1" />
  <path
     d="M 39.153923,13.577666 C 53.513201,13.518364 65.204156,25.1106 65.266458,39.469965 65.328759,53.829231 53.738714,65.517876 39.379436,65.577178 25.020159,65.636579 13.329204,54.044343 13.266902,39.684978 13.2046,25.325713 24.794646,13.637067 39.153923,13.577666 Z"
     fill="#d5d5d5"
     id="path2" />
  <path
     d="M 39.386822,65.573747 C 53.736499,65.514385 65.323477,53.833552 65.266915,39.483764 65.210453,25.134074 53.53193,13.549487 39.182253,13.608849 24.832575,13.668211 13.245597,25.349044 13.302159,39.698732 c 0.05646,14.34979 11.734986,25.934377 26.084663,25.875015 z"
     fill="#676767"
     id="path3" />
  <path
     d="M 62.710775,39.286136 C 62.637748,51.584043 52.615894,61.478586 40.331946,61.395602 29.38877,61.327371 20.352182,53.395985 18.557975,42.979218 l -3.82468,0.617127 c 2.091178,11.883551 12.419792,20.930701 24.901526,21.009768 12.851338,0.07934 23.538335,-9.371253 25.345649,-21.724135 0.170475,-1.166816 0.2731,-2.36955 0.279758,-3.588288 0.0047,-1.20683 -0.06654,-2.401746 -0.227689,-3.574689 C 63.369216,23.340176 52.809101,13.761479 39.957763,13.682241 27.488037,13.605125 17.05112,22.518377 14.79851,34.365497 l 3.809919,0.649544 c 1.956024,-10.36868 11.075573,-18.183772 22.00684,-18.117592 12.26989,0.09294 22.164432,10.114797 22.095506,22.388687 z"
     fill="url(#paint0_linear_2067_827)"
     id="path4"
     style="fill:url(#paint0_linear_2067_827)" />
  <path
     d="M 62.711176,39.286234 C 62.638149,51.584142 52.616294,61.478585 40.332446,61.3957 29.38917,61.327469 20.352582,53.395983 18.558375,42.979217 l 6.917864,-1.134928 0.03518,-5.662394 -6.912543,-1.180814 C 20.554995,24.6323 29.674544,16.817208 40.605711,16.883488 52.885659,16.99039 62.780201,27.012244 62.711176,39.286234 Z m -27.610154,9.109196 1.536243,0.466348 0.114513,-18.513732 -1.540773,0.444678 z"
     fill="#feedc6"
     id="path5" />
  <path
     d="m 65.23672,37.599572 -28.029807,0.104654 0.0032,-0.522317 27.932323,-0.004 0.551304,-8.1e-5 -0.05367,-0.548583 -0.02986,-0.304579 -0.04417,-0.451321 -0.453404,-2.4e-5 -27.894434,0.0013 0.03415,-5.523889 0.0041,-0.669122 -0.642837,0.18566 -1.540573,0.444877 -0.358874,0.103686 -0.0024,0.373613 -0.109984,17.602505 -0.0024,0.373213 0.357152,0.108424 1.536041,0.466049 0.64101,0.19445 0.0041,-0.669822 0.0374,-6.044507 27.876769,-0.01692 0.449903,-2.61e-4 0.04705,-0.447499 0.03194,-0.304434 0.05802,-0.552545 -0.555504,2.98e-4 -27.90008,0.01412 5.12e-4,-0.0938 28.012554,-0.238284 0.458987,-0.0039 0.03531,-0.45755 0.02259,-0.292596 0.04195,-0.542978 -0.544686,0.0046 -28.018666,0.235309 0.0069,-1.111138 28.04299,-0.108809 0.500096,-0.002 -0.0021,-0.500096 -0.0013,-0.303697 -0.0021,-0.499796 z m -50.366405,-3.716477 -0.0017,-2.93e-4 -1.402683,-0.234599 -0.578905,-0.09681 -0.0036,0.58702 -0.05777,9.700622 -0.0035,0.59322 0.585304,-0.09692 1.404849,-0.232813 0.0018,-3.08e-4 10.738895,-1.739639 0.417424,-0.06763 0.0026,-0.422814 0.03537,-5.662795 0.0026,-0.424515 -0.418499,-0.07147 z"
     fill="#394d4b"
     stroke="#394d4b"
     id="path6" />
  <path
     fill-rule="evenodd"
     clip-rule="evenodd"
     d="M 39.372676,64.474996 C 25.604794,64.531951 14.411141,53.422362 14.351593,39.680491 14.291946,25.93872 25.388901,14.736919 39.156683,14.679964 52.924566,14.623008 64.118219,25.732598 64.177767,39.474469 64.237414,53.21624 53.140459,64.418041 39.372676,64.474996 Z M 3.2649877,39.726354 C 3.3512724,59.617167 19.547374,75.659305 39.420804,75.577192 59.294134,75.49498 75.350626,59.319319 75.264362,39.428606 75.178107,19.537792 58.981986,3.495605 39.108556,3.5778178 19.235126,3.6600306 3.1787034,19.835641 3.2649877,39.726354 Z"
     fill="#000000"
     id="path7" />
  <defs
     id="defs9">
    <linearGradient
       id="paint0_linear_2067_827"
       x1="8.87423"
       y1="64.7995"
       x2="63.9597"
       y2="17.4687"
       gradientUnits="userSpaceOnUse"
       gradientTransform="rotate(89.762979,39.264675,39.577505)">
      <stop
         offset="0.0559"
         stop-color="#EAB692"
         id="stop7" />
      <stop
         offset="0.5953"
         stop-color="#F6D9B5"
         id="stop8" />
      <stop
         offset="1"
         stop-color="#FEEFCB"
         id="stop9" />
    </linearGradient>
  </defs>
</svg>
