<?xml version="1.0" encoding="UTF-8" standalone="no"?>
<svg
   width="78"
   height="78"
   viewBox="0 0 78 78"
   fill="none"
   version="1.1"
   id="svg6"
   sodipodi:docname="player-fists-bad-mitten-r.svg"
   inkscape:version="1.4.2 (f4327f4, 2025-05-13)"
   xmlns:inkscape="http://www.inkscape.org/namespaces/inkscape"
   xmlns:sodipodi="http://sodipodi.sourceforge.net/DTD/sodipodi-0.dtd"
   xmlns="http://www.w3.org/2000/svg"
   xmlns:svg="http://www.w3.org/2000/svg">
  <defs
     id="defs6" />
  <sodipodi:namedview
     id="namedview6"
     pagecolor="#ffffff"
     bordercolor="#000000"
     borderopacity="0.25"
     inkscape:showpageshadow="2"
     inkscape:pageopacity="0.0"
     inkscape:pagecheckerboard="0"
     inkscape:deskcolor="#d1d1d1"
     inkscape:zoom="3.5038048"
     inkscape:cx="69.353179"
     inkscape:cy="78.343406"
     inkscape:window-width="1920"
     inkscape:window-height="991"
     inkscape:window-x="-9"
     inkscape:window-y="-9"
     inkscape:window-maximized="1"
     inkscape:current-layer="svg6" />
  <path
     d="m 20.947505,9.8716922 c -1.75593,-0.1623091 -3.378257,-0.0455 -4.790347,0.4569638 -3.970602,1.412687 -4.959931,6.146535 -5.87502,9.763529 -1.3742222,5.4322 -2.6649221,13.172361 -2.8972233,21.428794 -0.2622286,9.320112 1.275833,17.752104 4.4326683,26.414016 3.381386,6.657934 15.560211,6.479889 24.134978,5.627414 18.309238,-1.82028 20.974531,-2.646546 27.063647,-11.429166 7.409252,-10.686745 7.550381,-27.521535 5.872178,-39.01398 l -2.67e-4,-0.0019 C 68.23412,18.667901 62.672801,14.515649 59.915385,11.305837 56.448109,7.2703952 51.980164,10.476734 48.47939,12.485261 L 44.943165,7.4727928 C 42.423427,3.8937702 36.28694,4.5536847 32.589518,4.9540344 28.822356,5.3619057 24.22593,6.5711011 20.947505,9.8716922 Z"
     fill="#000000"
     id="path1" />
  <path
     d="m 22.125463,67.764233 28.344576,-2.604949 c 0,0 17.743785,-6.893089 12.729603,-41.211787 l -7.644703,-8.900426 -4.971146,2.854418 0.0011,0.0025 c 0.173866,0.675657 0.491348,1.423882 0.826273,2.213514 0.624542,1.468646 1.385468,3.259755 1.331973,5.161103 -0.03628,1.289489 -0.449799,2.63189 -1.536081,3.952862 -1.26678,1.542382 -3.199891,2.664058 -5.343859,3.361635 l -2.724971,6.527844 c -0.455068,1.091133 -1.709077,1.607168 -2.801373,1.150767 -1.092299,-0.456301 -1.605762,-1.712839 -1.150768,-2.801373 l 1.685302,-4.033297 c -2.013714,0.05038 -3.924432,-0.24607 -5.382813,-0.914351 -1.07519,-0.491934 -1.547151,-1.76221 -1.05392,-2.837264 0.49313,-1.075056 1.763407,-1.547017 2.838496,-1.055085 1.49035,0.684086 4.00482,0.706313 6.286262,0.164464 0.125785,-0.04748 0.25245,-0.08003 0.384969,-0.103714 1.646504,-0.442768 3.130792,-1.178814 3.955335,-2.17852 0.943373,-1.152023 0.612619,-2.267667 -0.42965,-4.722552 -0.235601,-0.557947 -0.464545,-1.135614 -0.675747,-1.725187 l -6.549845,-9.285325 c 0,0 -13.450131,-2.0049737 -16.765964,5.398538 0,0 -5.291333,-1.42438 -5.948697,0.04421 -2.812647,6.283981 -8.1134165,33.149126 -0.514689,49.255209 0.513294,1.088366 3.385927,2.236912 5.110308,2.28673 z m 0.48917,-5.929888 c 0.03104,0.134026 0.04226,0.268695 0.03859,0.399243 -0.02015,0.716316 -0.519798,1.354417 -1.251259,1.52051 -0.864117,0.194674 -1.726216,-0.347286 -1.919687,-1.21147 -6.385007,-28.239246 0.295426,-43.232893 0.582994,-43.857052 0.369916,-0.806015 1.324413,-1.15871 2.129128,-0.788831 0.806015,0.369915 1.158747,1.323113 0.788861,2.13163 -0.06627,0.143693 -6.512134,14.626234 -0.368624,41.80597 z"
     fill="#583111"
     id="path2" />
  <path
     d="m 37.500973,10.557214 c -1.135945,0.789184 -1.999592,1.912939 -2.602174,2.931394 -1.835421,3.100306 1.686178,12.262874 5.77915,15.685041 0.940018,-0.02297 1.930404,-0.150767 2.880327,-0.37644 0.125785,-0.04748 0.252448,-0.07993 0.384966,-0.103614 1.646504,-0.442768 3.130792,-1.178814 3.955338,-2.17862 0.94337,-1.151923 0.612619,-2.267667 -0.429653,-4.722452 -0.235701,-0.557949 -0.464545,-1.135614 -0.675744,-1.725287 l -6.549846,-9.285275 c 0,0 -1.097334,-0.163567 -2.742364,-0.224747 z"
     fill="#894d20"
     id="path3" />
  <path
     d="m 48.895489,31.211371 -0.698722,3.176805 c 0,0 3.840523,23.249911 -1.929318,31.159665 l 4.20132,-0.386092 c 0,0 17.743865,-6.893087 12.729603,-41.211787 l -7.644603,-8.900423 -4.971146,2.854418 0.0011,0.0024 c 0.173589,0.674849 0.490502,1.421957 0.824955,2.210576 l 0.0013,0.003 c 0.624542,1.468646 1.385469,3.259755 1.331973,5.161103 -0.03628,1.289489 -0.449899,2.631888 -1.536081,3.952862 -0.625876,0.761899 -1.41423,1.421187 -2.310428,1.977402 z"
     fill="#894d20"
     id="path4" />
  <path
     d="m 22.615062,61.836858 c 0.03104,0.134026 0.04216,0.268692 0.03848,0.39934 -0.02015,0.716217 -0.519695,1.35432 -1.251156,1.520413 -0.864217,0.194671 -1.726315,-0.347289 -1.91979,-1.211372 -6.384904,-28.239344 0.29543,-43.232993 0.583098,-43.85715 0.369912,-0.805915 1.324412,-1.158709 2.129128,-0.788831 0.806015,0.369915 1.158743,1.323213 0.788761,2.131627 -0.06627,0.143793 -6.512034,14.626237 -0.368525,41.805973 z"
     fill="#010101"
     id="path5" />
  <path
     d="m 59.230999,49.642845 c -0.0037,0.130548 -0.02864,0.264199 -0.077,0.39359 -3.015733,8.193524 -8.491078,12.203518 -18.311674,13.405693 l -0.359663,0.0434 c -4.726718,0.581293 -9.192489,1.129011 -14.157824,0.989307 -0.687628,-0.01935 -1.227868,-0.590867 -1.208521,-1.278494 0.01935,-0.687728 0.590867,-1.227868 1.278495,-1.208521 4.777609,0.134421 9.153464,-0.403322 13.785267,-0.971179 l 0.359563,-0.0434 c 8.879046,-1.089211 13.596002,-4.5058 16.280246,-11.797691 0.237114,-0.644286 0.950802,-0.975145 1.596285,-0.737897 0.514827,0.191155 0.829451,0.685399 0.814826,1.205194 z"
     fill="#b28832"
     id="path6" />
</svg>
