<?xml version="1.0" encoding="UTF-8" standalone="no"?>
<svg
   width="88"
   height="73"
   viewBox="0 0 88 73"
   fill="none"
   version="1.1"
   id="svg6"
   sodipodi:docname="player-hands-leaf-left.svg"
   inkscape:version="1.4.2 (f4327f4, 2025-05-13)"
   xmlns:inkscape="http://www.inkscape.org/namespaces/inkscape"
   xmlns:sodipodi="http://sodipodi.sourceforge.net/DTD/sodipodi-0.dtd"
   xmlns="http://www.w3.org/2000/svg"
   xmlns:svg="http://www.w3.org/2000/svg">
  <defs
     id="defs6" />
  <sodipodi:namedview
     id="namedview6"
     pagecolor="#ffffff"
     bordercolor="#000000"
     borderopacity="0.25"
     inkscape:showpageshadow="2"
     inkscape:pageopacity="0.0"
     inkscape:pagecheckerboard="0"
     inkscape:deskcolor="#d1d1d1"
     inkscape:zoom="3.1056451"
     inkscape:cx="45.723189"
     inkscape:cy="87.743444"
     inkscape:window-width="1920"
     inkscape:window-height="991"
     inkscape:window-x="-9"
     inkscape:window-y="-9"
     inkscape:window-maximized="1"
     inkscape:current-layer="svg6" />
  <path
     fill-rule="evenodd"
     clip-rule="evenodd"
     d="M 59.927232,16.442417 C 54.443161,10.197311 46.433931,6.2046136 37.46004,6.0700346 20.626633,5.8175886 6.7733605,19.236387 6.5179334,36.041847 6.2626063,52.847307 19.701765,66.675383 36.535172,66.927829 45.369478,67.060314 53.382854,63.427467 59.040834,57.515943 L 80.024811,37.152009 Z"
     fill="#8cc853"
     id="path1" />
  <path
     d="m 59.927232,16.442417 -4.170283,3.662178 0.09115,0.103779 0.09632,0.09925 z M 37.46004,6.0700346 37.376817,11.619431 Z M 6.5179334,36.041847 l 5.5494596,0.08432 z m 52.5229006,21.474096 -3.865211,-3.982906 -0.07348,0.07141 -0.07082,0.07395 z m 20.983977,-20.363934 3.865162,3.982806 3.982843,-3.865111 -3.865149,-3.982906 z M 64.097514,12.780339 C 57.621274,5.4053476 48.14807,0.67969061 37.543263,0.5206543 L 37.376817,11.619431 c 7.342875,0.110119 13.888231,3.369833 18.380132,8.485164 z M 37.543263,0.5206543 C 17.654099,0.2223822 1.2706867,16.07902 0.96857387,35.957524 L 12.067393,36.12617 C 12.276033,22.393855 23.599067,11.41281 37.376817,11.619431 Z M 0.96857387,35.957524 C 0.66654767,55.836931 16.561986,72.17892 36.451949,72.477205 L 36.618394,61.378453 C 22.841543,61.171845 11.858665,49.857684 12.067393,36.12617 Z M 36.451949,72.477205 C 46.891276,72.63376 56.369215,68.334099 63.050342,61.353398 l -8.019015,-7.675009 c -4.634735,4.842547 -11.183746,7.808478 -18.412933,7.700064 z M 62.905946,61.498749 83.889973,41.134815 76.15964,33.169103 55.175623,53.533037 Z m 21.101721,-28.211951 -20.09753,-20.709492 -7.965712,7.730323 20.09752,20.709492 z"
     fill="#000000"
     id="path2" />
  <rect
     x="34.872658"
     y="-50.84045"
     width="2.13517"
     height="40.288898"
     fill="#1c6c0f"
     id="rect2"
     transform="rotate(90.859184)" />
  <rect
     x="-14.113203"
     y="-58.327919"
     width="2.13517"
     height="9.9122105"
     transform="rotate(150.85918)"
     fill="#1c6c0f"
     id="rect3" />
  <rect
     x="0.60231197"
     y="-54.919525"
     width="2.13517"
     height="15"
     transform="rotate(150.85918)"
     fill="#1c6c0f"
     id="rect4" />
  <rect
     width="2.1351693"
     height="10.222496"
     transform="matrix(-0.85843042,-0.51293003,-0.51293003,0.85843042,0,0)"
     fill="#1c6c0f"
     id="rect5"
     x="-56.448826"
     y="-0.08067327" />
  <rect
     width="2.1351693"
     height="14.999994"
     transform="matrix(-0.85843042,-0.51293003,-0.51293003,0.85843042,0,0)"
     fill="#1c6c0f"
     id="rect6"
     x="-41.454105"
     y="3.7993097" />
  <path
     d="m 59.927232,16.442417 -4.170283,3.662178 0.09115,0.103779 0.09632,0.09925 z M 37.46004,6.0700346 37.376817,11.619431 Z M 6.5179334,36.041847 l 5.5494596,0.08432 z m 52.5229006,21.474096 -3.865211,-3.982906 -0.07348,0.07141 -0.07082,0.07395 z m 20.983977,-20.363934 3.865162,3.982806 3.982843,-3.865111 -3.865149,-3.982906 z M 64.097514,12.780339 C 57.621274,5.4053476 48.14807,0.67969061 37.543263,0.5206543 L 37.376817,11.619431 c 7.342875,0.110119 13.888231,3.369833 18.380132,8.485164 z M 37.543263,0.5206543 C 17.654099,0.2223822 1.2706867,16.07902 0.96857387,35.957524 L 12.067393,36.12617 C 12.276033,22.393855 23.599067,11.41281 37.376817,11.619431 Z M 0.96857387,35.957524 C 0.66654767,55.836931 16.561986,72.17892 36.451949,72.477205 L 36.618394,61.378453 C 22.841543,61.171845 11.858665,49.857684 12.067393,36.12617 Z M 36.451949,72.477205 C 46.891276,72.63376 56.369215,68.334099 63.050342,61.353398 l -8.019015,-7.675009 c -4.634735,4.842547 -11.183746,7.808478 -18.412933,7.700064 z M 62.905946,61.498749 83.889973,41.134815 76.15964,33.169103 55.175623,53.533037 Z m 21.101721,-28.211951 -20.09753,-20.709492 -7.965712,7.730323 20.09752,20.709492 z"
     fill="#000000"
     id="path6" />
</svg>
