<?xml version="1.0" encoding="UTF-8" standalone="no"?>
<svg
   width="77"
   height="69"
   viewBox="0 0 77 69"
   fill="none"
   version="1.1"
   id="svg2"
   sodipodi:docname="player-fists-gloves-02.svg"
   inkscape:version="1.4.2 (f4327f4, 2025-05-13)"
   xmlns:inkscape="http://www.inkscape.org/namespaces/inkscape"
   xmlns:sodipodi="http://sodipodi.sourceforge.net/DTD/sodipodi-0.dtd"
   xmlns="http://www.w3.org/2000/svg"
   xmlns:svg="http://www.w3.org/2000/svg">
  <defs
     id="defs2" />
  <sodipodi:namedview
     id="namedview2"
     pagecolor="#ffffff"
     bordercolor="#000000"
     borderopacity="0.25"
     inkscape:showpageshadow="2"
     inkscape:pageopacity="0.0"
     inkscape:pagecheckerboard="0"
     inkscape:deskcolor="#d1d1d1"
     inkscape:zoom="3.5493087"
     inkscape:cx="40.853026"
     inkscape:cy="54.799403"
     inkscape:window-width="1920"
     inkscape:window-height="991"
     inkscape:window-x="-9"
     inkscape:window-y="-9"
     inkscape:window-maximized="1"
     inkscape:current-layer="svg2" />
  <path
     d="m 5.5451097,57.862127 c -0.056464,2.760822 2.1358938,5.044728 4.8967163,5.101192 l 34.241839,0.700311 c 0.151069,0.0031 0.302176,-6.21e-4 0.452925,-0.01124 C 49.565885,63.340894 56.183756,61.756982 61.876431,57.5274 67.783466,53.138666 72.450204,46.052608 72.665344,35.533308 72.930405,22.573118 67.044089,14.667804 60.293965,10.21805 53.882741,5.9917819 46.943496,5.0085351 44.402927,4.9565757 42.345457,4.9144967 37.894864,4.9860177 33.848919,7.6219689 30.45074,9.8358469 27.985824,13.40109 26.956706,18.487411 L 11.357968,18.168387 c -2.7608227,-0.05646 -5.0447267,2.135794 -5.1011928,4.896716 z"
     fill="#ff504f"
     stroke="#000000"
     stroke-width="10"
     stroke-linecap="round"
     stroke-linejoin="round"
     id="path1" />
  <path
     d="M 47.908711,32.805723 C 48.04196,26.290486 42.530104,24.17794 39.75757,23.936097 L 31.439454,23.573036 C 31.104589,10.974754 39.501344,9.3022189 44.31373,9.4010009 59.71321,9.7159499 66.33715,22.790547 67.204012,29.193211 c -0.469764,1.84208 -2.508804,6.733309 -7.05697,11.825074 -4.548163,5.091666 -12.776405,6.775069 -16.431841,6.700309 l -9.771756,-0.199851 c -1.116967,-0.02284 -1.877753,-0.588819 -1.851151,-1.889547 0.01514,-0.740345 1.013692,-1.275439 1.511074,-1.450405 2.053641,-0.82218 6.875071,-2.539852 10.089547,-4.422918 3.029423,-1.774726 4.120039,-5.28556 4.215796,-6.95015 z"
     fill="#c74145"
     id="path2" />
</svg>
