<?xml version="1.0" encoding="UTF-8" standalone="no"?>
<svg
   width="77"
   height="77"
   viewBox="0 0 77 77"
   fill="none"
   version="1.1"
   id="svg5"
   sodipodi:docname="player-hands-bePresent-right.svg"
   inkscape:version="1.4.2 (f4327f4, 2025-05-13)"
   xmlns:inkscape="http://www.inkscape.org/namespaces/inkscape"
   xmlns:sodipodi="http://sodipodi.sourceforge.net/DTD/sodipodi-0.dtd"
   xmlns="http://www.w3.org/2000/svg"
   xmlns:svg="http://www.w3.org/2000/svg">
  <defs
     id="defs5" />
  <sodipodi:namedview
     id="namedview5"
     pagecolor="#ffffff"
     bordercolor="#000000"
     borderopacity="0.25"
     inkscape:showpageshadow="2"
     inkscape:pageopacity="0.0"
     inkscape:pagecheckerboard="0"
     inkscape:deskcolor="#d1d1d1"
     inkscape:zoom="3.5493087"
     inkscape:cx="-28.456245"
     inkscape:cy="47.474033"
     inkscape:window-width="1920"
     inkscape:window-height="991"
     inkscape:window-x="-9"
     inkscape:window-y="-9"
     inkscape:window-maximized="1"
     inkscape:current-layer="svg5" />
  <rect
     x="-13.252455"
     y="-80.339485"
     width="9.7691002"
     height="34.007702"
     rx="4.8845501"
     transform="rotate(135.02293)"
     fill="#ffd770"
     id="rect1" />
  <rect
     x="58.450928"
     y="-25.372618"
     width="9.7691002"
     height="34.007702"
     rx="4.8845501"
     transform="rotate(45.022933)"
     fill="#ffd770"
     id="rect2" />
  <rect
     x="18.130098"
     y="-43.634495"
     width="41.330799"
     height="31.561701"
     fill="#d22b2b"
     id="rect3"
     transform="rotate(90.022933)" />
  <rect
     x="14.373297"
     y="-52.653095"
     width="48.845501"
     height="12.0235"
     fill="#b61b1b"
     id="rect4"
     transform="rotate(90.022933)" />
  <rect
     x="33.911396"
     y="-52.653095"
     width="9.7691002"
     height="40.579399"
     fill="#ffc123"
     id="rect5"
     transform="rotate(90.022933)" />
  <path
     fill-rule="evenodd"
     clip-rule="evenodd"
     d="m 61.920823,43.919785 c 0.977411,0.972991 1.428591,2.271472 1.352481,3.544141 -0.06514,1.090274 -0.516865,2.161894 -1.355098,2.994658 -1.815523,1.804174 -4.758322,1.803296 -6.5738,-0.0016 l -10e-4,-10e-4 -3.009901,-2.996405 -0.0059,14.663199 -11.442899,-0.0046 0.0014,-3.5569 -27.179098,-0.01088 0.01566,-39.121296 27.179098,0.01088 0.0014,-3.5564 11.442899,0.0046 -0.0059,14.799999 3.011598,-2.992795 c 1.816923,-1.804973 4.760023,-1.804495 6.5755,0.0019 0.837067,0.833135 1.287638,1.905016 1.351901,2.995241 0.07509,1.272931 -0.376529,2.57075 -1.354518,3.543059 l -4.870138,4.840151 z m 8.631154,15.132356 C 75.994002,53.644718 76.944224,45.459398 73.4008,39.081779 Z m -0.0013,0.0013 c -1.762691,1.751295 -3.817744,3.033572 -6.00847,3.846996 l -0.0046,11.375399 -35.872797,-0.01436 0.0014,-3.5569 -27.1789982,-0.01088 0.025383,-63.4177345 27.1789982,0.010878 0.0014,-3.5563797 35.872797,0.014358 -0.0046,11.5127187 c 2.190174,0.815377 4.24419,2.099299 6.005389,3.851804 l 0.0013,0.0013 c 5.437345,5.411977 6.379738,13.597254 2.832837,19.971135"
     fill="#000000"
     id="path5" />
</svg>
