<?xml version="1.0" encoding="UTF-8" standalone="no"?>
<svg
   width="78"
   height="78"
   viewBox="0 0 78 78"
   fill="none"
   version="1.1"
   id="svg14"
   sodipodi:docname="player-fists-garbanjo-l.svg"
   inkscape:version="1.4.2 (f4327f4, 2025-05-13)"
   xmlns:inkscape="http://www.inkscape.org/namespaces/inkscape"
   xmlns:sodipodi="http://sodipodi.sourceforge.net/DTD/sodipodi-0.dtd"
   xmlns="http://www.w3.org/2000/svg"
   xmlns:svg="http://www.w3.org/2000/svg">
  <sodipodi:namedview
     id="namedview14"
     pagecolor="#ffffff"
     bordercolor="#000000"
     borderopacity="0.25"
     inkscape:showpageshadow="2"
     inkscape:pageopacity="0.0"
     inkscape:pagecheckerboard="0"
     inkscape:deskcolor="#d1d1d1"
     inkscape:zoom="3.5038048"
     inkscape:cx="-40.527372"
     inkscape:cy="60.362952"
     inkscape:window-width="1920"
     inkscape:window-height="991"
     inkscape:window-x="-9"
     inkscape:window-y="-9"
     inkscape:window-maximized="1"
     inkscape:current-layer="svg14" />
  <path
     d="M 38.587637,65.575474 C 52.945906,65.395315 64.441842,53.609554 64.264583,39.251248 64.087324,24.892942 52.303892,13.399277 37.945623,13.579436 23.587353,13.759595 12.091417,25.545355 12.268676,39.903661 c 0.17726,14.358407 11.960691,25.851972 26.318961,25.671813 z"
     fill="url(#paint0_linear_2067_819)"
     id="path1"
     style="fill:url(#paint0_linear_2067_819)" />
  <path
     d="M 38.587637,65.575474 C 52.945906,65.395315 64.441842,53.609554 64.264583,39.251248 64.087324,24.892942 52.303892,13.399277 37.945623,13.579436 23.587353,13.759595 12.091417,25.545355 12.268676,39.903661 c 0.17726,14.358407 11.960691,25.851972 26.318961,25.671813 z"
     fill="#d5d5d5"
     id="path2" />
  <path
     d="M 37.953017,13.578943 C 52.301687,13.398905 64.081922,24.884809 64.264761,39.233545 64.447699,53.582179 52.964064,65.359984 38.615394,65.540023 24.266723,65.720061 12.486489,54.234157 12.303651,39.885521 12.120712,25.536787 23.604346,13.758982 37.953017,13.578943 Z"
     fill="#676767"
     id="path3" />
  <path
     d="M 61.701503,38.615356 C 61.423325,26.320478 51.237797,16.594504 38.956943,16.882408 28.016427,17.133091 19.113415,25.214228 17.493238,35.659478 l -3.834443,-0.553235 c 1.892636,-11.916784 12.068882,-21.134985 24.54756,-21.42227 12.848226,-0.293722 23.691397,8.977265 25.70454,21.298277 0.189915,1.163709 0.312592,2.364664 0.339582,3.583121 0.02484,1.206584 -0.02646,2.402521 -0.168023,3.57799 C 62.625876,54.548212 52.227028,64.301648 39.378802,64.59537 26.912098,64.880505 16.327936,56.14261 13.877996,44.334719 L 17.67655,43.621705 C 19.805279,53.95631 29.053936,61.618176 39.982578,61.369641 52.24921,61.072016 61.975183,50.886488 61.701503,38.615356 Z"
     fill="url(#paint1_linear_2067_819)"
     id="path4"
     style="fill:url(#paint1_linear_2067_819)" />
  <path
     d="M 61.701903,38.615351 C 61.423723,26.320373 51.238196,16.594399 38.957441,16.882301 28.016827,17.133086 19.113815,25.214223 17.493638,35.659473 l 6.935835,1.01936 0.129636,5.661019 -6.891883,1.295971 c 2.12883,10.334604 11.377488,17.99657 22.306029,17.747936 12.276455,-0.31175 22.002428,-10.497277 21.728648,-22.768408 z m -27.758277,-8.647314 1.528247,-0.492013 0.423359,18.509345 -1.547978,-0.418911 z"
     fill="#feedc6"
     id="path5" />
  <path
     d="m 64.255234,40.259645 -28.027652,0.362975 0.01195,0.522191 27.928502,-0.461939 0.551229,-0.0091 -0.04451,0.549401 -0.02478,0.305035 -0.03663,0.451995 -0.453341,0.0076 -27.890572,0.464063 0.126298,5.52255 0.01529,0.668961 -0.645845,-0.174911 -1.547781,-0.419114 -0.360554,-0.09768 -0.0086,-0.373522 -0.403626,-17.598221 -0.0086,-0.373122 0.355293,-0.114366 1.528053,-0.49161 0.637676,-0.205117 0.0153,0.669661 0.13823,6.043041 27.873171,-0.448144 0.449844,-0.0072 0.05451,0.446651 0.03702,0.30386 0.06722,0.5515 -0.555431,0.009 -27.896433,0.451336 0.0021,0.09378 28.01263,-0.229176 0.45899,-0.0037 0.04294,0.456897 0.02747,0.292179 0.05101,0.542202 -0.544686,0.0045 -28.018692,0.232152 0.02544,1.110868 28.040902,-0.359041 0.50006,-0.0064 0.0063,0.500061 0.0038,0.303676 0.0063,0.49976 z m -50.297395,4.55621 -0.0017,3.21e-4 -1.398573,0.257968 -0.57721,0.10645 -0.01336,-0.586878 -0.219597,-9.698309 -0.01344,-0.593078 0.58684,0.08714 1.408537,0.209345 0.0018,2.77e-4 10.766423,1.560243 0.418494,0.06065 0.0096,0.422713 0.129841,5.661417 0.0097,0.424411 -0.417249,0.07844 z"
     fill="#394d4b"
     stroke="#394d4b"
     id="path6" />
  <path
     fill-rule="evenodd"
     clip-rule="evenodd"
     d="M 37.957253,14.681677 C 24.190336,14.854416 13.183579,26.1492 13.353291,39.890052 13.522904,53.631006 24.805192,64.646121 38.572008,64.473383 52.338924,64.300644 63.345682,53.00586 63.175969,39.264908 63.006357,25.524054 51.724069,14.508939 37.957253,14.681677 Z M 2.2674632,40.029151 C 2.0219036,20.139766 17.948123,3.8296154 37.820159,3.5802731 57.692095,3.3309321 74.016207,19.236425 74.261786,39.125809 74.507377,59.015294 58.581137,75.325394 38.709101,75.574737 18.837065,75.824079 2.5130241,59.918635 2.2674632,40.029151 Z"
     fill="#000000"
     id="path7" />
  <defs
     id="defs14">
    <linearGradient
       id="paint0_linear_2067_819"
       x1="12.2646"
       y1="39.5703"
       x2="59.2647"
       y2="55.5703"
       gradientUnits="userSpaceOnUse"
       gradientTransform="rotate(89.281125,38.264625,39.577505)">
      <stop
         stop-color="#B00000"
         id="stop7" />
      <stop
         offset="0.234375"
         stop-color="#D8B500"
         id="stop8" />
      <stop
         offset="0.520833"
         stop-color="#00A807"
         id="stop9" />
      <stop
         offset="0.776042"
         stop-color="#750093"
         id="stop10" />
      <stop
         offset="1"
         stop-color="#C40098"
         id="stop11" />
    </linearGradient>
    <linearGradient
       id="paint1_linear_2067_819"
       x1="67.7928"
       y1="64.7995"
       x2="12.7073"
       y2="17.4687"
       gradientUnits="userSpaceOnUse"
       gradientTransform="rotate(89.281125,38.264625,39.577505)">
      <stop
         offset="0.0559"
         stop-color="#EAB692"
         id="stop12" />
      <stop
         offset="0.5953"
         stop-color="#F6D9B5"
         id="stop13" />
      <stop
         offset="1"
         stop-color="#FEEFCB"
         id="stop14" />
    </linearGradient>
  </defs>
</svg>
