<?xml version="1.0" encoding="UTF-8" standalone="no"?>
<svg
   width="77"
   height="78"
   viewBox="0 0 77 78"
   fill="none"
   version="1.1"
   id="svg2"
   xmlns="http://www.w3.org/2000/svg"
   xmlns:svg="http://www.w3.org/2000/svg">
  <defs
     id="defs2" />
  <path
     d="M 6.99999,39.8138 C 6.99999,56.9346 20.8792,70.8166 38,70.82 55.1208,70.8234 69,56.947 69,39.8262 69,22.7053 55.1208,8.8234 38,8.81998 20.8792,8.81656 7,22.693 6.99999,39.8138 Z"
     fill="#E9BF80"
     id="path1"
     style="fill:#fec237;fill-opacity:1" />
  <path
     fill-rule="evenodd"
     clip-rule="evenodd"
     d="M 63.7614,39.3239 C 63.7614,25.3745 52.4526,14.0621 38.5,14.0592 24.5474,14.0564 13.2386,25.3643 13.2386,39.3137 c 0,13.9494 11.3088,25.2618 25.2614,25.2646 13.9526,0.0028 25.2614,-11.305 25.2614,-25.2544 z M 38.5,2.81878 C 58.6573,2.82286 75,19.1667 75,39.3262 75,59.4856 58.6573,75.8229 38.5,75.8188 18.3427,75.8147 2,59.4708 2,39.3114 2,19.1519 18.3427,2.81469 38.5,2.81878 Z"
     fill="#000000"
     id="path2" />
</svg>
