<?xml version="1.0" encoding="UTF-8" standalone="no"?>
<svg
   width="77"
   height="77"
   viewBox="0 0 77 77"
   fill="none"
   version="1.1"
   id="svg16"
   sodipodi:docname="player-fists-inky-business-l.svg"
   inkscape:version="1.4.2 (f4327f4, 2025-05-13)"
   xmlns:inkscape="http://www.inkscape.org/namespaces/inkscape"
   xmlns:sodipodi="http://sodipodi.sourceforge.net/DTD/sodipodi-0.dtd"
   xmlns="http://www.w3.org/2000/svg"
   xmlns:svg="http://www.w3.org/2000/svg">
  <defs
     id="defs16" />
  <sodipodi:namedview
     id="namedview16"
     pagecolor="#ffffff"
     bordercolor="#000000"
     borderopacity="0.25"
     inkscape:showpageshadow="2"
     inkscape:pageopacity="0.0"
     inkscape:pagecheckerboard="0"
     inkscape:deskcolor="#d1d1d1"
     inkscape:zoom="5.0194805"
     inkscape:cx="30.481242"
     inkscape:cy="52.097025"
     inkscape:window-width="1920"
     inkscape:window-height="991"
     inkscape:window-x="-9"
     inkscape:window-y="-9"
     inkscape:window-maximized="1"
     inkscape:current-layer="svg16" />
  <path
     d="M 25.714089,8.458223 C 24.296356,7.8241117 22.531816,7.4123717 20.470751,7.6454111 18.734739,7.8417322 17.301587,8.4663286 16.221852,9.1365827 16.099849,9.2106172 15.979335,9.2877577 15.860307,9.3679942 13.984449,10.632505 12.654467,12.32201 11.79788,14.210142 9.3280647,14.5532 6.6186691,15.75139 4.6263504,18.579511 3.9992252,19.469568 3.539064,20.418004 3.225861,21.377038 c -1.0857772,3.286911 -0.3572269,6.300299 0.4050396,8.203315 0.3132218,0.782081 0.6909781,1.531223 1.1151755,2.245754 -1.5478018,1.76762 -2.7498181,4.203351 -2.7623277,7.279126 -6.345e-4,0.155999 0.00193,0.31251 0.00789,0.469536 0.1085349,2.892965 1.2573048,5.164756 2.6938439,6.830012 -0.4010013,0.663375 -0.7613221,1.356215 -1.0667581,2.077479 -0.787471,1.859913 -1.5615296,4.774089 -0.6425745,8.007953 0.3016233,1.076735 0.7854455,2.154112 1.4831519,3.162058 1.9696469,2.844634 4.6698066,4.064826 7.137451,4.427665 0.816638,1.836437 2.080126,3.489389 3.857787,4.75643 1.12423,0.806279 2.735285,1.632038 4.759102,1.877971 2.322073,0.281846 4.27379,-0.25942 5.77819,-1.018608 0.168772,0.08099 0.339957,0.158784 0.513755,0.233392 3.581779,1.53708 8.383407,1.515208 11.992563,-1.368037 8.323439,1.999169 16.323699,0.476194 22.862732,-3.575544 C 70.161513,59.532488 75.941361,49.677713 75.983226,39.384098 76.025081,29.093083 70.328145,19.193832 61.575994,13.66879 55.183254,9.6332067 47.358419,8.0276591 39.174322,9.8052983 35.543627,6.5264247 30.494572,6.4068187 26.764303,7.9652503 26.403787,8.1158852 26.053715,8.2804828 25.714089,8.458223 Z"
     fill="#000000"
     id="path1" />
  <path
     d="m 25.515144,25.655626 c 2.065225,3.317227 5.360793,4.930044 5.360793,4.930044 0,0 -1.239062,-4.83108 0.454114,-7.698317 1.693677,-2.867735 3.371301,-4.787928 1.915051,-6.303063 -1.287164,-1.339147 -6.4551,-1.242464 -7.729958,9.071336 z"
     fill="#591ed8"
     id="path2" />
  <path
     d="m 25.407388,52.150007 c 2.092259,-3.329618 5.400893,-4.929375 5.400893,-4.929375 0,0 -1.278488,4.862741 0.391207,7.768756 1.670193,2.906316 3.332074,4.856892 1.863494,6.373231 -1.298061,1.340132 -6.465035,1.200416 -7.655594,-9.212612 z"
     fill="#591ed8"
     id="path3" />
  <path
     d="m 25.515021,25.612125 c 2.095809,3.345852 5.440121,4.972567 5.440121,4.972567 0,0 -0.640906,-2.483227 -0.382345,-4.956496 -1.27439,-0.939391 -2.939314,-2.461175 -4.054884,-4.58543 -0.42724,1.238373 -0.775868,2.744367 -1.002892,4.569359 z"
     fill="#1d1068"
     id="path4" />
  <path
     d="m 25.406821,52.215605 c 2.123139,-3.373693 5.480659,-4.994651 5.480659,-4.994651 0,0 -0.66122,2.511432 -0.422918,5.019322 -1.282039,0.941393 -2.959369,2.469884 -4.092296,4.613194 -0.417087,-1.257907 -0.75337,-2.787287 -0.965445,-4.637865 z"
     fill="#1d1068"
     id="path5" />
  <path
     fill-rule="evenodd"
     clip-rule="evenodd"
     d="m 23.620922,42.27826 c 0,0 -12.655236,1.28624 -12.637247,-3.136723 0.01793,-4.409664 12.586277,-3.042136 12.662344,-3.033826 l 4e-4,10e-7 C 13.513074,30.787155 10.683514,25.608204 11.983832,23.762477 c 0.835228,-1.185513 2.619557,-0.672651 4.172145,0.513773 1.552987,1.186426 8.908767,6.664788 8.908767,6.664788 -8.327166,-9.786548 -5.076554,-14.184064 -3.582855,-14.352891 1.493299,-0.168928 2.735603,2.85685 4.164285,6.42939 1.546288,3.866321 5.316419,5.73507 5.316419,5.73507 -2.370185,3.483089 -5.705479,12.547499 -0.08557,20.940425 0,0 -3.784805,1.837522 -5.362491,5.691238 -1.458095,3.560799 -2.724571,6.576673 -4.216846,6.395302 -1.491876,-0.181069 -4.706612,-4.60438 3.699885,-14.323371 0,0 -7.400498,5.418447 -8.962685,6.592203 -1.562588,1.174054 -3.350629,1.672386 -4.176187,0.480119 -1.285259,-1.856643 1.586333,-7.012406 11.76222,-12.250263 z"
     fill="#8b30ff"
     id="path6" />
  <path
     d="m 20.890999,16.830446 c -1.515969,1.021843 -3.207623,5.4574 4.125138,14.112094 0.844159,-0.848673 0.980346,-2.17303 0.326019,-3.1757 -2.851069,-4.365332 -4.003247,-8.626953 -4.451157,-10.936394 z"
     fill="#421c92"
     id="path7" />
  <path
     d="m 23.571773,36.143409 c 0.582236,-1.286143 0.137606,-2.804164 -1.044375,-3.573377 -2.569422,-1.671964 -6.954319,-4.927125 -9.932072,-9.296772 -0.241045,0.109021 -0.452742,0.280061 -0.624037,0.524267 -1.29352,1.846254 1.52094,7.025343 11.600484,12.345882 z"
     fill="#421c92"
     id="path8" />
  <path
     d="m 20.709204,61.528777 c -1.507606,-1.034141 -3.163125,-5.483311 4.239792,-14.078073 0.837228,0.855512 0.962637,2.181333 0.300177,3.178247 -2.886484,4.341996 -4.073287,8.594105 -4.539969,10.899826 z"
     fill="#421c92"
     id="path9" />
  <path
     d="m 23.546986,42.237959 c 0.571754,1.290836 0.114792,2.80519 -1.073408,3.564763 -2.582936,1.651009 -6.994166,4.870395 -10.007363,9.215676 -0.240151,-0.110978 -0.45045,-0.283735 -0.619753,-0.529325 -1.278459,-1.856715 1.578035,-7.01274 11.700524,-12.251114 z"
     fill="#421c92"
     id="path10" />
  <path
     d="m 14.682448,39.15578 c 0.01,-2.45078 2.906575,-3.135204 6.346175,-3.251016 -3.699359,-0.140647 -10.032108,0.0797 -10.044945,3.235973 -0.01284,3.156274 6.31791,3.428124 10.01829,3.317573 -3.438543,-0.143787 -6.329488,-0.85175 -6.31952,-3.30253 z"
     fill="#421c92"
     id="path11" />
  <path
     fill-rule="evenodd"
     clip-rule="evenodd"
     d="m 32.799712,21.965523 c -3.606909,2.158648 -6.530212,5.423485 -7.847458,9.415361 -1.409381,4.270703 -2.102842,9.890129 -0.182284,15.658088 1.324829,3.978721 4.296473,7.219434 7.876219,9.403711 18.20597,11.108738 34.279912,-3.031305 34.337113,-17.095489 0.05719,-14.060483 -15.89372,-28.327675 -34.18359,-17.381671 z"
     fill="#8b30ff"
     id="path12" />
  <path
     d="m 40.653717,44.797655 c 3.868968,0.01573 7.015463,-2.460088 7.027949,-5.530063 0.01249,-3.069874 -3.113767,-5.57121 -6.982735,-5.586946 -3.869068,-0.01574 -7.015564,2.460088 -7.028049,5.529962 -0.01249,3.069975 3.113767,5.57131 6.982835,5.587047 z"
     fill="#b57bff"
     id="path13" />
  <path
     d="m 44.685691,26.641903 c 0.0074,-1.815685 -1.744216,-3.245221 -3.986397,-3.25434 -2.242982,-0.0091 -4.006152,1.406118 -4.013537,3.221803 -0.0074,1.815685 1.744216,3.245221 3.987198,3.254343 2.242181,0.0091 4.005352,-1.406121 4.012736,-3.221806 z"
     fill="#000000"
     id="path14" />
  <path
     d="m 44.582659,51.974693 c 0.0072,-1.780085 -1.744474,-3.181721 -3.986655,-3.19084 -2.242982,-0.0091 -4.006039,1.378218 -4.013279,3.158303 -0.0072,1.780086 1.744475,3.181722 3.987456,3.190844 2.242181,0.0091 4.005238,-1.378221 4.012478,-3.158307 z"
     fill="#000000"
     id="path15" />
  <path
     d="m 44.171489,39.254916 c 0.0051,-1.25439 -1.428324,-2.136227 -3.486407,-2.144598 -2.057483,-0.0084 -3.498036,0.862281 -3.503136,2.11617 -0.0051,1.25449 1.428323,2.136327 3.485806,2.144695 2.057583,0.0084 3.498634,-0.861778 3.503737,-2.116267 z"
     fill="#411c92"
     id="path16" />
</svg>
