<?xml version="1.0" encoding="UTF-8" standalone="no"?>
<svg
   width="88"
   height="73"
   viewBox="0 0 88 73"
   fill="none"
   version="1.1"
   id="svg6"
   sodipodi:docname="player-hands-leaf-right.svg"
   inkscape:version="1.4.2 (f4327f4, 2025-05-13)"
   xmlns:inkscape="http://www.inkscape.org/namespaces/inkscape"
   xmlns:sodipodi="http://sodipodi.sourceforge.net/DTD/sodipodi-0.dtd"
   xmlns="http://www.w3.org/2000/svg"
   xmlns:svg="http://www.w3.org/2000/svg">
  <defs
     id="defs6" />
  <sodipodi:namedview
     id="namedview6"
     pagecolor="#ffffff"
     bordercolor="#000000"
     borderopacity="0.25"
     inkscape:showpageshadow="2"
     inkscape:pageopacity="0.0"
     inkscape:pagecheckerboard="0"
     inkscape:deskcolor="#d1d1d1"
     inkscape:zoom="3.1056451"
     inkscape:cx="-17.709686"
     inkscape:cy="46.206181"
     inkscape:window-width="1920"
     inkscape:window-height="991"
     inkscape:window-x="-9"
     inkscape:window-y="-9"
     inkscape:window-maximized="1"
     inkscape:current-layer="svg6" />
  <path
     fill-rule="evenodd"
     clip-rule="evenodd"
     d="M 59.224054,57.376233 C 53.496991,63.399315 45.33594,67.071784 36.363758,66.850911 19.533557,66.436595 6.2225054,52.479683 6.6327339,35.67739 7.0430648,18.874999 21.019244,5.5898686 37.849445,6.0041846 46.682069,6.2216216 54.545308,10.168922 59.964766,16.299921 L 80.12592,37.478802 Z"
     fill="#8cc853"
     id="path1" />
  <path
     d="m 59.224054,57.376233 -4.022001,-3.824339 0.09519,-0.100188 0.100175,-0.09526 z m -22.860296,9.474678 0.136586,-5.548319 z M 6.6327339,35.67739 12.18118,35.812878 Z m 53.3320321,-19.377469 -4.019891,3.82663 -0.0706,-0.07416 -0.06783,-0.07679 z m 20.161154,21.178881 4.019843,-3.826731 3.826668,4.019892 -4.019829,3.826631 z M 63.246052,61.200673 C 56.48286,68.313385 46.829961,72.660244 36.227173,72.399231 l 0.273171,-11.096639 c 7.341476,0.180729 14.010778,-2.817348 18.701709,-7.750698 z M 36.227173,72.399231 C 16.341798,71.909703 0.59912027,55.416781 1.0843878,35.541904 L 12.18118,35.812878 C 11.845888,49.542685 22.725217,60.963484 36.500344,61.302592 Z M 1.0843878,35.541904 C 1.5697773,15.66613 18.099856,-0.0336808 37.986031,0.455866 l -0.27317,11.096599 C 23.938634,11.213378 12.516352,22.083868 12.18118,35.812878 Z M 37.986031,0.455866 c 10.437338,0.2569406 19.737585,4.9285946 26.137052,12.168378 l -8.316635,7.351355 C 51.367099,14.953425 44.940671,11.730395 37.712861,11.552465 Z M 63.984556,12.47329 84.145763,33.652071 76.106069,41.305432 55.944875,20.126551 Z M 83.952602,41.498594 63.050783,61.396127 55.397422,53.356443 76.29923,33.458909 Z"
     fill="#000000"
     id="path2" />
  <rect
     width="2.13517"
     height="40.288898"
     transform="matrix(0.02460999,-0.99969713,-0.99969713,-0.02460999,0,0)"
     fill="#1c6c0f"
     id="rect2"
     x="-36.570751"
     y="-51.291542" />
  <rect
     width="2.1351693"
     height="9.9122066"
     transform="matrix(-0.85345801,-0.52116161,-0.52116161,0.85345801,0,0)"
     fill="#1c6c0f"
     id="rect3"
     x="-50.225666"
     y="3.3185043" />
  <rect
     width="2.1351693"
     height="14.999994"
     transform="matrix(-0.85345801,-0.52116161,-0.52116161,0.85345801,0,0)"
     fill="#1c6c0f"
     id="rect4"
     x="-35.510059"
     y="6.7267265" />
  <rect
     x="-21.117935"
     y="-62.177757"
     width="2.13517"
     height="10.2225"
     transform="rotate(151.41019)"
     fill="#1c6c0f"
     id="rect5" />
  <rect
     x="-6.1231079"
     y="-58.297951"
     width="2.13517"
     height="15"
     transform="rotate(151.41019)"
     fill="#1c6c0f"
     id="rect6" />
  <path
     d="m 59.224054,57.376233 -4.022001,-3.824339 0.09519,-0.100188 0.100175,-0.09526 z m -22.860296,9.474678 0.136586,-5.548319 z M 6.6327339,35.67739 12.18118,35.812878 Z m 53.3320321,-19.377469 -4.019891,3.82663 -0.0706,-0.07416 -0.06783,-0.07679 z m 20.161154,21.178881 4.019843,-3.826731 3.826668,4.019892 -4.019829,3.826631 z M 63.246052,61.200673 C 56.48286,68.313385 46.829961,72.660244 36.227173,72.399231 l 0.273171,-11.096639 c 7.341476,0.180729 14.010778,-2.817348 18.701709,-7.750698 z M 36.227173,72.399231 C 16.341798,71.909703 0.59912027,55.416781 1.0843878,35.541904 L 12.18118,35.812878 C 11.845888,49.542685 22.725217,60.963484 36.500344,61.302592 Z M 1.0843878,35.541904 C 1.5697773,15.66613 18.099856,-0.0336808 37.986031,0.455866 l -0.27317,11.096599 C 23.938634,11.213378 12.516352,22.083868 12.18118,35.812878 Z M 37.986031,0.455866 c 10.437338,0.2569406 19.737585,4.9285946 26.137052,12.168378 l -8.316635,7.351355 C 51.367099,14.953425 44.940671,11.730395 37.712861,11.552465 Z M 63.984556,12.47329 84.145763,33.652071 76.106069,41.305432 55.944875,20.126551 Z M 83.952602,41.498594 63.050783,61.396127 55.397422,53.356443 76.29923,33.458909 Z"
     fill="#000000"
     id="path6" />
</svg>
