<?xml version="1.0" encoding="UTF-8" standalone="no"?>
<svg
   width="60.966164"
   height="60.864819"
   viewBox="0 0 60.966164 60.864819"
   fill="none"
   version="1.1"
   id="svg2"
   xmlns="http://www.w3.org/2000/svg"
   xmlns:svg="http://www.w3.org/2000/svg">
  <defs
     id="defs2" />
  <path
     d="m 30.47696,60.864821 c 16.8354,0 30.4858,-13.625 30.4892,-30.4324 C 60.96946,13.625021 47.32446,8.0403065e-8 30.48916,8.0403065e-8 13.65386,8.0403065e-8 0.00336054,13.625021 5.3124782e-7,30.432421 -0.00335946,47.239821 13.64166,60.864821 30.47696,60.864821 Z"
     fill="#EEFF5D"
     id="path1"
     style="fill:#eeff5d;fill-opacity:1" />
  <path
     fill-rule="evenodd"
     clip-rule="evenodd"
     d="m 30.48816,5.5479205 c -13.7799,0 -24.9371,11.1498005 -24.9399,24.8843005 -0.0027,13.7345 11.1501,24.8843 24.93,24.8843 13.7799,0 24.9371,-11.1498 24.9399,-24.8843 0.0027,-13.7345 -11.1501,-24.8843005 -24.93,-24.8843005 z M -5.5479834,30.432221 c 0.00397,-19.8802 16.1476434,-35.98056 36.0383434,-35.98056 19.8908,0 36.028,16.10036 36.024,35.98056 -0.0039,19.8802 -16.1476,35.9806 -36.0383,35.9806 -19.8908,0 -36.0280173,-16.1004 -36.0240434,-35.9806 z"
     fill="#000000"
     id="path2" />
</svg>
