<?xml version="1.0" encoding="UTF-8" standalone="no"?>
<svg
   width="148"
   height="148"
   viewBox="0 0 148 148"
   fill="none"
   version="1.1"
   id="svg2"
   sodipodi:docname="player-back-checkmate.svg"
   xml:space="preserve"
   inkscape:version="1.4.2 (ebf0e940d0, 2025-05-08)"
   xmlns:inkscape="http://www.inkscape.org/namespaces/inkscape"
   xmlns:sodipodi="http://sodipodi.sourceforge.net/DTD/sodipodi-0.dtd"
   xmlns="http://www.w3.org/2000/svg"
   xmlns:svg="http://www.w3.org/2000/svg"><defs
     id="defs2"><linearGradient
       id="paint0_linear"
       x1="70.92244"
       y1="136.37946"
       x2="70.42244"
       y2="-3.1216636"
       gradientUnits="userSpaceOnUse"
       gradientTransform="rotate(0.19600797,67.421938,66.877641)"><stop
         offset="0.50248885"
         stop-color="#163900"
         id="stop1"
         style="stop-color:#0b0b0b;stop-opacity:1;" /><stop
         offset="0.50248885"
         stop-color="#002504"
         id="stop12"
         style="stop-color:#e7e7e7;stop-opacity:1;" /></linearGradient></defs><sodipodi:namedview
     id="namedview2"
     pagecolor="#ffffff"
     bordercolor="#000000"
     borderopacity="0.25"
     inkscape:showpageshadow="2"
     inkscape:pageopacity="0.0"
     inkscape:pagecheckerboard="0"
     inkscape:deskcolor="#d1d1d1"
     inkscape:zoom="1.9899323"
     inkscape:cx="44.473876"
     inkscape:cy="76.635774"
     inkscape:window-width="1920"
     inkscape:window-height="1017"
     inkscape:window-x="0"
     inkscape:window-y="0"
     inkscape:window-maximized="1"
     inkscape:current-layer="svg2" /><g
     style="fill:none"
     id="g2"
     transform="translate(6.7888969,6.7550968)"><path
       d="M 67.649392,0.3793005 C 104.37628,0.5049431 134.04719,30.399111 133.92161,67.106395 133.79604,103.81328 103.92129,133.50425 67.194402,133.37861 30.467612,133.25297 0.79668665,103.35829 0.92226082,66.651405 1.0478364,29.944121 30.922602,0.25365823 67.649392,0.3793005 Z"
       fill="url(#paint0_linear)"
       id="path1-3"
       style="fill:url(#paint0_linear)" /></g><path
     fill-rule="evenodd"
     clip-rule="evenodd"
     d="M13.0197 74.0009C13.0197 107.687 40.3252 134.991 74 134.993C107.675 134.996 134.98 107.697 134.98 74.0111C134.98 40.325 107.675 13.0214 74 13.0186C40.3252 13.0158 13.0197 40.3148 13.0197 74.0009ZM74 146.006C34.2318 146.003 2 113.761 2 74C2 34.2392 34.2318 2.00269 74 2.00601C113.768 2.00932 146 34.2512 146 74.012C146 113.773 113.768 146.009 74 146.006Z"
     fill="black"
     id="path2" /></svg>
