<?xml version="1.0" encoding="UTF-8" standalone="no"?>
<svg
   width="149"
   height="149"
   viewBox="0 0 149 149"
   fill="none"
   version="1.1"
   id="svg2"
   sodipodi:docname="player-back-ghoul-fire.svg"
   inkscape:export-filename="player-back-ghoul-fire.svg"
   inkscape:export-xdpi="96"
   inkscape:export-ydpi="96"
   inkscape:version="1.4.4 (dcaf3e7, 2026-05-05)"
   xmlns:inkscape="http://www.inkscape.org/namespaces/inkscape"
   xmlns:sodipodi="http://sodipodi.sourceforge.net/DTD/sodipodi-0.dtd"
   xmlns="http://www.w3.org/2000/svg"
   xmlns:svg="http://www.w3.org/2000/svg">
  <defs
     id="defs2" />
  <sodipodi:namedview
     id="namedview2"
     pagecolor="#ffffff"
     bordercolor="#cccccc"
     borderopacity="1"
     inkscape:showpageshadow="0"
     inkscape:pageopacity="1"
     inkscape:pagecheckerboard="0"
     inkscape:deskcolor="#d1d1d1"
     inkscape:zoom="2.3491131"
     inkscape:cx="58.319883"
     inkscape:cy="78.965972"
     inkscape:window-width="1366"
     inkscape:window-height="697"
     inkscape:window-x="-8"
     inkscape:window-y="-8"
     inkscape:window-maximized="1"
     inkscape:current-layer="svg2" />
  <path
     d="M140.804 78.1525C143.019 41.4924 115.096 9.97568 78.4359 7.75786C41.776 5.54005 10.2615 33.461 8.04622 70.1211C5.83097 106.781 33.7539 138.298 70.4138 140.516C107.074 142.734 138.588 114.813 140.804 78.1525Z"
     fill="#13B3FF"
     id="path1"
     style="fill:#13b3ff;fill-opacity:1"
     inkscape:export-filename="player-back-ghoul-fire.svg"
     inkscape:export-xdpi="96"
     inkscape:export-ydpi="96" />
  <path
     fill-rule="evenodd"
     clip-rule="evenodd"
     d="M13.0549 74.5009C13.0549 108.187 40.3603 135.491 74.0352 135.493C107.71 135.496 135.015 108.197 135.015 74.5111C135.015 40.825 107.71 13.5214 74.0352 13.5186C40.3603 13.5158 13.0549 40.8148 13.0549 74.5009ZM74.0352 146.506C34.267 146.503 2.03515 114.261 2.03515 74.5C2.03515 34.7392 34.267 2.50269 74.0351 2.50601C113.803 2.50932 146.035 34.7512 146.035 74.512C146.035 114.273 113.803 146.509 74.0352 146.506Z"
     fill="black"
     id="path2" />
</svg>
