<?xml version="1.0" encoding="UTF-8" standalone="no"?>
<svg
   width="80"
   height="62"
   viewBox="0 0 80 62"
   fill="none"
   version="1.1"
   id="svg8"
   sodipodi:docname="player-fists-crab-tongs-01.svg"
   inkscape:version="1.4.2 (f4327f4, 2025-05-13)"
   xmlns:inkscape="http://www.inkscape.org/namespaces/inkscape"
   xmlns:sodipodi="http://sodipodi.sourceforge.net/DTD/sodipodi-0.dtd"
   xmlns="http://www.w3.org/2000/svg"
   xmlns:svg="http://www.w3.org/2000/svg">
  <defs
     id="defs8" />
  <sodipodi:namedview
     id="namedview8"
     pagecolor="#ffffff"
     bordercolor="#000000"
     borderopacity="0.25"
     inkscape:showpageshadow="2"
     inkscape:pageopacity="0.0"
     inkscape:pagecheckerboard="0"
     inkscape:deskcolor="#d1d1d1"
     inkscape:zoom="3.4162096"
     inkscape:cx="-7.02533"
     inkscape:cy="52.836336"
     inkscape:window-width="1920"
     inkscape:window-height="991"
     inkscape:window-x="-9"
     inkscape:window-y="-9"
     inkscape:window-maximized="1"
     inkscape:current-layer="svg8" />
  <path
     d="M 69.267665,46.45954 C 70.149919,45.11977 70.335578,43.438028 69.76711,41.938063 69.198626,40.438 67.944937,39.301762 66.396391,38.8832 L 35.78714,30.608955 c -2.232371,-0.603548 -4.587318,0.402698 -5.694501,2.432986 l -5.176891,9.493663 c -0.746099,1.36808 -0.811587,3.005915 -0.177112,4.429246 0.634376,1.423348 1.896122,2.469485 3.412387,2.82929 l 20.449979,4.853132 c 9.56e-4,2.36e-4 0.0019,4.72e-4 0.0029,7.09e-4 7.924764,1.888401 16.183495,-1.383676 20.663795,-8.188441 z"
     fill="#ff6136"
     stroke="#000000"
     stroke-width="10"
     stroke-linejoin="round"
     id="path1" />
  <path
     d="m 30.179854,49.851986 c 1.494772,-0.265686 2.787896,-1.196142 3.51476,-2.529012 l 3.883604,-7.121836 32.799079,-2.65808 c 1.403657,-0.113797 2.694249,-0.81416 3.554583,-1.929023 0.860317,-1.114962 1.210611,-2.540969 0.964775,-3.927545 -1.355057,-7.642805 -5.985591,-14.311163 -12.673979,-18.251801 -3.47e-4,-2.43e-4 -6.78e-4,-3.87e-4 -10e-4,-6.3e-4 -1.16e-4,-8.1e-5 -3.48e-4,-2.43e-4 -4.64e-4,-3.24e-4 l -2.278537,-1.343283 c -2.49e-4,-2.61e-4 -5.8e-4,-4.05e-4 -9.1e-4,-5.5e-4 -2.32e-4,-1.62e-4 -4.64e-4,-3.23e-4 -7.94e-4,-4.68e-4 C 42.831064,1.993782 20.874951,6.3006597 8.8456774,22.110077 c -4.048e-4,5.8e-4 -8.271e-4,0.0011 -0.00123,0.0016 -2.429e-4,3.48e-4 -5.032e-4,5.97e-4 -7.461e-4,9.45e-4 l -3.3891932,4.44917 C 4.6072554,27.673923 4.2643926,29.090078 4.509061,30.466603 l 2.6599233,14.964946 c 0.3313813,1.864379 1.6876337,3.381648 3.5033417,3.919294 5.502721,1.629161 11.308452,1.95681 16.960253,0.953864 l 0.0015,-2.63e-4 z"
     fill="#ff3f26"
     stroke="#000000"
     stroke-width="10"
     stroke-linejoin="round"
     id="path2" />
  <path
     d="m 47.581384,19.554363 0.762838,-2.627037 c 2.438966,0.705872 4.781126,1.711105 6.972527,2.993294 l -1.386651,2.361406 c -1.995814,-1.166939 -4.12774,-2.083089 -6.348714,-2.727663 z"
     fill="#ff8d6e"
     id="path3" />
  <path
     d="m 56.221775,23.640951 1.376714,-2.3636 c 1.649462,0.962902 3.127079,2.192696 4.375052,3.639628 l -2.06986,1.793605 c -1.049043,-1.219739 -2.29352,-2.256148 -3.681906,-3.069633 z"
     fill="#ff8d6e"
     id="path4" />
  <path
     d="m 39.617425,18.13516 -0.478837,-2.693976 -2.693976,0.478837 0.478837,2.693976 z"
     fill="#ff8d6e"
     id="path5" />
  <path
     d="m 37.883046,24.001912 -0.478837,-2.693976 -2.694074,0.478854 0.478837,2.693976 z"
     fill="#ff8d6e"
     id="path6" />
  <path
     d="m 29.323391,22.742117 -0.478837,-2.693976 -2.693976,0.478837 0.478837,2.693975 z"
     fill="#ff8d6e"
     id="path7" />
  <path
     d="m 34.229276,19.092869 -0.478837,-2.693976 -2.694074,0.478855 0.478837,2.693976 z"
     fill="#ff8d6e"
     id="path8" />
</svg>
