<?xml version="1.0" encoding="UTF-8" standalone="no"?>
<svg
   width="80"
   height="62"
   viewBox="0 0 80 62"
   fill="none"
   version="1.1"
   id="svg8"
   sodipodi:docname="player-fists-crab-tongs-02.svg"
   inkscape:version="1.4.2 (f4327f4, 2025-05-13)"
   xmlns:inkscape="http://www.inkscape.org/namespaces/inkscape"
   xmlns:sodipodi="http://sodipodi.sourceforge.net/DTD/sodipodi-0.dtd"
   xmlns="http://www.w3.org/2000/svg"
   xmlns:svg="http://www.w3.org/2000/svg">
  <defs
     id="defs8" />
  <sodipodi:namedview
     id="namedview8"
     pagecolor="#ffffff"
     bordercolor="#000000"
     borderopacity="0.25"
     inkscape:showpageshadow="2"
     inkscape:pageopacity="0.0"
     inkscape:pagecheckerboard="0"
     inkscape:deskcolor="#d1d1d1"
     inkscape:zoom="3.4162096"
     inkscape:cx="69.960578"
     inkscape:cy="56.641723"
     inkscape:window-width="1920"
     inkscape:window-height="991"
     inkscape:window-x="-9"
     inkscape:window-y="-9"
     inkscape:window-maximized="1"
     inkscape:current-layer="svg8" />
  <path
     d="m 71.148791,16.339265 c 0.812926,1.382934 0.912756,3.071945 0.268689,4.541036 -0.64409,1.469188 -1.953981,2.54015 -3.521821,2.87936 l -30.990683,6.705742 c -2.260194,0.489155 -4.560879,-0.635636 -5.563302,-2.719641 l -4.687025,-9.744825 c -0.675507,-1.404278 -0.657557,-3.043323 0.04853,-4.43252 0.705993,-1.389219 2.019344,-2.369787 3.551955,-2.651959 l 20.67046,-3.8060728 c 9.67e-4,-1.87e-4 0.0019,-3.75e-4 0.0029,-5.62e-4 8.010613,-1.482682 16.092108,2.205501 20.220296,9.2294418 z"
     fill="#ff6136"
     stroke="#000000"
     stroke-width="10"
     stroke-linejoin="round"
     id="path1" />
  <path
     d="m 32.284282,10.961939 c 1.479313,0.341415 2.723409,1.336476 3.381498,2.704611 l 3.516123,7.310252 32.6213,4.323863 c 1.396046,0.185085 2.649322,0.950221 3.451804,2.107425 0.802459,1.1573 1.079725,2.599287 0.763642,3.971555 -1.742263,7.563939 -6.706165,13.987996 -13.586434,17.583139 -3.6e-4,2.24e-4 -6.98e-4,3.52e-4 -10e-4,5.77e-4 -1.2e-4,7.5e-5 -3.6e-4,2.25e-4 -4.8e-4,2.99e-4 l -2.343948,1.225583 c -2.63e-4,2.47e-4 -5.99e-4,3.75e-4 -9.37e-4,5.02e-4 -2.4e-4,1.5e-4 -4.79e-4,3e-4 -8.17e-4,4.28e-4 C 42.483531,59.401978 20.775062,53.98326 9.5659535,37.58215 c -3.74e-4,-6e-4 -7.72e-4,-0.0011 -0.0012,-0.0017 -2.24e-4,-3.59e-4 -4.71e-4,-6.22e-4 -6.97e-4,-9.82e-4 L 6.4056845,32.96358 c -0.789553,-1.153809 -1.0599,-2.585578 -0.745494,-3.947867 l 3.41808,-14.810184 c 0.425834,-1.845097 1.8575475,-3.291377 3.6982645,-3.735921 5.578502,-1.3470018 11.393385,-1.3787588 16.986818,-0.08948 l 0.0015,3.37e-4 z"
     fill="#ff3f26"
     stroke="#000000"
     stroke-width="10"
     stroke-linejoin="round"
     id="path2" />
  <path
     d="m 48.12134,42.105909 0.628154,2.662455 c 2.471728,-0.580833 4.862012,-1.465564 7.115827,-2.634567 l -1.264676,-2.428915 c -2.052616,1.063855 -4.228404,1.870318 -6.479305,2.401027 z"
     fill="#ff8d6e"
     id="path3" />
  <path
     d="m 56.958512,38.464347 1.25464,2.430601 c 1.696329,-0.877709 3.234618,-2.030709 4.554612,-3.412254 l -1.975896,-1.896621 c -1.10976,1.16477 -2.405369,2.136502 -3.833356,2.878274 z"
     fill="#ff8d6e"
     id="path4" />
  <path
     d="m 40.095475,43.117966 -0.615319,2.666115 -2.666116,-0.615319 0.615319,-2.666115 z"
     fill="#ff8d6e"
     id="path5" />
  <path
     d="m 38.661917,37.17055 -0.61532,2.666116 -2.666212,-0.615343 0.61532,-2.666114 z"
     fill="#ff8d6e"
     id="path6" />
  <path
     d="m 30.04924,37.993091 -0.61532,2.666116 -2.666115,-0.61532 0.61532,-2.666116 z"
     fill="#ff8d6e"
     id="path7" />
  <path
     d="m 34.763048,41.887282 -0.615319,2.666116 -2.666213,-0.615343 0.61532,-2.666115 z"
     fill="#ff8d6e"
     id="path8" />
</svg>
