<?xml version="1.0" encoding="UTF-8" standalone="no"?>
<svg
   width="148"
   height="148"
   viewBox="0 0 148 148"
   fill="none"
   version="1.1"
   id="svg11"
   xmlns="http://www.w3.org/2000/svg"
   xmlns:svg="http://www.w3.org/2000/svg">
  <path
     d="M 140.768,77.6525 C 142.984,40.9924 115.061,9.47568 78.4008,7.25786 41.7409,5.04005 10.2263,32.961 8.01107,69.6211 5.79582,106.281 33.7187,137.798 70.3786,140.016 107.039,142.234 138.553,114.313 140.768,77.6525 Z"
     fill="url(#paint0_linear)"
     id="path1"
     style="fill:url(#paint0_linear)" />
  <path
     d="M 140.768,77.6525 C 142.984,40.9924 115.061,9.47568 78.4008,7.25786 41.7409,5.04005 10.2263,32.961 8.01107,69.6211 5.79582,106.281 33.7187,137.798 70.3786,140.016 107.039,142.234 138.553,114.313 140.768,77.6525 Z"
     fill="#414141"
     fill-opacity="0.7"
     id="path2"
     style="fill:#cbb267;fill-opacity:0.25098" />
  <path
     fill-rule="evenodd"
     clip-rule="evenodd"
     d="m 13.0197,74.0009 c 0,33.6861 27.3055,60.9901 60.9803,60.9921 33.675,0.003 60.98,-27.296 60.98,-60.9819 C 134.98,40.325 107.675,13.0214 74,13.0186 40.3252,13.0158 13.0197,40.3148 13.0197,74.0009 Z M 74,146.006 C 34.2318,146.003 2,113.761 2,74 2,34.2392 34.2318,2.00269 74,2.00601 c 39.768,0.00331 72,32.24519 72,72.00599 0,39.761 -32.232,71.997 -72,71.994 z"
     fill="#000000"
     id="path3" />
  <defs
     id="defs11">
    <linearGradient
       id="paint0_linear"
       x1="4.5208001"
       y1="127.381"
       x2="28.1938"
       y2="2.41908"
       gradientUnits="userSpaceOnUse">
      <stop
         stop-color="#9D9D9D"
         id="stop3"
         offset="0"
         style="stop-color:#d4af37;stop-opacity:1;" />
      <stop
         offset="0.0989583"
         stop-color="#E3E3E3"
         id="stop4"
         style="stop-color:#eec558;stop-opacity:1;" />
      <stop
         offset="0.128224"
         stop-color="#AEAEAE"
         id="stop5"
         style="stop-color:#fae19c;stop-opacity:1;" />
      <stop
         offset="0.27979901"
         stop-color="#D0D0D0"
         id="stop6"
         style="stop-color:#f3d070;stop-opacity:1;" />
      <stop
         offset="0.36654899"
         stop-color="#9A9898"
         id="stop7"
         style="stop-color:#d4af37;stop-opacity:1;" />
      <stop
         offset="0.57291698"
         stop-color="#878787"
         id="stop8"
         style="stop-color:#aa820a;stop-opacity:1;" />
      <stop
         offset="0.80729198"
         stop-color="#575252"
         id="stop9"
         style="stop-color:#bfa02c;stop-opacity:1;" />
      <stop
         offset="0.88541698"
         stop-color="#959595"
         id="stop10"
         style="stop-color:#8c6b05;stop-opacity:1;" />
      <stop
         offset="1"
         stop-color="#363636"
         id="stop11"
         style="stop-color:#aa820a;stop-opacity:1;" />
    </linearGradient>
  </defs>
</svg>
