<?xml version="1.0" encoding="UTF-8" standalone="no"?>
<svg
   width="140"
   height="140"
   version="1.1"
   id="svg4"
   sodipodi:docname="player-base-outfitSnowflake.svg"
   inkscape:version="1.4 (e7c3feb1, 2024-10-09)"
   xmlns:inkscape="http://www.inkscape.org/namespaces/inkscape"
   xmlns:sodipodi="http://sodipodi.sourceforge.net/DTD/sodipodi-0.dtd"
   xmlns:xlink="http://www.w3.org/1999/xlink"
   xmlns="http://www.w3.org/2000/svg"
   xmlns:svg="http://www.w3.org/2000/svg"
   xmlns:rdf="http://www.w3.org/1999/02/22-rdf-syntax-ns#"
   xmlns:cc="http://creativecommons.org/ns#"
   xmlns:dc="http://purl.org/dc/elements/1.1/">
  <metadata
     id="metadata10">
    <rdf:RDF>
      <cc:Work
         rdf:about="">
        <dc:format>image/svg+xml</dc:format>
        <dc:type
           rdf:resource="http://purl.org/dc/dcmitype/StillImage" />
      </cc:Work>
    </rdf:RDF>
  </metadata>
  <defs
     id="defs8">
    <linearGradient
       id="linearGradient4"
       inkscape:collect="always">
      <stop
         style="stop-color:#8ed1ff;stop-opacity:1;"
         offset="0"
         id="stop4" />
      <stop
         style="stop-color:#8ed1ff;stop-opacity:1;"
         offset="1"
         id="stop5" />
    </linearGradient>
    <linearGradient
       id="linearGradient2"
       inkscape:collect="always">
      <stop
         style="stop-color:#d4f3ff;stop-opacity:1;"
         offset="0"
         id="stop2" />
      <stop
         style="stop-color:#d4f3ff;stop-opacity:0;"
         offset="1"
         id="stop3" />
    </linearGradient>
    <linearGradient
       inkscape:collect="always"
       id="linearGradient821">
      <stop
         style="stop-color:#ffffff;stop-opacity:1"
         offset="0"
         id="stop817" />
      <stop
         style="stop-color:#858585;stop-opacity:1"
         offset="1"
         id="stop819" />
    </linearGradient>
    <linearGradient
       inkscape:collect="always"
       xlink:href="#linearGradient821"
       id="linearGradient825"
       x1="-62.137344"
       y1="20.918236"
       x2="-2.0108132"
       y2="50.500107"
       gradientUnits="userSpaceOnUse"
       gradientTransform="matrix(2,0,0,2,-173.75046,-96.18734)" />
    <clipPath
       clipPathUnits="userSpaceOnUse"
       id="clipPath16">
      <path
         style="fill:#e9e7ee;fill-opacity:1;stroke-width:8;stroke-linecap:round"
         d="m -28.785658,14.979635 c 28.38411003,30.145258 0.832184,35.292177 0.880886,48.341059 l -30.122695,12.824519 c -43.599263,4.244618 -36.240807,-25.579658 -29.072579,-29.241569 -7.741638,-28.667098 3.111619,-23.243782 4.965885,-34.318506 8.684305,-5.4836448 22.70202,-12.16428549 29.760977,-12.7880318 20.095063,0.76547089 25.927497,14.8397998 23.587526,15.1825288 z"
         id="path16"
         sodipodi:nodetypes="ccccccc" />
    </clipPath>
    <clipPath
       clipPathUnits="userSpaceOnUse"
       id="clipPath17">
      <path
         sodipodi:nodetypes="sssss"
         inkscape:connector-curvature="0"
         id="path17"
         d="M -16.447275,119.57929 C -28.571196,120.31233 -45.198251,117.00695 -46.809829,90.35253 -48.421406,63.698111 -34.407243,23.788147 -22.283312,23.055111 -10.15939,22.322076 0.97543369,43.335506 2.5870107,69.989925 4.1985763,96.644333 -4.3233536,118.84626 -16.447275,119.57929 Z"
         style="fill:#edf5f5;fill-opacity:1;stroke:none;stroke-width:1;stroke-opacity:1" />
    </clipPath>
    <linearGradient
       inkscape:collect="always"
       xlink:href="#linearGradient2"
       id="linearGradient3"
       x1="-23.300814"
       y1="27.305508"
       x2="-115.13129"
       y2="118.28559"
       gradientUnits="userSpaceOnUse" />
    <clipPath
       clipPathUnits="userSpaceOnUse"
       id="clipPath3">
      <path
         inkscape:transform-center-y="43.220383"
         inkscape:transform-center-x="-13.066551"
         style="fill:#e5e9f0;fill-opacity:1;stroke:none;stroke-width:0.999996;stroke-opacity:1"
         d="m -60.936462,75.053467 c 14.927358,26.504893 33.349947,27.443393 40.823081,35.384863 29.5157772,31.36549 -69.567818,52.96799 -80.936789,53.65538 -5.00943,0.30288 -49.93168,-91.244749 -40.64423,-130.541343 7.36589,-31.1662163 39.53474,-33.97467566 48.627236,-27.2096806 20.426435,15.1976896 -12.615066,68.2432076 -3.448993,76.4254076 9.047326,8.076206 14.657114,-1.862916 16.822326,-4.72501 2.388203,-3.156855 12.72856,-13.69432 18.757369,-2.989617 z"
         id="path3"
         inkscape:connector-curvature="0"
         sodipodi:nodetypes="ssssssss" />
    </clipPath>
    <linearGradient
       inkscape:collect="always"
       xlink:href="#linearGradient4"
       id="linearGradient5"
       x1="-20.39307"
       y1="29.489521"
       x2="-106.49289"
       y2="119.62534"
       gradientUnits="userSpaceOnUse"
       gradientTransform="translate(164.46228,-80.071525)" />
  </defs>
  <sodipodi:namedview
     pagecolor="#000000"
     bordercolor="#666666"
     borderopacity="1"
     objecttolerance="10"
     gridtolerance="10"
     guidetolerance="10"
     inkscape:pageopacity="0"
     inkscape:pageshadow="2"
     inkscape:window-width="1464"
     inkscape:window-height="921"
     id="namedview6"
     showgrid="false"
     inkscape:zoom="2.026243"
     inkscape:cx="14.312202"
     inkscape:cy="65.145197"
     inkscape:window-x="1788"
     inkscape:window-y="76"
     inkscape:window-maximized="0"
     inkscape:current-layer="svg4"
     fit-margin-top="3.5"
     fit-margin-bottom="3.5"
     fit-margin-left="3.5"
     fit-margin-right="3.5"
     inkscape:showpageshadow="2"
     inkscape:pagecheckerboard="0"
     inkscape:deskcolor="#d1d1d1"
     showguides="false" />
  <ellipse
     cx="98.814491"
     cy="-5.9745107"
     transform="rotate(48.46)"
     id="circle2-7"
     style="fill:url(#linearGradient5);fill-opacity:1;stroke:none;stroke-width:7.70683;stroke-miterlimit:4;stroke-dasharray:none;stroke-opacity:1"
     rx="64.062988"
     ry="64.062996"
     clip-path="none" />
  <ellipse
     transform="matrix(-0.97938026,-0.20202549,0.2020205,-0.97938129,0,0)"
     stroke-miterlimit="10"
     id="ellipse2"
     style="fill:url(#linearGradient825);fill-opacity:1;stroke:none;stroke-width:6.00109;stroke-miterlimit:10;stroke-opacity:0.769"
     ry="66.499977"
     rx="66.500023"
     cy="-22.090727"
     cx="-239.39911" />
  <ellipse
     cx="-65.647781"
     cy="74.097023"
     transform="rotate(-86.54,-43.771072,38.885735)"
     id="circle2-79"
     style="fill:#f4f6f6;fill-opacity:1;stroke:none;stroke-width:7.70683;stroke-miterlimit:4;stroke-dasharray:none;stroke-opacity:1"
     rx="64.062988"
     ry="64.062996"
     clip-path="url(#clipPath16)" />
  <ellipse
     cx="-65.647781"
     cy="74.097015"
     transform="rotate(-86.54,-53.422883,93.018257)"
     id="circle2-3"
     style="fill:#f4f6f6;fill-opacity:1;stroke:none;stroke-width:7.70683;stroke-miterlimit:4;stroke-dasharray:none;stroke-opacity:1"
     rx="64.062988"
     ry="64.062996"
     clip-path="url(#clipPath17)" />
  <ellipse
     cx="-65.647781"
     cy="74.097015"
     transform="rotate(-41.54,-3.2251489,-106.78115)"
     id="circle2-0"
     style="fill:url(#linearGradient3);fill-opacity:1;stroke:none;stroke-width:7.70683;stroke-miterlimit:4;stroke-dasharray:none;stroke-opacity:1"
     rx="64.062988"
     ry="64.062996"
     clip-path="url(#clipPath3)" />
  <path
     style="fill:#f4f6f6;fill-opacity:1;stroke:#000000;stroke-width:12;stroke-dasharray:none;stroke-opacity:0.196078"
     d="M 51.317783,123.09396 C 37.948305,119.2228 18.844631,111.03699 12.298567,92.669022 5.752509,74.301068 14.242929,52.706557 27.612411,56.577694 40.981889,60.448861 57.12662,78.477239 63.672689,96.845182 70.218737,115.21313 64.687252,126.96512 51.317783,123.09396 Z"
     id="path1615"
     inkscape:connector-curvature="0"
     sodipodi:nodetypes="sssss" />
  <path
     sodipodi:nodetypes="sssss"
     inkscape:connector-curvature="0"
     id="path18"
     d="m 3.7082303,177.45623 c -18.1070433,2.13655 -17.2236273,23.25546 -26.9730183,23.37147 -21.917024,0.26082 -44.251975,-49.2431 -38.057006,-59.27181 6.194961,-10.0287 25.594312,-9.27736 43.329656,1.67819 17.73534333,10.95553 31.944383,33.0134 21.7003683,34.22215 z"
     style="fill:#8ed1ff;fill-opacity:1;stroke:none;stroke-width:1;stroke-opacity:1" />
  <path
     style="fill:#f8f7f7;fill-opacity:1;stroke:#000000;stroke-width:12.08;stroke-linecap:butt;stroke-linejoin:miter;stroke-miterlimit:4;stroke-dasharray:none;stroke-opacity:0.196078"
     d="m 71.837203,14.43811 c -61.105267,-0.51332 -46.99013,35.580514 2.869687,40.385925 29.67737,2.86026 54.10694,58.340835 49.87758,9.245285 C 122.20529,36.4509 95.474068,14.63667 71.837203,14.43811 Z"
     id="path836"
     inkscape:connector-curvature="0"
     sodipodi:nodetypes="ssss" />
</svg>
