<?xml version="1.0" encoding="UTF-8" standalone="no"?>
<svg
   width="77"
   height="77"
   viewBox="0 0 77 77"
   fill="none"
   version="1.1"
   id="svg16"
   sodipodi:docname="player-fists-inky-business-r.svg"
   inkscape:version="1.4.2 (f4327f4, 2025-05-13)"
   xmlns:inkscape="http://www.inkscape.org/namespaces/inkscape"
   xmlns:sodipodi="http://sodipodi.sourceforge.net/DTD/sodipodi-0.dtd"
   xmlns="http://www.w3.org/2000/svg"
   xmlns:svg="http://www.w3.org/2000/svg">
  <defs
     id="defs16" />
  <sodipodi:namedview
     id="namedview16"
     pagecolor="#ffffff"
     bordercolor="#000000"
     borderopacity="0.25"
     inkscape:showpageshadow="2"
     inkscape:pageopacity="0.0"
     inkscape:pagecheckerboard="0"
     inkscape:deskcolor="#d1d1d1"
     inkscape:zoom="3.4887634"
     inkscape:cx="13.471822"
     inkscape:cy="64.062814"
     inkscape:window-width="1920"
     inkscape:window-height="991"
     inkscape:window-x="-9"
     inkscape:window-y="-9"
     inkscape:window-maximized="1"
     inkscape:current-layer="svg16" />
  <path
     d="M 24.649191,8.9433385 C 23.210054,8.3594311 21.432137,8.0099428 19.380532,8.3152542 c -1.728043,0.2571951 -3.138365,0.9317599 -4.193883,1.639537 -0.119326,0.078275 -0.237056,0.1596028 -0.353191,0.2439718 -1.830271,1.329639 -3.100071,3.06483 -3.889789,4.981892 -2.4562369,0.429624 -5.121861,1.722269 -7.013583,4.618644 -0.5954656,0.911542 -1.0220191,1.87556 -1.301333,2.845007 -0.9696204,3.32303 -0.135644,6.30896 0.6930148,8.184019 0.340507,0.770592 0.7443513,1.506 1.193392,2.205185 -1.4847405,1.820911 -2.6004347,4.297371 -2.5048686,7.371686 0.00485,0.155925 0.012908,0.31225 0.024383,0.468969 0.2101128,2.887366 1.4379933,5.117392 2.9321546,6.731147 -0.377446,0.677054 -0.7132012,1.382127 -0.9931069,2.113677 -0.7216363,1.886432 -1.3928268,4.826005 -0.3608166,8.025585 0.3392684,1.065473 0.8606458,2.125186 1.5933357,3.107995 2.0683776,2.773674 4.8097422,3.898242 7.2886112,4.174156 0.880657,1.80661 2.201442,3.414149 4.022523,4.617948 1.151865,0.766281 2.790939,1.534926 4.822146,1.7096 2.330542,0.200086 4.262037,-0.409421 5.738834,-1.220997 0.171514,0.07501 0.345326,0.146741 0.521638,0.215196 3.633573,1.410285 8.431468,1.219721 11.937093,-1.788552 8.38854,1.705488 16.33035,-0.09764 22.722987,-4.376624 C 70.863676,58.424399 76.293706,48.372633 75.973877,38.083903 75.65413,27.797771 69.612899,18.104794 60.672028,12.890673 54.141444,9.0821915 46.265029,7.7525624 38.148443,9.816654 34.404786,6.6673701 29.354646,6.7252376 25.681435,8.4137707 c -0.355,0.1632087 -0.699073,0.3400046 -1.032244,0.5295678 z"
     fill="#000000"
     id="path1" />
  <path
     d="m 25.054603,26.137113 c 2.180502,3.242617 5.530701,4.738647 5.530701,4.738647 0,0 -1.408037,-4.784561 0.183352,-7.709518 1.591873,-2.925473 3.200994,-4.903424 1.692409,-6.366458 -1.333421,-1.293094 -6.494769,-1.014895 -7.406462,9.337329 z"
     fill="#f04424"
     id="path2" />
  <path
     d="m 25.877799,52.618922 c 1.97398,-3.401074 5.224364,-5.116093 5.224364,-5.116093 0,0 -1.106846,4.904658 0.663922,7.750214 1.771276,2.845839 3.500664,4.73682 2.086269,6.303822 -1.250174,1.384912 -6.418867,1.426825 -7.974555,-8.937943 z"
     fill="#f04424"
     id="path3" />
  <path
     d="m 25.052951,26.093644 c 2.212073,3.270149 5.611475,4.778356 5.611475,4.778356 0,0 -0.727759,-2.459175 -0.556256,-4.940002 -1.306609,-0.894035 -3.023974,-2.356381 -4.213491,-4.440129 -0.383466,1.252619 -0.678965,2.769933 -0.841728,4.601775 z"
     fill="#d83d24"
     id="path4" />
  <path
     d="m 25.879537,52.684499 c 2.003293,-3.446206 5.301787,-5.184131 5.301787,-5.184131 0,0 -0.572572,2.533113 -0.246301,5.031082 -1.248172,0.985857 -2.870763,2.572337 -3.927684,4.75413 -0.461027,-1.242476 -0.850837,-2.759097 -1.127802,-4.601081 z"
     fill="#d83d24"
     id="path5" />
  <path
     fill-rule="evenodd"
     clip-rule="evenodd"
     d="m 23.745591,42.816037 c 0,0 -12.60223,1.730091 -12.739654,-2.690773 -0.137011,-4.407571 12.471619,-3.482479 12.547931,-3.476847 l 4e-4,-1.3e-5 C 13.240241,31.687169 10.230464,26.610833 11.465129,24.720559 c 0.79306,-1.214127 2.594306,-0.764275 4.187621,0.366866 1.593714,1.131129 9.137435,6.347662 9.137435,6.347662 -8.665877,-9.487929 -5.57178,-13.996941 -4.084935,-14.218144 1.486442,-0.221292 2.834291,2.758969 4.387613,6.279107 1.681177,3.809604 5.514639,5.544735 5.514639,5.544735 -2.246343,3.564215 -5.261097,12.740215 0.650231,20.930502 0,0 -3.717906,1.969368 -5.159217,5.876136 -1.332084,3.609831 -2.491815,6.668341 -3.989541,6.539513 -1.497317,-0.12854 -4.865483,-4.436169 3.194346,-14.444523 0,0 -7.205551,5.675119 -8.725533,6.903038 -1.520373,1.228232 -3.289801,1.789079 -4.15674,0.626554 -1.349699,-1.810338 1.338972,-7.063813 11.324543,-12.655968 z"
     fill="#ff6930"
     id="path6" />
  <path
     d="m 20.123238,17.479853 c -1.47913,1.074476 -3.013895,5.56673 4.618423,13.958443 0.813819,-0.877809 0.903391,-2.206134 0.214239,-3.185194 -3.002686,-4.262464 -4.303885,-8.480972 -4.832662,-10.773249 z"
     fill="#ff5426"
     id="path7" />
  <path
     d="m 23.480922,36.686701 c 0.536688,-1.305805 0.039,-2.807266 -1.169282,-3.534476 -2.626579,-1.580654 -7.12314,-4.679741 -10.252582,-8.942066 -0.237067,0.117422 -0.442624,0.295795 -0.605232,0.545868 -1.227853,1.890563 1.766837,6.967568 12.027096,11.930674 z"
     fill="#ff5426"
     id="path8" />
  <path
     d="m 21.512041,62.156972 c -1.54301,-0.980531 -3.353829,-5.368787 3.742539,-14.218346 0.866769,0.825568 1.038683,2.146164 0.411659,3.165738 -2.732144,4.440732 -3.768816,8.731914 -4.154198,11.052608 z"
     fill="#ff5426"
     id="path9" />
  <path
     d="m 23.670284,42.778359 c 0.616755,1.26995 0.213282,2.799425 -0.947496,3.600277 -2.523333,1.740741 -6.818726,5.113129 -9.67739,9.561596 C 12.801496,55.837761 12.585257,55.6725 12.40743,55.433009 11.064524,53.62236 13.738096,48.369155 23.670284,42.778359 Z"
     fill="#ff5426"
     id="path10" />
  <path
     d="m 14.702926,40.009541 c -0.07615,-2.449617 2.794625,-3.235392 6.228031,-3.471983 -3.702016,-0.01058 -10.023112,0.43213 -9.925045,3.586906 0.09807,3.154776 6.434457,3.204026 10.128668,2.96353 -3.441473,-0.02288 -6.355507,-0.628836 -6.431654,-3.078453 z"
     fill="#ff5426"
     id="path11" />
  <path
     fill-rule="evenodd"
     clip-rule="evenodd"
     d="m 32.205021,22.193343 c -3.528838,2.284045 -6.335625,5.649578 -7.511802,9.685271 -1.258459,4.317585 -1.754052,9.957906 0.367978,15.654825 1.463804,3.929716 4.547477,7.064019 8.201758,9.121172 C 51.847992,67.116819 67.415196,52.420745 66.978213,38.363236 66.541346,24.309424 50.099008,10.61148 32.205021,22.193343 Z"
     fill="#ff6930"
     id="path12" />
  <path
     d="m 40.856388,44.735426 c 3.867132,-0.120211 6.924696,-2.705059 6.82931,-5.773576 -0.09538,-3.068418 -3.30759,-5.458368 -7.174722,-5.338157 -3.867232,0.120215 -6.924796,2.705062 -6.829414,5.77348 0.09539,3.068518 3.307594,5.458467 7.174826,5.338253 z"
     fill="#ffae8b"
     id="path13" />
  <path
     d="m 44.247967,26.44922 c -0.05642,-1.814823 -1.857161,-3.181934 -4.098278,-3.112268 -2.241917,0.06969 -3.954274,1.546007 -3.89786,3.360831 0.05641,1.814823 1.85716,3.181933 4.099078,3.112242 2.241117,-0.06967 3.953474,-1.545982 3.89706,-3.360805 z"
     fill="#000000"
     id="path14" />
  <path
     d="m 45.035071,51.769989 c -0.05531,-1.77924 -1.855187,-3.118464 -4.096304,-3.048798 -2.241918,0.06969 -3.955142,1.51812 -3.899833,3.297361 0.05531,1.77924 1.855187,3.118464 4.097104,3.048773 2.241118,-0.06967 3.954342,-1.518095 3.899033,-3.297336 z"
     fill="#000000"
     id="path15" />
  <path
     d="m 44.177242,39.072512 c -0.03897,-1.253795 -1.502498,-2.084724 -3.559604,-2.020778 -2.056507,0.06393 -3.46558,0.984652 -3.426621,2.237947 0.03898,1.253894 1.502502,2.084823 3.559008,2.020896 2.056607,-0.06393 3.466195,-0.984171 3.427217,-2.238065 z"
     fill="#f04424"
     id="path16" />
</svg>
