<?xml version="1.0" encoding="UTF-8" standalone="no"?>
<svg
   width="82"
   height="65"
   viewBox="0 0 82 65"
   fill="none"
   version="1.1"
   id="svg7"
   sodipodi:docname="player-fists-feral-claws.svg"
   inkscape:version="1.4.2 (f4327f4, 2025-05-13)"
   xmlns:inkscape="http://www.inkscape.org/namespaces/inkscape"
   xmlns:sodipodi="http://sodipodi.sourceforge.net/DTD/sodipodi-0.dtd"
   xmlns="http://www.w3.org/2000/svg"
   xmlns:svg="http://www.w3.org/2000/svg">
  <defs
     id="defs7" />
  <sodipodi:namedview
     id="namedview7"
     pagecolor="#ffffff"
     bordercolor="#000000"
     borderopacity="0.25"
     inkscape:showpageshadow="2"
     inkscape:pageopacity="0.0"
     inkscape:pagecheckerboard="0"
     inkscape:deskcolor="#d1d1d1"
     inkscape:zoom="4.7134146"
     inkscape:cx="-1.4851229"
     inkscape:cy="43.386805"
     inkscape:window-width="1920"
     inkscape:window-height="991"
     inkscape:window-x="-9"
     inkscape:window-y="-9"
     inkscape:window-maximized="1"
     inkscape:current-layer="svg7" />
  <path
     d="M 32.771863,59.41506 C 47.704822,59.380404 59.798937,47.264604 59.767292,32.336137 59.735646,17.407771 47.590226,5.3482154 32.657267,5.3828714 17.724307,5.4175274 5.6301921,17.533337 5.6618374,32.461704 5.6935829,47.39017 17.838903,59.449716 32.771863,59.41506 Z"
     fill="#36464e"
     stroke="#000000"
     stroke-width="10"
     stroke-miterlimit="10"
     id="path1" />
  <path
     d="m 76.749242,31.377224 c 0.179701,0.754285 0.181524,1.539983 0.0053,2.295094 -0.70605,3.025646 -3.196949,5.360033 -6.392924,6.947255 0.436584,0.337387 0.838536,0.747156 1.187669,1.234747 1.556891,2.174592 1.330862,4.868624 -0.0027,6.796024 l -4.068344,-2.814966 4.068344,2.814966 C 68.358771,53.257755 60.51318,57.450574 46.041134,58.955664 44.233466,59.14396 42.644697,58.555745 41.581801,57.998611 40.420285,57.389705 39.341,56.535607 38.417168,55.531948 36.565495,53.52034 35.035336,50.566583 34.943491,46.970887 c -0.0672,-2.629351 1.914223,-4.861156 4.532962,-5.105934 l 3.449561,-0.322506 c -0.23107,-0.159064 -0.459467,-0.329835 -0.683792,-0.513015 -2.257583,-1.842765 -3.800234,-4.706693 -3.720541,-8.415588 -0.09691,-3.708485 1.432434,-6.579642 3.681439,-8.432866 0.424789,-0.350087 0.864281,-0.655508 1.309366,-0.920942 l -4.080051,-0.362332 c -2.619847,-0.23262 -4.611611,-2.455204 -4.556613,-5.084839 0.07515,-3.596084 1.591587,-6.556911 3.433904,-8.5770616 0.919163,-1.007906 1.994472,-1.867054 3.153149,-2.481324 1.060299,-0.562123 2.646321,-1.157685 4.454843,-0.977702 z m 0,0 c -0.748796,-3.142771 -3.424001,-5.528969 -6.81113,-7.101612 m 6.81113,7.101612 -6.81113,-7.101612 m 0,0 c 0.584611,-0.384158 1.119848,-0.885702 1.566886,-1.516141 1.546781,-2.181795 1.308251,-4.874749 -0.03427,-6.795939 v 0 C 68.26166,11.371268 60.397393,7.2150474 45.919817,5.7769834 Z"
     stroke="#000000"
     stroke-width="10"
     stroke-linejoin="round"
     id="path2" />
  <path
     d="m 48.738494,26.705417 c 17.128831,-1.170155 22.568254,3.400934 23.146899,5.832798 l -28.361523,0.06582 c -0.18217,-4.425089 3.400504,-5.776207 5.214624,-5.898618 z"
     fill="#ced7db"
     id="path3" />
  <path
     d="m 48.765807,38.473986 c 17.134077,1.090739 22.552225,-3.505548 23.119576,-5.940071 l -28.361523,0.06582 c -0.161629,4.425887 3.427277,5.760262 5.241947,5.874251 z"
     fill="#afbdc4"
     id="path4" />
  <circle
     cx="32.47366"
     cy="-45.767288"
     r="6.08532"
     fill="#f68b22"
     id="circle4"
     transform="rotate(89.86703)" />
  <path
     d="m 45.423859,10.750867 c 13.159068,1.306864 19.233369,4.833477 21.53195,7.53735 0.837388,0.985059 0.03793,2.035717 -1.178129,1.927739 L 39.874872,17.915964 c 0.09272,-4.431527 3.73626,-7.346691 5.548987,-7.165097 z"
     fill="#ced7db"
     id="path5" />
  <circle
     cx="15.891656"
     cy="-39.825886"
     r="6.08532"
     fill="#f68b22"
     id="circle5"
     transform="rotate(89.86703)" />
  <path
     d="m 45.52419,53.982851 c 13.152861,-1.367829 19.210727,-4.922697 21.496734,-7.63721 0.832807,-0.988935 0.02848,-2.035871 -1.187064,-1.92225 l -25.891853,2.420295 c 0.113283,4.430949 3.770319,7.32917 5.582183,7.139165 z"
     fill="#afbdc4"
     id="path6" />
  <circle
     r="6.08532"
     transform="matrix(-0.00232076,-0.99999731,-0.99999731,0.00232076,0,0)"
     fill="#f68b22"
     id="circle6"
     cx="-49.053059"
     cy="-39.825886" />
  <path
     d="M 20.616316,11.493641 C 23.079544,8.9607584 26.101871,7.8052014 29.6785,7.3827094 l 0.116145,50.0461546 c -3.578947,-0.403895 -6.6065,-1.543672 -9.081154,-4.063335 z"
     fill="#f68b22"
     stroke="#000000"
     stroke-width="5"
     stroke-linejoin="round"
     id="path7" />
</svg>
