<?xml version="1.0" encoding="UTF-8" standalone="no"?>
<svg
   width="77"
   height="77"
   viewBox="0 0 77 77"
   fill="none"
   version="1.1"
   id="svg5"
   sodipodi:docname="player-hands-dreidel-right.svg"
   inkscape:version="1.4.2 (f4327f4, 2025-05-13)"
   xmlns:inkscape="http://www.inkscape.org/namespaces/inkscape"
   xmlns:sodipodi="http://sodipodi.sourceforge.net/DTD/sodipodi-0.dtd"
   xmlns="http://www.w3.org/2000/svg"
   xmlns:svg="http://www.w3.org/2000/svg">
  <defs
     id="defs5" />
  <sodipodi:namedview
     id="namedview5"
     pagecolor="#ffffff"
     bordercolor="#000000"
     borderopacity="0.25"
     inkscape:showpageshadow="2"
     inkscape:pageopacity="0.0"
     inkscape:pagecheckerboard="0"
     inkscape:deskcolor="#d1d1d1"
     inkscape:zoom="3.5493087"
     inkscape:cx="-4.5079201"
     inkscape:cy="48.601013"
     inkscape:window-width="1920"
     inkscape:window-height="991"
     inkscape:window-x="-9"
     inkscape:window-y="-9"
     inkscape:window-maximized="1"
     inkscape:current-layer="svg5" />
  <path
     d="m 33.301153,31.431528 0.0398,13.728743 -23.9372991,0.0694 -0.039805,-13.728743 z"
     fill="#037dc8"
     id="path1" />
  <path
     d="M 24.232808,56.710827 24.12656,20.065481 44.664173,20.005935 c 13.100845,-0.03798 22.693697,11.071649 22.71453,18.257019 0.02292,7.903867 -10.569384,18.473222 -22.607934,18.508126 z"
     fill="#037dc8"
     id="path2" />
  <path
     d="m 24.178184,38.388208 -0.05312,-18.322723 14.379039,-0.04169 c 9.753559,-0.02828 16.887475,5.51976 16.897892,9.112445 0.01146,3.951984 -7.881931,9.244192 -16.844594,9.270178 z"
     fill="#2ac5f5"
     id="path3" />
  <path
     d="m 24.231483,56.770931 -0.05313,-18.322623 14.37904,-0.04169 c 9.753559,-0.02828 16.887474,5.51966 16.897891,9.112345 0.01146,3.951983 -7.881931,9.244191 -16.844593,9.270178 z"
     fill="#0c4ca3"
     id="path4" />
  <path
     fill-rule="evenodd"
     clip-rule="evenodd"
     d="M 14.759043,65.876633 14.72698,54.81788 0.33004047,54.859622 0.23457556,21.93356 14.631515,21.891818 14.599651,10.901664 44.511625,10.814938 c 9.252561,-0.02683 17.084717,3.843982 22.530417,8.751013 5.098381,4.594138 9.507059,11.438584 9.528033,18.672354 0.02257,7.783167 -4.819546,14.720235 -9.985463,19.205532 -5.465764,4.745567 -13.20373,8.493518 -21.913094,8.51877 l -0.0289,8.3e-5 z m 9.89919,-9.813042 -0.03223,-11.115954 -14.396939,0.04174 -0.0384,-13.243145 14.396939,-0.04174 -0.03186,-10.990154 19.984416,-0.05794 c 12.748046,-0.03696 22.082256,10.679521 22.102352,17.610691 0.02211,7.624368 -10.285176,17.820096 -21.999527,17.85406 z"
     fill="#000000"
     id="path5" />
</svg>
