<?xml version="1.0" encoding="UTF-8" standalone="no"?>
<svg
   width="102"
   height="72"
   viewBox="0 0 102 72"
   fill="none"
   version="1.1"
   id="svg2"
   sodipodi:docname="player-fists-ghost-poke-l.svg"
   inkscape:version="1.4.2 (f4327f4, 2025-05-13)"
   xmlns:inkscape="http://www.inkscape.org/namespaces/inkscape"
   xmlns:sodipodi="http://sodipodi.sourceforge.net/DTD/sodipodi-0.dtd"
   xmlns="http://www.w3.org/2000/svg"
   xmlns:svg="http://www.w3.org/2000/svg">
  <defs
     id="defs2" />
  <sodipodi:namedview
     id="namedview2"
     pagecolor="#ffffff"
     bordercolor="#000000"
     borderopacity="0.25"
     inkscape:showpageshadow="2"
     inkscape:pageopacity="0.0"
     inkscape:pagecheckerboard="0"
     inkscape:deskcolor="#d1d1d1"
     inkscape:zoom="1.8946078"
     inkscape:cx="-74.949547"
     inkscape:cy="78.380336"
     inkscape:window-width="1920"
     inkscape:window-height="991"
     inkscape:window-x="-9"
     inkscape:window-y="-9"
     inkscape:window-maximized="1"
     inkscape:current-layer="svg2" />
  <path
     d="m 72.624196,49.133003 c -0.716422,5.311943 -4.248248,9.668112 -9.019302,11.543492 0,0 0,0 0.0016,0.09999 -0.984884,7.31642 -7.703712,12.522891 -15.121695,11.439595 l -9.42091,-1.251773 C 36.557899,70.603733 34.342422,69.638508 32.519019,68.167046 24.312161,67.796263 15.686452,66.231929 11.057096,64.404617 4.6169384,61.905744 1.2196944,55.75849 1.1251904,49.759234 L 0.64007237,18.963055 C 0.54242237,12.763824 4.2301184,5.6048918 12.102362,3.7806728 21.568107,1.5313048 39.359599,0.85099277 43.659065,0.78326477 48.158507,0.71238477 52.4816,2.1444728 55.914254,4.1906598 l 31.496093,-0.496144 c 7.999007,-0.126005 14.600583,6.27077 14.726583,14.2697772 0.12601,7.999008 -6.270809,14.600581 -14.269816,14.726586 l -8.598934,0.135455 c 0.0047,0.299963 0.0095,0.599925 0.0126,0.799901 -0.325923,4.705717 -2.862598,8.746172 -6.624325,11.205727 0.125189,1.598226 0.14724,2.998053 -0.03226,4.301041 z"
     fill="#00fff0"
     id="path1" />
  <path
     fill-rule="evenodd"
     clip-rule="evenodd"
     d="m 87.883307,25.700156 c 4.015502,-0.06325 7.219472,-3.369629 7.156215,-7.385331 -0.06326,-4.015601 -3.369779,-7.219419 -7.38528,-7.156165 L 53.864434,11.690937 C 53.413356,11.308594 52.935118,10.960783 52.447661,10.649922 50.085154,9.1442968 46.998411,8.1627528 43.972386,8.2104208 39.595729,8.2793608 22.6393,8.9570118 14.002068,10.991216 10.198407,11.887127 8.1108863,15.419545 8.1668939,18.975004 L 8.651296,49.725689 c 0.0535,3.396279 1.994428,6.671514 5.329149,7.979853 4.149559,1.628144 13.458363,3.269328 21.945106,3.338565 0.948963,1.450433 2.499213,2.495345 4.352145,2.743091 l 9.374914,1.253995 c 3.382245,0.452384 6.490624,-1.922569 6.942811,-5.304611 0.315599,-2.357964 -0.743477,-4.582958 -2.560035,-5.867506 l 3.466133,0.463664 c 3.934678,0.526292 7.550907,-2.236709 8.077202,-6.171187 0.537739,-4.020668 -2.355907,-7.689546 -6.391223,-8.103239 l -2.518179,-0.258169 7.75991,0.42843 c 3.97425,0.21943 7.385641,-2.798376 7.652623,-6.769674 0.230522,-3.428856 -1.954936,-6.456509 -5.092752,-7.429607 z M 34.923993,57.391329 C 27.476833,57.204903 18.92872,55.74126 15.308599,54.320903 13.514996,53.617366 12.31991,51.780161 12.286645,49.668423 L 11.802243,18.917738 c -0.03484,-2.211425 1.223062,-3.961055 3.033373,-4.387322 8.225702,-1.9376 24.842778,-2.616013 29.194038,-2.684556 2.25572,-0.03553 4.650428,0.714341 6.463857,1.870122 1.90234,1.212887 2.696258,2.541047 2.710414,3.439736 0.01523,0.96698 -0.268657,3.69359 -0.709282,7.187363 -0.431166,3.421316 -0.988007,7.40388 -1.471249,10.757308 -0.243155,1.687239 -1.253818,3.068929 -2.62656,3.851647 l -0.09025,-0.0092 -0.0063,0.06301 c -1.022877,0.55548 -2.237049,0.782732 -3.480442,0.564389 -2.921843,-0.513043 -4.874443,-3.297534 -4.361597,-6.219174 l 0.835288,-4.756346 0.0049,-0.02948 0.0043,-0.02957 1.034624,-7.2889 c 0.140311,-0.990833 -0.546438,-1.909131 -1.537046,-2.054246 -0.990302,-0.14472 -1.911556,0.538475 -2.060682,1.528447 -0.24791,1.645709 -0.957731,4.132397 -2.227178,6.164744 -1.270124,2.033757 -2.884596,3.305344 -4.920444,3.337414 l -0.579228,0.0091 c -1.003675,0.01581 -1.804858,0.842232 -1.789041,1.846308 0.01581,1.003875 0.842632,1.804852 1.846307,1.789041 l 0.579228,-0.0091 c 2.185229,-0.03442 3.965632,-0.860968 5.387646,-2.045813 l -0.159793,0.90963 c -0.446488,2.543848 0.221383,5.025537 1.652581,6.944232 l -0.775794,1.669927 c -0.292327,0.629082 -0.500683,1.293846 -0.619733,1.977306 -0.58255,3.347291 1.028943,6.553107 3.775905,8.173441 -2.972412,0.08613 -5.529937,2.314087 -5.936956,5.357275 -0.02472,0.183212 -0.04075,0.365588 -0.04919,0.546843 z m 6.456693,-15.231686 c 0.852148,0.472537 1.796339,0.813707 2.810468,0.991656 1.687877,0.296352 3.348023,0.102079 4.833438,-0.480089 l 9.792329,1.004089 c 1.993667,0.204424 3.423799,2.017324 3.15806,4.004156 -0.260008,1.944336 -2.046925,3.309651 -3.991361,3.049644 L 44.361031,48.907038 c -2.405368,-0.321854 -4.060925,-2.579058 -3.644731,-4.96991 0.06439,-0.36936 0.176846,-0.728576 0.334812,-1.068506 z m 13.170175,-6.117797 c 0.0269,-0.139542 0.05049,-0.28053 0.07125,-0.422775 0.30345,-2.107041 0.63721,-4.467691 0.950827,-6.786418 l 9.453329,0.511468 c 2.021676,0.109571 3.563691,1.850699 3.427994,3.870887 -0.133457,1.984648 -1.838412,3.492989 -3.824585,3.383359 z m 1.824382,-13.481608 c 0.285622,-2.4325 0.479787,-4.467911 0.464131,-5.461788 -0.0099,-0.631122 -0.127892,-1.236539 -0.331495,-1.812903 l 31.203629,-0.491538 c 2.007751,-0.03163 3.660986,1.570232 3.692615,3.578083 0.03163,2.007851 -1.570331,3.661088 -3.578082,3.692715 z m -14.941345,32.583377 9.374812,1.253897 c 1.392004,0.186098 2.369275,1.465364 2.183172,2.857068 -0.186403,1.391709 -1.465569,2.368977 -2.857173,2.182873 l -9.375212,-1.25389 c -1.391606,-0.186205 -2.368875,-1.465371 -2.182772,-2.857075 0.186103,-1.391704 1.465168,-2.369071 2.857173,-2.182873 z"
     fill="#000000"
     id="path2" />
</svg>
