<?xml version="1.0" encoding="UTF-8" standalone="no"?>
<svg
   width="69"
   height="69"
   viewBox="0 0 69 69"
   fill="none"
   version="1.1"
   id="svg7"
   sodipodi:docname="player-hands-darklets.svg"
   inkscape:version="1.4.2 (f4327f4, 2025-05-13)"
   xmlns:inkscape="http://www.inkscape.org/namespaces/inkscape"
   xmlns:sodipodi="http://sodipodi.sourceforge.net/DTD/sodipodi-0.dtd"
   xmlns="http://www.w3.org/2000/svg"
   xmlns:svg="http://www.w3.org/2000/svg">
  <sodipodi:namedview
     id="namedview7"
     pagecolor="#ffffff"
     bordercolor="#000000"
     borderopacity="0.25"
     inkscape:showpageshadow="2"
     inkscape:pageopacity="0.0"
     inkscape:pagecheckerboard="0"
     inkscape:deskcolor="#d1d1d1"
     inkscape:zoom="2.8007246"
     inkscape:cx="-9.6403622"
     inkscape:cy="44.095731"
     inkscape:window-width="1920"
     inkscape:window-height="991"
     inkscape:window-x="-9"
     inkscape:window-y="-9"
     inkscape:window-maximized="1"
     inkscape:current-layer="svg7" />
  <mask
     id="mask0"
     mask-type="alpha"
     maskUnits="userSpaceOnUse"
     x="6"
     y="5"
     width="58"
     height="59">
    <path
       fill-rule="evenodd"
       clip-rule="evenodd"
       d="M34.7437 5.91016C50.5724 5.91332 63.4044 18.7674 63.4075 34.6217C63.4075 34.6236 63.4075 34.6255 63.4075 34.6275L63.4075 63.3276H35.3293C35.1345 63.3314 34.9393 63.3334 34.7437 63.3333C34.5519 63.3333 34.3606 63.3314 34.1697 63.3276H6.07977V34.6246C6.07977 34.6236 6.07977 34.6227 6.07977 34.6217C6.07977 34.6198 6.07977 34.6179 6.07977 34.616C6.07977 18.759 18.913 5.907 34.7437 5.91016Z"
       fill="url(#paint0_radial)"
       id="path1" />
  </mask>
  <g
     mask="url(#mask0)"
     id="g6"
     transform="rotate(89.740899,34.743621,34.62173)">
    <rect
       x="4.98599"
       y="5.9101601"
       width="11.6843"
       height="57.616699"
       fill="#3d3d3d"
       id="rect1" />
    <rect
       x="16.6696"
       y="5.9101601"
       width="11.6843"
       height="57.616699"
       fill="#161616"
       id="rect2" />
    <rect
       x="28.355101"
       y="5.9101601"
       width="11.6843"
       height="57.616699"
       fill="#3d3d3d"
       id="rect3" />
    <rect
       x="40.0387"
       y="5.9101601"
       width="11.6843"
       height="57.616699"
       fill="#161616"
       id="rect4" />
    <rect
       x="51.722301"
       y="5.9101601"
       width="11.6843"
       height="57.616699"
       fill="#3d3d3d"
       id="rect5" />
    <rect
       x="5.3889499"
       y="65.560501"
       width="11.6843"
       height="57.616699"
       transform="rotate(-90,5.38895,65.5605)"
       fill="#161616"
       id="rect6" />
  </g>
  <path
     d="m 34.873273,63.285315 0.0251,5.549944 0.0011,-5e-6 z m 28.581624,-28.793444 -5.549988,0.024 z m -28.587424,28.793471 -0.0251,-5.549944 z m -28.6998064,0.129786 -5.54994324,0.0251 0.0250979,5.549943 5.54994321,-0.0251 z m -0.1269738,-28.077913 5.5499432,-0.0251 -2.5e-4,-0.0552 -0.0013,-0.05519 z m -0.00835,-0.585668 -5.54994823,0.024 v 0 z m 0.0031,-0.57392 5.5493411,0.08511 8.51e-4,-0.0551 -2.49e-4,-0.0551 z M 5.9084218,6.0879541 5.8833239,0.53801482 0.33338068,0.56311275 0.35847859,6.113052 Z m 28.7027062,-0.1297993 0.0251,5.5499032 0.0016,-7e-6 z m 0.0029,-1.31e-5 0.0262,5.5498983 v 0 z m 0.0057,-2.58e-5 0.0251,5.5499031 z M 34.899471,68.835254 C 53.809161,68.74604 69.086547,53.369497 69.004848,34.467873 l -11.099939,0.048 c 0.05518,12.755581 -10.259176,23.15913 -23.057834,23.219508 z m -0.0069,3.1e-5 c -0.0022,1e-5 -0.004,1.8e-5 -0.0026,1.2e-5 5e-4,-3e-6 0.0042,-1.9e-5 0.0084,-3.8e-5 l -0.0502,-11.099887 c 0.0023,-10e-6 0.004,-1.8e-5 0.0026,-1.2e-5 -5e-4,3e-6 -0.0042,1.9e-5 -0.0084,3.8e-5 z M 34.842375,57.735398 6.1425687,57.865185 6.1927645,68.965071 34.892571,68.835285 Z M 11.71761,63.39003 11.590636,35.312117 0.49074951,35.362313 0.61772336,63.440226 Z M 0.48239597,34.775545 c 9.5276e-4,0.232798 0.004304,0.465185 0.009952,0.697062 L 11.589037,35.201723 c -0.0038,-0.157484 -0.0061,-0.315575 -0.0067,-0.474174 z m 0.003711,-0.683124 c -0.003473,0.227218 -0.004743,0.454926 -0.003711,0.683124 l 11.09989603,-0.048 c -7.02e-4,-0.155299 1.97e-4,-0.310304 0.0025,-0.464816 z M 11.585392,34.152529 11.458365,6.0628561 0.35847859,6.113052 0.48550562,34.202725 Z M 5.9335196,11.637857 34.636226,11.508058 34.58603,0.40821553 5.8833239,0.53801482 Z M 34.58783,0.40820739 c 6e-4,-2.71e-6 0.0011,-4.97e-6 3e-4,-1.36e-6 -4e-4,1.81e-6 -0.0019,7.6e-6 -0.0037,1.674e-5 l 0.0534,11.09982823 c -8e-4,3e-6 -0.0014,6e-6 -8e-4,3e-6 2e-4,0 0.0016,-7e-6 0.0032,-1.4e-5 z m 0.0068,-3.275e-5 c -0.0018,8.14e-6 -0.0033,1.592e-5 -0.0044,2.09e-5 -0.0013,5.88e-6 -0.0018,9.14e-6 -0.0024,1.185e-5 l 0.0524,11.09983261 c 0.0042,-1.9e-5 0.0031,-1.4e-5 0.0046,-2.1e-5 z M 69.004848,34.467873 C 68.923135,15.563149 53.508337,0.32264214 34.59463,0.40817464 l 0.0502,11.09984436 c 12.799969,-0.05788 23.204997,10.251668 23.260083,23.00785 z"
     fill="#000000"
     id="path6" />
  <defs
     id="defs7">
    <radialGradient
       id="paint0_radial"
       cx="0"
       cy="0"
       r="1"
       gradientUnits="userSpaceOnUse"
       gradientTransform="translate(21.6633 30.8857) rotate(40.0497) scale(32.4432 32.3893)">
      <stop
         stop-color="#C08F46"
         id="stop6" />
      <stop
         offset="1"
         stop-color="#8C5A10"
         id="stop7" />
    </radialGradient>
  </defs>
</svg>
