<?xml version="1.0" encoding="UTF-8" standalone="no"?>
<svg
   width="77"
   height="77"
   viewBox="0 0 77 77"
   fill="none"
   version="1.1"
   id="svg5"
   sodipodi:docname="player-hands-dreidel-left.svg"
   inkscape:version="1.4.2 (f4327f4, 2025-05-13)"
   xmlns:inkscape="http://www.inkscape.org/namespaces/inkscape"
   xmlns:sodipodi="http://sodipodi.sourceforge.net/DTD/sodipodi-0.dtd"
   xmlns="http://www.w3.org/2000/svg"
   xmlns:svg="http://www.w3.org/2000/svg">
  <defs
     id="defs5" />
  <sodipodi:namedview
     id="namedview5"
     pagecolor="#ffffff"
     bordercolor="#000000"
     borderopacity="0.25"
     inkscape:showpageshadow="2"
     inkscape:pageopacity="0.0"
     inkscape:pagecheckerboard="0"
     inkscape:deskcolor="#d1d1d1"
     inkscape:zoom="3.5493087"
     inkscape:cx="-14.65074"
     inkscape:cy="10.001948"
     inkscape:window-width="1920"
     inkscape:window-height="991"
     inkscape:window-x="-9"
     inkscape:window-y="-9"
     inkscape:window-maximized="1"
     inkscape:current-layer="svg5" />
  <path
     d="M 33.340081,31.40309 33.30342,45.131841 9.3661058,45.067919 9.4027668,31.339168 Z"
     fill="#037dc8"
     id="path1" />
  <path
     d="m 24.131079,56.631488 0.09786,-36.645369 20.537626,0.05484 c 13.100854,0.03498 22.631679,11.197875 22.612491,18.38325 -0.02111,7.903872 -10.672111,18.414067 -22.710668,18.381919 z"
     fill="#037dc8"
     id="path2" />
  <path
     d="m 24.178508,38.30885 0.04893,-18.322735 14.379048,0.0384 c 9.753566,0.02604 16.85647,5.613733 16.846876,9.20642 -0.01055,3.951986 -7.933296,9.200148 -16.895964,9.176214 z"
     fill="#2ac5f5"
     id="path3" />
  <path
     d="m 24.129419,56.691584 0.04893,-18.322634 14.379049,0.0384 c 9.753565,0.02605 16.85647,5.613633 16.846876,9.20632 -0.01055,3.951986 -7.933296,9.200148 -16.895964,9.176215 z"
     fill="#0c4ca3"
     id="path4" />
  <path
     fill-rule="evenodd"
     clip-rule="evenodd"
     d="m 14.606411,65.744387 0.02953,-11.058761 -14.39694896,-0.03844 0.0879253,-32.926083 14.39694867,0.03844 0.02935,-10.99016 29.911993,0.07988 c 9.252567,0.02471 17.063042,3.939079 22.481327,8.876365 5.072715,4.622463 9.443203,11.491358 9.423886,18.725132 -0.02078,7.783173 -4.901459,14.693164 -10.092278,19.149618 -5.49211,4.715051 -13.250831,8.419846 -21.9602,8.396588 l -0.0289,-7.7e-5 z m 9.953692,-9.757755 0.02968,-11.115961 -14.396949,-0.03845 0.03536,-13.243153 14.396949,0.03845 0.02935,-10.990161 19.984429,0.05337 c 12.748054,0.03404 22.022432,10.802347 22.003923,17.733522 -0.02036,7.624373 -10.38427,17.762533 -22.098628,17.731252 z"
     fill="#000000"
     id="path5" />
</svg>
