<?xml version="1.0" encoding="UTF-8" standalone="no"?>
<svg
   width="102"
   height="72"
   viewBox="0 0 102 72"
   fill="none"
   version="1.1"
   id="svg2"
   sodipodi:docname="player-fists-ghost-poke-r.svg"
   inkscape:version="1.4.2 (f4327f4, 2025-05-13)"
   xmlns:inkscape="http://www.inkscape.org/namespaces/inkscape"
   xmlns:sodipodi="http://sodipodi.sourceforge.net/DTD/sodipodi-0.dtd"
   xmlns="http://www.w3.org/2000/svg"
   xmlns:svg="http://www.w3.org/2000/svg">
  <defs
     id="defs2" />
  <sodipodi:namedview
     id="namedview2"
     pagecolor="#ffffff"
     bordercolor="#000000"
     borderopacity="0.25"
     inkscape:showpageshadow="2"
     inkscape:pageopacity="0.0"
     inkscape:pagecheckerboard="0"
     inkscape:deskcolor="#d1d1d1"
     inkscape:zoom="2.6793801"
     inkscape:cx="-33.216638"
     inkscape:cy="53.930385"
     inkscape:window-width="1920"
     inkscape:window-height="991"
     inkscape:window-x="-9"
     inkscape:window-y="-9"
     inkscape:window-maximized="1"
     inkscape:current-layer="svg2" />
  <path
     d="m 73.698488,24.780032 c -0.503805,-5.336308 -3.858922,-9.829991 -8.55131,-11.894331 0,0 0,0 0.0056,-0.09985 C 64.460705,5.4360021 57.955068,-0.0345279 50.499754,0.7517841 l -9.463345,0.874706 c -2.518386,0.26025 -4.770629,1.136266 -6.651317,2.533768 -8.215118,0.04288 -16.896398,1.261637 -21.595008,2.902694 C 6.2553098,9.3027001 2.6153818,15.30944 2.2814698,21.300141 L 0.56738983,52.052408 c -0.345043,6.190391 3.05393897,13.490865 10.84708817,15.627881 9.368408,2.62544 27.118561,4.015425 31.411897,4.254728 4.493026,0.250434 8.86984,-1.007938 12.38144,-2.915467 l 31.451182,1.753038 c 7.987602,0.445215 14.839263,-5.682973 15.284483,-13.670575 0.44521,-7.987602 -5.682974,-14.839266 -13.670576,-15.284482 l -8.586672,-0.478607 c 0.0167,-0.299535 0.03339,-0.59907 0.04452,-0.79876 -0.137816,-4.714977 -2.511179,-8.853473 -6.171725,-11.461231 0.188888,-1.591955 0.266801,-2.989786 0.139459,-4.298901 z"
     fill="#00fff0"
     id="path1" />
  <path
     fill-rule="evenodd"
     clip-rule="evenodd"
     d="m 87.995454,49.064722 c 4.009776,0.223498 7.079205,3.655136 6.855696,7.665112 -0.223504,4.009876 -3.655283,7.079147 -7.665059,6.855649 L 53.444464,61.70478 c -0.465982,0.364032 -0.957722,0.692474 -1.4572,0.983629 -2.42073,1.410167 -5.544192,2.267669 -8.565902,2.099244 -4.370416,-0.2436 -21.286279,-1.5976 -29.835424,-3.974961 C 9.8210736,59.765647 7.8762264,56.152714 8.0741193,52.602325 L 9.7856678,21.895487 c 0.189033,-3.391436 2.2591572,-6.586581 5.6434472,-7.760758 4.211246,-1.461201 13.578144,-2.72948 22.060887,-2.459881 1.006106,-1.411395 2.596832,-2.3935809 4.45818,-2.5672119 l 9.417499,-0.87876 c 3.397603,-0.316927 6.408701,2.1801759 6.72552,5.5775729 0.221221,2.368682 -0.92583,4.549627 -2.792218,5.760635 l 3.48188,-0.32493 c 3.95255,-0.368804 7.455601,2.53635 7.824417,6.4887 0.376809,4.03893 -2.660988,7.589373 -6.709602,7.84165 l -2.526477,0.157441 7.770828,-0.118321 c 3.97984,-0.06061 7.268045,3.090971 7.376285,7.069761 0.09346,3.435325 -2.211115,6.373324 -5.385275,7.220389 z M 36.343428,15.284733 C 28.894762,15.173728 20.295035,16.294974 16.6211,17.569688 14.800842,18.201066 13.53337,19.9891 13.415833,22.097826 l -1.711548,30.706838 c -0.123086,2.208272 1.063967,4.006721 2.855818,4.504913 8.141799,2.264417 24.718548,3.605624 29.063604,3.84781 2.252504,0.125551 4.675237,-0.528132 6.533358,-1.610601 1.949241,-1.135982 2.795545,-2.431391 2.845565,-3.328798 0.05382,-0.965601 -0.120999,-3.70137 -0.421806,-7.209948 -0.294247,-3.4358 -0.691665,-7.437419 -1.040656,-10.807464 -0.175609,-1.6956 -1.130311,-3.116534 -2.470713,-3.953427 l -0.09055,0.0056 -0.0038,-0.06321 c -0.999888,-0.595869 -2.20402,-0.871409 -3.455138,-0.702875 -2.939995,0.395998 -5.002192,3.100323 -4.606383,6.040107 l 0.644755,4.785899 0.0038,0.02965 0.0032,0.02972 0.742834,7.324391 c 0.100647,0.995645 -0.622212,1.885796 -1.617824,1.991251 -0.99529,0.105073 -1.888537,-0.614353 -1.998025,-1.609488 -0.182018,-1.654293 -0.792007,-4.167335 -1.979313,-6.248737 -1.187927,-2.082838 -2.750352,-3.417859 -4.783297,-3.531172 l -0.578402,-0.03224 c -1.002244,-0.05586 -1.769798,-0.913609 -1.713913,-1.916253 0.05588,-1.002444 0.914008,-1.769776 1.916253,-1.713913 l 0.578402,0.03224 c 2.182113,0.121628 3.928101,1.018586 5.301685,2.259251 l -0.123354,-0.915283 c -0.344585,-2.559644 0.42182,-5.012694 1.928469,-6.872728 L 38.53034,31.439794 c -0.266982,-0.64025 -0.448635,-1.312802 -0.540307,-2.000469 -0.448466,-3.367877 1.289716,-6.506809 4.09917,-8.016196 -2.966605,-0.204715 -5.433154,-2.532992 -5.718368,-5.590002 -0.01738,-0.184053 -0.02612,-0.366922 -0.02732,-0.548371 z m 5.843514,15.47729 c 0.870333,-0.438143 1.82739,-0.741351 2.847814,-0.878675 1.698362,-0.228738 3.349429,0.03165 4.810421,0.672651 l 9.824606,-0.61239 c 2.000239,-0.124676 3.501599,-1.879041 3.315384,-3.874898 -0.182185,-1.953165 -1.913176,-3.388723 -3.866442,-3.206544 L 45.43426,24.138978 c -2.416298,0.225578 -4.160641,2.414895 -3.840219,4.820455 0.0496,0.371636 0.147622,0.735055 0.291892,1.08102 z m 12.915462,6.638659 c 0.02131,0.140504 0.03925,0.282322 0.05432,0.425282 0.219098,2.117475 0.458357,4.489566 0.679164,6.818965 l 9.466211,-0.133694 c 2.024439,-0.02878 3.634729,-1.706966 3.579783,-3.73096 -0.05413,-1.988394 -1.69751,-3.563593 -3.686476,-3.533336 z m 1.284758,13.543689 c 0.188292,2.441963 0.301051,4.483503 0.245733,5.475962 -0.03513,0.630222 -0.177152,1.230448 -0.4036,1.798226 l 31.159135,1.736759 c 2.004888,0.111749 3.72075,-1.422838 3.832505,-3.427826 0.111754,-2.004988 -1.422933,-3.720856 -3.427821,-3.832605 z M 42.758418,17.790524 52.175812,16.911858 c 1.398323,-0.130382 2.425881,-1.369617 2.295482,-2.767641 -0.130699,-1.39804 -1.369834,-2.425593 -2.767758,-2.295188 l -9.417793,0.878643 c -1.39793,0.130505 -2.425482,1.36964 -2.295083,2.767663 0.130399,1.398024 1.369429,2.425671 2.767758,2.295189 z"
     fill="#000000"
     id="path2" />
</svg>
