<?xml version="1.0" encoding="UTF-8" standalone="no"?>
<svg
   width="77"
   height="77"
   viewBox="0 0 77 77"
   fill="none"
   version="1.1"
   id="svg6"
   sodipodi:docname="player-hands-FrostPunch.svg"
   inkscape:version="1.4.2 (f4327f4, 2025-05-13)"
   xmlns:inkscape="http://www.inkscape.org/namespaces/inkscape"
   xmlns:sodipodi="http://sodipodi.sourceforge.net/DTD/sodipodi-0.dtd"
   xmlns="http://www.w3.org/2000/svg"
   xmlns:svg="http://www.w3.org/2000/svg">
  <sodipodi:namedview
     id="namedview6"
     pagecolor="#ffffff"
     bordercolor="#000000"
     borderopacity="0.25"
     inkscape:showpageshadow="2"
     inkscape:pageopacity="0.0"
     inkscape:pagecheckerboard="0"
     inkscape:deskcolor="#d1d1d1"
     inkscape:zoom="5.0194805"
     inkscape:cx="44.426908"
     inkscape:cy="41.737387"
     inkscape:window-width="1920"
     inkscape:window-height="991"
     inkscape:window-x="-9"
     inkscape:window-y="-9"
     inkscape:window-maximized="1"
     inkscape:current-layer="svg6" />
  <path
     fill-rule="evenodd"
     clip-rule="evenodd"
     d="m 39.22105,63.604315 7.681094,3.130999 4.327126,-8.115123 8.355622,-0.676483 -0.351226,-9.452401 7.154841,-3.980752 -4.54941,-7.385292 4.537382,-7.270503 -7.005836,-4.424779 1.001795,-8.847865 L 51.192257,15.560507 46.67491,6.7823567 38.922397,10.377552 C 37.57382,10.171711 36.192428,10.065498 34.786028,10.066707 19.877834,10.079522 7.8004095,22.155308 7.8102029,37.038705 c 0.00979,14.883397 12.1032601,26.938406 27.0113551,26.925592 1.498199,-0.0013 2.967794,-0.124451 4.399492,-0.359982 z"
     fill="url(#paint0_linear)"
     id="path1"
     style="fill:url(#paint0_linear)" />
  <path
     fill-rule="evenodd"
     clip-rule="evenodd"
     d="m 74.087612,47.409238 -9.231859,5.136338 0.421551,11.343342 -10.608166,0.858718 -5.247642,9.841615 -10.909827,-4.447024 c -1.211082,0.137741 -2.440621,0.208898 -3.684721,0.209967 C 16.889455,70.367613 2.3226795,55.860229 2.3108672,37.930233 2.2990558,20.001136 16.845271,5.4700671 34.781964,5.4546491 c 1.0975,-9.434e-4 2.183946,0.052653 3.256337,0.158501 l 11.112275,-5.15324378 5.582827,10.84855468 11.724736,1.304723 -1.233744,10.896364 8.714954,5.504111 -5.62818,9.018341 z m -15.396833,-4.021466 -3.322437,-5.393446 3.446654,-5.522665 -5.296777,-3.345348 0.769855,-6.799465 -6.635637,-0.738396 -3.451867,-6.707735 -4.468121,2.072041 -1.639315,-0.250291 c -1.073242,-0.163777 -2.175615,-0.24883 -3.301715,-0.247862 -11.879595,0.01021 -21.488329,9.630774 -21.480554,21.468372 0.0078,11.836798 9.627832,21.439432 21.506628,21.429221 1.1995,-0.001 2.372115,-0.09954 3.511255,-0.287018 l 1.531584,-0.251916 4.523886,1.844012 3.40651,-6.388731 6.103078,-0.494146 -0.281,-7.561461 z"
     fill="#000000"
     id="path2" />
  <path
     d="m 24.159471,13.494143 c 0.510144,0.05186 0.898414,0.481228 0.898854,0.994028 l 0.04027,46.846582 c 4.4e-4,0.5128 -0.38709,0.942833 -0.897145,0.995572 L 8.9290008,63.909453 C 8.339553,63.97036 7.8266555,63.508201 7.8261461,62.915601 l -0.04296,-49.978582 c -5.095e-4,-0.592699 0.5115926,-1.05574 1.1011444,-0.995746 z"
     fill="#387aa9"
     id="path3" />
  <path
     fill-rule="evenodd"
     clip-rule="evenodd"
     d="m 24.715768,8.0228827 c 3.315991,0.3371098 5.839691,3.1279613 5.842556,6.4610603 l 0.04027,46.846683 c 0.0029,3.333098 -2.516033,6.128265 -5.83144,6.471115 L 9.4947042,69.380869 C 5.6630433,69.777063 2.3294598,66.772927 2.3261487,62.920929 L 2.2831881,12.942247 C 2.279877,9.0902585 5.6082911,6.0804164 9.4406274,6.4700123 Z M 19.56182,18.555597 13.287469,17.91779 l 0.03439,40.008685 6.273244,-0.648592 z"
     fill="#000000"
     id="path4" />
  <defs
     id="defs6">
    <linearGradient
       id="paint0_linear"
       x1="24.3177"
       y1="13.924"
       x2="61.3364"
       y2="46.7494"
       gradientUnits="userSpaceOnUse"
       gradientTransform="rotate(89.95075,38.191725,37.534115)">
      <stop
         stop-color="white"
         id="stop4" />
      <stop
         offset="0.359769"
         stop-color="#9CC5D2"
         id="stop5" />
      <stop
         offset="1"
         stop-color="#8BB4C1"
         id="stop6" />
    </linearGradient>
  </defs>
</svg>
