<?xml version="1.0" encoding="UTF-8" standalone="no"?>
<svg
   width="78"
   height="78"
   viewBox="0 0 78 78"
   fill="none"
   version="1.1"
   id="svg25"
   sodipodi:docname="player-fists-horsepower-l.svg"
   inkscape:version="1.4.2 (f4327f4, 2025-05-13)"
   xmlns:inkscape="http://www.inkscape.org/namespaces/inkscape"
   xmlns:sodipodi="http://sodipodi.sourceforge.net/DTD/sodipodi-0.dtd"
   xmlns="http://www.w3.org/2000/svg"
   xmlns:svg="http://www.w3.org/2000/svg">
  <defs
     id="defs25" />
  <sodipodi:namedview
     id="namedview25"
     pagecolor="#ffffff"
     bordercolor="#000000"
     borderopacity="0.25"
     inkscape:showpageshadow="2"
     inkscape:pageopacity="0.0"
     inkscape:pagecheckerboard="0"
     inkscape:deskcolor="#d1d1d1"
     inkscape:zoom="4.9551282"
     inkscape:cx="34.711514"
     inkscape:cy="49.544631"
     inkscape:window-width="1920"
     inkscape:window-height="991"
     inkscape:window-x="-9"
     inkscape:window-y="-9"
     inkscape:window-maximized="1"
     inkscape:current-layer="svg25" />
  <path
     d="M 51.169629,11.232489 C 48.083816,10.072729 44.845969,9.4453137 41.508324,9.3613609 25.470997,8.9579692 11.856114,21.611519 11.163737,37.48953 c -0.0099,0.120988 -0.01702,0.243049 -0.02006,0.36411 l -0.0044,0.176345 c -0.003,0.120162 -0.0021,0.244323 6.89e-4,0.286808 -0.105745,15.971591 12.855766,29.293625 28.893094,29.697016 3.331646,0.0838 6.597017,-0.383036 9.743281,-1.38794 l -0.209011,8.309472 17.275658,-4.636864 0.694198,-27.598671 -10.687545,-0.267827 -0.166396,0.0017 c -3.26828,0.07344 -4.52638,2.865289 -5.07256,4.078538 l -0.0011,0.003 c -0.356486,0.555712 -1.316786,1.191866 -2.856785,1.892264 -1.495992,0.680798 -3.145611,1.018724 -4.770897,0.977843 -5.904732,-0.148524 -10.643189,-5.025816 -10.565454,-10.828496 0.215101,-5.87915 5.194512,-10.541515 11.099245,-10.392992 1.624286,0.04086 3.255804,0.462315 4.714728,1.215438 1.506737,0.781034 2.434865,1.463688 2.758137,2.029596 l 0.0102,0.02786 c 0.477141,1.217283 1.594316,4.067876 4.946716,4.312851 L 67.706038,36.025142 68.400284,8.4245424 51.379592,2.9249422 51.170629,11.232515 Z m 8.180274,-0.08303 3.553384,1.146914 -0.458306,18.220537 -3.597762,-0.0905 z m -1.07394,-0.159055 -0.509628,19.513255 -0.02312,0.879497 c -0.143815,0.165836 -0.351349,0.271951 -0.588478,0.254183 -0.615588,-0.04399 -0.902685,-0.672111 -1.303384,-1.699211 -0.03626,-0.09364 -0.06407,-0.169165 -0.08389,-0.208176 -0.894957,-1.882099 -2.84252,-3.08125 -4.62975,-4.005283 -2.015833,-1.042118 -4.268963,-1.622057 -6.519451,-1.678665 -8.160119,-0.205253 -15.040297,6.237379 -15.338673,14.361445 -0.109989,8.110999 6.438586,14.891409 14.597705,15.096638 2.249489,0.05658 4.529925,-0.409323 6.595626,-1.349777 1.831426,-0.833012 3.836788,-1.931734 4.827234,-3.766409 0.01974,-0.03701 0.05131,-0.111145 0.09225,-0.203645 0.452783,-1.003732 0.77012,-1.617646 1.387142,-1.630635 0.236749,-0.0069 0.439635,0.11149 0.574929,0.284447 l -0.02172,0.903139 -0.471422,19.489609 -0.03202,1.308908 0.694709,-0.18649 0.04612,0.170614 -3.728031,0.996272 0.235225,-9.351642 -0.0563,0.03509 c -4.211431,2.541206 -9.008528,3.812984 -13.886385,3.690289 -11.921129,-0.299855 -21.833792,-8.864921 -24.274812,-20.038034 0.417259,0.527859 0.992311,0.922744 1.762383,1.12047 0.300969,0.07659 0.621253,0.132963 0.987337,0.142172 0.509439,0.01281 0.815042,0.0205 1.063875,-0.03336 0.426968,-0.09279 0.678021,-0.389975 0.688798,-0.818439 0.0057,-0.225529 -0.05044,-0.476219 -0.132897,-0.856813 -0.18363,-0.848185 -0.526946,-2.426717 -0.455946,-5.249424 0.06639,-2.639566 0.408778,-4.129927 0.612363,-5.02159 0.09218,-0.399809 0.153279,-0.665356 0.159101,-0.896783 0.02413,-0.959297 -0.804809,-0.980147 -1.767304,-1.004357 -0.301705,-0.0076 -0.572712,0.02111 -0.829244,0.06687 -0.769497,0.133393 -1.358307,0.480297 -1.798207,0.971891 2.998685,-11.037287 13.329494,-19.096163 25.252623,-18.796257 4.877857,0.122694 9.602947,1.634086 13.667647,4.37356 l 0.06806,0.05003 0.235298,-9.3545614 3.67713,1.1864178 -0.05582,0.1710905 -0.686228,-0.2222757 z m 0.133942,36.857722 3.597862,0.0905 -0.458258,18.218638 -3.606574,0.967717 z M 18.751595,32.309291 c 0.264117,0.0066 0.531132,0.01336 0.700906,0.03243 -0.02216,0.133485 -0.06568,0.328552 -0.116866,0.553936 -0.213448,0.929827 -0.571287,2.485821 -0.640429,5.234652 -0.07425,2.951766 0.286831,4.61157 0.480266,5.503416 0.0328,0.151573 0.0647,0.299222 0.08652,0.414107 -0.163373,0.0048 -0.396899,-0.0011 -0.623427,-0.0068 -2.740133,-0.06892 -2.894257,-2.992923 -2.819045,-5.983077 0.07305,-2.943794 0.360068,-5.812384 2.93208,-5.74869 z m 0.531303,11.933233 c 2.5e-5,-0.001 5e-5,-0.002 10e-5,-0.004 l 0.53713,0.01351 0.001,2.5e-5 -0.001,-2.5e-5 z"
     fill="#010101"
     id="path1" />
  <path
     d="m 56.511776,20.635493 -2.261902,-1.607185 c -3.819469,-2.574556 -8.2794,-4.001453 -12.882244,-4.11723 -10.759796,-0.270644 -20.144958,6.672758 -23.419372,16.391395 0.257531,-0.04574 0.528439,-0.07444 0.829244,-0.06687 0.962495,0.02421 1.791433,0.04506 1.767303,1.004357 -0.0058,0.231427 -0.06692,0.496975 -0.1591,0.896783 -0.204585,0.891638 -0.545994,2.383024 -0.612361,5.02149 -0.071,2.822707 0.272313,4.401339 0.455944,5.249524 0.08346,0.380519 0.138444,0.632282 0.132797,0.856811 -0.01077,0.428364 -0.261705,0.724648 -0.688696,0.818341 -0.248833,0.05386 -0.555436,0.04615 -1.063975,0.03336 -0.365984,-0.0092 -0.68627,-0.06548 -0.987239,-0.142069 2.801284,9.83885 11.81242,17.216471 22.549424,17.486542 4.601845,0.115752 9.127872,-1.085119 13.086991,-3.473921 l 2.325798,-1.481886 -0.254893,10.133595 1.531766,-0.408913 0.47142,-19.489508 c -0.05504,0.06063 -0.115811,0.114324 -0.18703,0.153946 -0.133714,0.1977 -0.361054,0.697541 -0.437715,0.87397 -0.06183,0.135488 -0.110035,0.242609 -0.139064,0.295096 -1.198322,2.224771 -3.567722,3.5153 -5.497331,4.394157 -2.261941,1.031049 -4.762298,1.542738 -7.230418,1.480657 -8.944571,-0.224985 -16.121162,-7.656893 -16.000004,-16.565864 0.327314,-8.92059 7.870467,-15.982248 16.813039,-15.757312 2.467119,0.06206 4.938615,0.697803 7.146835,1.842292 1.883959,0.97178 4.184507,2.382774 5.269463,4.664977 0.02535,0.05385 0.07014,0.162415 0.124078,0.300715 0.06864,0.182084 0.269592,0.691698 0.393222,0.894871 0.07406,0.04628 0.124686,0.117473 0.178433,0.187846 l 0.509629,-19.513255 -1.508249,-0.486279 -0.254793,10.129596 z m -5.853833,-0.867671 c -0.03277,1.302988 -1.123919,2.336977 -2.432605,2.30406 -1.309786,-0.03295 -2.347468,-1.120483 -2.314693,-2.42347 0.03277,-1.302988 1.124794,-2.335956 2.43358,-2.303035 1.307686,0.03289 2.346493,1.119457 2.313718,2.422445 z m -3.39731,40.617316 c -1.309786,-0.03294 -2.34747,-1.120382 -2.314693,-2.42347 0.0328,-1.303987 1.124819,-2.336955 2.433605,-2.304035 1.307686,0.03289 2.346493,1.119458 2.313693,2.423445 -0.03188,1.303111 -1.12292,2.337003 -2.432605,2.30406 z m -16.64732,-3.50141 c 0.03277,-1.302987 1.124769,-2.334955 2.434555,-2.30201 1.307711,0.03189 2.345543,1.117433 2.312743,2.421421 -0.03277,1.302987 -1.123919,2.336977 -2.431606,2.304085 -1.309785,-0.03295 -2.348467,-1.120508 -2.315692,-2.423496 z m -3.660149,-3.277272 c -1.307787,-0.0329 -2.34747,-1.120382 -2.314718,-2.42247 0.03277,-1.302988 1.125844,-2.337929 2.43363,-2.305034 1.309708,0.03204 2.348342,1.121504 2.315568,2.424492 -0.03273,1.301089 -1.124794,2.335955 -2.43448,2.303012 z M 25.287035,25.398542 c 0.03282,-1.304987 1.125844,-2.33793 2.43363,-2.305035 1.309686,0.03294 2.348392,1.119506 2.315568,2.424493 -0.03278,1.302988 -1.124794,2.335955 -2.43448,2.303012 -1.307787,-0.03289 -2.347493,-1.119482 -2.314718,-2.42247 z m 8.689545,-7.699133 c 1.307686,0.03289 2.345493,1.119432 2.312716,2.42252 -0.03278,1.302988 -1.123917,2.336878 -2.431603,2.303985 -1.309786,-0.03294 -2.34847,-1.120407 -2.315696,-2.423395 0.03278,-1.303088 1.123797,-2.336081 2.434583,-2.30311 z m 9.403818,0.773707 c -0.03277,1.302988 -1.123794,2.33598 -2.43258,2.30306 -1.307687,-0.03289 -2.345494,-1.119432 -2.312719,-2.42242 0.03277,-1.302988 1.123869,-2.334978 2.431556,-2.302086 1.308811,0.03192 2.346517,1.118458 2.313743,2.421446 z m -5.76587,40.414894 c 0.03278,-1.303088 1.12392,-2.336977 2.431706,-2.304082 1.308686,0.03292 2.34647,1.120357 2.313693,2.423445 -0.0328,1.303987 -1.123919,2.336977 -2.432605,2.304059 -1.307787,-0.0329 -2.345593,-1.119434 -2.312794,-2.423422 z"
     fill="#758b94"
     id="path2" />
  <path
     d="m 59.050547,9.7361447 -3.67713,-1.1864178 -0.235298,9.3545611 -0.06806,-0.05003 C 51.005355,15.114786 46.280266,13.603394 41.402409,13.4807 29.47928,13.180794 19.148495,21.238671 16.149785,32.276957 c 0.440901,-0.491568 1.02871,-0.838497 1.798208,-0.97189 3.274411,-9.718537 12.659573,-16.661939 23.419369,-16.391295 4.602845,0.115777 9.062777,1.542574 12.882245,4.11723 l 2.261904,1.607085 0.254843,-10.131596 1.508247,0.48638 0.03387,-1.3069218 0.686227,0.2222857 z"
     fill="#20343c"
     id="path3" />
  <path
     d="m 55.583194,57.504701 -2.325798,1.481886 c -3.95802,2.388829 -8.484147,3.589698 -13.086991,3.473921 C 29.433401,62.190437 20.422264,54.812816 17.62098,44.973966 16.850908,44.77624 16.275831,44.382355 15.8586,43.853396 c 2.44102,11.173113 12.35268,19.738253 24.27481,20.038134 4.877857,0.122695 9.673956,-1.149208 13.886386,-3.690388 l 0.0563,-0.035 -0.235222,9.351542 3.728028,-0.996172 -0.04612,-0.170714 -0.694612,0.186593 0.03193,-1.309011 -1.531767,0.408912 z"
     fill="#20343c"
     id="path4" />
  <path
     d="m 57.194397,29.420235 c -0.05394,-0.1383 -0.09772,-0.246835 -0.124078,-0.300715 -1.084856,-2.282201 -3.386428,-3.69222 -5.269364,-4.664975 -2.208344,-1.143491 -4.678815,-1.780213 -7.146934,-1.842295 -8.942572,-0.224935 -16.485625,6.836725 -16.81294,15.757316 -0.121157,8.90897 7.055334,16.340875 15.999905,16.565861 2.46712,0.06206 4.968477,-0.449608 7.230518,-1.480655 1.930484,-0.877834 4.299009,-2.169385 5.497231,-4.394159 0.02803,-0.05251 0.07724,-0.159608 0.139064,-0.295097 0.07679,-0.177425 0.304101,-0.676267 0.437715,-0.873969 0.07132,-0.03962 0.13211,-0.09421 0.18703,-0.153946 l 0.02172,-0.90314 c -0.135169,-0.173954 -0.33808,-0.291393 -0.574827,-0.284544 -0.617024,0.01309 -0.935359,0.626878 -1.387242,1.630633 -0.04094,0.0926 -0.07252,0.166729 -0.09225,0.203645 -0.990474,1.835774 -2.995833,2.934396 -4.827234,3.766408 -2.065701,0.940455 -4.34514,1.406485 -6.595628,1.349878 -8.15912,-0.205229 -14.707592,-6.985737 -14.597603,-15.096736 0.298374,-8.123966 7.178554,-14.566698 15.338573,-14.361447 2.249489,0.05658 4.502716,0.636624 6.519549,1.678767 1.787104,0.92503 3.73467,2.124081 4.629649,4.005281 0.01983,0.03891 0.04763,0.114534 0.08389,0.208075 0.401799,1.027128 0.687896,1.655221 1.303482,1.699314 0.237128,0.01777 0.444687,-0.08935 0.58838,-0.254285 l 0.02312,-0.879497 c -0.05267,-0.06935 -0.103374,-0.141544 -0.178436,-0.187746 -0.123603,-0.200272 -0.323652,-0.709863 -0.393295,-0.891972 z"
     fill="#b2ccd6"
     id="path5" />
  <path
     d="m 49.579904,19.739905 c 0.01794,-0.713074 -0.548138,-1.305796 -1.264412,-1.323812 -0.716273,-0.01802 -1.311431,0.545496 -1.329367,1.25857 -0.01794,0.713175 0.548138,1.305796 1.264412,1.323813 0.716273,0.01802 1.311429,-0.545396 1.329367,-1.258571 z"
     fill="#4e5e62"
     id="path6" />
  <path
     d="m 48.342961,17.343944 c -1.308786,-0.03292 -2.400806,1.000047 -2.433581,2.303035 -0.03277,1.302988 1.004908,2.390525 2.314693,2.42347 1.308686,0.03292 2.399831,-1.001072 2.432606,-2.304059 0.03277,-1.302988 -1.005032,-2.389528 -2.313718,-2.422446 z m 1.236459,2.395349 c -0.01794,0.713074 -0.614194,1.276559 -1.328368,1.258596 -0.715274,-0.01799 -1.281349,-0.610713 -1.263413,-1.323788 0.01791,-0.712075 0.613095,-1.276587 1.328368,-1.258596 0.715174,0.01799 1.281299,0.612713 1.263413,1.323788 z"
     fill="#010101"
     id="path7" />
  <path
     d="m 42.302434,18.446202 c 0.01792,-0.712575 -0.547664,-1.304784 -1.263338,-1.322786 -0.715773,-0.018 -1.310419,0.545022 -1.328342,1.257596 -0.01792,0.712575 0.547664,1.304784 1.263437,1.322788 0.715674,0.018 1.310319,-0.545024 1.328243,-1.257598 z"
     fill="#4e5e62"
     id="path8" />
  <path
     d="m 38.633912,18.353226 c -0.03278,1.303088 1.00503,2.389627 2.312716,2.42252 1.308786,0.03292 2.399806,-1.000072 2.432583,-2.30316 0.03277,-1.302988 -1.004932,-2.389525 -2.313744,-2.421446 -1.307686,-0.03289 -2.398781,0.999098 -2.431555,2.302086 z m 2.340669,1.350984 c -0.714174,-0.01796 -1.281323,-0.611713 -1.26341,-1.323887 0.01789,-0.711075 0.614169,-1.27556 1.328343,-1.257596 0.715274,0.01799 1.283323,0.611763 1.265437,1.322838 -0.01891,0.712149 -0.616096,1.276611 -1.33037,1.258645 z"
     fill="#010101"
     id="path9" />
  <path
     d="m 35.212819,20.095552 c 0.01791,-0.711974 -0.547289,-1.303774 -1.262463,-1.321763 -0.715174,-0.01799 -1.30941,0.544647 -1.327318,1.256622 -0.01791,0.712075 0.547287,1.303874 1.26246,1.321863 0.715174,0.01799 1.30941,-0.544647 1.327321,-1.256722 z"
     fill="#4e5e62"
     id="path10" />
  <path
     d="m 33.85704,22.427998 c 1.307686,0.03289 2.398829,-1.000997 2.431606,-2.304085 0.03277,-1.302988 -1.005033,-2.389527 -2.312719,-2.42242 -1.309786,-0.03294 -2.401805,1.000022 -2.43458,2.30301 -0.03278,1.303088 1.004907,2.390525 2.315693,2.423495 z m 0.09288,-3.652919 c 0.714174,0.01796 1.280374,0.609688 1.262463,1.321763 -0.01791,0.712075 -0.613171,1.275685 -1.327345,1.257721 -0.715274,-0.01799 -1.282346,-0.610838 -1.264435,-1.322913 0.01786,-0.710075 0.614043,-1.274563 1.329317,-1.256571 z"
     fill="#010101"
     id="path11" />
  <path
     d="m 28.958051,25.49178 c 0.01794,-0.713074 -0.547239,-1.305773 -1.264412,-1.323812 -0.715199,-0.01699 -1.310432,0.545521 -1.328368,1.258595 -0.01786,0.710076 0.548314,1.3028 1.263488,1.320789 0.717196,0.01714 1.311456,-0.546496 1.329292,-1.255572 z"
     fill="#4e5e62"
     id="path12" />
  <path
     d="m 27.601245,27.8213 c 1.309686,0.03294 2.401806,-1.000022 2.43458,-2.30301 0.03283,-1.304988 -1.005981,-2.391552 -2.315667,-2.424495 -1.307787,-0.03289 -2.400806,1.000047 -2.433631,2.305034 -0.03277,1.302988 1.006932,2.389575 2.314718,2.422471 z m 0.02805,-1.075535 c -0.715274,-0.01799 -1.281349,-0.610713 -1.263488,-1.320789 0.01794,-0.713074 0.613069,-1.275587 1.328368,-1.258595 0.717173,0.01804 1.282348,0.610738 1.264412,1.323812 -0.01886,0.710051 -0.613119,1.273586 -1.329292,1.255572 z"
     fill="#010101"
     id="path13" />
  <path
     d="m 58.847526,30.426122 3.596763,0.09047 0.458306,-18.220537 -3.553361,-1.147813 z"
     fill="#4e5e62"
     id="path14" />
  <path
     d="m 48.615179,58.053962 c 0.01791,-0.711975 -0.547389,-1.303777 -1.262463,-1.321763 -0.715174,-0.01799 -1.309409,0.544646 -1.327318,1.256621 -0.01791,0.711975 0.547289,1.303774 1.262463,1.321763 0.715074,0.01799 1.30941,-0.544647 1.327318,-1.256621 z"
     fill="#4e5e62"
     id="path15" />
  <path
     d="m 47.37926,55.657026 c -1.308786,-0.03292 -2.400803,0.999947 -2.433605,2.304035 -0.03278,1.302988 1.004907,2.390524 2.314693,2.42347 1.308686,0.03292 2.399831,-1.001072 2.432605,-2.30406 0.0337,-1.304065 -1.005007,-2.390527 -2.313693,-2.423445 z m 1.236411,2.397248 c -0.01789,0.711175 -0.614146,1.27466 -1.32832,1.256696 -0.715273,-0.01799 -1.281373,-0.609713 -1.26346,-1.321888 0.01791,-0.712075 0.613044,-1.274588 1.328343,-1.257596 0.715174,0.01799 1.281348,0.610713 1.263437,1.322788 z"
     fill="#010101"
     id="path16" />
  <path
     d="m 41.282918,58.978282 c 0.01792,-0.712575 -0.547664,-1.304784 -1.263337,-1.322786 -0.715774,-0.018 -1.310419,0.545022 -1.328343,1.257596 -0.01792,0.712575 0.547664,1.304784 1.263438,1.322788 0.715673,0.018 1.310319,-0.545024 1.328242,-1.257598 z"
     fill="#4e5e62"
     id="path17" />
  <path
     d="m 42.36062,59.00769 c 0.03277,-1.302988 -1.004908,-2.390525 -2.313694,-2.423445 -1.307786,-0.0329 -2.398831,1.001097 -2.431605,2.304085 -0.0328,1.303988 1.004907,2.390525 2.312693,2.42342 1.308786,0.03292 2.399806,-1.000072 2.432606,-2.30406 z m -2.340697,-1.349884 c 0.715174,0.01799 1.283348,0.610763 1.265437,1.322838 -0.01791,0.712075 -0.615194,1.276534 -1.330368,1.258545 -0.714174,-0.01796 -1.281323,-0.611713 -1.263412,-1.323787 0.01791,-0.712075 0.614169,-1.27556 1.328343,-1.257596 z"
     fill="#010101"
     id="path18" />
  <path
     d="m 34.285267,56.97549 c 0.01792,-0.712575 -0.547764,-1.304786 -1.263438,-1.322788 -0.715774,-0.018 -1.310419,0.545021 -1.328343,1.257596 -0.01792,0.712575 0.547664,1.304784 1.263438,1.322788 0.715674,0.018 1.310419,-0.545021 1.328343,-1.257596 z"
     fill="#4e5e62"
     id="path19" />
  <path
     d="m 32.92941,59.307034 c 1.307687,0.03289 2.398832,-1.001097 2.431606,-2.304085 0.0328,-1.304088 -1.005032,-2.389528 -2.312741,-2.421521 -1.309786,-0.03295 -2.40178,0.999023 -2.434557,2.30211 -0.03277,1.302988 1.004907,2.390525 2.315692,2.423496 z m 0.09289,-3.65302 c 0.714174,0.01796 1.280349,0.610688 1.262461,1.321863 -0.01793,0.712975 -0.613194,1.276585 -1.327368,1.258621 -0.715274,-0.01799 -1.282346,-0.610838 -1.264413,-1.323813 0.01789,-0.711175 0.614046,-1.274662 1.32932,-1.256671 z"
     fill="#010101"
     id="path20" />
  <path
     d="m 28.309527,51.274625 c 0.01792,-0.712574 -0.547764,-1.304786 -1.263437,-1.322788 -0.715774,-0.018 -1.310419,0.545022 -1.328343,1.257596 -0.01792,0.712575 0.547664,1.304784 1.263438,1.322788 0.715673,0.018 1.310419,-0.545021 1.328342,-1.257596 z"
     fill="#4e5e62"
     id="path21" />
  <path
     d="m 29.387254,51.303034 c 0.03277,-1.302988 -1.005959,-2.392452 -2.315668,-2.424495 -1.307786,-0.0329 -2.400856,1.002047 -2.43363,2.305035 -0.03275,1.302088 1.006932,2.389575 2.314718,2.42247 1.309661,0.03394 2.401828,-1.000922 2.43458,-2.30301 z m -3.670039,-0.09231 c 0.01791,-0.712075 0.613094,-1.276588 1.328367,-1.258596 0.717174,0.01804 1.282324,0.611738 1.264412,1.323812 -0.01791,0.712075 -0.613168,1.275585 -1.329342,1.257571 -0.715274,-0.01799 -1.281348,-0.610713 -1.263437,-1.322787 z"
     fill="#010101"
     id="path22" />
  <path
     d="m 57.94121,67.125936 3.606574,-0.967717 0.458259,-18.218638 -3.596763,-0.09047 z"
     fill="#4e5e62"
     id="path23" />
  <path
     d="m 19.282681,44.235216 -1.28e-4,0.0051 0.53713,0.01351 1.29e-4,-0.0051 z"
     fill="#4e5e62"
     id="path24" />
  <path
     d="m 18.636776,44.040413 c 0.226628,0.0057 0.460054,0.01157 0.623524,0.0069 -0.02092,-0.114862 -0.05382,-0.262536 -0.08661,-0.414209 -0.193336,-0.891843 -0.554513,-2.55165 -0.480269,-5.503316 0.06914,-2.748831 0.426081,-4.304848 0.640432,-5.234752 0.05218,-0.225359 0.09573,-0.421326 0.116963,-0.553834 -0.169774,-0.01908 -0.436889,-0.02579 -0.701006,-0.03244 -2.572011,-0.06369 -2.858032,2.804821 -2.93208,5.748689 -0.07524,2.991054 0.07991,5.91408 2.819048,5.982978 z"
     fill="#4e5e62"
     id="path25" />
</svg>
