<?xml version="1.0" encoding="UTF-8" standalone="no"?>
<svg
   width="72"
   height="77"
   viewBox="0 0 72 77"
   fill="none"
   version="1.1"
   id="svg14"
   sodipodi:docname="player-hands-immolate.svg"
   inkscape:version="1.4.2 (f4327f4, 2025-05-13)"
   xmlns:inkscape="http://www.inkscape.org/namespaces/inkscape"
   xmlns:sodipodi="http://sodipodi.sourceforge.net/DTD/sodipodi-0.dtd"
   xmlns="http://www.w3.org/2000/svg"
   xmlns:svg="http://www.w3.org/2000/svg">
  <defs
     id="defs14" />
  <sodipodi:namedview
     id="namedview14"
     pagecolor="#ffffff"
     bordercolor="#000000"
     borderopacity="0.25"
     inkscape:showpageshadow="2"
     inkscape:pageopacity="0.0"
     inkscape:pagecheckerboard="0"
     inkscape:deskcolor="#d1d1d1"
     inkscape:zoom="5.3680556"
     inkscape:cx="-24.962484"
     inkscape:cy="31.761966"
     inkscape:window-width="1920"
     inkscape:window-height="991"
     inkscape:window-x="-9"
     inkscape:window-y="-9"
     inkscape:window-maximized="1"
     inkscape:current-layer="svg14" />
  <path
     d="m 49.566984,62.771389 -6.671938,6.058193 -10.876324,2.143469 -15.604979,-1.346919 -1.840877,-1.156427 -8.2639048,-18.8659 -0.016504,-16.216792 2.6512655,-5.930801 -0.0074,-7.222596 6.0572243,-6.956268 12.666967,-6.6222842 21.359452,3.9708542 4.123522,5.522507 2.221913,0.404139 2.08836,2.219375 3.969298,7.365965 4.184421,10.846547 -3.124127,5.950182 -6.35454,9.396672 -0.722561,7.408439 z"
     fill="#99958d"
     id="path1" />
  <path
     fill-rule="evenodd"
     clip-rule="evenodd"
     d="m 55.870856,54.977269 -2.600263,5.246249 -8.082106,-8.255979 5.309869,-9.172109 1.320087,-9.642848 8.265836,-9.499617 0.459869,0.853332 4.149507,12.670284 -4.620226,9.321707 -3.944466,5.832817 z"
     fill="#a8a59f"
     id="path2" />
  <path
     d="m 36.727254,39.558443 -2.292101,1.965534 -4.809385,-0.965706 3.498486,-8.760965 5.050389,-0.79924 z"
     fill="#a8a59f"
     id="path3" />
  <path
     fill-rule="evenodd"
     clip-rule="evenodd"
     d="m 28.014531,6.7211036 12.120072,19.4220654 -2.005438,4.974843 -5.015293,0.697005 -8.23696,-9.291722 -9.81855,-9.280313 12.601202,-6.5878772 z"
     fill="#605d59"
     id="path4" />
  <path
     fill-rule="evenodd"
     clip-rule="evenodd"
     d="m 9.0053907,20.153246 8.6680873,9.710883 -8.7839333,-2.288862 0.05318,-0.118954 -0.0074,-7.222696 z"
     fill="#605d59"
     id="path5" />
  <path
     fill-rule="evenodd"
     clip-rule="evenodd"
     d="m 61.292561,25.894536 -12.746524,-6.207831 0.529755,-8.986743 4.068347,5.448562 2.221912,0.404039 2.08836,2.219476 z"
     fill="#615e5a"
     id="path6" />
  <path
     fill-rule="evenodd"
     clip-rule="evenodd"
     d="m 8.9365487,21.389516 14.3952933,-0.01465 0.0185,18.177891 -17.052691,0.01735 -0.00629,-6.183096 2.6513667,-5.930702 z"
     fill="#514e48"
     id="path7" />
  <path
     d="m 18.471191,36.361421 11.648947,3.184446 3.029843,-7.819787 -8.174132,-9.263986 -7.334263,7.507668 z"
     fill="#706c64"
     id="path8" />
  <path
     fill-rule="evenodd"
     clip-rule="evenodd"
     d="m 6.3136092,33.339492 12.1934518,2.893692 11.50634,3.276392 -8.723968,4.752781 -14.9747583,5.354642 -0.00571,-0.01319 -0.016504,-16.216892 z"
     fill="#605d59"
     id="path9" />
  <path
     fill-rule="evenodd"
     clip-rule="evenodd"
     d="m 15.040072,13.252501 9.866269,9.299464 -7.183044,7.428814 -8.7878123,-9.636762 -1.12e-4,-0.1104 6.0572243,-6.956268 z"
     fill="#7c7973"
     id="path10" />
  <path
     d="m 27.289352,55.184656 13.28652,0.602479 -5.55844,-14.776051 -4.840999,-1.666774 -8.79375,4.672152 z"
     fill="#7c7973"
     id="path11" />
  <path
     fill-rule="evenodd"
     clip-rule="evenodd"
     d="m 6.3297092,49.650884 15.1207158,-5.593491 7.25498,10.982022 3.119288,9.714231 0.358396,6.187138 -0.164167,0.03237 -15.604979,-1.346919 -1.840877,-1.156527 z"
     fill="#706c64"
     id="path12" />
  <path
     fill-rule="evenodd"
     clip-rule="evenodd"
     d="M 49.248928,10.931986 48.787087,19.63706 40.091579,26.315513 27.499077,10.89282 27.494852,6.7419924 27.661064,6.6551032 49.020516,10.625918 Z"
     fill="#706c64"
     id="path13" />
  <path
     fill-rule="evenodd"
     clip-rule="evenodd"
     d="M 71.691869,37.335559 66.475296,23.813461 61.994682,15.498616 58.155928,11.419021 56.284681,11.078626 52.168668,5.5661315 26.789354,0.84795341 11.495283,8.8436762 3.3845579,18.158365 l 0.00826,8.116496 -2.65136571,5.930701 0.018892,18.56319 9.41427681,21.492031 4.424131,2.779299 17.724066,1.529863 13.160367,-2.593695 7.281176,-6.611413 7.873444,-4.087615 0.878237,-9.004398 5.737898,-8.484844 z m -12.16828,-0.702217 -1.810392,3.448044 -6.971113,10.3084 -0.566885,5.81248 -3.805191,1.975574 -6.062701,5.504972 -8.592281,1.693446 -12.926642,-1.115746 -6.930405,-15.821655 -0.01412,-13.870493 2.651366,-5.930701 -0.0064,-6.328797 4.003623,-4.597876 10.039863,-5.248821 17.33949,3.223556 4.131032,5.532498 2.572678,0.467883 0.337966,0.359156 3.457932,6.417084 z"
     fill="#000000"
     id="path14" />
</svg>
