<?xml version="1.0" encoding="UTF-8" standalone="no"?>
<svg
   width="77"
   height="77"
   viewBox="0 0 77 77"
   fill="none"
   version="1.1"
   id="svg5"
   sodipodi:docname="player-fists-gift-puch.svg"
   inkscape:version="1.4.2 (f4327f4, 2025-05-13)"
   xmlns:inkscape="http://www.inkscape.org/namespaces/inkscape"
   xmlns:sodipodi="http://sodipodi.sourceforge.net/DTD/sodipodi-0.dtd"
   xmlns="http://www.w3.org/2000/svg"
   xmlns:svg="http://www.w3.org/2000/svg">
  <defs
     id="defs5" />
  <sodipodi:namedview
     id="namedview5"
     pagecolor="#ffffff"
     bordercolor="#000000"
     borderopacity="0.25"
     inkscape:showpageshadow="2"
     inkscape:pageopacity="0.0"
     inkscape:pagecheckerboard="0"
     inkscape:deskcolor="#d1d1d1"
     inkscape:zoom="3.5493087"
     inkscape:cx="3.9444301"
     inkscape:cy="38.458193"
     inkscape:window-width="1920"
     inkscape:window-height="991"
     inkscape:window-x="-9"
     inkscape:window-y="-9"
     inkscape:window-maximized="1"
     inkscape:current-layer="svg5" />
  <rect
     x="-11.511967"
     y="-76.88916"
     width="8.4489803"
     height="29.4121"
     rx="4.2244902"
     transform="rotate(135.12241)"
     fill="#70e5ff"
     id="rect1" />
  <rect
     x="57.958214"
     y="-21.993553"
     width="8.4489803"
     height="29.4121"
     rx="4.2244902"
     transform="rotate(45.122413)"
     fill="#70e5ff"
     id="rect2" />
  <rect
     x="20.881554"
     y="-43.010937"
     width="35.745701"
     height="27.2967"
     fill="#2b5ad2"
     id="rect3"
     transform="rotate(90.122413)" />
  <rect
     x="17.632053"
     y="-50.810738"
     width="42.2449"
     height="10.3987"
     fill="#0636b1"
     id="rect4"
     transform="rotate(90.122413)" />
  <rect
     x="34.529957"
     y="-50.810738"
     width="8.4489803"
     height="35.095798"
     fill="#28c7ea"
     id="rect5"
     transform="rotate(90.122413)" />
  <path
     fill-rule="evenodd"
     clip-rule="evenodd"
     d="m 58.74858,43.290271 c 0.843901,0.842905 1.232101,1.966637 1.164449,3.067195 -0.05801,0.942778 -0.450394,1.869042 -1.176532,2.587992 -1.572931,1.557543 -4.118026,1.552405 -5.685489,-0.01135 l -7.98e-4,-8.02e-4 -2.598759,-2.596058 -0.02709,12.681671 -9.896577,-0.02114 0.0066,-3.076293 -23.506146,-0.05022 0.07229,-33.834622 23.506147,0.05022 0.0066,-3.075793 9.896577,0.02114 -0.02735,12.800071 2.609226,-2.583931 c 1.574033,-1.558341 4.119429,-1.553503 5.686889,0.01155 0.722659,0.721845 1.110778,1.649577 1.164763,2.592594 0.06295,1.100937 -0.32955,2.222801 -1.176845,3.062193 l -4.219337,4.178795 z m 7.442027,13.10043 c 4.714786,-4.668638 5.548889,-11.746372 2.493878,-17.267412 z m -0.0011,0.0011 c -1.527134,1.511941 -3.306301,2.617842 -5.202301,3.318093 l -0.02102,9.838178 -31.02513,-0.06629 0.0066,-3.076293 -23.5061464,-0.05022 0.1171832,-54.847775 23.5061462,0.05022 0.0066,-3.0757929 31.025129,0.066286 -0.02127,9.9569772 c 1.89299,0.708446 3.667515,1.82204 5.188075,3.340292 l 0.0011,0.0011 c 4.694483,4.688841 5.497238,11.769372 2.420074,17.27671"
     fill="#000000"
     id="path5" />
</svg>
