<?xml version="1.0" encoding="UTF-8" standalone="no"?>
<svg
   width="78"
   height="78"
   viewBox="0 0 78 78"
   fill="none"
   version="1.1"
   id="svg25"
   sodipodi:docname="player-fists-horsepower-r.svg"
   inkscape:version="1.4.2 (f4327f4, 2025-05-13)"
   xmlns:inkscape="http://www.inkscape.org/namespaces/inkscape"
   xmlns:sodipodi="http://sodipodi.sourceforge.net/DTD/sodipodi-0.dtd"
   xmlns="http://www.w3.org/2000/svg"
   xmlns:svg="http://www.w3.org/2000/svg">
  <defs
     id="defs25" />
  <sodipodi:namedview
     id="namedview25"
     pagecolor="#ffffff"
     bordercolor="#000000"
     borderopacity="0.25"
     inkscape:showpageshadow="2"
     inkscape:pageopacity="0.0"
     inkscape:pagecheckerboard="0"
     inkscape:deskcolor="#d1d1d1"
     inkscape:zoom="3.5038048"
     inkscape:cx="-32.250655"
     inkscape:cy="34.391186"
     inkscape:window-width="1920"
     inkscape:window-height="991"
     inkscape:window-x="-9"
     inkscape:window-y="-9"
     inkscape:window-maximized="1"
     inkscape:current-layer="svg25" />
  <path
     d="M 50.711464,11.040019 C 47.606768,9.9317988 44.358923,9.3583819 41.020343,9.3300139 24.978522,9.1937057 11.576213,22.072195 11.148307,37.959532 c -0.0079,0.121137 -0.01297,0.243299 -0.014,0.364394 l -0.0015,0.176394 c -0.001,0.120196 0.0019,0.244325 0.0055,0.286757 0.160203,15.971138 13.341734,29.075511 29.383555,29.211819 3.33258,0.02832 6.589725,-0.492827 9.71882,-1.549978 l -0.07062,8.3118 17.196057,-4.923867 0.234573,-27.606403 -10.690522,-0.08984 -0.166344,0.0045 c -3.266605,0.127849 -4.478045,2.940257 -5.003948,4.162433 l -0.001,0.003 c -0.347184,0.56157 -1.296758,1.213625 -2.824882,1.939568 -1.484449,0.705612 -3.128212,1.070959 -4.753954,1.057145 -5.906386,-0.05019 -10.725395,-4.847906 -10.744288,-10.651076 0.117181,-5.881917 5.018272,-10.626545 10.924659,-10.576358 1.624741,0.01381 3.263051,0.40804 4.734312,1.136767 1.519533,0.755839 2.458899,1.422944 2.791549,1.983391 l 0.01067,0.02769 c 0.497344,1.209169 1.661826,4.040766 5.01784,4.229888 l 10.76367,0.09636 0.23459,-27.6083332 -17.109904,-5.2154368 -0.07061,8.3099 z m 8.177758,-0.219224 3.571988,1.08759 -0.154865,18.225642 -3.59877,-0.03058 z m -1.07644,-0.141151 -0.184655,19.519035 -0.0085,0.87976 c -0.141035,0.168208 -0.346773,0.277764 -0.584164,0.263946 -0.616236,-0.03374 -0.913751,-0.656988 -1.331497,-1.677274 -0.03781,-0.09302 -0.06687,-0.168074 -0.08735,-0.206749 -0.926171,-1.866937 -2.89343,-3.033495 -4.695798,-3.927641 -2.032905,-1.00841 -4.295378,-1.550753 -6.546497,-1.569881 -8.162405,-0.06936 -14.934357,6.486941 -15.097424,14.614849 0.02508,8.111706 6.685642,14.78214 14.847047,14.851487 2.250119,0.01912 4.522482,-0.484691 6.572238,-1.45941 1.817301,-0.86339 3.804091,-1.995349 4.763852,-3.846261 0.01912,-0.03734 0.04945,-0.111984 0.08885,-0.205153 0.436007,-1.011132 0.743078,-1.630245 1.359798,-1.653506 0.236601,-0.01089 0.441431,0.104155 0.579586,0.274835 l -0.0067,0.903376 -0.146848,19.494756 -0.01022,1.30926 0.691507,-0.198031 0.04896,0.169822 -3.710925,1.058207 0.07948,-9.354262 -0.05571,0.03603 c -4.168535,2.610975 -8.94379,3.96245 -13.823014,3.920991 -11.92447,-0.101323 -21.97837,-8.500152 -24.605088,-19.631072 0.42599,0.520838 1.007537,0.906093 1.780794,1.09097 0.302203,0.07157 0.623381,0.122601 0.989568,0.125713 0.509581,0.0043 0.81527,0.0069 1.063172,-0.05107 0.425364,-0.09989 0.671433,-0.40121 0.675075,-0.829794 0.0019,-0.225592 -0.05836,-0.475314 -0.147145,-0.854482 -0.197727,-0.84501 -0.567279,-2.417607 -0.543287,-5.241105 0.02244,-2.640305 0.339956,-4.136161 0.528667,-5.03109 0.08551,-0.401288 0.142179,-0.667816 0.144146,-0.899307 0.0082,-0.959566 -0.821016,-0.966611 -1.783782,-0.974792 -0.301789,-0.0026 -0.572281,0.03064 -0.828015,0.08067 -0.76717,0.146186 -1.350121,0.502846 -1.781775,1.001697 2.814493,-11.085687 13.009688,-19.315458 24.936157,-19.214118 4.879224,0.04146 9.628824,1.473967 13.738574,4.145383 l 0.06889,0.04889 0.07951,-9.3571822 3.696375,1.1250278 -0.05296,0.1719962 -0.689833,-0.210819 z m 0.747619,36.850382 3.59887,0.03058 -0.154848,18.223742 -3.589961,1.027634 z M 18.648861,32.653671 c 0.26419,0.0022 0.53128,0.0045 0.701349,0.02076 -0.01994,0.133835 -0.0602,0.3296 -0.107627,0.555806 -0.197937,0.933251 -0.529818,2.494988 -0.553182,5.244589 -0.02509,2.952593 0.363576,4.606155 0.571834,5.494657 0.03532,0.151005 0.06967,0.298102 0.0934,0.412608 -0.16327,0.0075 -0.396862,0.0055 -0.623453,0.0036 -2.740901,-0.02329 -2.94369,-2.944318 -2.918275,-5.93531 0.02402,-2.944602 0.26324,-5.817573 2.835956,-5.796713 z m 0.729922,11.922732 c 8e-6,-10e-4 1.7e-5,-0.002 3.4e-5,-0.004 l 0.53728,0.0046 10e-4,8e-6 -10e-4,-8e-6 z"
     fill="#010101"
     id="path1" />
  <path
     d="m 56.209434,20.35277 -2.288349,-1.569301 c -3.861807,-2.510603 -8.344877,-3.863043 -12.949011,-3.902165 -10.762812,-0.09145 -20.031062,7.007254 -23.143203,16.779064 0.256734,-0.05002 0.527126,-0.08322 0.828015,-0.08067 0.962765,0.0082 1.791935,0.01523 1.783782,0.974792 -0.002,0.231492 -0.05863,0.49802 -0.144146,0.899308 -0.189711,0.89492 -0.506241,2.391785 -0.528666,5.030989 -0.02399,2.823498 0.345559,4.396195 0.543286,5.241206 0.08978,0.379076 0.148953,0.629888 0.147045,0.85448 -0.0036,0.428484 -0.249602,0.728905 -0.674974,0.829695 -0.247902,0.058 -0.554591,0.05539 -1.063272,0.05107 -0.366087,-0.0031 -0.687266,-0.05404 -0.989469,-0.125612 2.964717,9.790844 12.097444,17.017404 22.837457,17.108662 4.603133,0.03911 9.108538,-1.236952 13.027334,-3.691343 l 2.300802,-1.520406 -0.08613,10.136434 1.524746,-0.43436 0.146846,-19.494656 c -0.05403,0.06154 -0.113892,0.116237 -0.184441,0.157039 -0.130403,0.199899 -0.34939,0.703456 -0.423102,0.881136 -0.05956,0.136499 -0.10598,0.244409 -0.134131,0.297371 -1.161113,2.244416 -3.508696,3.574217 -5.423405,4.485081 -2.24446,1.068568 -4.735951,1.621818 -7.204762,1.600841 C 35.164609,54.7854 27.865269,47.474015 27.838072,38.564263 28.01681,29.639459 35.441338,22.453184 44.386415,22.529191 c 2.467811,0.02097 4.949549,0.615477 7.176519,1.723039 1.899879,0.940277 4.223601,2.312771 5.346407,4.576592 0.02625,0.05343 0.07283,0.161225 0.129067,0.298608 0.07167,0.180915 0.281072,0.687113 0.408068,0.888199 0.07482,0.04504 0.126624,0.11538 0.181536,0.184849 l 0.184655,-19.519035 -1.516137,-0.461099 -0.0861,10.132434 z m -5.867468,-0.770083 c -0.01107,1.303353 -1.084853,2.355368 -2.393905,2.344245 -1.310153,-0.01113 -2.365799,-1.081241 -2.354724,-2.384594 0.01108,-1.303353 1.085744,-2.35436 2.394896,-2.343236 1.308053,0.01112 2.364807,1.080232 2.353733,2.383585 z M 47.62142,60.25094 c -1.310153,-0.01113 -2.3658,-1.081141 -2.354724,-2.384594 0.01108,-1.304353 1.085752,-2.35536 2.394905,-2.344236 1.308052,0.01112 2.364807,1.080233 2.353723,2.384585 -0.01017,1.303461 -1.083852,2.355376 -2.393904,2.344245 z M 30.918108,57.027199 c 0.01107,-1.303352 1.085735,-2.353359 2.395888,-2.342227 1.308061,0.01011 2.363824,1.078224 2.35274,2.382577 -0.01107,1.303353 -1.084852,2.355367 -2.392904,2.344253 -1.310153,-0.01113 -2.366799,-1.08125 -2.355724,-2.384603 z m -3.71421,-3.215874 c -1.308153,-0.01112 -2.365799,-1.081141 -2.354732,-2.383594 0.01107,-1.303353 1.086761,-2.356351 2.394913,-2.345236 1.310061,0.01023 2.36669,1.082249 2.355616,2.385602 -0.01106,1.301453 -1.085744,2.354359 -2.395797,2.343228 z m -2.13557,-28.176263 c 0.01109,-1.305353 1.08676,-2.356351 2.394913,-2.345235 1.310053,0.01113 2.366707,1.080248 2.355615,2.385601 -0.01107,1.303353 -1.085743,2.354359 -2.395796,2.343228 -1.308153,-0.01112 -2.365807,-1.080241 -2.354732,-2.383594 z m 8.560147,-7.84275 c 1.308052,0.01112 2.363807,1.080224 2.352731,2.383677 -0.01107,1.303353 -1.084851,2.355267 -2.392904,2.344153 -1.310153,-0.01113 -2.366799,-1.081149 -2.355725,-2.384502 0.01108,-1.303453 1.084745,-2.354468 2.395898,-2.343328 z m 9.415397,0.617023 c -0.01107,1.303353 -1.084744,2.354368 -2.393897,2.343244 -1.308052,-0.01111 -2.363807,-1.080223 -2.352732,-2.383576 0.01107,-1.303353 1.084835,-2.353368 2.392888,-2.342253 1.309161,0.01012 2.364815,1.079232 2.353741,2.382585 z M 37.951725,58.91463 c 0.01107,-1.303452 1.084852,-2.355367 2.393005,-2.344251 1.309052,0.01112 2.364799,1.081132 2.353723,2.384585 -0.01108,1.304353 -1.084852,2.355367 -2.393904,2.344244 -1.308153,-0.01112 -2.363907,-1.080225 -2.352824,-2.384578 z"
     fill="#758b94"
     id="path2" />
  <path
     d="M 58.566375,9.412661 54.87,8.2876332 l -0.07951,9.3571818 -0.06889,-0.04889 c -4.10975,-2.671416 -8.85935,-4.103923 -13.738574,-4.145382 -11.92647,-0.10134 -22.121655,8.127431 -24.936158,19.214117 0.432654,-0.498842 1.014606,-0.85551 1.781776,-1.001697 3.11214,-9.77171 12.38039,-16.870416 23.143202,-16.778964 4.604134,0.03912 9.087205,1.391462 12.949012,3.902166 l 2.288349,1.5692 0.08611,-10.134434 1.516136,0.461199 0.01211,-1.3073048 0.689834,0.210829 z"
     fill="#20343c"
     id="path3" />
  <path
     d="m 55.894867,57.232328 -2.300802,1.520406 c -3.917696,2.454401 -8.423201,3.730464 -13.027335,3.691343 -10.740012,-0.09126 -19.872739,-7.317818 -22.837456,-17.108662 -0.773257,-0.184877 -1.354813,-0.569132 -1.780794,-1.09107 2.626718,11.13092 12.679618,19.52984 24.605087,19.631172 4.879224,0.04146 9.653481,-1.310124 13.823016,-3.921091 l 0.05571,-0.03593 -0.07948,9.354162 3.710925,-1.058107 -0.04896,-0.169922 -0.691409,0.198132 0.01013,-1.309361 -1.524746,0.43436 z"
     fill="#20343c"
     id="path4" />
  <path
     d="m 57.038229,29.124928 c -0.05623,-0.137382 -0.10182,-0.245174 -0.129067,-0.298607 -1.122706,-2.263821 -3.447436,-3.635323 -5.346307,-4.576592 -2.227078,-1.106562 -4.707808,-1.702062 -7.176619,-1.72304 -8.945077,-0.07601 -16.369505,7.11027 -16.548243,16.035073 0.0272,8.909753 7.326437,16.221136 16.273514,16.29716 2.467811,0.02097 4.960302,-0.532273 7.204862,-1.60084 1.9156,-0.909856 4.262293,-2.240665 5.423305,-4.485081 0.02715,-0.05297 0.07457,-0.160872 0.134131,-0.297371 0.07382,-0.178679 0.292799,-0.681237 0.423102,-0.881137 0.07065,-0.0408 0.130524,-0.09639 0.184441,-0.157039 l 0.0067,-0.903375 c -0.138046,-0.17168 -0.342884,-0.285724 -0.579485,-0.274934 -0.61672,0.02336 -0.924791,0.642365 -1.359898,1.653505 -0.03939,0.09327 -0.06973,0.167913 -0.08885,0.205152 -0.959771,1.852012 -2.94656,2.983872 -4.763853,3.846262 -2.049756,0.974719 -4.32112,1.478638 -6.572238,1.45951 -8.161406,-0.06935 -14.821868,-6.739881 -14.846946,-14.851587 0.163066,-8.127808 6.935018,-14.684205 15.097324,-14.614849 2.250118,0.01912 4.512691,0.561563 6.546596,1.569981 1.802259,0.895146 3.769519,2.061603 4.695697,3.92764 0.02047,0.03858 0.04954,0.113725 0.08735,0.20665 0.418846,1.020295 0.715361,1.643537 1.331596,1.677375 0.237391,0.01382 0.443138,-0.09674 0.584064,-0.264047 l 0.0085,-0.87976 c -0.05382,-0.06846 -0.105716,-0.139803 -0.181537,-0.184749 -0.126921,-0.198186 -0.335427,-0.704376 -0.408093,-0.8853 z"
     fill="#b2ccd6"
     id="path5" />
  <path
     d="m 49.263611,19.572725 c 0.0061,-0.713275 -0.569804,-1.296489 -1.286279,-1.302577 -0.716474,-0.0061 -1.302166,0.567257 -1.308227,1.280531 -0.0061,0.713374 0.569805,1.296488 1.286279,1.302576 0.716474,0.0061 1.302166,-0.567156 1.308227,-1.28053 z"
     fill="#4e5e62"
     id="path6" />
  <path
     d="m 47.986945,17.197691 c -1.309153,-0.01112 -2.383821,1.039883 -2.394896,2.343236 -0.01108,1.303353 1.044571,2.373461 2.354724,2.384594 1.309052,0.01112 2.38283,-1.040892 2.393904,-2.344245 0.01107,-1.303353 -1.044679,-2.372462 -2.353732,-2.383585 z m 1.276171,2.374429 c -0.0061,0.713275 -0.592853,1.286609 -1.307227,1.280539 -0.715474,-0.0061 -1.29134,-0.589293 -1.285279,-1.302567 0.0061,-0.712275 0.591753,-1.286619 1.307228,-1.280539 0.715374,0.0061 1.291322,0.591293 1.285278,1.302567 z"
     fill="#010101"
     id="path7" />
  <path
     d="m 41.965609,18.400373 c 0.0061,-0.712774 -0.569313,-1.295484 -1.285187,-1.301567 -0.715974,-0.0061 -1.301163,0.566765 -1.307219,1.279539 -0.0061,0.712774 0.569313,1.295484 1.285287,1.301568 0.715874,0.0061 1.301063,-0.566766 1.307119,-1.27954 z"
     fill="#4e5e62"
     id="path8" />
  <path
     d="m 38.296047,18.368492 c -0.01107,1.303453 1.044679,2.372562 2.352732,2.383677 1.309153,0.01112 2.382822,-1.039891 2.393897,-2.343344 0.01107,-1.303353 -1.044579,-2.372461 -2.353741,-2.382585 -1.308052,-0.01112 -2.381813,1.0389 -2.392888,2.342252 z m 2.362839,1.311824 c -0.714374,-0.0061 -1.291331,-0.590293 -1.285278,-1.302667 0.006,-0.711275 0.592845,-1.28561 1.30722,-1.27954 0.715474,0.0061 1.293331,0.590311 1.287287,1.301585 -0.0071,0.712366 -0.594754,1.286693 -1.309229,1.280622 z"
     fill="#010101"
     id="path9" />
  <path
     d="m 34.904439,20.16754 c 0.0061,-0.712175 -0.568922,-1.294481 -1.284296,-1.30056 -0.715374,-0.0061 -1.300159,0.566374 -1.306211,1.278548 -0.0061,0.712274 0.568921,1.294581 1.284295,1.300659 0.715375,0.0061 1.30016,-0.566373 1.306212,-1.278647 z"
     fill="#4e5e62"
     id="path10" />
  <path
     d="m 33.587684,22.522237 c 1.308053,0.01111 2.38183,-1.0408 2.392905,-2.344253 0.01107,-1.303353 -1.044679,-2.372462 -2.352732,-2.383577 -1.310153,-0.01113 -2.384822,1.039875 -2.395897,2.343228 -0.01108,1.303453 1.044571,2.373461 2.355724,2.384602 z m 0.03205,-3.65396 c 0.714374,0.0061 1.290348,0.588285 1.284296,1.300559 -0.0061,0.712275 -0.591846,1.285718 -1.30622,1.279648 -0.715474,-0.0061 -1.292339,-0.589402 -1.286287,-1.301676 0.006,-0.710275 0.592737,-1.28461 1.308211,-1.278531 z"
     fill="#010101"
     id="path11" />
  <path
     d="m 28.740387,25.667164 c 0.0061,-0.713274 -0.568904,-1.296481 -1.286278,-1.302576 -0.715383,-0.0051 -1.301167,0.567265 -1.307228,1.280539 -0.006,0.710274 0.56993,1.293489 1.285304,1.299568 0.717382,0.0052 1.302176,-0.568257 1.308202,-1.277531 z"
     fill="#4e5e62"
     id="path12" />
  <path
     d="m 27.422557,28.018952 c 1.310053,0.01113 2.384822,-1.039875 2.395897,-2.343228 0.01109,-1.305353 -1.045663,-2.37447 -2.355716,-2.385602 -1.308152,-0.01112 -2.383821,1.039883 -2.394913,2.345236 -0.01107,1.303353 1.04658,2.372478 2.354732,2.383594 z m 0.01014,-1.075853 c -0.715474,-0.0061 -1.29134,-0.589294 -1.285304,-1.299568 0.0061,-0.713274 0.591745,-1.285618 1.307227,-1.280539 0.717374,0.0061 1.29234,0.589302 1.286279,1.302576 -0.007,0.710266 -0.591828,1.283618 -1.308202,1.277531 z"
     fill="#010101"
     id="path13" />
  <path
     d="m 58.707878,30.10315 3.59777,0.03057 0.154864,-18.225642 -3.57198,-1.08849 z"
     fill="#4e5e62"
     id="path14" />
  <path
     d="m 48.936963,57.897533 c 0.0061,-0.712175 -0.569021,-1.294482 -1.284296,-1.30056 -0.715374,-0.0061 -1.300159,0.566374 -1.30621,1.278548 -0.0061,0.712174 0.568921,1.294481 1.284296,1.300559 0.715274,0.0061 1.300159,-0.566373 1.30621,-1.278547 z"
     fill="#4e5e62"
     id="path15" />
  <path
     d="m 47.661306,55.521508 c -1.309153,-0.01112 -2.383821,1.039783 -2.394905,2.344236 -0.01108,1.303353 1.044571,2.373461 2.354724,2.384593 1.309052,0.01112 2.38283,-1.040891 2.393904,-2.344244 0.01198,-1.304445 -1.044671,-2.373462 -2.353723,-2.384585 z m 1.276155,2.376329 c -0.006,0.711374 -0.592838,1.284709 -1.307212,1.278639 -0.715474,-0.0061 -1.291348,-0.588294 -1.285295,-1.300668 0.0061,-0.712274 0.591737,-1.284618 1.307219,-1.279539 0.715375,0.0061 1.29134,0.589294 1.285288,1.301568 z"
     fill="#010101"
     id="path16" />
  <path
     d="m 41.621109,58.943809 c 0.0061,-0.712774 -0.569313,-1.295484 -1.285187,-1.301567 -0.715974,-0.0061 -1.301163,0.566765 -1.307219,1.27954 -0.0061,0.712774 0.569313,1.295484 1.285287,1.301567 0.715874,0.0061 1.301063,-0.566765 1.307119,-1.27954 z"
     fill="#4e5e62"
     id="path17" />
  <path
     d="m 42.699151,58.95527 c 0.01107,-1.303353 -1.044571,-2.373462 -2.353724,-2.384585 -1.308153,-0.01112 -2.38183,1.040899 -2.392905,2.344252 -0.01108,1.304353 1.044571,2.373461 2.352724,2.384577 1.309153,0.01112 2.382822,-1.039891 2.393905,-2.344244 z m -2.362849,-1.310724 c 0.715375,0.0061 1.29334,0.58931 1.287288,1.301585 -0.0061,0.712274 -0.593854,1.2866 -1.309228,1.280522 -0.714374,-0.0061 -1.291331,-0.590294 -1.285279,-1.302568 0.0061,-0.712274 0.592845,-1.285609 1.307219,-1.279539 z"
     fill="#010101"
     id="path18" />
  <path
     d="m 34.59108,57.057809 c 0.0061,-0.712774 -0.569413,-1.295485 -1.285287,-1.301568 -0.715974,-0.0061 -1.301163,0.566765 -1.307219,1.279539 -0.0061,0.712775 0.569313,1.295484 1.285287,1.301568 0.715874,0.0061 1.301163,-0.566765 1.307219,-1.279539 z"
     fill="#4e5e62"
     id="path19" />
  <path
     d="m 33.274233,59.411605 c 1.308053,0.01111 2.38183,-1.0409 2.392905,-2.344253 0.01108,-1.304453 -1.044679,-2.372462 -2.35274,-2.382676 -1.310153,-0.01113 -2.384813,1.038874 -2.395888,2.342327 -0.01108,1.303353 1.044571,2.373461 2.355723,2.384602 z m 0.03205,-3.65406 c 0.714374,0.0061 1.29034,0.589285 1.284295,1.30066 -0.0061,0.713174 -0.591853,1.286617 -1.306228,1.280547 -0.715474,-0.0061 -1.292338,-0.589402 -1.286278,-1.302576 0.006,-0.711374 0.592737,-1.28471 1.308211,-1.278631 z"
     fill="#010101"
     id="path20" />
  <path
     d="m 28.521248,51.457233 c 0.0061,-0.712774 -0.569413,-1.295485 -1.285287,-1.301568 -0.715975,-0.0061 -1.301163,0.566765 -1.307219,1.279539 -0.0061,0.712775 0.569313,1.295484 1.285287,1.301568 0.715874,0.0061 1.301162,-0.566765 1.307219,-1.279539 z"
     fill="#4e5e62"
     id="path21" />
  <path
     d="m 29.599298,51.467693 c 0.01107,-1.303353 -1.045655,-2.37537 -2.355715,-2.385602 -1.308153,-0.01111 -2.383839,1.041883 -2.394914,2.345236 -0.01107,1.302453 1.04658,2.372478 2.354733,2.383593 1.310044,0.01213 2.384829,-1.040774 2.395896,-2.343227 z M 25.92823,51.4365 c 0.0061,-0.712274 0.591754,-1.286619 1.307228,-1.280539 0.717374,0.0061 1.292331,0.590302 1.286279,1.302576 -0.0061,0.712274 -0.591845,1.285618 -1.308219,1.279531 -0.715474,-0.0061 -1.29134,-0.589294 -1.285288,-1.301568 z"
     fill="#010101"
     id="path22" />
  <path
     d="m 58.412753,66.812968 3.589961,-1.027634 0.154848,-18.223742 -3.59777,-0.03057 z"
     fill="#4e5e62"
     id="path23" />
  <path
     d="m 19.378445,44.5691 -4.4e-5,0.0051 0.537281,0.0046 4.3e-5,-0.0051 z"
     fill="#4e5e62"
     id="path24" />
  <path
     d="m 18.729385,44.385079 c 0.226692,0.0019 0.460183,0.0039 0.623552,-0.0035 -0.02283,-0.114498 -0.05818,-0.261604 -0.0935,-0.41271 -0.208158,-0.8885 -0.596922,-2.542063 -0.571834,-5.494557 0.02336,-2.7496 0.354345,-4.311345 0.553182,-5.244689 0.04842,-0.226196 0.0887,-0.422861 0.107726,-0.555705 -0.170068,-0.01624 -0.437259,-0.01852 -0.701449,-0.02076 -2.572716,-0.02086 -2.810934,2.852019 -2.835956,5.796713 -0.02542,2.991892 0.178375,5.911929 2.918276,5.93521 z"
     fill="#4e5e62"
     id="path25" />
</svg>
