<?xml version="1.0" encoding="UTF-8" standalone="no"?>
<svg
   width="77"
   height="77"
   viewBox="0 0 77 77"
   fill="none"
   version="1.1"
   id="svg8"
   sodipodi:docname="player-fists-grizzly-l.svg"
   inkscape:version="1.4.2 (f4327f4, 2025-05-13)"
   xmlns:inkscape="http://www.inkscape.org/namespaces/inkscape"
   xmlns:sodipodi="http://sodipodi.sourceforge.net/DTD/sodipodi-0.dtd"
   xmlns="http://www.w3.org/2000/svg"
   xmlns:svg="http://www.w3.org/2000/svg">
  <sodipodi:namedview
     id="namedview8"
     pagecolor="#ffffff"
     bordercolor="#000000"
     borderopacity="0.25"
     inkscape:showpageshadow="2"
     inkscape:pageopacity="0.0"
     inkscape:pagecheckerboard="0"
     inkscape:deskcolor="#d1d1d1"
     inkscape:zoom="3.5493087"
     inkscape:cx="-2.25396"
     inkscape:cy="54.235913"
     inkscape:window-width="1920"
     inkscape:window-height="991"
     inkscape:window-x="-9"
     inkscape:window-y="-9"
     inkscape:window-maximized="1"
     inkscape:current-layer="svg8" />
  <path
     fill-rule="evenodd"
     clip-rule="evenodd"
     d="m 59.114784,37.962248 c 1.73343,1.825397 2.806228,4.144262 2.894774,6.695659 0.112922,3.258342 -1.402107,6.24414 -3.910275,8.37059 0.157729,0.433927 0.285394,0.883226 0.380292,1.346402 1.152532,5.624885 -2.954754,11.163633 -9.173911,12.371074 -3.220227,0.625233 -6.375197,-0.03339 -8.829204,-1.594782 -2.814058,1.118172 -5.892198,1.737668 -9.118689,1.745314 C 17.942508,66.928295 7.0422608,56.371195 7.0113252,43.316532 6.9804272,30.277668 17.804242,19.67889 31.196943,19.621453 c 2.367353,-3.44082 6.935223,-5.315849 11.636227,-4.391087 4.179661,0.822198 7.378356,3.643926 8.603689,7.116832 2.035533,0.433178 4.027564,1.45686 5.677155,3.054556 3.707318,3.590525 4.44355,8.877895 2.00077,12.560494 z"
     fill="url(#paint0_radial)"
     id="path1"
     style="fill:url(#paint0_radial)" />
  <path
     fill-rule="evenodd"
     clip-rule="evenodd"
     d="m 56.924062,44.834459 c 0.05551,1.607673 -0.672349,3.229402 -2.175919,4.509568 l -2.58579,2.201934 1.143791,3.159699 c 0.07751,0.214017 0.140736,0.437267 0.188188,0.669856 0.539265,2.643129 -1.374418,5.859873 -5.198662,6.605537 -1.920518,0.374452 -3.724687,-0.03257 -5.067825,-0.890893 l -2.215862,-1.415953 -2.451189,0.978211 c -2.218208,0.885159 -4.648747,1.37802 -7.20944,1.384088 -10.60787,0.02514 -19.227162,-8.358961 -19.25173,-18.726432 -0.02454,-10.354871 8.534141,-18.771976 19.123963,-18.817371 l 2.67928,-0.01155 1.490548,-2.175938 c 1.170454,-1.708578 3.636522,-2.864325 6.426036,-2.313134 2.467562,0.487454 4.193144,2.12357 4.819169,3.905591 l 0.921316,2.622224 2.771312,0.592335 c 1.087053,0.232324 2.217095,0.797048 3.187835,1.74125 2.271041,2.209125 2.27879,4.972814 1.318334,6.426994 l -2.121395,3.211937 2.65446,2.807317 c 0.982966,1.039674 1.509561,2.260429 1.55358,3.534729 z m 6.643899,9.697283 c 2.230471,-2.757493 3.570033,-6.227077 3.438639,-10.030977 -0.09008,-2.607394 -0.86301,-5.024769 -2.124998,-7.128384 1.726283,-5.326206 -0.0097,-11.387309 -4.24556,-15.507583 C 58.995957,20.26938 57.094582,19.058682 55.070685,18.260576 52.807639,14.276827 48.739773,11.300059 43.819556,10.327915 38.172296,9.2121043 32.482821,10.959681 28.730575,14.742384 13.728264,16.021738 1.9758383,28.347122 2.0113526,43.33398 2.0488239,59.146736 15.195264,71.934519 31.374718,71.896178 c 3.021292,-0.0072 5.941721,-0.462681 8.691435,-1.303999 3.088456,1.328485 6.641071,1.752368 10.202335,1.057926 8.23272,-1.605213 14.348718,-8.913726 13.299473,-17.118363 z"
     fill="#000000"
     id="path2" />
  <path
     fill-rule="evenodd"
     clip-rule="evenodd"
     d="M 37.548764,19.622501 37.008841,17.587875 40.93558,16.629167 36.940355,13.331925 47.133282,1.9794393 50.94755,16.351341 l -5.213499,1.272858 3.212792,2.651494 -1.529168,1.703129 -4.456228,-3.677751 z"
     fill="#000000"
     id="path3" />
  <path
     fill-rule="evenodd"
     clip-rule="evenodd"
     d="m 51.976491,28.563137 0.293231,-0.577696 3.832568,1.796223 -0.99863,-5.117448 15.854779,-3.741182 -6.781164,13.358307 -5.653495,-2.64971 1.143085,5.858107 -1.969704,0.464769 -1.441306,-7.385705 z"
     fill="#000000"
     id="path4" />
  <path
     fill-rule="evenodd"
     clip-rule="evenodd"
     d="m 55.029937,51.113765 1.703327,1.232967 2.333648,-3.274039 1.617656,4.87478 14.339589,-5.296395 -12.031371,-8.709114 -3.098408,4.346954 -1.300893,-3.920128 -2.151223,0.7946 1.80439,5.437339 z"
     fill="#000000"
     id="path5" />
  <path
     fill-rule="evenodd"
     clip-rule="evenodd"
     d="m 47.059653,63.663187 0.4719,2.067188 4.013101,-0.974613 -2.064021,4.804105 14.605789,5.379604 -3.333311,-14.601943 -5.328149,1.29403 1.65985,-3.863344 -2.191219,-0.80701 -2.302308,5.358471 z"
     fill="#000000"
     id="path6" />
  <defs
     id="defs8">
    <radialGradient
       id="paint0_radial"
       cx="0"
       cy="0"
       r="1"
       gradientUnits="userSpaceOnUse"
       gradientTransform="matrix(-20.369876,22.406597,-34.368478,-31.244441,43.752103,37.01795)">
      <stop
         stop-color="#5C522F"
         id="stop6" />
      <stop
         offset="0.421021"
         stop-color="#483F20"
         id="stop7" />
      <stop
         offset="1"
         stop-color="#483F20"
         id="stop8" />
    </radialGradient>
  </defs>
</svg>
