<?xml version="1.0" encoding="UTF-8" standalone="no"?>
<svg
   version="1.2"
   viewBox="0 0 140 140"
   width="140"
   height="140"
   id="svg7"
   sodipodi:docname="player-base-outfitPolice.svg"
   inkscape:version="1.4.2 (f4327f4, 2025-05-13)"
   xmlns:inkscape="http://www.inkscape.org/namespaces/inkscape"
   xmlns:sodipodi="http://sodipodi.sourceforge.net/DTD/sodipodi-0.dtd"
   xmlns="http://www.w3.org/2000/svg"
   xmlns:svg="http://www.w3.org/2000/svg">
  <sodipodi:namedview
     id="namedview7"
     pagecolor="#ffffff"
     bordercolor="#000000"
     borderopacity="0.25"
     inkscape:showpageshadow="2"
     inkscape:pageopacity="0.0"
     inkscape:pagecheckerboard="0"
     inkscape:deskcolor="#d1d1d1"
     inkscape:zoom="5.5214286"
     inkscape:cx="69.909444"
     inkscape:cy="58.227684"
     inkscape:window-width="1920"
     inkscape:window-height="991"
     inkscape:window-x="-9"
     inkscape:window-y="-9"
     inkscape:window-maximized="1"
     inkscape:current-layer="svg7" />
  <title
     id="title1">player-base-outfitHeaven</title>
  <defs
     id="defs7">
    <linearGradient
       id="g1"
       x2="1"
       gradientUnits="userSpaceOnUse"
       gradientTransform="matrix(67.151,115.312,-115.312,67.151,30.652,15.421)">
      <stop
         offset="0"
         stop-color="#e8e8e8"
         id="stop1" />
      <stop
         offset="1"
         stop-color="#afafaf"
         id="stop2" />
    </linearGradient>
    <radialGradient
       id="g2"
       cx="0"
       cy="0"
       r="1"
       gradientUnits="userSpaceOnUse"
       gradientTransform="matrix(-23.671,-63.712,63.712,-23.671,81.984,84.273)">
      <stop
         offset="0"
         stop-color="#1f2539"
         id="stop3" />
      <stop
         offset=".915"
         stop-color="#000000"
         id="stop4" />
      <stop
         offset="1"
         stop-color="#2d344d"
         id="stop5" />
    </radialGradient>
    <linearGradient
       id="g3"
       x2="1"
       gradientUnits="userSpaceOnUse"
       gradientTransform="matrix(18.087,45.413,-60.489,24.092,65.874,94.587)">
      <stop
         offset="0"
         stop-color="#e8e8e8"
         id="stop6" />
      <stop
         offset="1"
         stop-color="#afafaf"
         id="stop7" />
    </linearGradient>
  </defs>
  <style
     id="style7">
		.s0 { fill: url(#g1) } 
		.s1 { fill: url(#g2) } 
		.s2 { fill: #485875 } 
		.s3 { fill: #acacac } 
		.s4 { fill: url(#g3) } 
		.s5 { fill: #fa0439 } 
		.s6 { fill: #2440e7 } 
	</style>
  <g
     id="Layer 1"
     transform="matrix(0.01506699,-1.051619,1.0517546,0.01506505,-4.3906228,142.67825)">
    <path
       id="ellipse2"
       class="s0"
       d="M 25.8,119.7 C -1.7,95.2 -4.1,53.3 20.3,25.8 44.8,-1.7 86.7,-4.1 114.2,20.3 c 27.5,24.5 29.9,66.4 5.5,93.9 -24.5,27.5 -66.4,29.9 -93.9,5.5 z"
       style="fill:url(#g1)" />
    <path
       id="ellipse2 copy"
       class="s1"
       d="M 36.9,106.8 C 16.3,88.7 14.4,57.6 32.8,37.2 c 18.3,-20.3 49.7,-22.1 70.3,-4 20.6,18.1 22.5,49.2 4.1,69.6 -18.3,20.3 -49.7,22.1 -70.3,4 z"
       style="fill:url(#g2)" />
    <path
       id="Shape 1"
       fill-rule="evenodd"
       class="s2"
       d="m 78,30.1 c 0,0 -29.1,-13.1 -50,28 -2.3,15.4 69.1,-20.7 50,-28 z" />
    <path
       id="Shape 2"
       fill-rule="evenodd"
       class="s2"
       d="M 128,-4" />
    <path
       id="Shape 3"
       fill-rule="evenodd"
       class="s3"
       d="m 55,102 h 33 c 3.3,0 6,2.7 6,6 v 12 c 0,3.3 -2.7,6 -6,6 H 55 c -3.3,0 -6,-2.7 -6,-6 v -12 c 0,-3.3 2.7,-6 6,-6 z" />
    <path
       id="Shape 3 copy"
       fill-rule="evenodd"
       class="s4"
       d="m 55,102 h 33 c 3.3,0 6,2.7 6,6 v 12 c 0,3.3 -2.7,6 -6,6 H 55 c -3.3,0 -6,-2.7 -6,-6 v -12 c 0,-3.3 2.7,-6 6,-6 z"
       style="fill:url(#g3)" />
    <path
       id="Shape 4"
       fill-rule="evenodd"
       class="s5"
       d="m 57,108 h 9 c 1.7,0 3,1.3 3,3 v 6 c 0,1.7 -1.3,3 -3,3 h -9 c -1.7,0 -3,-1.3 -3,-3 v -6 c 0,-1.7 1.3,-3 3,-3 z" />
    <path
       id="Shape 4 copy"
       fill-rule="evenodd"
       class="s6"
       d="m 77,108 h 9 c 1.7,0 3,1.3 3,3 v 6 c 0,1.7 -1.3,3 -3,3 h -9 c -1.7,0 -3,-1.3 -3,-3 v -6 c 0,-1.7 1.3,-3 3,-3 z" />
  </g>
</svg>
