<?xml version="1.0" encoding="UTF-8" standalone="no"?>
<svg
   width="73"
   height="73"
   viewBox="0 0 73 73"
   fill="none"
   version="1.1"
   id="svg2"
   xmlns="http://www.w3.org/2000/svg"
   xmlns:svg="http://www.w3.org/2000/svg">
  <defs
     id="defs2" />
  <path
     d="m 36.327349,66.674851 c 16.8354,0 30.4858,-13.625 30.4892,-30.4324 0.0033,-16.8074 -13.6417,-30.4324205 -30.477,-30.4324205 -16.8353,0 -30.4857995,13.6250205 -30.4891595,30.4324205 -0.00336,16.8074 13.6416595,30.4324 30.4769595,30.4324 z"
     fill="#EEFF5D"
     id="path1"
     style="fill:#917f36;fill-opacity:1" />
  <path
     fill-rule="evenodd"
     clip-rule="evenodd"
     d="m 36.338549,11.357951 c -13.7799,0 -24.9371,11.1498 -24.9399,24.8843 -0.0027,13.7345 11.1501,24.8843 24.93,24.8843 13.7799,0 24.9371,-11.1498 24.9399,-24.8843 0.0027,-13.7345 -11.1501,-24.8843 -24.93,-24.8843 z M 0.30240562,36.242251 C 0.30637959,16.362051 16.450049,0.26169151 36.340749,0.26169151 c 19.8908,0 36.028,16.10035949 36.024,35.98055949 -0.0039,19.8802 -16.1476,35.9806 -36.0383,35.9806 -19.8908,0 -36.02801732,-16.1004 -36.02404338,-35.9806 z"
     fill="#000000"
     id="path2" />
</svg>
