<?xml version="1.0" encoding="UTF-8" standalone="no"?>
<svg
   width="60.96616"
   height="60.864822"
   viewBox="0 0 60.96616 60.864822"
   fill="none"
   version="1.1"
   id="svg2"
   xmlns="http://www.w3.org/2000/svg"
   xmlns:svg="http://www.w3.org/2000/svg">
  <defs
     id="defs2" />
  <path
     d="m 30.476961,60.86482 c 16.8354,0 30.4858,-13.625 30.4892,-30.4324 C 60.969461,13.62502 47.324461,-3.8887358e-8 30.489161,-3.8887358e-8 13.653861,-3.8887358e-8 0.00336055,13.62502 5.4415299e-7,30.43242 -0.00335945,47.23982 13.641661,60.86482 30.476961,60.86482 Z"
     fill="#EEFF5D"
     id="path1"
     style="fill:#7dcaea;fill-opacity:1" />
  <path
     fill-rule="evenodd"
     clip-rule="evenodd"
     d="m 30.488161,5.54792 c -13.7799,0 -24.9371005,11.1498 -24.9399005,24.8843 -0.0027,13.7345 11.1501005,24.8843 24.9300005,24.8843 13.7799,0 24.9371,-11.1498 24.9399,-24.8843 0.0027,-13.7345 -11.1501,-24.8843 -24.93,-24.8843 z m -36.0361443,24.8843 c 0.00397,-19.8802 16.1476443,-35.980559 36.0383443,-35.980559 19.8908,0 36.028,16.100359 36.024,35.980559 -0.0039,19.8802 -16.1476,35.9806 -36.0383,35.9806 -19.8908,0 -36.0280183,-16.1004 -36.0240443,-35.9806 z"
     fill="#000000"
     id="path2" />
</svg>
