<?xml version="1.0" encoding="UTF-8" standalone="no"?>
<svg
   width="78"
   height="78"
   viewBox="0 0 78 78"
   fill="none"
   version="1.1"
   id="svg6"
   sodipodi:docname="player-fists-bad-mitten-l.svg"
   inkscape:version="1.4.2 (f4327f4, 2025-05-13)"
   xmlns:inkscape="http://www.inkscape.org/namespaces/inkscape"
   xmlns:sodipodi="http://sodipodi.sourceforge.net/DTD/sodipodi-0.dtd"
   xmlns="http://www.w3.org/2000/svg"
   xmlns:svg="http://www.w3.org/2000/svg">
  <defs
     id="defs6" />
  <sodipodi:namedview
     id="namedview6"
     pagecolor="#ffffff"
     bordercolor="#000000"
     borderopacity="0.25"
     inkscape:showpageshadow="2"
     inkscape:pageopacity="0.0"
     inkscape:pagecheckerboard="0"
     inkscape:deskcolor="#d1d1d1"
     inkscape:zoom="3.5038048"
     inkscape:cx="-7.7059088"
     inkscape:cy="44.951135"
     inkscape:window-width="1920"
     inkscape:window-height="991"
     inkscape:window-x="-9"
     inkscape:window-y="-9"
     inkscape:window-maximized="1"
     inkscape:current-layer="svg6" />
  <path
     d="m 22.413692,69.991745 c -1.745266,0.252321 -3.371454,0.219074 -4.807505,-0.210039 -4.037996,-1.206757 -5.269414,-5.883374 -6.36928,-9.448631 C 9.5851972,54.978821 7.8982198,47.315263 7.2416874,39.081597 6.5005906,29.787397 7.6030521,21.287374 10.310334,12.474621 13.344909,5.6516398 25.516779,5.2032467 34.124039,5.6137151 52.502752,6.4901512 55.206903,7.1782682 61.739548,15.63614 c 7.948962,10.291737 8.955507,27.097002 7.870455,38.660535 l -1.76e-4,0.0018 c -0.424354,4.477296 -5.764823,8.90991 -8.353449,12.257258 -3.255289,4.208463 -7.882185,1.236129 -11.481603,-0.589748 l -3.273818,5.187634 c -2.332382,3.703809 -8.49468,3.360334 -12.207798,3.150609 -3.783154,-0.213672 -8.435667,-1.184838 -11.879467,-4.312502 z"
     fill="#000000"
     id="path1" />
  <path
     d="m 20.613361,12.115165 28.441028,1.144138 c 0,0 18.074736,5.971518 14.83179,40.502639 l -7.176947,9.281729 -5.111339,-2.595034 0.001,-0.0025 c 0.138895,-0.683704 0.417485,-1.447263 0.711357,-2.253172 0.5482,-1.498816 1.216025,-3.326681 1.064836,-5.222763 -0.102536,-1.285918 -0.584531,-2.605281 -1.737297,-3.868651 -1.344403,-1.475107 -3.332632,-2.495901 -5.509632,-3.082318 L 43.071139,39.64005 c -0.510562,-1.066191 -1.789446,-1.517065 -2.85683,-1.005104 -1.067392,0.511862 -1.515575,1.793039 -1.005204,2.856838 l 1.890457,3.941307 c -2.01364,0.05322 -3.906588,0.447532 -5.328686,1.189816 -1.048366,0.546659 -1.454495,1.839431 -0.906639,2.887701 0.547755,1.048278 1.840627,1.454399 2.888992,0.90774 1.453204,-0.759812 3.963213,-0.9112 6.269498,-0.487375 0.12806,0.04095 0.256224,0.06685 0.389784,0.08368 1.667093,0.357522 3.187264,1.016275 4.062126,1.972361 1.001361,1.101993 0.728409,2.233168 -0.186164,4.738289 -0.206701,0.569331 -0.405639,1.158006 -0.586239,1.757759 l -6.06375,9.609784 c 0,0 -13.329247,2.693902 -17.021274,-4.52939 0,0 -5.211186,1.694674 -5.943201,0.261724 -3.132037,-6.131047 -9.8071514,-32.688099 -3.046512,-49.163498 0.456544,-1.113411 3.266328,-2.408074 4.985864,-2.54652 z m 0.793431,5.896952 c 0.02411,-0.135445 0.02838,-0.270612 0.018,-0.400799 -0.05695,-0.714233 -0.588744,-1.325798 -1.327777,-1.454062 -0.872984,-0.149985 -1.706076,0.435586 -1.854865,1.308475 -4.924542,28.530297 2.518,43.160614 2.837373,43.769054 0.41077,0.785936 1.382139,1.089086 2.16678,0.678419 0.785928,-0.41087 1.089173,-1.381043 0.678212,-2.169372 -0.07358,-0.140195 -7.255581,-14.272144 -2.517722,-41.731715 z"
     fill="#583111"
     id="path2" />
  <path
     d="m 38.910015,68.455971 c -1.175019,-0.729712 -2.095305,-1.807573 -2.749457,-2.793698 -1.992414,-3.00193 1.053405,-12.333453 4.965001,-15.961546 0.939956,-0.02539 1.93561,0.05141 2.895872,0.227842 0.128061,0.04095 0.256232,0.06694 0.389793,0.08378 1.667092,0.357522 3.187255,1.016175 4.062118,1.972262 1.001361,1.101993 0.728409,2.233167 -0.186256,4.738396 -0.206601,0.569323 -0.40554,1.157999 -0.586147,1.757651 l -6.06375,9.609784 c 0,0 -1.087467,0.219833 -2.727174,0.365527 z"
     fill="#894d20"
     id="path3" />
  <path
     d="m 49.227461,47.24327 -0.861052,-3.136784 c 0,0 2.639884,-23.416521 -3.52903,-31.019137 l 4.215715,0.169549 c 0,0 18.074733,5.971619 14.831698,40.502747 l -7.176847,9.281721 -5.111339,-2.595034 9.98e-4,-0.0026 c 0.138767,-0.68279 0.416738,-1.445297 0.710299,-2.250077 l 0.0011,-0.003 c 0.548193,-1.498915 1.216026,-3.326681 1.064837,-5.222763 -0.102536,-1.285918 -0.584531,-2.605281 -1.737298,-3.868651 -0.664231,-0.728809 -1.485442,-1.34669 -2.409046,-1.855988 z"
     fill="#894d20"
     id="path4" />
  <path
     d="m 21.407092,18.009585 c 0.02411,-0.135445 0.02828,-0.270604 0.0179,-0.400791 -0.05696,-0.714333 -0.588644,-1.325806 -1.327678,-1.45407 -0.873091,-0.150077 -1.706182,0.435495 -1.854963,1.308483 -4.924444,28.530289 2.518099,43.160606 2.837372,43.769054 0.410869,0.785928 1.382239,1.089078 2.166871,0.678312 0.785937,-0.41077 1.089182,-1.380943 0.678114,-2.169364 -0.07357,-0.140096 -7.255474,-14.272053 -2.517615,-41.731624 z"
     fill="#010101"
     id="path5" />
  <path
     d="m 58.601587,28.304744 c -0.01038,-0.130187 -0.0421,-0.262484 -0.09714,-0.38911 -3.43304,-8.027623 -9.107337,-11.75088 -18.976748,-12.446408 l -0.361418,-0.02485 c -4.750363,-0.337585 -9.238382,-0.654857 -14.189965,-0.26003 -0.685724,0.05468 -1.195863,0.65322 -1.141185,1.338944 0.05468,0.685723 0.65322,1.195862 1.338944,1.141184 4.764378,-0.3799 9.162094,-0.06787 13.816968,0.261081 l 0.361319,0.02486 c 8.923307,0.631226 13.809698,3.800758 16.865327,10.944984 0.26992,0.631143 0.999676,0.924867 1.632114,0.654843 0.50431,-0.217473 0.793112,-0.727141 0.75178,-1.245496 z"
     fill="#b28832"
     id="path6" />
</svg>
