<?xml version="1.0" encoding="UTF-8" standalone="no"?>
<svg
   width="77"
   height="77"
   viewBox="0 0 77 77"
   fill="none"
   version="1.1"
   id="svg8"
   sodipodi:docname="player-fists-grizzly-r.svg"
   inkscape:version="1.4.2 (f4327f4, 2025-05-13)"
   xmlns:inkscape="http://www.inkscape.org/namespaces/inkscape"
   xmlns:sodipodi="http://sodipodi.sourceforge.net/DTD/sodipodi-0.dtd"
   xmlns="http://www.w3.org/2000/svg"
   xmlns:svg="http://www.w3.org/2000/svg">
  <sodipodi:namedview
     id="namedview8"
     pagecolor="#ffffff"
     bordercolor="#000000"
     borderopacity="0.25"
     inkscape:showpageshadow="2"
     inkscape:pageopacity="0.0"
     inkscape:pagecheckerboard="0"
     inkscape:deskcolor="#d1d1d1"
     inkscape:zoom="3.5493087"
     inkscape:cx="24.79356"
     inkscape:cy="49.446248"
     inkscape:window-width="1920"
     inkscape:window-height="991"
     inkscape:window-x="-9"
     inkscape:window-y="-9"
     inkscape:window-maximized="1"
     inkscape:current-layer="svg8" />
  <path
     fill-rule="evenodd"
     clip-rule="evenodd"
     d="m 58.442689,38.573337 c 1.478053,-2.037698 2.236264,-4.477605 1.988178,-7.018456 -0.316984,-3.244851 -2.211874,-6.005231 -4.978138,-7.783005 0.09924,-0.450914 0.166644,-0.913109 0.199744,-1.384747 C 56.054526,16.659476 51.25387,11.709603 44.929889,11.331349 41.65538,11.135463 38.614566,12.203672 36.387453,14.074514 33.450689,13.336511 30.317785,13.127608 27.118366,13.544758 13.815661,15.279207 4.3999878,27.179327 6.0878155,40.124459 7.7736004,53.053923 19.89843,62.13564 33.182146,60.429585 c 2.799696,3.099242 7.574641,4.356648 12.113002,2.821101 4.035055,-1.365247 6.834467,-4.583491 7.59197,-8.187476 1.960796,-0.697362 3.800736,-1.974363 5.225654,-3.775305 3.202406,-4.047304 3.236211,-9.385579 0.329917,-12.714568 z"
     fill="url(#paint0_radial)"
     id="path1"
     style="fill:url(#paint0_radial)" />
  <path
     fill-rule="evenodd"
     clip-rule="evenodd"
     d="M 55.366385,32.049312 C 55.209781,30.448323 54.274774,28.93652 52.615769,27.865421 l -2.853147,-1.842383 0.7179,-3.282769 c 0.04866,-0.222357 0.08195,-0.451989 0.09837,-0.688799 0.186635,-2.691117 -2.133842,-5.627954 -6.022964,-5.863712 -1.953098,-0.11838 -3.687987,0.522602 -4.906449,1.55026 l -2.010185,1.695324 -2.558628,-0.647029 C 32.765242,18.200859 30.290975,18.032239 27.751767,18.363309 17.232899,19.734792 9.792283,29.18056 11.132685,39.461045 12.471459,49.729036 22.063671,56.946244 32.567314,55.597217 l 2.657485,-0.341247 1.764014,1.960789 c 1.385183,1.539634 3.981932,2.360694 6.674613,1.447093 2.381921,-0.808038 3.877111,-2.657069 4.263106,-4.505992 l 0.568114,-2.720685 2.669221,-0.951991 c 1.047011,-0.373401 2.092879,-1.081967 2.930878,-2.145739 1.960473,-2.488857 1.604348,-5.229516 0.460823,-6.544608 l -2.525748,-2.904729 2.26181,-3.132316 c 0.837552,-1.160022 1.198865,-2.439475 1.074755,-3.70848 z m 5.309548,-10.487487 c 2.574054,2.439882 4.358689,5.702935 4.729177,9.491029 0.253937,2.596561 -0.194048,5.094647 -1.168138,7.346083 2.412394,5.052611 1.489406,11.289489 -2.167222,15.931511 -1.415795,1.797433 -3.141249,3.247888 -5.042472,4.305472 C 55.308339,62.882904 51.66773,66.369256 46.9183,67.980629 41.467068,69.830135 35.597055,68.846709 31.379513,65.590864 16.339343,66.297522 3.0666962,55.626465 1.1290566,40.76535 -0.91536276,25.085268 10.433315,10.678211 26.47702,8.5863813 c 2.995942,-0.3906205 5.950914,-0.3235527 8.787455,0.1485163 2.8867,-1.7234836 6.3526,-2.6113378 9.974284,-2.3917784 8.37239,0.5075528 15.397244,6.9473468 15.437174,15.2187058 z"
     fill="#000000"
     id="path2" />
  <path
     fill-rule="evenodd"
     clip-rule="evenodd"
     d="m 39.478554,59.592402 -0.26739,2.087996 4.018771,0.433455 -3.526414,3.794474 11.598648,9.911914 1.889182,-14.748938 -5.335686,-0.575485 2.835795,-3.051347 -1.740058,-1.487011 -3.933316,4.232357 z"
     fill="#000000"
     id="path3" />
  <path
     fill-rule="evenodd"
     clip-rule="evenodd"
     d="m 52.733087,49.821935 0.366727,0.534069 3.562763,-2.285105 -0.316287,5.204373 16.209291,1.621528 -8.480618,-12.349399 -5.255494,3.370869 0.361986,-5.957604 -2.013744,-0.201435 -0.456522,7.511164 z"
     fill="#000000"
     id="path4" />
  <path
     fill-rule="evenodd"
     clip-rule="evenodd"
     d="m 52.662146,26.073989 1.526198,-1.44646 2.744329,2.93835 0.961871,-5.045304 14.912012,3.362665 -10.780219,10.217115 -3.64367,-3.901257 -0.773534,4.057262 -2.237102,-0.504502 1.072925,-5.627549 z"
     fill="#000000"
     id="path5" />
  <path
     fill-rule="evenodd"
     clip-rule="evenodd"
     d="m 43.109235,14.682969 0.19566,-2.111417 4.106488,0.437952 -2.678469,-4.4906335 13.770529,-7.2554315 -1.38203,14.913652 -5.452225,-0.581368 2.15397,3.611225 -2.065818,1.088423 -2.987666,-5.008868 z"
     fill="#000000"
     id="path6" />
  <defs
     id="defs8">
    <radialGradient
       id="paint0_radial"
       cx="0"
       cy="0"
       r="1"
       gradientUnits="userSpaceOnUse"
       gradientTransform="matrix(-23.142248,-19.530074,29.956308,-35.49686,43.338015,41.531834)">
      <stop
         stop-color="#5C522F"
         id="stop6" />
      <stop
         offset="0.421021"
         stop-color="#483F20"
         id="stop7" />
      <stop
         offset="1"
         stop-color="#483F20"
         id="stop8" />
    </radialGradient>
  </defs>
</svg>
