<?xml version="1.0" encoding="UTF-8" standalone="no"?>
<svg
   width="77"
   height="69"
   viewBox="0 0 77 69"
   fill="none"
   version="1.1"
   id="svg2"
   sodipodi:docname="player-fists-gloves-01.svg"
   inkscape:version="1.4.2 (f4327f4, 2025-05-13)"
   xmlns:inkscape="http://www.inkscape.org/namespaces/inkscape"
   xmlns:sodipodi="http://sodipodi.sourceforge.net/DTD/sodipodi-0.dtd"
   xmlns="http://www.w3.org/2000/svg"
   xmlns:svg="http://www.w3.org/2000/svg">
  <defs
     id="defs2" />
  <sodipodi:namedview
     id="namedview2"
     pagecolor="#ffffff"
     bordercolor="#000000"
     borderopacity="0.25"
     inkscape:showpageshadow="2"
     inkscape:pageopacity="0.0"
     inkscape:pagecheckerboard="0"
     inkscape:deskcolor="#d1d1d1"
     inkscape:zoom="3.5493087"
     inkscape:cx="-61.702156"
     inkscape:cy="40.430408"
     inkscape:window-width="1920"
     inkscape:window-height="991"
     inkscape:window-x="-9"
     inkscape:window-y="-9"
     inkscape:window-maximized="1"
     inkscape:current-layer="svg2" />
  <path
     d="M 5.1082008,11.043788 C 5.0571085,8.2828809 7.2539062,6.0032641 10.014833,5.9521715 L 44.25797,5.3184814 c 0.151075,-0.0028 0.302175,0.00126 0.452903,0.012162 4.428681,0.3201134 11.043458,1.9168875 16.727892,6.1574676 5.898484,4.400217 10.55143,11.495441 10.746101,22.015039 0.239847,12.960781 -5.661837,20.854628 -12.420606,25.291242 -6.419435,4.213696 -13.36058,5.18349 -15.901245,5.230507 -2.057548,0.03808 -6.507993,-0.04209 -10.548801,-2.685881 C 29.920346,59.118432 27.462373,55.5485 26.443153,50.460187 l -15.59933,0.288675 C 8.0828962,50.799954 5.8032598,48.603157 5.7521672,45.84223 Z"
     fill="#c74145"
     stroke="#000000"
     stroke-width="10"
     stroke-linecap="round"
     stroke-linejoin="round"
     id="path1" />
  <path
     d="m 47.422975,36.182665 c 0.120571,6.515384 -5.395384,8.617203 -8.168382,8.85375 l -8.318808,0.346778 C 30.576412,57.980899 38.969895,59.669688 43.782466,59.580328 59.182529,59.295341 65.831893,46.233575 66.711212,39.83271 66.245032,37.98972 64.21551,33.094433 59.677261,27.993929 55.139012,22.893424 46.914061,21.194015 43.258487,21.261664 l -9.772127,0.180839 c -1.117009,0.02067 -1.878894,0.585164 -1.854823,1.885941 0.0137,0.740374 1.011209,1.277409 1.508249,1.453343 2.052035,0.826074 6.870117,2.553223 10.080921,4.442439 3.025964,1.780617 4.10975,5.293665 4.202268,6.958439 z"
     fill="#ff504f"
     id="path2" />
</svg>
