<?xml version="1.0" encoding="UTF-8" standalone="no"?>
<svg
   width="149"
   height="149"
   viewBox="0 0 149 149"
   fill="none"
   version="1.1"
   id="svg2"
   xmlns="http://www.w3.org/2000/svg"
   xmlns:svg="http://www.w3.org/2000/svg">
  <defs
     id="defs2" />
  <path
     d="M 141.175,78.5236 C 143.39,41.8635 115.467,10.3468 78.807,8.12896 42.1471,5.91114 10.6326,33.8321 8.41732,70.4922 6.20207,107.152 34.125,138.669 70.7849,140.887 107.445,143.105 138.959,115.184 141.175,78.5236 Z"
     fill="#5E2128"
     id="path1"
     style="fill:#3c3a3d;fill-opacity:1" />
  <path
     fill-rule="evenodd"
     clip-rule="evenodd"
     d="m 13.426,74.872 c 0,33.686 27.3054,60.99 60.9802,60.993 33.6748,0.002 60.9808,-27.297 60.9808,-60.9828 0,-33.6861 -27.306,-60.9897 -60.9808,-60.9925 C 40.7314,13.8868 13.426,41.1859 13.426,74.872 Z m 60.9802,72.005 C 34.6381,146.874 2.40625,114.632 2.40625,74.8711 c 0,-39.7608 32.23185,-71.99732 71.99995,-71.994 39.7678,0.00332 71.9998,32.2452 71.9998,72.006 0,39.7609 -32.232,71.9969 -71.9998,71.9939 z"
     fill="black"
     id="path2"
     style="fill:#000000;fill-opacity:1" />
</svg>
