<?xml version="1.0" encoding="UTF-8" standalone="no"?>
<svg
   width="79"
   height="70"
   viewBox="0 0 79 70"
   fill="none"
   version="1.1"
   id="svg6"
   sodipodi:docname="player-hands-bulletbills.svg"
   inkscape:version="1.4.2 (f4327f4, 2025-05-13)"
   xmlns:inkscape="http://www.inkscape.org/namespaces/inkscape"
   xmlns:sodipodi="http://sodipodi.sourceforge.net/DTD/sodipodi-0.dtd"
   xmlns="http://www.w3.org/2000/svg"
   xmlns:svg="http://www.w3.org/2000/svg">
  <defs
     id="defs6" />
  <sodipodi:namedview
     id="namedview6"
     pagecolor="#ffffff"
     bordercolor="#000000"
     borderopacity="0.25"
     inkscape:showpageshadow="2"
     inkscape:pageopacity="0.0"
     inkscape:pagecheckerboard="0"
     inkscape:deskcolor="#d1d1d1"
     inkscape:zoom="2.4462025"
     inkscape:cx="-15.125485"
     inkscape:cy="78.284605"
     inkscape:window-width="1920"
     inkscape:window-height="991"
     inkscape:window-x="-9"
     inkscape:window-y="-9"
     inkscape:window-maximized="1"
     inkscape:current-layer="svg6" />
  <path
     fill-rule="evenodd"
     clip-rule="evenodd"
     d="M 73.135326,35.635919 C 73.081809,51.464729 60.186782,64.25587 44.332353,64.208333 l -11.229543,-0.03572 0.0099,-3.111084 -13.638431,-0.04339 -0.0099,3.111084 -12.761736,-0.0406 0.1823764,-57.3274599 12.7613356,0.0406 -0.01,3.143524 13.639431,0.04339 0.01,-3.143524 11.211343,0.03567 0.0237,6.5e-5 c 15.85692,0.05045 28.668029,12.9245269 28.614497,28.7550369 z"
     fill="#252525"
     id="path1" />
  <path
     fill-rule="evenodd"
     clip-rule="evenodd"
     d="M 44.538285,1.3309096 C 63.45209,1.3910803 78.749022,16.749882 78.685102,35.654674 78.621191,54.556567 63.225512,69.814966 44.315497,69.758307 l -16.780415,-0.05338 0.0099,-3.111084 -2.538587,-0.0081 -0.0099,3.111084 -23.8616791,-0.07591 0.2176888,-68.4274037 23.8612793,0.07591 -0.01,3.1435241 2.539587,0.00808 0.01,-3.1435241 z m -5.720283,11.0819184 -0.01,3.143484 -24.739475,-0.0787 0.01,-3.143484 -1.661391,-0.0053 -0.147064,46.227466 1.661791,0.0053 0.0099,-3.111084 24.738475,0.0787 -0.0099,3.111084 5.678471,0.01807 c 3e-4,1e-6 7e-4,2e-6 10e-4,3e-6 12.798345,0.03782 23.19224,-10.285871 23.235318,-23.041198 0.04318,-12.755527 -10.280922,-23.144424 -23.079954,-23.186342 -4e-4,-1e-6 -8e-4,-2e-6 -0.0012,-3e-6 -3e-4,-10e-7 3e-4,0 0,0 z"
     fill="#000000"
     id="path2" />
  <path
     fill-rule="evenodd"
     clip-rule="evenodd"
     d="m 53.963839,24.747373 c -0.01281,3.774979 -3.08793,6.825511 -6.868914,6.814583 -6e-4,-2e-6 -0.0013,-4e-6 -0.0019,-6e-6 0,0 -1.901176,-2.965463 -3.045301,-6.134219 l -3.755668,-7.560286 6.846366,0.02178 c 3e-4,1e-6 5e-4,2e-6 8e-4,3e-6 3.781881,0.01203 6.837328,3.082567 6.824617,6.858145 z"
     fill="#ffffff"
     id="path3" />
  <path
     d="m 44.852767,29.06171 c 1.432693,0.0046 2.598076,-1.15124 2.602926,-2.581532 0.0049,-1.430392 -1.152755,-2.59358 -2.585448,-2.598138 -1.432692,-0.0046 -2.598075,1.15124 -2.602926,2.581632 -0.0048,1.430292 1.152755,2.59348 2.585448,2.598038 z"
     fill="#171717"
     id="path4" />
  <path
     fill-rule="evenodd"
     clip-rule="evenodd"
     d="m 53.89385,46.747262 c 0.01121,-3.774983 -3.044439,-6.84502 -6.825417,-6.858148 -6e-4,-2e-6 -0.0013,-4e-6 -0.0019,-6e-6 0,0 -1.920005,2.953307 -3.084268,6.114719 l -3.803694,7.536237 6.846365,0.02178 c 3e-4,10e-7 5e-4,10e-7 8e-4,2e-6 3.781881,0.01203 6.856803,-3.039002 6.868114,-6.814584 z"
     fill="#ffffff"
     id="path5" />
  <path
     d="m 44.795504,47.061619 c 1.432693,0.0046 2.598076,-1.15124 2.602926,-2.581532 0.0049,-1.430392 -1.152755,-2.593581 -2.585448,-2.598138 -1.432693,-0.0046 -2.598075,1.15124 -2.602926,2.581632 -0.0048,1.430292 1.152755,2.59348 2.585448,2.598038 z"
     fill="#171717"
     id="path6" />
</svg>
