<?xml version="1.0" encoding="UTF-8" standalone="no"?>
<svg
   width="128"
   height="130"
   viewBox="0 0 128 130"
   fill="none"
   version="1.1"
   id="svg8"
   sodipodi:docname="loot-throwable-poison.svg"
   xml:space="preserve"
   inkscape:version="1.4.3 (0d15f75042, 2025-12-25)"
   xmlns:inkscape="http://www.inkscape.org/namespaces/inkscape"
   xmlns:sodipodi="http://sodipodi.sourceforge.net/DTD/sodipodi-0.dtd"
   xmlns="http://www.w3.org/2000/svg"
   xmlns:svg="http://www.w3.org/2000/svg"><defs
     id="defs8" /><sodipodi:namedview
     id="namedview8"
     pagecolor="#ffffff"
     bordercolor="#000000"
     borderopacity="0.25"
     inkscape:showpageshadow="2"
     inkscape:pageopacity="0.0"
     inkscape:pagecheckerboard="0"
     inkscape:deskcolor="#d1d1d1"
     inkscape:zoom="2.2056292"
     inkscape:cx="-40.124604"
     inkscape:cy="36.044136"
     inkscape:window-width="1920"
     inkscape:window-height="1017"
     inkscape:window-x="1920"
     inkscape:window-y="0"
     inkscape:window-maximized="1"
     inkscape:current-layer="svg8" /><g
     style="isolation:isolate"
     id="g8"
     transform="translate(-95.187992,-57.722935)"><g
       id="g4505"
       transform="translate(-1.4710557,2.3054502)"><rect
         rx="0.31776693"
         ry="0.38066795"
         y="156.49466"
         x="-92.966179"
         height="80.295639"
         width="40.216625"
         id="rect4498"
         style="opacity:1;fill:#fff0ff;fill-opacity:1;stroke:#202020;stroke-width:8.34711;stroke-linecap:butt;stroke-linejoin:miter;stroke-miterlimit:4;stroke-dasharray:none;stroke-opacity:1;paint-order:normal"
         transform="matrix(-0.86722558,0.49791545,0.50207589,0.86482356,0,0)" /><g
         id="g4499"
         transform="matrix(-0.36248003,0.62783381,0.62783381,0.36248003,24.53726,90.481526)"
         style="isolation:isolate"><g
           id="g4"
           style="fill:#000600;fill-opacity:1"><rect
             y="108.51188"
             x="-156.09634"
             height="12.20873"
             width="44.063034"
             id="rect4496"
             style="opacity:1;fill:#000600;fill-opacity:1;stroke:none;stroke-width:3.04082;stroke-linecap:butt;stroke-linejoin:miter;stroke-miterlimit:4;stroke-dasharray:none;stroke-opacity:1;paint-order:normal"
             transform="rotate(-30)" /></g><rect
           y="174.46021"
           x="-156.15685"
           height="12.20873"
           width="44.063034"
           id="rect4496-9"
           style="isolation:isolate;fill:#000600;fill-opacity:1;stroke:none;stroke-width:3.04082;stroke-linecap:butt;stroke-linejoin:miter;stroke-miterlimit:4;stroke-dasharray:none;stroke-opacity:1;paint-order:normal"
           transform="rotate(-30)" /></g><path
         sodipodi:nodetypes="ccccc"
         style="fill:#ffffff;fill-opacity:1;stroke:#202020;stroke-width:8.69952;stroke-miterlimit:4;stroke-dasharray:none"
         inkscape:connector-curvature="0"
         id="path2-3"
         d="m 122.21401,86.783065 21.62963,-12.487878 10.31417,17.864687 -21.62962,12.487876 z" /><path
         style="fill:#ffffff;fill-opacity:1;stroke:#202020;stroke-width:5.79968"
         inkscape:connector-curvature="0"
         id="path6-6"
         d="m 144.42744,72.261109 12.55667,-7.249602 16.90643,0.284404 5.79969,10.045342 -16.90644,-0.284405 -12.55666,7.249603 z" /><path
         style="fill:#ffffff;fill-opacity:1;stroke:#202020;stroke-width:2.89984"
         inkscape:connector-curvature="0"
         id="path8-7"
         d="m 146.13631,62.377857 a 19.175918,19.175918 0 0 0 -6.63158,6.787101 19.175918,19.175918 0 0 0 7.01953,26.19631 19.175918,19.175918 0 0 0 26.19477,-7.017816 19.175918,19.175918 0 0 0 -7.01988,-26.196935 19.175918,19.175918 0 0 0 -19.56347,0.231696 z m 3.52324,5.966132 a 12.380143,12.380143 0 0 1 12.63282,-0.147968 12.380143,12.380143 0 0 1 4.5316,16.910981 12.380143,12.380143 0 0 1 -16.91035,4.531249 12.380143,12.380143 0 0 1 -4.53333,-16.912506 12.380143,12.380143 0 0 1 4.27926,-4.381756 z" /><g
         style="fill:#a3a3a3;fill-opacity:1"
         id="g2"
         transform="matrix(-0.0593311,0.03425484,0.03425484,0.0593311,166.77357,110.81337)"><g
           id="g1"
           style="fill:#a3a3a3;fill-opacity:1">
	<path
   d="m 436.912,430.19 c -0.03,0.006 -0.077,0 -0.118,0 H 21.184 c -7.566,0 -14.564,-4.037 -18.347,-10.593 -3.783,-6.555 -3.783,-14.629 0,-21.184 L 210.642,38.489 c 3.783,-6.555 10.781,-10.592 18.348,-10.592 7.565,0 14.558,4.037 18.341,10.592 l 206.776,358.139 c 2.506,3.481 3.983,7.749 3.983,12.377 0.006,11.698 -9.481,21.185 -21.178,21.185 z M 57.878,387.822 H 400.1 L 228.989,91.456 Z m 244.434,-33.414 c -1.785,3.818 -5.13,6.206 -8.913,7.093 1.762,3.464 2.181,7.565 0.449,11.378 -2.997,6.609 -10.805,9.511 -17.372,6.508 -6.644,-3.014 -9.552,-10.805 -6.514,-17.4 0.095,-0.296 0.367,-0.432 0.503,-0.71 l -43.072,-19.357 -43.621,18.146 c 0.142,0.278 0.384,0.42 0.479,0.704 2.837,6.679 -0.266,14.404 -6.992,17.241 -6.679,2.784 -14.375,-0.337 -17.188,-7.027 -1.631,-3.89 -1.082,-7.956 0.774,-11.361 -3.742,-0.992 -7.052,-3.511 -8.701,-7.353 -2.784,-6.69 0.308,-14.416 7.022,-17.2 6.679,-2.825 14.375,0.289 17.2,6.975 0.101,0.296 0.071,0.573 0.171,0.846 l 27.538,-11.449 -27.207,-12.224 c -0.118,0.266 -0.071,0.567 -0.213,0.839 -2.997,6.597 -10.805,9.511 -17.401,6.514 -6.579,-3.014 -9.469,-10.805 -6.472,-17.413 1.744,-3.812 5.125,-6.183 8.896,-7.116 -1.785,-3.44 -2.21,-7.555 -0.467,-11.36 3.009,-6.608 10.805,-9.499 17.413,-6.514 6.608,3.015 9.511,10.805 6.466,17.413 -0.094,0.277 -0.366,0.438 -0.461,0.674 l 43.066,19.398 43.592,-18.134 c -0.136,-0.296 -0.378,-0.438 -0.508,-0.733 -2.809,-6.727 0.307,-14.41 7.021,-17.224 6.649,-2.825 14.346,0.284 17.171,7.011 1.638,3.854 1.081,7.955 -0.804,11.36 3.771,1.005 7.087,3.464 8.736,7.376 2.783,6.668 -0.313,14.34 -7.022,17.165 -6.685,2.831 -14.375,-0.296 -17.2,-6.957 -0.13,-0.277 -0.071,-0.591 -0.172,-0.856 l -27.526,11.432 27.189,12.234 c 0.112,-0.26 0.083,-0.555 0.207,-0.839 3.038,-6.597 10.805,-9.517 17.39,-6.502 6.649,3.023 9.557,10.79 6.543,17.422 z M 271.718,240.673 c 3.404,3.114 5.556,7.436 5.556,12.229 0,7.938 -5.881,14.334 -13.701,16.297 v 5.957 c 0,10.279 -8.417,18.714 -18.713,18.714 h -34.685 c -10.297,0 -18.708,-8.435 -18.708,-18.714 v -5.934 c -7.861,-1.963 -13.772,-8.358 -13.772,-16.326 0,-4.822 2.163,-9.144 5.609,-12.247 -5.361,-7.737 -8.535,-16.913 -8.535,-26.811 0,-27.216 23.613,-49.316 52.741,-49.316 29.117,0 52.76,22.1 52.76,49.316 0.018,9.91 -3.179,19.085 -8.552,26.835 z m -52.884,-23.25 c 0,-7.791 -6.543,-14.097 -14.588,-14.097 -8.015,0 -14.594,6.307 -14.594,14.097 0,7.796 6.579,14.1 14.594,14.1 8.045,-0.012 14.588,-6.304 14.588,-14.1 z m 23.927,41.491 -14.15,-23.944 -14.682,24.405 14.541,-7.058 z m 22.614,-41.491 c 0,-7.791 -6.555,-14.097 -14.569,-14.097 -8.051,0 -14.576,6.307 -14.576,14.097 0,7.796 6.525,14.1 14.576,14.1 8.032,-0.012 14.569,-6.304 14.569,-14.1 z"
   id="path1-5"
   style="fill:#a3a3a3;fill-opacity:1" />
</g></g><g
         style="isolation:isolate"
         id="g3"
         transform="translate(156.47106,-105.30545)" /></g></g></svg>
