<?xml version="1.0" encoding="UTF-8" standalone="no"?>
<!-- Generator: Gravit.io -->

<svg
   style="isolation:isolate"
   viewBox="0 0 129 129"
   width="129"
   height="129"
   version="1.1"
   id="svg9"
   sodipodi:docname="RPG-3.svg"
   xml:space="preserve"
   inkscape:version="1.4.3 (0d15f75042, 2025-12-25)"
   xmlns:inkscape="http://www.inkscape.org/namespaces/inkscape"
   xmlns:sodipodi="http://sodipodi.sourceforge.net/DTD/sodipodi-0.dtd"
   xmlns="http://www.w3.org/2000/svg"
   xmlns:svg="http://www.w3.org/2000/svg"><sodipodi:namedview
     id="namedview9"
     pagecolor="#ffffff"
     bordercolor="#000000"
     borderopacity="0.25"
     inkscape:showpageshadow="2"
     inkscape:pageopacity="0.0"
     inkscape:pagecheckerboard="0"
     inkscape:deskcolor="#d1d1d1"
     inkscape:zoom="3.6044444"
     inkscape:cx="42.308878"
     inkscape:cy="50.631936"
     inkscape:window-width="1920"
     inkscape:window-height="1017"
     inkscape:window-x="0"
     inkscape:window-y="0"
     inkscape:window-maximized="1"
     inkscape:current-layer="Group" /><defs
     id="defs1"><clipPath
       id="_clipPath_hSMxvQTk88aY05AADG6l2vzi5RLYP57F"><rect
         width="450"
         height="450"
         id="rect1"
         x="0"
         y="0" /></clipPath><clipPath
       id="_clipPath_hSMxvQTk88aY05AADG6l2vzi5RLYP57F-9"><rect
         width="450"
         height="450"
         id="rect1-3" /></clipPath></defs><g
     clip-path="url(#_clipPath_hSMxvQTk88aY05AADG6l2vzi5RLYP57F)"
     id="g9"><g
       id="Group"><path
         d="m 108.00366,26.205534 -4.08509,-4.012979 17.39215,-17.0355992 4.08509,4.001417 z"
         fill="rgb(130,119,23)"
         id="path1"
         style="fill:#ffffff;fill-opacity:1;stroke:#323232;stroke-width:3.13047;stroke-dasharray:none;stroke-opacity:1" /><path
         d="m 92.680356,43.207094 c 6.124592,-2.000712 14.994054,-6.68974 18.382894,-10.006189 3.3858,-3.313806 7.15312,-16.999241 11.23854,-21.000657 L 118.21637,8.1961869 C 114.13129,12.200248 100.14854,15.879168 96.765446,19.19595 93.379308,22.512399 88.592231,31.2002 86.549691,37.204965 Z"
         fill="rgb(130,119,23)"
         id="path2"
         style="fill:#ffffff;fill-opacity:1;stroke:#323232;stroke-width:3.13047;stroke-dasharray:none;stroke-opacity:1" /><path
         d="m 108.82707,35.017568 c 0.78599,-0.55577 1.53319,-1.162753 2.23618,-1.816663 0.5404,-0.529331 1.12669,-1.335895 1.73625,-2.286518 L 99.099783,17.483701 c -0.970846,0.608309 -1.79124,1.18291 -2.334337,1.712249 -0.589324,0.565682 -1.207653,1.338213 -1.863425,2.178803 z"
         fill="rgb(99,89,13)"
         id="path4"
         style="fill:#ffffff;fill-opacity:1;stroke:#323232;stroke-width:3.13047;stroke-dasharray:none;stroke-opacity:1" /><path
         d="m 9.3598123,102.80608 15.9644847,-6.713258 6.837085,6.713258 -6.837085,15.63714 z"
         fill="rgb(55,71,79)"
         id="path6"
         style="fill:#ffffff;fill-opacity:1;stroke:#323232;stroke-width:3.49464;stroke-dasharray:none;stroke-opacity:1"
         sodipodi:nodetypes="ccccc" /><path
         d="M 57.122169,81.877069 87.095788,52.517375 89.138334,46.514922 83.008,40.512794 76.883071,42.513506 46.906415,71.873524 Z"
         fill="rgb(84,110,122)"
         id="path8"
         style="fill:#ffffff;fill-opacity:1;stroke:#323232;stroke-width:3.13047;stroke-dasharray:none;stroke-opacity:1"
         sodipodi:nodetypes="ccccccc" /><path
         d="m 36.026453,98.533665 c 2.045239,-2.000705 8.172875,-4.001418 10.215423,-5.999148 L 57.11914,81.877069 46.906415,71.873524 36.029152,82.527996 c -2.042547,2.000712 -4.085087,8.002834 -6.127629,10.003545 z"
         fill="rgb(198,134,50)"
         id="path9"
         style="fill:#ffffff;fill-opacity:1;stroke:#323232;stroke-width:3.13047;stroke-dasharray:none;stroke-opacity:1"
         sodipodi:nodetypes="ccccssc" /><path
         d="m 2.0702349,106.62996 0.192773,1.89487 17.0220611,16.67343 1.934476,0.18883 3.480728,-3.40944 L 5.5536396,103.2179 Z"
         fill="#323232"
         id="path5-5"
         style="stroke-width:1.32496" /><path
         d="m 8.1279032,112.9853 -2.0900591,2.04598 6.1288409,6.00327 2.088774,-2.04724 z"
         fill="#323232"
         id="path10"
         sodipodi:nodetypes="ccccc"
         style="stroke-width:1.27217" /><path
         d="m 82.774097,90.524337 c 0.502889,0.768831 -0.592332,2.325357 -0.592332,2.325357 -2.064382,1.331758 -4.387849,6.873541 -6.665326,3.934449 l -13.804337,-13.522578 7.360792,-7.210027 1.499539,1.468825 c 1.14998,1.239069 -0.220869,1.355289 0.334042,3.120918 l 9.198023,9.010522 c 0,0 2.327343,0.301275 2.669599,0.872534 z"
         style="fill:#ffffff;stroke:#323232;stroke-width:2.70987"
         id="path1-9" /><path
         d="m 64.650842,38.083397 -1.595276,-3.442353 c -0.685323,0 -3.930124,3.751381 -3.930124,4.422667 l 4.081627,1.294483 4.185064,3.096522 1.371699,-1.342571 z M 61.56689,48.49504 c -0.686377,0.671285 -0.0011,1.342571 -0.0011,1.342571 l 1.713306,1.679247 8.848623,-8.702165 -1.715415,-1.679247 c 0,0 -1.306911,-0.02661 -1.992233,0.64467 0.219383,0.03582 -6.853227,6.714924 -6.853227,6.714924 z m 2.168783,-0.78179 c 0.151825,-0.148716 0.357738,-0.232265 0.572508,-0.232265 0.214769,0 0.420682,0.08355 0.572508,0.232265 0.151509,0.148715 0.236594,0.350204 0.236594,0.560265 0,0.210061 -0.08508,0.41155 -0.236594,0.560266 -0.151826,0.148715 -0.357739,0.232265 -0.572508,0.232265 -0.21477,0 -0.420683,-0.08355 -0.572508,-0.232265 -0.151826,-0.148716 -0.237122,-0.350515 -0.237122,-0.560782 0,-0.210371 0.0853,-0.412066 0.237122,-0.560782 z m 3.886306,-3.80774 c 0.151826,-0.148715 0.357844,-0.232264 0.572508,-0.232264 0.21477,0 0.420683,0.08355 0.572508,0.232264 0.151509,0.148716 0.236595,0.350205 0.236595,0.560266 0,0.210061 -0.08509,0.41155 -0.236595,0.560265 -0.15172,0.148819 -0.357527,0.232575 -0.572297,0.232782 -0.214664,2.06e-4 -0.420682,-0.08324 -0.572719,-0.231749 -0.151825,-0.148716 -0.237121,-0.350514 -0.237121,-0.560782 0,-0.21037 0.0853,-0.412066 0.237121,-0.560782 z M 47.854111,64.611062 48.883149,63.6031 Z"
         style="fill:#323232;stroke-width:1.04349"
         id="path1-0"
         sodipodi:nodetypes="cccccccccccccccscscsssccsscscscssccc" /><path
         d="m 54.635384,56.745796 c 0,0 -0.685323,-0.671285 -1.370645,0 l -6.855335,6.714923 c -0.685323,0.671286 0,1.342572 0,1.342572 l 1.713306,1.679247 8.227035,-8.058527 z"
         style="fill:#323232;stroke-width:1.04349"
         id="path1-3" /><path
         d="m 49.722946,80.766646 c 0.633812,-0.620837 0.633812,-1.627422 0,-2.24837 -0.63393,-0.620826 -1.661566,-0.620826 -2.295377,0 -0.633931,0.620948 -0.633931,1.627533 0,2.24837 0.633811,0.620949 1.661447,0.620949 2.295377,0 z"
         style="fill:#323232;stroke-width:1.16488"
         id="path1-06" /></g></g><path
     d="M 54.382746,73.727752 83.445247,45.69114 c 0.110079,-0.104424 0.234246,-0.153656 0.33206,-0.163752 0.0965,-0.0099 0.145656,0.0174 0.167651,0.03827 0.022,0.02096 0.05078,0.0675 0.04034,0.159136 -0.01064,0.09269 -0.06244,0.210484 -0.172618,0.314908 L 54.750282,74.076314 c -0.11018,0.104425 -0.234347,0.153656 -0.33206,0.163656 -0.0965,0.01 -0.145656,-0.01731 -0.167651,-0.03817 -0.0221,-0.02096 -0.05088,-0.0676 -0.04034,-0.159137 0.01054,-0.09269 0.06244,-0.210483 0.172517,-0.314908 z M 52.731469,72.16129 81.79397,44.124678 c 0.109199,-0.105344 0.234246,-0.153656 0.33206,-0.163752 0.0965,-0.0099 0.145555,0.0174 0.167652,0.03827 0.02199,0.02096 0.05078,0.0675 0.04034,0.159041 -0.01064,0.09279 -0.06254,0.210579 -0.172618,0.315004 l -29.0625,28.036611 c -0.109199,0.105345 -0.234246,0.153656 -0.331959,0.163656 -0.0965,0.01 -0.145656,-0.01731 -0.167651,-0.03827 -0.0221,-0.02087 -0.05088,-0.0675 -0.04034,-0.15904 0.01054,-0.09269 0.06244,-0.210484 0.172517,-0.314908 z m 3.302655,3.132925 29.062502,-28.036517 c 0.110078,-0.10452 0.234245,-0.153655 0.331958,-0.163752 0.0966,-0.01 0.145656,0.0174 0.167753,0.03827 0.02199,0.02087 0.05078,0.0675 0.04034,0.159041 -0.01064,0.09279 -0.06254,0.210579 -0.172618,0.315004 l -29.0625,28.036612 c -0.110079,0.104424 -0.234246,0.15356 -0.331959,0.163656 -0.0965,0.01 -0.145656,-0.01731 -0.167752,-0.03827 -0.022,-0.02087 -0.05078,-0.0675 -0.04034,-0.15904 0.01064,-0.09269 0.06254,-0.210484 0.172618,-0.315004 z"
     fill="#ffffff"
     stroke="#323232"
     stroke-linecap="round"
     id="path13-61"
     style="isolation:isolate;fill:none;stroke-width:0.987239"
     sodipodi:nodetypes="ccccccccscsccsccccscccscccscccccscsc" /><g
     style="isolation:isolate"
     id="g10"
     transform="matrix(1.0308261,0,0,1.0050521,-265.20868,-401.02585)"><path
       d="m 347.46317,462.62644 c 0,0 -3.36564,0.47066 -5.76875,-3.57088 l -1.39675,1.39591 3.84633,3.84633 c 1.50838,0.27885 3.04454,-0.8475 3.04454,-0.8475 0,0 0.47911,-0.39546 0.27547,-0.8247 z"
       fill="#323232"
       id="path3-9"
       sodipodi:nodetypes="ccccccc"
       style="stroke-width:0.844978" /><path
       d="m 343.8769,453.16698 6.13784,6.13791 c 0,0 1.02157,1.55899 -0.27885,3.61144 l -4.16573,4.16574"
       stroke="#323232"
       stroke-width="1.57081"
       id="path4-2"
       sodipodi:nodetypes="cccc"
       style="fill:#69ffff;fill-opacity:0" /><path
       d="m 355.76227,476.08462 c 0.46558,0.72669 -0.54924,2.19695 -0.54924,2.19695 l -4.78509,4.78595 c -0.59741,0.22477 -1.38577,-1.06636 -1.38577,-1.06636 l -14.15642,-14.1576 5.4932,-5.49404 12.91092,12.91125 c 0,0 2.1547,0.28392 2.4724,0.82301 z"
       fill="#ffffff"
       stroke="#323232"
       stroke-width="2.53493"
       id="path9-2"
       sodipodi:nodetypes="ccccccccc" /><path
       d="m 347.51316,454.10234 -2.19779,-2.19694 -15.38265,15.38112 5.68332,5.68333 8.79013,-8.7903 -3.4862,-3.48554 z"
       fill="#323232"
       id="path10-6"
       sodipodi:nodetypes="ccccccc"
       style="stroke-width:0.844978" /></g></svg>
