<?xml version="1.0" encoding="UTF-8" standalone="no"?>
<svg
   width="128"
   height="128"
   viewBox="0 0 128 128"
   fill="none"
   version="1.1"
   id="svg21"
   sodipodi:docname="loot-shirt-outfitCheckmate.svg"
   inkscape:version="1.4.2 (ebf0e940d0, 2025-05-08)"
   xmlns:inkscape="http://www.inkscape.org/namespaces/inkscape"
   xmlns:sodipodi="http://sodipodi.sourceforge.net/DTD/sodipodi-0.dtd"
   xmlns:xlink="http://www.w3.org/1999/xlink"
   xmlns="http://www.w3.org/2000/svg"
   xmlns:svg="http://www.w3.org/2000/svg">
  <sodipodi:namedview
     id="namedview21"
     pagecolor="#ffffff"
     bordercolor="#000000"
     borderopacity="0.25"
     inkscape:showpageshadow="2"
     inkscape:pageopacity="0.0"
     inkscape:pagecheckerboard="0"
     inkscape:deskcolor="#d1d1d1"
     inkscape:zoom="2.2400922"
     inkscape:cx="-2.9016663"
     inkscape:cy="37.275251"
     inkscape:window-width="1920"
     inkscape:window-height="1017"
     inkscape:window-x="0"
     inkscape:window-y="0"
     inkscape:window-maximized="1"
     inkscape:current-layer="svg21" />
  <path
     d="m 63.660893,14.363773 c 17.515343,0 31.714263,14.208248 31.714263,31.714267 0,17.506019 -14.198996,31.71396 -31.714263,31.71396 -17.515265,0 -31.714265,-14.207941 -31.714265,-31.71396 0,-17.506019 14.199,-31.714267 31.714265,-31.714267 z"
     fill="url(#paint1_linear_1151_651)"
     id="path3-2"
     style="fill:url(#linearGradient24);fill-opacity:1;stroke-width:0.764204" />
  <path
     fill-rule="evenodd"
     clip-rule="evenodd"
     d="m 62.112613,12 c 18.7777,-7e-4 34,15.2211 34,33.998801 0,18.777699 -15.2223,34.000499 -34,34.001199 -18.7777,6e-4 -34,-15.2211 -34,-33.998799 0,-18.777701 15.2223,-34.000601 34,-34.001201 z m 28.8097,33.999001 c 0,-15.911201 -12.8985,-28.809301 -28.8097,-28.808701 -15.9112,5e-4 -28.8097,12.8995 -28.8097,28.810701 0,15.911199 12.8985,28.809299 28.8097,28.808699 15.9112,-5e-4 28.8097,-12.8995 28.8097,-28.810699 z"
     fill="#000000"
     id="path2" />
  <path
     d="M63.5003 28.999C86.42 28.999 105 47.5912 105 70.4987C105 93.4062 86.4199 111.998 63.5003 111.998C40.5807 111.998 22.0006 93.4062 22.0006 70.4987C22.0006 47.5912 40.5807 28.999 63.5003 28.999Z"
     fill="url(#paint1_linear_1151_651)"
     id="path3"
     style="fill:url(#linearGradient23);fill-opacity:1;opacity:1" />
  <path
     d="M22 102.495C22 109.399 27.5964 114.996 34.5 114.998C41.4036 114.999 47 109.404 47 102.5C47 95.5964 41.4036 89.9989 34.5 89.9975C27.5964 89.9961 22 95.5914 22 102.495Z"
     fill="url(#paint3_radial_1151_651)"
     id="path7"
     style="fill:#e7e7e7;fill-opacity:1" />
  <path
     fill-rule="evenodd"
     clip-rule="evenodd"
     d="M34.5 87.997C42.5081 87.9987 49 94.4919 49 102.5C49 110.508 42.5081 116.999 34.5 116.997C26.4919 116.995 20 110.502 20 102.494C20 94.4859 26.4919 87.9954 34.5 87.997ZM44.5694 102.499C44.5694 96.9379 40.0612 92.4287 34.5 92.4276C28.9388 92.4265 24.4306 96.9338 24.4306 102.495C24.4306 108.056 28.9388 112.565 34.5 112.566C40.0612 112.568 44.5694 108.06 44.5694 102.499Z"
     fill="black"
     id="path8" />
  <path
     d="M80 102.495C80 109.399 85.5964 114.996 92.5 114.998C99.4036 114.999 105 109.404 105 102.5C105 95.5964 99.4036 89.9989 92.5 89.9975C85.5964 89.9961 80 95.5914 80 102.495Z"
     fill="url(#paint4_radial_1151_651)"
     id="path9"
     style="fill:#e7e7e7;fill-opacity:1" />
  <path
     fill-rule="evenodd"
     clip-rule="evenodd"
     d="M92.5 87.997C100.508 87.9987 107 94.4919 107 102.5C107 110.508 100.508 116.999 92.5 116.997C84.4919 116.995 78 110.502 78 102.494C78 94.4859 84.4919 87.9954 92.5 87.997ZM102.569 102.499C102.569 96.9379 98.0612 92.4287 92.5 92.4276C86.9388 92.4265 82.4306 96.9338 82.4306 102.495C82.4306 108.056 86.9388 112.565 92.5 112.566C98.0612 112.568 102.569 108.06 102.569 102.499Z"
     fill="black"
     id="path10" />
  <defs
     id="defs21">
    <linearGradient
       id="linearGradient25"
       inkscape:collect="always">
      <stop
         style="stop-color:#0b0b0b;stop-opacity:1;"
         offset="0.5"
         id="stop24" />
      <stop
         style="stop-color:#e7e7e7;stop-opacity:1;"
         offset="0.5"
         id="stop25" />
    </linearGradient>
    <linearGradient
       id="linearGradient21"
       inkscape:collect="always">
      <stop
         style="stop-color:#e7e7e7;stop-opacity:1;"
         offset="0.5"
         id="stop22" />
      <stop
         style="stop-color:#0b0b0b;stop-opacity:1;"
         offset="0.5"
         id="stop23" />
    </linearGradient>
    <radialGradient
       id="paint0_radial_1151_651"
       cx="0"
       cy="0"
       r="1"
       gradientUnits="userSpaceOnUse"
       gradientTransform="matrix(-31.5,0.00109956,-0.00109956,-31.5,94.434644,5.1496821)">
      <stop
         stop-color="#CACACA"
         id="stop10"
         offset="0.5"
         style="stop-color:#ffffff;stop-opacity:1;" />
      <stop
         offset="0.5"
         stop-color="#808080"
         id="stop11" />
    </radialGradient>
    <linearGradient
       id="paint1_linear_1151_651"
       x1="95.9512"
       y1="96.397"
       x2="24.8089"
       y2="53.3372"
       gradientUnits="userSpaceOnUse">
      <stop
         stop-color="white"
         id="stop12" />
      <stop
         offset="0.371197"
         stop-color="#B8B8B8"
         id="stop13" />
      <stop
         offset="0.70652"
         stop-color="white"
         id="stop14" />
      <stop
         offset="1"
         stop-color="#E0E0E0"
         id="stop15" />
    </linearGradient>
    <radialGradient
       id="paint2_radial_1151_651"
       cx="0"
       cy="0"
       r="1"
       gradientUnits="userSpaceOnUse"
       gradientTransform="translate(63.1891 70.7493) rotate(-180) scale(12.264)">
      <stop
         stop-color="#CACACA"
         id="stop16" />
      <stop
         offset="1"
         stop-color="#808080"
         id="stop17" />
    </radialGradient>
    <radialGradient
       id="paint3_radial_1151_651"
       cx="0"
       cy="0"
       r="1"
       gradientUnits="userSpaceOnUse"
       gradientTransform="matrix(-12.5,-0.00239983,0.00239983,-12.5,34.5,102.498)"
       fx="0"
       fy="0"
       fr="0"
       spreadMethod="pad">
      <stop
         offset="0.50282192"
         stop-color="#808080"
         id="stop19"
         style="stop-color:#00fffa;stop-opacity:1;" />
      <stop
         stop-color="#CACACA"
         id="stop18"
         offset="0.50282192" />
    </radialGradient>
    <radialGradient
       id="paint4_radial_1151_651"
       cx="0"
       cy="0"
       r="1"
       gradientUnits="userSpaceOnUse"
       gradientTransform="translate(92.5 102.498) rotate(-179.989) scale(12.5)">
      <stop
         stop-color="#CACACA"
         id="stop20"
         offset="0"
         style="stop-color:#ffcaca;stop-opacity:1;" />
      <stop
         offset="1"
         stop-color="#808080"
         id="stop21" />
    </radialGradient>
    <linearGradient
       inkscape:collect="always"
       xlink:href="#linearGradient25"
       id="linearGradient23"
       x1="22.0006"
       y1="70.4985"
       x2="105"
       y2="70.4985"
       gradientUnits="userSpaceOnUse" />
    <linearGradient
       inkscape:collect="always"
       xlink:href="#linearGradient21"
       id="linearGradient24"
       gradientUnits="userSpaceOnUse"
       x1="22.0006"
       y1="70.4985"
       x2="105"
       y2="70.4985"
       gradientTransform="matrix(0.76420471,0,0,0.76420471,15.133666,-7.7974003)" />
    <linearGradient
       id="paint0_linear"
       x1="70.92244"
       y1="136.37946"
       x2="70.42244"
       y2="-3.1216636"
       gradientUnits="userSpaceOnUse"
       gradientTransform="matrix(0.51331263,0,0,0.51331263,139.25627,6.8055023)">
      <stop
         offset="0.50248885"
         stop-color="#163900"
         id="stop1"
         style="stop-color:#000000;stop-opacity:1;" />
      <stop
         offset="0.50248885"
         stop-color="#002504"
         id="stop12-3"
         style="stop-color:#e7e7e7;stop-opacity:1;" />
    </linearGradient>
  </defs>
</svg>
