<?xml version="1.0" encoding="UTF-8" standalone="no"?>
<!-- Uploaded to: SVG Repo, www.svgrepo.com, Generator: SVG Repo Mixer Tools -->

<svg
   fill="#000000"
   height="800px"
   width="800px"
   version="1.1"
   id="Layer_1"
   viewBox="0 0 511.991 511.991"
   xml:space="preserve"
   sodipodi:docname="bullets-ammo-svgrepo-com.svg"
   inkscape:version="1.4.2 (ebf0e940d0, 2025-05-08)"
   xmlns:inkscape="http://www.inkscape.org/namespaces/inkscape"
   xmlns:sodipodi="http://sodipodi.sourceforge.net/DTD/sodipodi-0.dtd"
   xmlns="http://www.w3.org/2000/svg"
   xmlns:svg="http://www.w3.org/2000/svg"><defs
   id="defs8" /><sodipodi:namedview
   id="namedview8"
   pagecolor="#ffffff"
   bordercolor="#000000"
   borderopacity="0.25"
   inkscape:showpageshadow="2"
   inkscape:pageopacity="0.0"
   inkscape:pagecheckerboard="0"
   inkscape:deskcolor="#d1d1d1"
   inkscape:zoom="0.506875"
   inkscape:cx="190.38224"
   inkscape:cy="265.35142"
   inkscape:window-width="1920"
   inkscape:window-height="1017"
   inkscape:window-x="0"
   inkscape:window-y="0"
   inkscape:window-maximized="1"
   inkscape:current-layer="Layer_1" />
<g
   id="g8"
   transform="matrix(0.92339747,0,0,0.92339747,26.872626,22.613376)"
   style="fill:#ffffff;fill-opacity:1">
	<g
   id="g7"
   style="fill:#ffffff;fill-opacity:1">
		<g
   id="g6"
   style="fill:#ffffff;fill-opacity:1">
			<path
   d="m 149.152,149.333 c 0,-30.443 -3.029,-66.645 -25.557,-104.491 L 103.136,10.431 C 99.296,3.947 92.32,0 84.811,0 77.28,0 70.325,3.947 66.464,10.411 L 45.984,44.822 C 24.117,81.6 21.152,118.293 21.152,149.333 v 21.333 h 128 z"
   id="path1"
   style="fill:#ffffff;fill-opacity:1" />
			<path
   d="m 21.156,405.346 c 0,7.808 2.261,15.019 5.931,21.312 -3.669,6.293 -5.931,13.525 -5.931,21.312 v 21.376 c 0,23.531 19.115,42.645 42.645,42.645 h 42.709 c 23.531,0 42.645,-19.115 42.645,-42.645 V 447.97 c 0,-7.787 -2.261,-15.019 -5.931,-21.312 3.669,-6.293 5.931,-13.504 5.931,-21.312 V 213.325 h -128 v 192.021 z m 85.334,42.645 0.021,21.333 -42.688,0.043 -0.021,-21.376 z"
   id="path2"
   style="fill:#ffffff;fill-opacity:1" />
			<path
   d="m 294.637,108.828 -20.48,-34.411 c -7.701,-12.928 -28.949,-12.928 -36.672,0 l -20.48,34.432 c -21.867,36.8 -24.832,73.451 -24.832,104.469 l -0.043,21.333 h 128 l 0.043,-21.333 c 0,-30.421 -3.029,-66.645 -25.536,-104.469 z"
   id="path3"
   style="fill:#ffffff;fill-opacity:1" />
			<path
   d="m 191.823,405.346 c 0,7.808 2.261,15.019 5.931,21.312 -3.669,6.293 -5.931,13.525 -5.931,21.312 v 21.376 c 0,23.531 19.115,42.645 42.645,42.645 h 42.709 c 23.531,0 42.645,-19.115 42.645,-42.645 V 447.97 c 0,-7.787 -2.261,-15.019 -5.909,-21.312 3.648,-6.272 5.909,-13.483 5.909,-21.248 l 0.235,-128.085 h -128 z m 85.333,42.645 0.021,21.333 -42.688,0.043 -0.021,-21.376 z"
   id="path4"
   style="fill:#ffffff;fill-opacity:1" />
			<path
   d="m 465.303,172.847 v -0.021 l -20.48,-34.411 c -7.701,-12.928 -28.949,-12.928 -36.672,0 l -20.48,34.432 c -21.867,36.8 -24.832,73.451 -24.832,104.469 l -0.043,21.333 h 128 l 0.043,-21.333 c 0,-30.421 -3.029,-66.645 -25.536,-104.469 z"
   id="path5"
   style="fill:#ffffff;fill-opacity:1" />
			<path
   d="m 362.49,405.346 c 0,7.808 2.261,15.019 5.931,21.312 -3.669,6.293 -5.931,13.525 -5.931,21.312 v 21.376 c 0,23.531 19.115,42.645 42.645,42.645 h 42.709 c 23.531,0 42.645,-19.115 42.645,-42.645 V 447.97 c 0,-7.787 -2.261,-14.997 -5.909,-21.291 3.648,-6.293 5.909,-13.483 5.909,-21.248 l 0.171,-64.107 h -128 z m 85.333,42.645 0.021,21.333 -42.688,0.043 -0.021,-21.376 z"
   id="path6"
   style="fill:#ffffff;fill-opacity:1" />
		</g>
	</g>
</g>
</svg>
