<?xml version="1.0" encoding="UTF-8" standalone="no"?>
<svg
   width="128"
   height="128"
   version="1.1"
   id="svg1"
   sodipodi:docname="loot-perk-shield.svg"
   xml:space="preserve"
   inkscape:version="1.4.2 (ebf0e940d0, 2025-05-08)"
   xmlns:inkscape="http://www.inkscape.org/namespaces/inkscape"
   xmlns:sodipodi="http://sodipodi.sourceforge.net/DTD/sodipodi-0.dtd"
   xmlns="http://www.w3.org/2000/svg"
   xmlns:svg="http://www.w3.org/2000/svg"><defs
     id="defs1" /><sodipodi:namedview
     id="namedview1"
     pagecolor="#ffffff"
     bordercolor="#000000"
     borderopacity="0.25"
     inkscape:showpageshadow="2"
     inkscape:pageopacity="0.0"
     inkscape:pagecheckerboard="0"
     inkscape:deskcolor="#d1d1d1"
     inkscape:zoom="1.5839844"
     inkscape:cx="51.452527"
     inkscape:cy="72.286066"
     inkscape:window-width="1920"
     inkscape:window-height="1017"
     inkscape:window-x="0"
     inkscape:window-y="0"
     inkscape:window-maximized="1"
     inkscape:current-layer="svg1" /><g
     style="fill:#ffffff;fill-opacity:1"
     id="g1"
     transform="matrix(5.8079451,0,0,5.8079451,-6.0088139,-5.6641869)"><path
       d="M 20.995,6.9 A 0.998,0.998 0 0 0 20.447,6.105 l -8,-4 a 1,1 0 0 0 -0.895,0 l -8,4 A 1.002,1.002 0 0 0 3.005,6.9 C 2.994,7.007 2.044,17.667 11.594,21.914 a 0.987,0.987 0 0 0 0.812,0 C 21.956,17.667 21.006,7.008 20.995,6.9 Z M 12,19.897 V 12 H 5.51 A 15.473,15.473 0 0 1 4.966,7.635 L 12,4.118 V 12 h 6.46 c -0.759,2.74 -2.498,5.979 -6.46,7.897 z"
       id="path1"
       style="fill:#ffffff;fill-opacity:1" /></g></svg>
