<svg version="1.0" xmlns="http://www.w3.org/2000/svg" width="128" height="128" viewBox="153.86758422851562 84.00003051757812 389.88133239746094 404.1206817626953"><path d="M516.074 94.125c-9.075 9.225 -9.9 10.275 -9.45 12.225 0.375 1.95 -0.375 2.85 -9.15 11.025 -5.25 4.95 -13.65 12.9 -18.6 17.625s-9.825 9.45 -10.95 10.5c-21.375 20.4 -33.75 32.25 -42.45 40.65 -10.5 10.125 -12.825 11.625 -14.85 9.675 -0.45 -0.375 -1.8 -0.9 -3.15 -1.2 -2.25 -0.45 -2.85 -0.075 -9.75 6.675 -4.05 3.975 -8.175 8.1 -9.225 9.225s-3.525 3.6 -5.475 5.475c-2.025 1.875 -4.575 4.35 -5.625 5.475 -1.125 1.2 -3.675 3.675 -5.7 5.625s-5.1 5.025 -6.75 6.825c-1.725 1.8 -4.2 4.275 -5.55 5.625 -2.325 2.175 -37.575 36.675 -39.675 38.85l-5.625 5.625c-2.625 2.625 -5.7 5.775 -6.975 7.125 -1.2 1.275 -3.75 3.75 -5.55 5.4 -1.8 1.725 -4.875 4.725 -6.75 6.75 -1.875 1.95 -4.425 4.5 -5.625 5.625 -6.975 6.225 -23.7 23.85 -23.7 24.825 0 0.675 -1.2 2.325 -2.625 3.75 -2.925 2.85 -4.875 6.525 -4.875 9.15 0 0.975 -0.6 2.325 -1.275 2.925 -0.75 0.675 -6.075 6 -11.775 11.85 -10.425 10.5 -10.5 10.575 -13.875 10.575h-3.45l-27.6 27.15c-18.375 18.15 -27.6 27.75 -27.525 28.725 0.075 3 13.425 18.375 15.975 18.375 1.35 0 4.95 -2.475 9.525 -6.45 1.05 -0.9 4.5 -3.9 7.65 -6.675 3.225 -2.7 13.425 -12.45 22.65 -21.6s19.725 -19.5 23.25 -22.95l6.45 -6.3 3.75 0.45c4.05 0.525 7.95 2.4 8.625 4.2 0.225 0.6 0.6 9.6 0.75 19.95 0.45 23.55 0.675 25.95 3.075 28.5 2.625 2.775 5.025 2.325 16.275 -3.375 19.95 -10.05 21.45 -11.85 15.6 -18.225 -3.525 -3.9 -5.85 -10.2 -4.5 -12.375 0.75 -1.2 0.6 -1.725 -0.75 -3.075 -0.825 -0.825 -1.575 -2.175 -1.575 -3 0 -2.1 2.925 -5.325 4.8 -5.325 3.9 0 16.95 -11.7 16.95 -15.15 0 -1.125 0.375 -2.25 0.825 -2.475 0.9 -0.6 3.675 1.725 3.675 3.15 0 0.525 0.525 0.975 1.125 0.975 1.5 0 1.425 -2.475 -0.075 -5.4 -0.75 -1.425 -0.9 -2.55 -0.45 -3 0.6 -0.6 12 10.275 15.9 15.3 0.825 1.125 2.925 3.075 4.575 4.425 3.075 2.4 3.075 2.4 5.475 1.125 1.275 -0.675 4.125 -3.75 6.3 -6.75 2.175 -3.075 4.575 -6.15 5.25 -6.9 0.75 -0.825 3.525 -4.65 6.3 -8.55s5.4 -7.575 5.85 -8.025c2.7 -3.225 12 -17.55 12 -18.6 0 -1.125 -5.85 -7.65 -20.1 -22.2l-7.05 -7.275 0.525 -3.975c0.3 -2.25 0.9 -4.725 1.275 -5.55 0.825 -1.575 65.7 -66.375 68.775 -68.55 1.425 -1.05 1.65 -1.575 0.975 -2.775 -0.375 -0.75 -0.975 -3.9 -1.275 -6.9 -0.375 -4.125 -0.975 -6 -2.325 -7.575 -0.975 -1.2 -1.8 -2.475 -1.8 -2.925 0 -0.75 25.725 -26.325 37.875 -37.65 3.75 -3.525 11.1 -10.575 16.425 -15.75s10.875 -10.575 12.45 -12c1.5 -1.425 8.025 -7.8 14.475 -14.1 10.875 -10.65 11.925 -11.475 13.875 -11.025 2.025 0.375 3 -0.375 12.075 -9.075 6.45 -6.3 9.825 -10.125 9.825 -11.1 0 -1.65 -15.375 -17.7 -16.95 -17.7 -0.45 0 -5.25 4.575 -10.725 10.125M416.174 209.175c4.35 4.275 6.075 6.45 6.075 7.8 0 1.8 -7.2 9 -41.925 42.15 -3.9 3.675 -11.85 11.325 -17.625 16.95 -5.85 5.625 -11.4 10.725 -12.45 11.4 -0.975 0.75 -3.225 1.275 -4.875 1.275 -2.7 0 -3.15 -0.225 -3.9 -2.25 -0.675 -1.8 -1.275 -2.25 -3.075 -2.25 -1.2 0 -2.625 -0.525 -3.15 -1.125 -2.25 -2.7 -1.575 -3.375 -44.775 39l-16.05 15.75 -0.6 4.05c-0.6 3.9 -0.825 4.2 -13.5 16.875 -12.75 12.75 -14.55 15.375 -11.55 16.5 1.425 0.6 -1.05 2.925 39.525 -37.425 48.45 -48.15 47.175 -46.875 49.05 -46.425 2.475 0.675 2.025 2.625 -1.5 5.925 -15.975 14.85 -39.225 37.575 -87.525 85.725 -31.2 31.05 -57.225 56.625 -57.9 56.775 -0.675 0.225 -2.025 -0.3 -3.15 -1.125 -2.4 -1.875 -7.275 -8.475 -7.275 -9.825 0 -0.6 11.175 -12.075 24.825 -25.65 24.525 -24.15 24.9 -24.525 27.975 -24.525 3 0 3.525 -0.45 16.275 -13.05 13.05 -12.9 13.275 -13.125 14.475 -17.7 0.9 -3.675 1.95 -5.55 4.725 -8.625C277.499 329.249 370.349 237.6 390.224 219.075c3.225 -3 8.25 -7.8 11.175 -10.65 3.3 -3.15 6 -5.175 6.975 -5.175 1.05 0 3.975 2.25 7.8 5.925m7.05 19.05c-2.475 2.85 -3.525 3.975 -9.975 10.8 -18.75 19.725 -32.4 33.975 -43.125 45.075 -11.175 11.475 -12.225 12.3 -13.725 11.475 -2.325 -1.275 -2.025 -3.375 0.9 -6.225 1.35 -1.35 6 -5.85 10.275 -9.975 11.025 -10.575 29.025 -27.975 43.275 -41.85 6.675 -6.525 12.525 -11.625 12.975 -11.4 0.525 0.375 0.3 1.05 -0.6 2.1m-72.825 71.55c1.95 1.95 3.6 4.2 3.6 5.025 0 1.65 -2.4 6 -7.275 13.05 -1.8 2.625 -3.225 4.875 -3.225 5.025s-1.425 2.4 -3.15 5.025c-1.8 2.625 -3.825 5.925 -4.65 7.35 -0.75 1.425 -1.65 2.775 -1.95 3 -0.6 0.375 -2.1 2.55 -9.15 12.825 -1.575 2.325 -3.75 4.8 -4.8 5.55 -1.875 1.2 -1.95 1.2 -5.925 -2.55 -2.25 -2.1 -4.275 -3.825 -4.65 -3.825 -0.975 0 -17.175 15.9 -18.6 18.225 -1.275 1.95 -1.275 2.475 -0.075 8.625 1.8 9.675 2.775 15.75 3.45 20.4 0.3 2.25 0.9 5.625 1.35 7.5 0.525 1.875 1.05 4.275 1.275 5.325 0.15 1.05 1.2 3.225 2.325 4.8l1.95 2.925 -2.025 1.575c-3.525 2.85 -15.675 8.625 -18.15 8.625 -2.325 0 -2.325 0 -2.775 -4.725 -0.225 -2.55 -0.375 -5.175 -0.3 -5.775 0.225 -3 -1.05 -32.85 -1.425 -34.125 -0.6 -2.1 -2.25 -3.525 -6.375 -5.55 -2.1 -0.975 -3.6 -2.25 -3.6 -2.925 -0.075 -1.575 77.925 -78.9 79.425 -78.9 0.675 0 2.775 1.575 4.725 3.525m0.975 33.9c0.825 1.125 5.325 6.075 9.975 10.95 4.575 4.8 8.4 9.375 8.4 10.05s-0.75 2.175 -1.725 3.3c-4.2 5.325 -6.225 8.025 -7.575 9.825 -0.75 1.05 -1.95 1.95 -2.625 1.95 -1.425 0 -5.85 -3.825 -9.075 -7.875 -1.275 -1.65 -4.5 -5.25 -7.2 -7.95 -5.025 -5.25 -5.775 -7.2 -3.45 -9.525 0.675 -0.75 2.1 -2.4 3.15 -3.825 5.025 -6.525 7.2 -9.075 7.875 -9.075 0.45 0 1.425 0.975 2.25 2.175m-15.9 23.1c1.425 1.575 4.5 5.025 6.9 7.725s4.575 5.025 4.875 5.25c1.725 1.5 5.25 6.825 5.25 8.025 0 1.725 -1.35 3.225 -3.075 3.225 -0.675 0 -3.75 -2.775 -6.75 -6.15 -3.075 -3.45 -7.125 -7.875 -9 -9.975 -4.95 -5.325 -5.55 -6.75 -4.05 -9.075 1.575 -2.475 2.925 -2.25 5.85 0.975m-22.65 6c0.6 0.75 1.725 2.625 2.475 4.2 1.275 2.55 1.35 3.075 0.375 5.925 -1.125 3.45 -6.825 9.9 -9.45 10.65 -0.9 0.3 -2.85 0.3 -4.275 0 -3 -0.525 -5.7 -3.975 -5.7 -7.35 0 -2.85 2.925 -2.625 5.1 0.3 1.2 1.65 2.325 2.25 3.9 2.25 2.925 0 2.85 -0.675 -0.375 -3.225 -3.975 -3.15 -3.675 -5.775 1.2 -10.35 4.275 -4.05 5.175 -4.35 6.75 -2.4"/><path d="M400.199 213.825c-2.925 3.15 -3.15 4.65 -0.9 5.025 1.875 0.375 6.45 -4.2 6.45 -6.375 0 -2.7 -2.475 -2.1 -5.55 1.35m7.875 7.5c-2.4 2.325 -2.925 5.1 -1.05 5.7 1.5 0.525 6.3 -4.35 6.075 -6.075 -0.375 -2.4 -2.4 -2.25 -5.025 0.375m-18.675 2.4c-2.625 2.7 -3.225 5.775 -1.05 5.775 1.8 0 7.05 -5.175 6.75 -6.675 -0.45 -2.175 -3.15 -1.8 -5.7 0.9m9.6 6.75c-2.25 1.2 -4.8 4.65 -4.2 5.7 1.5 2.4 7.2 -0.975 7.2 -4.275 0 -2.1 -0.825 -2.475 -3 -1.425m-20.85 4.35c-2.775 2.775 -3.15 5.175 -0.825 5.175 2.1 0 6.825 -4.725 6.225 -6.3 -0.75 -1.875 -2.775 -1.425 -5.4 1.125m8.325 7.35c-2.7 2.4 -3.225 5.1 -1.2 5.85 0.825 0.3 2.025 -0.45 3.75 -2.325 4.275 -4.65 2.025 -7.725 -2.55 -3.525m-19.575 3.3c-2.85 2.925 -3.15 5.025 -0.675 5.025 2.25 0 6.9 -4.725 6.3 -6.3 -0.75 -1.95 -3.075 -1.35 -5.625 1.275m8.25 7.5c-2.4 2.475 -3.075 4.575 -1.65 5.4 1.125 0.675 4.875 -1.8 6.3 -4.2 2.475 -4.2 -0.9 -5.1 -4.65 -1.2m-18.675 2.175c-0.825 0.975 -1.95 2.475 -2.4 3.375 -0.675 1.425 -0.6 1.8 0.6 2.4 1.125 0.675 1.875 0.3 4.125 -1.8 3.15 -2.925 3.6 -5.625 0.975 -5.625 -0.975 0 -2.475 0.75 -3.3 1.65m7.05 8.7c-2.025 2.1 -2.7 4.95 -1.35 5.775 1.05 0.6 7.05 -5.325 6.675 -6.525 -0.6 -1.8 -3.225 -1.425 -5.325 0.75m-18 1.875c-2.325 1.95 -3 5.175 -1.2 5.625 1.875 0.375 5.925 -3.45 5.925 -5.55 0 -2.325 -2.1 -2.4 -4.725 -0.075m7.125 9c-2.85 2.925 -3.15 5.025 -0.675 5.025 3.15 -0.075 7.275 -4.95 5.625 -6.6 -1.425 -1.425 -2.4 -1.05 -4.95 1.575m66.075 -24.9c-4.275 4.2 -7.725 7.875 -7.725 8.175 0 0.975 13.95 14.175 21.6 20.4s7.65 6.225 7.275 9c-0.3 2.25 -0.15 2.85 0.825 2.85 0.6 0 1.575 -0.45 2.1 -0.975 0.525 -0.45 5.25 -5.025 10.425 -9.975 9.6 -9.375 11.7 -12.3 8.85 -12.3 -0.825 0 -1.725 0.3 -1.95 0.75 -0.9 1.425 -3.45 0.75 -5.475 -1.35 -1.125 -1.2 -6.075 -5.475 -11.025 -9.6 -4.95 -4.05 -10.65 -9 -12.6 -10.95 -1.95 -2.025 -3.825 -3.6 -4.125 -3.6s-3.975 3.45 -8.175 7.575m12.75 5.25c3 2.55 7.425 6.375 9.825 8.475 2.475 2.1 5.55 4.65 6.9 5.7 3.9 2.925 3.9 4.2 0.375 7.8 -2.925 2.925 -3.15 3 -4.875 1.95 -4.725 -2.925 -25.2 -21.225 -25.2 -22.5 0 -0.825 6.075 -6 6.9 -6 0.375 0 3.075 2.1 6.075 4.575M223.125 421.649c-4.2 4.05 -5.7 5.925 -6 7.875 -0.225 1.35 -0.525 3.6 -0.75 5.025 -0.3 1.95 -2.325 4.425 -9.375 11.475 -6.75 6.75 -9 9.45 -9 10.875 0 1.05 1.425 4.05 3.225 6.675 4.65 7.05 5.175 6.9 14.775 -2.7 9.45 -9.525 15.3 -14.25 18.525 -14.925 3.525 -0.825 4.275 -4.2 0.9 -4.2 -2.625 0 -3.675 -4.2 -3.675 -14.175 0 -9.525 -0.3 -11.325 -1.95 -11.325 -0.525 0 -3.525 2.4 -6.675 5.4m3.375 11.55c0 6.9 -0.075 7.35 -2.25 10.05 -1.2 1.575 -2.25 3 -2.25 3.15 0 0.225 -3.3 3.675 -7.425 7.8 -7.275 7.35 -7.425 7.5 -9 6.225 -0.825 -0.675 -1.575 -1.875 -1.575 -2.7 0 -0.75 2.7 -4.2 6 -7.725 8.25 -8.775 9.75 -11.1 10.425 -16.05 0.375 -2.85 1.125 -4.8 2.325 -6.075 3.15 -3.375 3.75 -2.625 3.75 5.325m-66.825 2.325c-5.25 5.025 -6.6 7.425 -5.4 9.525 0.3 0.6 4.65 5.25 9.6 10.35s10.2 10.8 11.775 12.6c1.5 1.875 4.2 5.25 6.075 7.5s4.875 6 6.675 8.25c1.875 2.325 4.05 4.2 4.95 4.35 1.2 0.225 3.15 -1.275 7.35 -5.325l5.7 -5.625 -1.35 -2.325c-0.75 -1.275 -2.4 -3.45 -3.6 -4.875 -1.275 -1.425 -4.2 -4.875 -6.45 -7.65s-5.325 -6.45 -6.75 -8.175c-1.425 -1.65 -3.975 -4.725 -5.625 -6.75 -5.175 -6.375 -15.6 -16.875 -16.725 -16.875 -0.525 0 -3.375 2.25 -6.225 5.025"/></svg>