<?xml version="1.0" encoding="UTF-8" standalone="no"?>
<svg
   width="129"
   height="129"
   viewBox="0 0 129 129"
   fill="none"
   version="1.1"
   id="svg49"
   sodipodi:docname="loot-weapon-prop-o-matic.svg"
   xml:space="preserve"
   inkscape:version="1.4.2 (f4327f4, 2025-05-13)"
   xmlns:inkscape="http://www.inkscape.org/namespaces/inkscape"
   xmlns:sodipodi="http://sodipodi.sourceforge.net/DTD/sodipodi-0.dtd"
   xmlns="http://www.w3.org/2000/svg"
   xmlns:svg="http://www.w3.org/2000/svg"><defs
     id="defs49"><clipPath
       id="a"><path
         d="M-45.534 209.35l29.33 16.933v33.867l-29.33 16.933-29.33-16.933v-33.867z"
         fill-opacity=".506"
         stroke="#fff"
         stroke-width="2.117"
         stroke-opacity=".502"
         id="path1-0" /></clipPath><mask
       maskUnits="userSpaceOnUse"
       id="a-2"><path
         fill="#fff"
         stroke-width="2.922"
         stroke-linecap="square"
         stroke-linejoin="bevel"
         d="M20.052 39.272h22.579v8.535H20.052z"
         id="path1-1" /></mask></defs><sodipodi:namedview
     id="namedview49"
     pagecolor="#ffffff"
     bordercolor="#000000"
     borderopacity="0.25"
     inkscape:showpageshadow="2"
     inkscape:pageopacity="0.0"
     inkscape:pagecheckerboard="0"
     inkscape:deskcolor="#d1d1d1"
     inkscape:zoom="1.4142136"
     inkscape:cx="26.516504"
     inkscape:cy="-26.516504"
     inkscape:window-width="1920"
     inkscape:window-height="991"
     inkscape:window-x="-9"
     inkscape:window-y="-9"
     inkscape:window-maximized="1"
     inkscape:current-layer="svg49" /><mask
     id="mask0"
     mask-type="alpha"
     maskUnits="userSpaceOnUse"
     x="0"
     y="0"
     width="129"
     height="129"><rect
       x="0.910156"
       y="0.155273"
       width="128"
       height="128"
       fill="#C4C4C4"
       id="rect1" /></mask><g
     id="g50"
     transform="matrix(0.76820432,-0.30039475,0.30039475,0.76820432,156.50073,286.46895)"><g
       id="g1"
       transform="rotate(-23.656951,-61.650932,-92.32162)"><path
         d="m 31.203612,-263.29684 c -4.038488,14.7919 -19.490627,24.29455 -16.736763,37.39487 5.829128,9.10639 11.37074,11.22189 20.015907,15.83355 12.570589,-19.83129 12.228716,-35.2588 18.934475,-47.40912 -6.7352,-1.75971 -17.152613,-2.13674 -22.213619,-5.8193 z"
         fill="#ffffff"
         stroke="#323232"
         stroke-width="3.36425"
         id="path3-41-5"
         sodipodi:nodetypes="ccccc"
         style="fill:#ffffff;fill-opacity:1" /><path
         d="m 49.863907,-247.44641 c 0,0 -0.666466,4.73691 -0.950944,4.72658 -10.937808,-1.69882 -13.997701,-3.4427 -23.71753,-9.52425 l 1.526442,-4.52272 c 7.34678,5.43541 16.42945,9.08534 23.142032,9.32039 z"
         fill="#323232"
         id="path5-7-2-0-0-6"
         sodipodi:nodetypes="ccccc"
         style="stroke-width:1.56561" /><path
         d="m 44.54855,-236.45767 c 0,0 -0.666466,4.73691 -0.950944,4.72658 -10.937807,-1.69882 -13.997701,-3.4427 -23.71753,-9.52425 l 1.526442,-4.52272 c 7.34678,5.43541 16.42945,9.08534 23.142032,9.32039 z"
         fill="#323232"
         id="path5-7-2-0-0-6-2"
         sodipodi:nodetypes="ccccc"
         style="stroke-width:1.56561" /><path
         d="m 41.759793,-225.63551 c 0,0 -1.523803,5.05817 -1.808281,5.04784 -10.937807,-1.69882 -14.908496,-3.60366 -24.628325,-9.68521 l 1.526442,-4.52272 c 7.34678,5.43541 18.197582,8.92504 24.910164,9.16009 z"
         fill="#323232"
         id="path5-7-2-0-0-6-2-6"
         sodipodi:nodetypes="ccccc"
         style="stroke-width:1.56561" /></g><path
       style="font-variation-settings:normal;fill:none;fill-opacity:1;stroke:#323232;stroke-width:2.27861;stroke-linecap:butt;stroke-linejoin:miter;stroke-miterlimit:4;stroke-dasharray:none;stroke-dashoffset:0;stroke-opacity:1;paint-order:fill markers stroke;stop-color:#000000"
       d="m 0.85017887,-296.59361 2.08273903,9.75023 c 0.107297,0.50236 0.311321,5.69308 -4.4160628,6.7029 l -9.4758761,2.02414 c 0,0 -2.936583,0.71554 -4.184414,0.45248 -1.247831,-0.26308 -3.536201,-0.46497 -5.016074,-1.97383 -1.288041,-1.31325 -2.039885,-5.16272 -2.039885,-5.16272"
       id="path6757-8"
       sodipodi:nodetypes="ccscssc" /><path
       style="font-variation-settings:normal;vector-effect:none;fill:#323232;fill-opacity:1;stroke:none;stroke-width:3.03813;stroke-linecap:butt;stroke-linejoin:miter;stroke-miterlimit:4;stroke-dasharray:none;stroke-dashoffset:0;stroke-opacity:1;-inkscape-stroke:none;paint-order:fill markers stroke;stop-color:#000000"
       d="m 6.5138509,-296.88764 c -5.045588,1.2764 -3.321298,5.93944 -3.321298,5.93944 l -2.38427303,-4.96341 z"
       id="path8511-9"
       sodipodi:nodetypes="cccc" /><path
       style="font-variation-settings:normal;vector-effect:none;fill:#323232;fill-opacity:1;stroke:none;stroke-width:3.03813;stroke-linecap:butt;stroke-linejoin:miter;stroke-miterlimit:4;stroke-dasharray:none;stroke-dashoffset:0;stroke-opacity:1;-inkscape-stroke:none;paint-order:fill markers stroke;stop-color:#000000"
       d="m -1.472567,-279.00626 6.8905899,-1.4719 c 0,0 1.42075,-0.27039 0.591907,-1.67116 -0.828844,-1.40077 -1.494684,-3.12324 -1.705229,-3.85062 -0.210566,-0.72737 -0.319427,-1.28891 -0.319427,-1.28891 l -2.99223003,6.34359 z"
       id="path8832-2"
       sodipodi:nodetypes="ccssccc" /><path
       style="font-variation-settings:normal;vector-effect:none;fill:#323232;fill-opacity:1;stroke:none;stroke-width:3.03813;stroke-linecap:butt;stroke-linejoin:miter;stroke-miterlimit:4;stroke-dasharray:none;stroke-dashoffset:0;stroke-opacity:1;-inkscape-stroke:none;paint-order:fill markers stroke;stop-color:#000000"
       d="m -22.674621,-274.60722 c 0.884016,-4.04303 5.344318,-2.37432 5.344318,-2.37432 l -4.61551,-3.92934 -0.975708,5.73224 z"
       id="path8983-7"
       sodipodi:nodetypes="ccccc" /><path
       style="font-variation-settings:normal;fill:#323232;fill-opacity:1;stroke:#323232;stroke-width:0.379766;stroke-linecap:butt;stroke-linejoin:round;stroke-miterlimit:4;stroke-dasharray:none;stroke-dashoffset:0;stroke-opacity:1;paint-order:fill markers stroke;stop-color:#000000"
       d="m -10.282236,-296.20358 c -1.8403,8.23189 1.3781632,13.6864 1.3781632,13.6864 0,0 -2.4245172,-0.70233 -3.8339682,-2.88554 -1.409451,-2.18321 -2.025164,-3.85064 -2.025164,-3.85064 0,0 -2.000848,-1.18278 -2.449796,-1.95104 -0.449012,-0.76818 -1.642094,-2.6559 -1.642094,-2.6559 z"
       id="path10198-9"
       sodipodi:nodetypes="ccscscc" /><circle
       transform="rotate(-8.6427645)"
       r="5.1767087"
       cy="-253.43341"
       cx="1.3293011"
       fill="#323232"
       stroke="#505050"
       stroke-width="1.29357"
       id="circle7-4" /></g><g
     id="g23"
     transform="matrix(1.30384,-0.75277235,0.75277235,1.30384,-44.291464,31.139368)"><path
       style="fill:#ffffff;fill-opacity:1;stroke:#323232;stroke-width:2;stroke-dasharray:none;stroke-opacity:1"
       d="m 23.406,51.901 39.28,0.6 V 37.274 l -39.28,1.1 -1.2003,2.872 c -4.187512,-0.105429 -7.1997,3.424 -7.1997,3.424 0.06139,0.07714 3.455631,4.167133 7.1997,3.848 z"
       id="path17-9"
       sodipodi:nodetypes="cccccccc" /><path
       style="fill:#ffffff;fill-opacity:1;stroke:#323232;stroke-width:2;stroke-dasharray:none;stroke-opacity:1"
       d="M 38.2745,35.553211 V 31.981789 H 25.9375 V 28.123 L 42.19083,26.822789 45.276153,29.624288 45.2365,35.265 Z"
       id="path18-4"
       sodipodi:nodetypes="cccccccc" /><path
       style="fill:#ffffff;fill-opacity:1;stroke:#323232;stroke-width:2;stroke-linecap:round;stroke-linejoin:miter;stroke-dasharray:none;stroke-opacity:1"
       d="M 65.171971,39.068368 H 67.75424 V 50.8572 h -2.582269 z"
       id="path20-8"
       sodipodi:nodetypes="ccccc" /><path
       style="fill:#ffffff;fill-opacity:1;stroke:#323232;stroke-width:2;stroke-linecap:round;stroke-linejoin:miter;stroke-dasharray:none;stroke-opacity:1"
       d="m 70.267324,38.07374 2.843203,-1.065479 3.772998,1.665739 v 12.027 l -3.772998,1.7 -2.843203,-1.1 z"
       id="path21-2"
       sodipodi:nodetypes="ccccccc" /><path
       style="fill:#ffffff;fill-opacity:1;stroke:#323232;stroke-width:1.5;stroke-linecap:round;stroke-linejoin:miter;stroke-dasharray:none;stroke-opacity:1"
       d="m 79.0689,42.956007 h 1.477125 L 80.81171,42.456 h 2.441349 l 0.283,0.500007 5.177841,-7e-6 v 3.364 l -5.177841,2.37e-4 -0.283,0.399763 H 80.81171 L 80.546025,46.320237 H 79.0689 Z"
       id="path22-4"
       sodipodi:nodetypes="ccccccccccccc" /><path
       id="path23-5"
       style="fill:#ffffff;stroke:#323232;stroke-width:1.32842;stroke-linecap:round;stroke-dasharray:none"
       d="m 99.750263,44.639512 c 0,2.587865 -2.097873,4.685744 -4.685741,4.685742 -2.587864,0 -4.685742,-2.097879 -4.685743,-4.685742 1e-6,-2.587864 2.097879,-4.685743 4.685743,-4.685743 2.587868,-1e-6 4.685741,2.097877 4.685741,4.685743 z"
       sodipodi:nodetypes="sssss" /><path
       style="fill:#ffffff;fill-opacity:1;stroke:#323232;stroke-width:2.5;stroke-linecap:round;stroke-linejoin:miter;stroke-dasharray:none;stroke-opacity:1"
       d="m 25.536555,18.875 -0.07931,9.268 56.207755,-0.5 v -3.968 l -51.846,0.5 v -5.3 z"
       id="path27-1"
       sodipodi:nodetypes="ccccccc"
       transform="matrix(0.66421143,0,0,0.66421143,13.710291,25.791455)" /><path
       style="fill:none;fill-opacity:1;stroke:#323232;stroke-width:2.5;stroke-linecap:round;stroke-linejoin:miter;stroke-dasharray:none;stroke-opacity:1"
       d="m 18.471512,6.3524563 21.658835,-0.087277 0.07931,8.3271377"
       id="path28-1"
       sodipodi:nodetypes="ccc"
       transform="matrix(0.66421143,0,0,0.66421143,13.710291,25.791455)" /></g><path
     fill-rule="evenodd"
     clip-rule="evenodd"
     d="m 69.4148,51.552571 c 1.092301,-0.644555 1.455244,-2.052528 0.81059,-3.144825 -0.644555,-1.092301 -2.052528,-1.455243 -3.144824,-0.810589 -0.108667,0.06408 -0.210185,0.135851 -0.304113,0.213991 l -0.01461,-0.02468 -7.05605,4.163982 0.04214,5.308049 9.348147,-5.516517 -0.0157,-0.02663 c 0.11394,-0.0445 0.225751,-0.0986 0.334413,-0.162784 z"
     fill="#000000"
     id="path29-5" /><path
     d="m 25.818645,74.492397 c -0.13606,-0.230696 -0.05946,-0.527983 0.171227,-0.664143 L 52.290707,58.307506 c 0.23069,-0.136161 0.527978,-0.05956 0.664138,0.171127 0.136061,0.230695 0.05946,0.527983 -0.171227,0.664143 L 26.482784,74.663524 c -0.230691,0.136161 -0.527983,0.05946 -0.664139,-0.171127 z"
     fill="#000000"
     id="path30-7" /><path
     d="m 24.403806,71.919083 4.2179,-2.2432 3.1124,-0.0575 0.3816,0.7176 -0.5047,0.9456 -5.8824,3.1284 z"
     fill="#000000"
     id="path32-6" /><path
     d="m 57.1222,31.73522 0.375,1.615 -1.082,0.624 0.203,1.186 6.249,-3.608 c -2.998,-2.02 -5.744,0.183 -5.744,0.183 z"
     style="fill:#323232"
     id="path1-32" /></svg>
