<?xml version="1.0" encoding="UTF-8" standalone="no"?>
<svg
   width="128"
   height="128"
   version="1.1"
   id="svg1"
   sodipodi:docname="loot-perk-melee-runner.svg"
   xml:space="preserve"
   inkscape:version="1.4.2 (ebf0e940d0, 2025-05-08)"
   xmlns:inkscape="http://www.inkscape.org/namespaces/inkscape"
   xmlns:sodipodi="http://sodipodi.sourceforge.net/DTD/sodipodi-0.dtd"
   xmlns="http://www.w3.org/2000/svg"
   xmlns:svg="http://www.w3.org/2000/svg"><defs
     id="defs1" /><sodipodi:namedview
     id="namedview1"
     pagecolor="#ffffff"
     bordercolor="#000000"
     borderopacity="0.25"
     inkscape:showpageshadow="2"
     inkscape:pageopacity="0.0"
     inkscape:pagecheckerboard="0"
     inkscape:deskcolor="#d1d1d1"
     inkscape:zoom="2.2400922"
     inkscape:cx="0.2232051"
     inkscape:cy="90.398065"
     inkscape:window-width="1920"
     inkscape:window-height="1017"
     inkscape:window-x="0"
     inkscape:window-y="0"
     inkscape:window-maximized="1"
     inkscape:current-layer="svg1" /><path
     id="path2"
     style="fill:#ffffff;stroke:none;stroke-width:5.41333;paint-order:fill markers stroke"
     d="m 100.75273,7.887233 c -7.035719,2.534e-4 -12.739234,5.703772 -12.739486,12.739488 -0.001,7.036632 5.702849,12.741583 12.739486,12.741837 7.03664,-2.54e-4 12.74053,-5.705205 12.73948,-12.741837 -2.5e-4,-7.035716 -5.70376,-12.7392346 -12.73948,-12.739488 z M 82.163529,27.808262 56.037464,28.114165 c -0.744117,0.0084 -1.38798,0.483051 -1.86598,1.277717 -0.120931,0.07686 -0.23044,0.164571 -0.329429,0.265893 L 35.582282,48.350506 c -1.274149,1.304221 -0.141785,4.150354 2.541309,6.383863 2.683092,2.233508 5.869752,2.981947 7.143901,1.677736 l 15.424332,-15.786696 6.412098,-0.0753 -30.629829,31.352211 c -0.277884,0.284445 -27.9802798,1.957749 -27.9802798,1.957749 -2.4644247,0.08674 -4.0112809,3.931123 -3.4707682,8.621625 0.5405138,4.690513 2.9593848,8.397815 5.423812,8.311024 L 44.01607,88.203392 c 1.804925,-0.06361 6.24306,-4.156223 6.604641,-4.52634 l 8.647508,-8.852229 12.678308,12.384176 -3.461357,29.738031 c -0.284946,2.44944 3.28433,4.55838 8.002769,4.72966 4.718439,0.17127 8.746111,-1.66372 9.031058,-4.11316 l 2.471455,-34.027376 c 0.160964,-1.383652 0.7045,-3.733589 -1.106678,-4.612287 C 80.814088,73.816939 76.385966,67.794024 71.141778,62.671252 L 83.664782,49.851767 c 0.656843,-0.672345 0.875112,-0.863975 0.710626,-1.959543 l 13.593649,12.520087 c 1.304222,1.274151 4.152703,0.139439 6.386213,-2.543652 0.051,-0.06121 0.10348,-0.126525 0.15295,-0.188257 l 18.07624,-18.502137 c 1.27415,-1.304211 0.13943,-4.152705 -2.54367,-6.386213 -2.68309,-2.233509 -5.86975,-2.981947 -7.1439,-1.677737 L 99.740919,44.578544 87.340268,32.464981 c -0.424289,-0.414513 -3.738555,-4.67349 -5.176739,-4.656719 z"
     sodipodi:nodetypes="ccccccccccscccccsccccccscccccccsccscccc" /></svg>
