<?xml version="1.0" encoding="UTF-8" standalone="no"?>
<svg
   width="128"
   height="128"
   version="1.1"
   id="svg1"
   sodipodi:docname="loot-perk-low-hp-surge.svg"
   xml:space="preserve"
   inkscape:version="1.4.2 (ebf0e940d0, 2025-05-08)"
   xmlns:inkscape="http://www.inkscape.org/namespaces/inkscape"
   xmlns:sodipodi="http://sodipodi.sourceforge.net/DTD/sodipodi-0.dtd"
   xmlns="http://www.w3.org/2000/svg"
   xmlns:svg="http://www.w3.org/2000/svg"><defs
     id="defs1" /><sodipodi:namedview
     id="namedview1"
     pagecolor="#ffffff"
     bordercolor="#000000"
     borderopacity="0.25"
     inkscape:showpageshadow="2"
     inkscape:pageopacity="0.0"
     inkscape:pagecheckerboard="0"
     inkscape:deskcolor="#d1d1d1"
     inkscape:zoom="4.4801844"
     inkscape:cx="60.823389"
     inkscape:cy="65.510696"
     inkscape:window-width="1920"
     inkscape:window-height="1017"
     inkscape:window-x="0"
     inkscape:window-y="0"
     inkscape:window-maximized="1"
     inkscape:current-layer="XMLID_104_" /><g
     style="fill:#ff63ff;fill-opacity:0.5"
     id="g1"
     transform="matrix(0.34329748,0,0,0.34329748,1.2750738,2.8768343)"><g
       id="XMLID_104_"
       transform="translate(4.5974657,0.91949314)"
       style="fill:#ff63ff;fill-opacity:0.5"
       inkscape:label="XMLID_104_">
	<path
   id="XMLID_105_"
   style="fill:#ffffff;fill-opacity:1"
   d="M 98.374237 28.403545 C 43.728237 28.404545 0.92208567 71.210694 0.92208567 125.8557 C 0.92208567 191.9107 46.909131 232.28612 116.52313 293.40012 C 122.47313 298.62412 128.61473 304.01527 134.93373 309.60327 C 134.97673 309.64227 135.02058 309.67905 135.06458 309.71705 L 156.08089 327.87163 C 158.89689 330.30463 162.39425 331.51848 165.88925 331.51848 C 169.38425 331.51848 172.88062 330.30363 175.69762 327.87163 L 194.46664 311.65711 C 203.34584 303.86517 209.57832 296.21674 218.23657 287.86442 C 220.72129 285.4675 206.59443 248.97404 207.60326 245.67252 C 213.21302 227.31388 221.89966 214.69089 232.51673 209.65351 C 243.12102 204.62218 251.58965 201.65202 271.40884 204.24867 C 275.28603 204.75665 287.73079 213.2412 290.01288 210.20537 C 314.69744 177.36786 330.85073 146.86078 330.85073 125.8557 C 330.85073 71.209694 288.04258 28.403545 233.39858 28.403545 C 208.83758 28.403545 184.57425 37.656828 165.88925 53.686828 C 147.20125 37.654828 122.93523 28.403545 98.374237 28.403545 z M 159.39775 81.410825 L 169.30853 81.410825 C 176.50454 81.410825 182.29722 84.239481 182.29722 87.754403 L 182.29722 210.42157 C 182.29722 213.93649 176.50454 216.76514 169.30853 216.76514 L 159.39775 216.76514 C 152.20174 216.76514 146.40906 213.93649 146.40906 210.42157 L 146.40906 87.754403 C 146.40906 84.239481 152.20174 81.410825 159.39775 81.410825 z M 164.05161 231.25012 A 17.975365 19.002526 0 0 1 182.02982 250.25241 A 17.975365 19.002526 0 0 1 164.05161 269.2547 A 17.975365 19.002526 0 0 1 146.07908 250.25241 A 17.975365 19.002526 0 0 1 164.05161 231.25012 z " />
	
</g></g><path
     id="path1"
     style="fill:#ffffff;fill-opacity:1;stroke:none;stroke-width:0.344862;paint-order:fill markers stroke"
     d="M 90.569056,68.841006 A 19.050397,20.138988 0 0 0 71.518535,88.980436 19.050397,20.138988 0 0 0 90.569056,109.11987 19.050397,20.138988 0 0 0 109.61958,88.980436 19.050397,20.138988 0 0 0 90.569056,68.841006 Z M 90.497905,73.3023 A 15.252336,16.123896 0 0 1 105.7491,89.426781 15.252336,16.123896 0 0 1 90.497901,105.55126 15.252336,16.123896 0 0 1 75.244546,89.426781 15.252336,16.123896 0 0 1 90.497901,73.3023 Z" /><path
     id="path2"
     style="fill:#ffffff;fill-opacity:1;stroke:none;stroke-width:0.974249;paint-order:fill markers stroke"
     d="m 96.075726,78.922332 c -1.266228,4.5e-5 -2.29268,1.026513 -2.292726,2.292736 -1.84e-4,1.266385 1.02633,2.293111 2.292726,2.293163 1.266392,-5.2e-5 2.292922,-1.026778 2.29273,-2.293163 -4.6e-5,-1.266223 -1.026508,-2.292691 -2.29273,-2.292736 z m -3.345515,3.585208 -4.701917,0.05503 c -0.133926,0.0018 -0.249803,0.08693 -0.335825,0.229949 -0.02169,0.01385 -0.04148,0.02966 -0.05926,0.0479 l -3.286225,3.364145 c -0.22931,0.23472 -0.02553,0.746942 0.457361,1.148905 0.482884,0.401971 1.056383,0.536667 1.285693,0.301946 l 2.775933,-2.841148 1.153991,-0.01357 -5.512479,5.642491 c -0.04999,0.05119 -5.03563,0.352331 -5.03563,0.352331 -0.443523,0.01565 -0.721916,0.70749 -0.624638,1.551646 0.09728,0.844148 0.532605,1.511356 0.976127,1.495739 l 6.041481,-0.466007 c 0.324832,-0.01142 1.123562,-0.747994 1.188647,-0.814605 l 1.556296,-1.593142 2.281714,2.228783 -0.622933,5.351978 c -0.05129,0.440823 0.591077,0.820366 1.440264,0.851202 0.849178,0.03082 1.574046,-0.29943 1.625329,-0.740255 l 0.44478,-6.123924 c 0.02899,-0.249019 0.126796,-0.67194 -0.199155,-0.830078 -1.092381,-0.919099 -1.889309,-2.003049 -2.833111,-2.924995 l 2.253764,-2.307132 c 0.118215,-0.121006 0.1575,-0.155488 0.127899,-0.352659 l 2.446447,2.253247 c 0.234738,0.229316 0.747378,0.0251 1.149339,-0.457779 0.009,-0.01096 0.01865,-0.02277 0.02747,-0.03383 l 3.253197,-3.329841 c 0.22931,-0.23472 0.0251,-0.747373 -0.457802,-1.149335 -0.482877,-0.401969 -1.056374,-0.536666 -1.285683,-0.301946 l -2.367697,2.423167 -2.231751,-2.180086 c -0.07636,-0.07459 -0.672817,-0.841087 -0.931644,-0.838068 z"
     sodipodi:nodetypes="ccccccccccscccccsccccccscccccccsccscccc" /></svg>
