<?xml version="1.0" encoding="UTF-8" standalone="no"?>
<svg
   width="128"
   height="128"
   version="1.1"
   id="svg3"
   sodipodi:docname="loot-perk-rapid-bullet.svg"
   xml:space="preserve"
   inkscape:version="1.4.2 (ebf0e940d0, 2025-05-08)"
   xmlns:inkscape="http://www.inkscape.org/namespaces/inkscape"
   xmlns:sodipodi="http://sodipodi.sourceforge.net/DTD/sodipodi-0.dtd"
   xmlns="http://www.w3.org/2000/svg"
   xmlns:svg="http://www.w3.org/2000/svg"><defs
     id="defs3" /><sodipodi:namedview
     id="namedview3"
     pagecolor="#ffffff"
     bordercolor="#000000"
     borderopacity="0.25"
     inkscape:showpageshadow="2"
     inkscape:pageopacity="0.0"
     inkscape:pagecheckerboard="0"
     inkscape:deskcolor="#d1d1d1"
     inkscape:zoom="6.3359375"
     inkscape:cx="63.210851"
     inkscape:cy="64.631319"
     inkscape:window-width="1920"
     inkscape:window-height="1017"
     inkscape:window-x="0"
     inkscape:window-y="0"
     inkscape:window-maximized="1"
     inkscape:current-layer="g1" /><g
     fill="#fff"
     id="g1"
     style="fill:#ff6cff;fill-opacity:1"
     transform="matrix(0,0.71358996,-0.71358996,0,127.66279,14.543328)"><path
       d="M 35.383847,80.563812 57.452299,57.046555 92.727737,90.148817 70.660121,113.66519 Z M 52.829764,54.11495 43.512791,51.335995 34.176482,42.57486 19.464181,58.25303 l 9.33542,8.760303 3.366751,9.123374 z M 5.3858439,22.065333 -5.2953896,16.745474 a 2.6884343,2.6884343 0 0 0 -3.5233101,3.754616 l 5.985712,10.323647 C 2.2188676,39.528688 8.4474934,47.453564 15.612663,54.503357 L 30.189804,38.969217 C 22.698418,32.267059 14.39402,26.554232 5.3858439,22.065333 Z M 100.08194,100.32373 c -0.103306,-0.21063 -0.204104,-0.423927 -0.332095,-0.624292 l -3.505928,-5.441816 -21.260835,22.656628 5.651784,3.15509 c 0.208974,0.11582 0.426468,0.20121 0.647518,0.28992 -0.105689,1.8855 0.564237,3.80327 2.046344,5.19406 l 2.100915,1.97149 a 6.6278137,6.6278137 0 0 0 9.358908,-0.2983 l 13.006129,-13.85998 a 6.6302521,6.6302521 0 0 0 -0.29742,-9.35807 l -2.10091,-1.97149 c -1.48129,-1.39169 -3.43772,-1.93849 -5.31441,-1.71324 z"
       id="path1"
       style="fill:#ffffff;fill-opacity:1;stroke-width:1.21924" /><path
       d="m 118.25744,151.05387 c -9.67792,-8.91742 -15.73561,-12.86215 -15.97915,-11.9942 -0.85239,3.03721 17.60512,19.81685 25.63883,26.08177 -2.27712,-2.09824 -6.48364,-6.00165 -4.97137,-5.26342 1.89051,0.92298 5.70096,5.21667 7.96992,7.34386 6.80715,6.38128 11.1104,8.91827 12.41125,9.38899 -9.35186,-7.5252 -14.82257,-16.11527 -25.06947,-25.55699 z"
       fill="#38a5f3"
       fill-opacity="0.75"
       id="path15"
       style="fill:#ffffff;fill-opacity:1;stroke-width:0.984559" /><path
       d="m 132.67925,129.33618 c -9.67792,-8.91742 -15.73561,-12.86216 -15.97915,-11.9942 -0.8524,3.0372 17.60511,19.81685 25.63883,26.08177 -2.2771,-2.09825 -6.48363,-6.00165 -4.97135,-5.26342 1.89049,0.92297 5.70095,5.21668 7.96991,7.34386 6.80714,6.38127 11.11041,8.91827 12.41125,9.38899 -9.35189,-7.5252 -14.82259,-16.11528 -25.06949,-25.55699 z"
       fill="#38a5f3"
       fill-opacity="0.75"
       id="path15-6-0"
       style="fill:#ffffff;fill-opacity:1;stroke-width:0.984559" /><path
       d="m 118.6582,133.55817 c -9.67793,-8.91743 -15.73561,-12.86215 -15.97915,-11.99421 -0.85239,3.03724 17.6051,19.81687 25.63883,26.08179 -2.27712,-2.09825 -6.48364,-6.00165 -4.97136,-5.26343 1.8905,0.92298 5.70095,5.21668 7.96991,7.34387 6.80715,6.38127 11.11041,8.91825 12.41124,9.38899 -9.35187,-7.5252 -14.82255,-16.11527 -25.06948,-25.55701 z"
       fill="#38a5f3"
       fill-opacity="0.75"
       id="path15-6-9"
       style="fill:#ffffff;fill-opacity:1;stroke-width:0.984559" /></g></svg>
