<?xml version="1.0" encoding="UTF-8" standalone="no"?>
<svg
   width="128"
   height="128"
   version="1.1"
   id="svg1"
   sodipodi:docname="loot-perk-mine-master.svg"
   xml:space="preserve"
   inkscape:version="1.4.2 (ebf0e940d0, 2025-05-08)"
   xmlns:inkscape="http://www.inkscape.org/namespaces/inkscape"
   xmlns:sodipodi="http://sodipodi.sourceforge.net/DTD/sodipodi-0.dtd"
   xmlns="http://www.w3.org/2000/svg"
   xmlns:svg="http://www.w3.org/2000/svg"><defs
     id="defs1" /><sodipodi:namedview
     id="namedview1"
     pagecolor="#ffffff"
     bordercolor="#000000"
     borderopacity="0.25"
     inkscape:showpageshadow="2"
     inkscape:pageopacity="0.0"
     inkscape:pagecheckerboard="0"
     inkscape:deskcolor="#d1d1d1"
     inkscape:zoom="4.4801844"
     inkscape:cx="32.253137"
     inkscape:cy="54.350442"
     inkscape:window-width="1920"
     inkscape:window-height="1017"
     inkscape:window-x="0"
     inkscape:window-y="0"
     inkscape:window-maximized="1"
     inkscape:current-layer="g2" /><path
     d="M117.569 97.013c0 28.034-71.688 25.116-76.407 23.322-5.74-2.182-33.192 6.035-31.458-7.187.975-7.427 2.134-10.35 2.177-26.188.031-11.659 4.17-17.941 6.654-25.05 3.74-10.705 6.476-19.844 7.678-24.652.499-1.995-.678-11.593 3.322-17.593 6.56-9.84 8.78-12.95 12.78-12.95 3.807 0 13.954 3.695 21.38 6.555 2.952 1.138 2.12 8.44 1.54 9.053-2.747 2.9-17.754 9.493-19.526 6.39-1.317-2.303-.913-4.97.146-5.546 3.597-1.958 4.083.712 4.683 1.421.302.356-.14-1.444.57-2.076.738-.659 6.368-2.643 6.405-3.15.062-.833-6.918.54-7.28.572-1.5.132-3.723.027-4.735-.56-.794-.461-2.865-2.891-2.75-2.365.258 1.188.122 3.29.338 4.66.209 1.325-1.402 3.68-1.402 4.684 0 2 2.63 7.855 4.801 7.762 12.373-.527 14.955-7.424 17.927-6.214 1.8.732 3.315 5.094 1.774 6.758-3.729 4.027-5.947 4.008-8.555 8.396-3.109 5.231-13.451 5.633-13.672 9.366-1.335 22.605.319 30.506-1.804 41.532-.378 1.964 11.9-28.948 36.895-28.492 19.404.354 38.519 17.552 38.519 31.552z"
     fill="#fefefe"
     stroke-width="8"
     stroke-linejoin="round"
     id="path1"
     style="fill:#ffffff;fill-opacity:1" /><g
     style="fill:none;fill-opacity:1"
     id="g2"
     transform="matrix(0.84996162,0,0,0.84996162,-13.724223,-19.935834)"><path
       fill-rule="evenodd"
       clip-rule="evenodd"
       d="m 52.4434,29.6388 5.3878,-1.4437 1.2096,3.4172 c 1.8272,-0.3101 3.705,-0.4716 5.6205,-0.4716 1.9267,0 3.8153,0.1634 5.6526,0.4771 l 1.1027,-3.1081 5.3878,1.4437 -0.5986,3.2399 c 2.9924,1.1043 5.7828,2.6257 8.3008,4.4935 l 4.394,-3.4872 6.0477,6.0477 -3.4874,4.3943 c 1.8532,2.4988 3.3653,5.2659 4.4673,8.2323 l 3.2382,-0.5924 1.4766,5.5106 -3.1034,1.1072 c 0.3063,1.8161 0.4657,3.6822 0.4657,5.5854 0,1.8998 -0.1588,3.7625 -0.464,5.5755 l 3.1677,1.1299 -1.4764,5.5106 -3.3045,-0.6048 c -1.1047,2.9734 -2.6213,5.7465 -4.4806,8.25 l 3.4908,4.3928 -6.0136,6.0135 -4.3912,-3.4895 c -2.518,1.8717 -5.3092,3.3967 -8.3027,4.5043 l 0.6605,3.5615 -5.3878,1.4435 -1.2095,-3.417 c -1.8311,0.3116 -3.7129,0.4738 -5.6327,0.4738 -1.9247,0 -3.8114,-0.1631 -5.6469,-0.4762 l -1.1019,3.1064 -5.3878,-1.4438 0.598,-3.2368 c -2.9938,-1.1043 -5.7855,-2.6258 -8.3046,-4.4941 l -4.3937,3.4869 -6.0477,-6.0476 3.4867,-4.3935 c -1.8551,-2.5009 -3.3685,-5.2705 -4.471,-8.2398 l -3.2739,0.5988 -1.4766,-5.5106 3.1391,-1.1199 c -0.305,-1.8125 -0.4638,-3.6746 -0.4638,-5.5739 0,-1.9004 0.159,-3.7636 0.4644,-5.5772 l -3.1605,-1.1272 1.4766,-5.5105 3.297,0.6034 c 1.1063,-2.9781 2.626,-5.7552 4.4893,-8.2616 l -3.4832,-4.3833 6.0135,-6.0135 4.3849,3.4844 c 2.5187,-1.8707 5.3104,-3.3946 8.3044,-4.501 z"
       fill="#d2d2d2"
       id="path2-7" /><path
       d="m 57.8312,28.1951 3.226,-1.1419 -1.0557,-2.9824 -3.056,0.8188 z m -5.3878,1.4437 -0.8857,-3.3055 -3.056,0.8188 0.577,3.1107 z m 6.5974,1.9735 -3.2259,1.142 0.9605,2.7137 2.8381,-0.4818 z m 11.2731,0.0055 -0.576,3.3733 2.8384,0.4847 0.9628,-2.7138 z m 1.1027,-3.1081 0.8857,-3.3055 -3.0539,-0.8183 -1.057,2.9796 z m 5.3878,1.4437 3.3651,0.6217 0.5744,-3.109 -3.0538,-0.8182 z m -0.5986,3.2399 -3.3652,-0.6217 -0.5236,2.8342 2.7039,0.9979 z m 8.3008,4.4935 -2.0388,2.7485 2.1092,1.5645 2.0569,-1.6325 z m 4.394,-3.4872 2.4198,-2.4198 -2.1573,-2.1573 -2.3898,1.8966 z m 6.0477,6.0477 2.6805,2.1273 1.8966,-2.3898 -2.1573,-2.1573 z m -3.4874,4.3943 -2.6806,-2.1273 -1.6323,2.0568 1.5642,2.1091 z m 4.4673,8.2323 -3.2079,1.1917 0.9997,2.6911 2.8239,-0.5166 z m 3.2382,-0.5924 3.3056,-0.8857 -0.817,-3.0484 -3.1043,0.5679 z m 1.4766,5.5106 1.15,3.2232 2.972,-1.0605 -0.816,-3.0484 z m -3.1034,1.1072 -1.1499,-3.2232 -2.7016,0.9639 0.477,2.8284 z m 0.0017,11.1609 -3.3747,-0.568 -0.476,2.8279 2.7011,0.9634 z m 3.1677,1.1299 3.306,0.8857 0.817,-3.0487 -2.973,-1.0603 z m -1.4764,5.5106 -0.616,3.3662 3.1044,0.5682 0.817,-3.0487 z m -3.3045,-0.6048 0.6161,-3.3662 -2.8242,-0.5169 -0.9998,2.6913 z m -4.4806,8.25 -2.7473,-2.0404 -1.5678,2.1109 1.6359,2.0585 z m 3.4908,4.3928 2.4198,2.4198 2.1587,-2.1587 -1.8993,-2.3901 z m -6.0136,6.0135 -2.129,2.6792 2.3901,1.8993 2.1587,-2.1587 z m -4.3912,-3.4895 2.1291,-2.6792 -2.0595,-1.6365 -2.1111,1.5692 z m -8.3027,4.5043 -1.1874,-3.2096 -2.7029,1 0.5255,2.8336 z m 0.6605,3.5615 0.8857,3.3055 3.056,-0.819 -0.5769,-3.1106 z m -5.3878,1.4435 -3.2259,1.142 1.0557,2.982 3.0559,-0.818 z m -1.2095,-3.417 3.2259,-1.1419 -0.9609,-2.7147 -2.839,0.483 z m -11.2796,-0.0024 0.5755,-3.3734 -2.8381,-0.4841 -0.9625,2.7134 z m -1.1019,3.1064 -0.8857,3.305 3.0538,0.819 1.0571,-2.98 z m -5.3878,-1.4438 -3.3652,-0.6217 -0.5744,3.1085 3.0539,0.819 z m 0.598,-3.2368 3.3651,0.6217 0.5238,-2.8348 -2.7047,-0.9976 z m -8.3046,-4.4941 2.0386,-2.7487 -2.1091,-1.5642 -2.0568,1.6323 z m -4.3937,3.4869 -2.4198,2.4198 2.1573,2.1574 2.3898,-1.8966 z m -6.0477,-6.0476 -2.6806,-2.1274 -1.8965,2.3898 2.1573,2.1574 z m 3.4867,-4.3935 2.6805,2.1274 1.6325,-2.057 -1.5645,-2.1091 z m -4.471,-8.2398 3.2081,-1.1912 -0.9994,-2.6917 -2.8244,0.5166 z m -3.2739,0.5988 -3.3056,0.8857 0.8169,3.0484 3.1044,-0.5678 z m -1.4766,-5.5106 -1.1499,-3.2231 -2.9724,1.0604 0.8168,3.0484 z m 3.1391,-1.1199 1.1499,3.2232 2.7006,-0.9635 -0.4758,-2.8276 z m 6e-4,-11.1511 3.3746,0.5683 0.4762,-2.8281 -2.7012,-0.9634 z m -3.1605,-1.1272 -3.3055,-0.8857 -0.8169,3.0488 2.9728,1.0602 z m 1.4766,-5.5105 0.616,-3.3662 -3.1047,-0.5683 -0.8169,3.0487 z m 3.297,0.6034 -0.6161,3.3662 2.8241,0.5168 0.9998,-2.6912 z m 4.4893,-8.2616 2.7464,2.0416 1.5694,-2.1112 -1.6366,-2.0595 z m -3.4832,-4.3833 -2.4198,-2.4198 -2.1587,2.1587 1.8993,2.3902 z m 6.0135,-6.0135 2.1291,-2.6792 -2.3901,-1.8993 -2.1588,2.1587 z m 4.3849,3.4844 -2.1291,2.6792 2.0587,1.6359 2.1109,-1.5678 z m 8.3044,-4.501 1.1862,3.2099 2.7042,-0.9993 -0.5257,-2.8347 z m 3.8419,-8.3086 -5.3878,1.4437 1.7714,6.611 5.3878,-1.4437 z m 5.3213,5.5808 -1.2096,-3.4172 -6.452,2.2839 1.2097,3.4172 z m 2.3945,-2.7519 c -2.1082,0 -4.1776,0.1778 -6.1932,0.52 l 1.1454,6.7477 c 1.6388,-0.2782 3.325,-0.4234 5.0478,-0.4234 z m 6.2286,0.526 c -2.0268,-0.3461 -4.108,-0.526 -6.2286,-0.526 v 6.8443 c 1.7329,0 3.4288,0.1469 5.0766,0.4283 z m -2.6985,-0.879 -1.1027,3.1082 6.4504,2.2883 1.1026,-3.1081 z m 9.4987,-0.7176 -5.3878,-1.4437 -1.7715,6.611 5.3878,1.4437 z m 1.8809,7.1671 0.5985,-3.2399 -6.7303,-1.2434 -0.5986,3.2399 z m 6.9744,1.1233 C 83.77,32.8795 80.6926,31.2014 77.3906,29.9828 l -2.3697,6.4209 c 2.6828,0.9901 5.1863,2.3547 7.4469,4.0316 z m 0.2279,-3.4192 -4.394,3.4871 4.2546,5.3611 4.394,-3.4871 z m 10.5948,6.3084 -6.0477,-6.0477 -4.8396,4.8396 6.0477,6.0477 z m -3.2267,8.9415 3.4874,-4.3944 -5.3611,-4.2546 -3.4874,4.3943 z m 4.9947,4.9131 c -1.216,-3.2732 -2.8838,-6.3247 -4.9265,-9.079 l -5.4974,4.0771 c 1.6638,2.2433 3.0201,4.7259 4.0081,7.3854 z m -2.5922,4.558 3.2383,-0.5923 -1.2315,-6.7325 -3.2383,0.5923 z m -0.683,-3.0729 1.4766,5.5106 6.6115,-1.7714 -1.477,-5.5106 z m 3.6322,1.4018 -3.1034,1.1071 2.2998,6.4463 3.1035,-1.1071 z m 1.9339,9.9157 c 0,-2.0947 -0.175,-4.1511 -0.513,-6.1545 l -6.7489,1.1382 c 0.2747,1.6289 0.4181,3.3045 0.4181,5.0163 z m -0.511,6.1436 c 0.337,-1.9999 0.511,-4.0526 0.511,-6.1436 h -6.8438 c 0,1.7087 -0.1428,3.3814 -0.4166,5.0075 z m 0.943,-2.6615 -3.1682,-1.1298 -2.2991,6.4465 3.1679,1.1298 z m 0.679,9.6196 1.477,-5.5106 -6.6113,-1.7714 -1.4766,5.5105 z m -7.226,1.8757 3.3046,0.6048 1.2321,-6.7325 -3.3045,-0.6047 z m -1.1172,6.9242 c 2.0494,-2.7594 3.7223,-5.8177 4.9412,-9.0987 l -6.4158,-2.3835 c -0.9904,2.6658 -2.3508,5.1538 -4.02,7.4014 z m 3.4227,0.2234 -3.4908,-4.3928 -5.3584,4.258 3.4908,4.3928 z m -6.273,10.5623 6.0136,-6.0135 -4.8396,-4.8396 -6.0136,6.0135 z m -8.94,-3.2301 4.3912,3.4895 4.2581,-5.3584 -4.3912,-3.4895 z m -4.9863,5.0346 c 3.3033,-1.2222 6.3814,-2.9043 9.1568,-4.9673 l -4.083,-5.493 c -2.2606,1.6804 -4.7648,3.0483 -7.4486,4.0412 z m 2.8379,-0.2721 -0.6606,-3.5615 -6.7295,1.2481 0.6606,3.5615 z m -7.8669,5.3736 5.3878,-1.444 -1.7714,-6.611 -5.3878,1.4436 z m -5.3212,-5.581 1.2096,3.417 6.4519,-2.2838 -1.2096,-3.4171 z m -2.4067,2.754 c 2.1129,0 4.1868,-0.179 6.2066,-0.522 L 69.72,93.9814 c -1.6422,0.2794 -3.3321,0.4253 -5.0587,0.4253 z m -6.2223,-0.525 c 2.0248,0.345 4.1039,0.525 6.2223,0.525 v -6.8443 c -1.7311,0 -3.4252,-0.1467 -5.0714,-0.4275 z m 2.6987,0.877 1.1019,-3.1062 -6.4503,-2.2883 -1.102,3.1062 z m -9.4987,0.718 5.3878,1.443 1.7714,-6.6107 -5.3878,-1.4436 z m -1.8815,-7.1643 -0.598,3.2368 6.7303,1.2434 0.598,-3.2368 z M 42.7796,94.033 c 2.7766,2.0593 5.8554,3.7376 9.1588,4.956 l 2.3685,-6.4213 c -2.684,-0.99 -5.1886,-2.3548 -7.4502,-4.0321 z m -0.2279,3.4188 4.3938,-3.4869 -4.2547,-5.3612 -4.3938,3.487 z m -10.5948,-6.3084 6.0477,6.0476 4.8396,-4.8396 -6.0477,-6.0476 z m 3.2259,-8.9406 -3.4867,4.3934 5.3611,4.2547 3.4867,-4.3934 z m -4.9985,-4.9214 c 1.2165,3.2765 2.8858,6.3309 4.9306,9.0875 l 5.497,-4.0775 C 38.9464,80.0461 37.589,77.5612 36.6005,74.8991 Z m 2.5924,-4.5574 -3.274,0.5988 1.2315,6.7326 3.274,-0.5989 z m 0.6473,3.0794 -1.4766,-5.5106 -6.611,1.7714 1.4765,5.5106 z m -3.6322,-1.4017 3.1391,-1.1199 -2.2998,-6.4463 -3.1391,1.1199 z m -1.8967,-9.917 c 0,2.0903 0.1748,4.1424 0.5113,6.1418 l 6.7493,-1.1358 c -0.2736,-1.6256 -0.4164,-3.2978 -0.4164,-5.006 z m 0.5119,-6.1454 c -0.3369,2.0005 -0.5119,4.0539 -0.5119,6.1454 h 6.8442 c 0,-1.7092 0.143,-3.3824 0.4169,-5.0089 z m -0.9355,2.6643 3.1605,1.1272 2.2992,-6.4465 -3.1605,-1.1272 z m -0.6794,-9.6196 -1.4765,5.5106 6.611,1.7715 1.4766,-5.5106 z m 7.2186,-1.877 -3.297,-0.6034 -1.2321,6.7324 3.297,0.6034 z m 1.1269,-6.9371 c -2.0537,2.7627 -3.73,5.8254 -4.9508,9.1115 l 6.4157,2.3836 c 0.992,-2.67 2.3551,-5.1616 4.0279,-7.4118 z m -3.416,-0.2125 3.4832,4.3832 5.3584,-4.2581 -3.4832,-4.3832 z m 6.2729,-10.5624 -6.0135,6.0135 4.8396,4.8396 6.0135,-6.0135 z m 8.9337,3.225 -4.3848,-3.4844 -4.2581,5.3584 4.3848,3.4844 z m 4.9891,-5.0318 c -3.3037,1.2209 -6.3824,2.9018 -9.1586,4.9638 l 4.081,5.4945 c 2.2612,-1.6795 4.7658,-3.0464 7.4501,-4.0384 z m -2.8386,0.2746 0.6601,3.5594 6.7295,-1.2481 -0.6602,-3.5594 z"
       fill="#323232"
       mask="url(#path-1-outside-1)"
       id="path3-5"
       style="fill:#ffffff;fill-opacity:1" /><path
       d="m 33.1633,39.018 -1.0794,1.0794 0.9497,1.195 24.1427,30.3812 0.1218,0.1533 0.1532,0.1218 30.3812,24.1427 1.1951,0.9497 1.0794,-1.0794 6.0135,-6.0135 1.0794,-1.0793 L 96.2502,87.6738 72.1075,57.2926 71.9857,57.1393 71.8324,57.0175 41.4512,32.8748 40.2561,31.9251 39.1768,33.0045 Z"
       fill="#323232"
       stroke="#323232"
       stroke-width="3.42212"
       id="path4-3"
       style="fill:#ffffff;fill-opacity:1" /><path
       d="m 90.0891,32.9894 -1.0787,-1.0787 -1.1949,0.9483 -30.3989,24.125 -0.1543,0.1224 -0.1223,0.1542 -24.125,30.3989 -0.9483,1.1949 1.0786,1.0787 6.0477,6.0477 1.0787,1.0786 1.1949,-0.9483 30.3989,-24.125 0.1542,-0.1223 0.1224,-0.1543 24.125,-30.3989 0.9483,-1.1949 -1.0787,-1.0787 z"
       fill="#323232"
       stroke="#323232"
       stroke-width="3.42212"
       id="path5-5"
       style="fill:#ffffff;fill-opacity:1" /><circle
       cx="64.639"
       cy="64.482803"
       r="25.108"
       fill="#afafaf"
       stroke="#323232"
       stroke-width="5.70353"
       id="circle5-6"
       style="fill:#ffffff;fill-opacity:1" /><path
       d="m 65.0788,49.0217 -0.4365,-0.1808 -0.4366,0.1808 -10.1879,4.22 -0.4365,0.1808 -0.1808,0.4365 -4.22,10.1879 -0.1808,0.4365 0.1808,0.4366 4.22,10.1879 0.1808,0.4365 0.4365,0.1808 10.1879,4.22 0.4366,0.1808 0.4365,-0.1808 10.1879,-4.22 0.4365,-0.1808 0.1808,-0.4365 4.22,-10.1879 0.1808,-0.4366 -0.1808,-0.4365 -4.22,-10.1879 -0.1808,-0.4365 -0.4365,-0.1808 z"
       fill="#7d7d7d"
       stroke="#323232"
       stroke-width="2.28141"
       id="path6-2" /><rect
       x="63.503899"
       y="49.315899"
       width="2.28141"
       height="29.9533"
       fill="#323232"
       id="rect6-9" /><rect
       x="49.671902"
       y="65.432701"
       width="2.28141"
       height="29.9533"
       transform="rotate(-90,49.6719,65.4327)"
       fill="#323232"
       id="rect7-1" /><rect
       x="53.246101"
       y="54.509201"
       width="2.28141"
       height="29.9533"
       transform="rotate(-45,53.2461,54.5092)"
       fill="#323232"
       id="rect8-2" /><rect
       width="2.28141"
       height="29.9533"
       transform="matrix(-0.707107,-0.707107,-0.707107,0.707107,76.0391,54.5092)"
       fill="#323232"
       id="rect9-7"
       x="0"
       y="0" /><circle
       cx="64.640701"
       cy="64.482597"
       r="8.90623"
       fill="#ffffff"
       stroke="#323232"
       stroke-width="2.28141"
       id="circle9-0" /></g></svg>
