<?xml version="1.0" encoding="UTF-8" standalone="no"?>
<svg
   width="128"
   height="128"
   version="1.1"
   id="svg1"
   sodipodi:docname="loot-perk-reload.svg"
   xml:space="preserve"
   inkscape:version="1.4.2 (ebf0e940d0, 2025-05-08)"
   xmlns:inkscape="http://www.inkscape.org/namespaces/inkscape"
   xmlns:sodipodi="http://sodipodi.sourceforge.net/DTD/sodipodi-0.dtd"
   xmlns="http://www.w3.org/2000/svg"
   xmlns:svg="http://www.w3.org/2000/svg"><defs
     id="defs1" /><sodipodi:namedview
     id="namedview1"
     pagecolor="#ffffff"
     bordercolor="#000000"
     borderopacity="0.25"
     inkscape:showpageshadow="2"
     inkscape:pageopacity="0.0"
     inkscape:pagecheckerboard="0"
     inkscape:deskcolor="#d1d1d1"
     inkscape:zoom="1.1200461"
     inkscape:cx="-177.22485"
     inkscape:cy="127.2269"
     inkscape:window-width="1920"
     inkscape:window-height="1017"
     inkscape:window-x="0"
     inkscape:window-y="0"
     inkscape:window-maximized="1"
     inkscape:current-layer="svg1" /><g
     id="g2"
     transform="matrix(0.95721443,0,0,0.95721443,5.01071,6.4035371)"
     style="fill:#ffffff;fill-opacity:1"><g
       id="g1"
       style="fill:#ffffff;fill-opacity:1">
	<path
   d="M 60,95.5 C 40.425,95.5 24.5,79.574 24.5,60 24.5,40.425 40.425,24.5 60,24.5 c 13.62,0 25.467,7.714 31.418,19 h 22.627 C 106.984,20.347 85.462,3.5 60,3.5 28.796,3.5 3.5,28.796 3.5,60 c 0,31.203 25.296,56.5 56.5,56.5 16.264,0 30.911,-6.882 41.221,-17.88 L 85.889,84.255 C 79.406,91.168 70.201,95.5 60,95.5 Z"
   id="path1"
   style="fill:#ffffff;fill-opacity:1" />
</g><line
       fill="none"
       x1="120"
       y1="0"
       x2="120"
       y2="45.335999"
       id="line1"
       style="fill:#ffffff;fill-opacity:1" /><line
       fill="none"
       x1="91.417999"
       y1="43.5"
       x2="114.045"
       y2="43.5"
       id="line2"
       style="fill:#ffffff;fill-opacity:1" /><polygon
       points="119.992,68.842 74.827,55.811 120,21.832 "
       id="polygon2"
       style="fill:#ffffff;fill-opacity:1" /></g></svg>
