<?xml version="1.0" encoding="UTF-8"?>
<svg width="216" height="176" version="1.1" xml:space="preserve" xmlns="http://www.w3.org/2000/svg" xmlns:xlink="http://www.w3.org/1999/xlink"><defs><linearGradient id="linearGradient6069-2"><stop stop-color="#f5b9ca" offset="0"/><stop stop-color="#f67a94" offset="1"/></linearGradient><linearGradient id="linearGradient20"><stop stop-color="#f8f8ff" offset="0"/><stop stop-color="#ded5e9" offset="1"/></linearGradient><linearGradient id="linearGradient606"><stop stop-color="#cd2e1b" offset="0"/><stop stop-color="#f16604" offset=".59381"/><stop stop-color="#f69411" offset="1"/></linearGradient><linearGradient id="a"><stop stop-color="#140f0b" offset="0"/><stop stop-color="#3d3632" offset="1"/></linearGradient><linearGradient id="linearGradient154" x1="104.88" x2="104.88" y1="33.775" y2="91" gradientUnits="userSpaceOnUse" xlink:href="#a"/><linearGradient id="linearGradient155" x1="104.88" x2="104.88" y1="151.06" y2="88" gradientUnits="userSpaceOnUse" xlink:href="#a"/><linearGradient id="linearGradient156" x1="-494.25" x2="-416.91" y1="459.35" y2="459.35" gradientTransform="matrix(0 -.77114 .94109 0 -318.43 -263.3)" gradientUnits="userSpaceOnUse" xlink:href="#linearGradient6069-2"/><linearGradient id="linearGradient157" x1="-409.03" x2="-304.6" y1="259.61" y2="259.61" gradientTransform="matrix(0 -1 .91758 0 -98.756 -268.88)" gradientUnits="userSpaceOnUse" xlink:href="#linearGradient20"/><linearGradient id="linearGradient158" x1="-475.34" x2="-475.34" y1="500.65" y2="334.71" gradientTransform="matrix(0 -1 .91758 0 -305.55 -369.09)" gradientUnits="userSpaceOnUse" xlink:href="#linearGradient20"/><linearGradient id="linearGradient159" x1="-475.34" x2="-475.34" y1="500.65" y2="334.71" gradientTransform="matrix(0 1 .91758 0 -305.41 545.11)" gradientUnits="userSpaceOnUse" xlink:href="#linearGradient20"/><linearGradient id="linearGradient160" x1="25.803" x2="25.803" y1="158.08" y2="81.988" gradientTransform="translate(59.7 -32.412)" gradientUnits="userSpaceOnUse" xlink:href="#linearGradient6069-2"/><linearGradient id="linearGradient161" x1="46.615" x2="106.24" y1="88" y2="88" gradientUnits="userSpaceOnUse" xlink:href="#a"/><linearGradient id="linearGradient162" x1="1163.4" x2="1066.8" y1="903.63" y2="1626.6" gradientTransform="matrix(.01872 -.017088 -.017088 -.01872 3.1249 754.12)" gradientUnits="userSpaceOnUse" xlink:href="#linearGradient606"/><linearGradient id="linearGradient163" x1="1163.4" x2="1066.8" y1="903.63" y2="1626.6" gradientTransform="matrix(-.01872 -.017088 .017088 -.01872 -69.839 754.12)" gradientUnits="userSpaceOnUse" xlink:href="#linearGradient606"/><linearGradient id="linearGradient164" x1="1163.4" x2="1066.8" y1="903.63" y2="1626.6" gradientTransform="matrix(.013577 -.021403 .021403 .013577 -122.59 661)" gradientUnits="userSpaceOnUse" xlink:href="#linearGradient606"/><linearGradient id="linearGradient165" x1="1163.4" x2="1066.8" y1="903.63" y2="1626.6" gradientTransform="matrix(-.013577 -.021403 -.021403 .013577 62.961 661)" gradientUnits="userSpaceOnUse" xlink:href="#linearGradient606"/><linearGradient id="linearGradient166" x1="67.823" x2="67.823" y1="106.33" y2="69.681" gradientTransform="matrix(1 0 0 1.0804 -1.2e-5 -7.0885)" gradientUnits="userSpaceOnUse" xlink:href="#linearGradient20"/></defs><g stroke="#000" stroke-width="6"><path d="m144 57.447c0.22183-30.739-31.665-27.78-53.292-23.122-26.233 5.6502-27.662 40.291-22.514 53.675h69.975c2.0034-7.5505 5.7472-18.906 5.8312-30.553z" fill="url(#linearGradient154)"/><path d="m144 118.55c0.22183 30.739-31.665 27.78-53.292 23.122-26.233-5.6502-27.662-40.291-22.514-53.675h69.975c2.0034 7.5505 5.7472 18.906 5.8312 30.553z" fill="url(#linearGradient155)"/></g><path d="m112.51 78.088c6.2783-3.7631 31.205-8.0528 34.85-7.4228 13.028 2.2516 13.027 33.047 1e-5 34.712-3.6964 0.47261-28.572-3.4506-34.85-7.2137" fill="#25221f" stroke="#000" stroke-width="6"/><path d="m124.75 111.06-15.93 4.5184c-10.66-18.68-9.8405-37.144 0-55.14l15.93 4.5184z" fill="url(#linearGradient156)" stroke="#000" stroke-width="6"/><path d="m118.66 87.926 15.854 51.407c13.103-10.558 21.69-27.67 25.76-51.336-4.4313-23.563-12.361-40.984-25.76-51.479z" fill="url(#linearGradient157)"/><path d="m134.51 36.593-15.854 51.407 15.854 51.407" fill="none" stroke="#000" stroke-width="8"/><g stroke="#000" stroke-width="8"><path d="m10.529 67.045 15.764 20.953c3.9643 5.7807 7.8897 11.185 11.816 16.191 24.199 30.857 48.374 46.592 81.204 42.139 11.3-1.5329 23-11.057 31.309-27.467-4.2697 8.4207-9.6332 15.254-16.11 20.473-24.976 17.542-64.74-11.957-87.91-51.336-3.0561-5.194-5.9074-10.573-8.3568-16.168l-0.1362-0.0234z" fill="url(#linearGradient158)"/><path d="m119.31 146.33c17.149-2.3264 35.241-23.023 40.959-58.329-5.7188-35.307-23.811-56.003-40.959-58.329-38.156-5.1762-64.62 16.918-93.02 58.329 28.4 41.412 54.864 63.506 93.02 58.329z" fill="none"/><path d="m10.665 108.97 15.764-20.953c3.9643-5.7807 7.8897-11.185 11.816-16.191 24.199-30.857 48.374-46.592 81.204-42.139 11.3 1.5329 23 11.057 31.309 27.467-4.2697-8.4207-9.6332-15.254-16.11-20.473-24.976-17.542-64.74 11.957-87.91 51.336-3.0561 5.194-5.9074 10.573-8.3568 16.168l-0.1362 0.0234z" fill="url(#linearGradient159)"/></g><rect x="80.696" y="47.272" width="9.6127" height="81.455" fill="url(#linearGradient160)" fill-rule="evenodd" stroke="#000" stroke-linecap="round" stroke-miterlimit="2" stroke-width="4.5"/><path d="m102.62 99.915s-22.695 7.4713-35.316 6.4461c-4.776-0.38796-11.527-0.98826-13.587-4.6938-5.4722-9.8421-5.71-18.956 0-27.334 2.3145-3.3962 8.8112-4.3058 13.587-4.6938 12.621-1.0252 35.316 6.446 35.316 6.446-2.0835 7.9432-2.0835 15.886-1e-5 23.83z" fill="url(#linearGradient161)" stroke="#000" stroke-width="6"/><g transform="rotate(-90 -263.18 317.75)" stroke="#090909" stroke-width="6"><path d="m9.6565 697.87c-6.2097-3.8191-12.548-1.6469-17.606 3.537-6.25 6.4068-5.5446 13.39-1.5706 18.633 3.4203 4.0991 8.7823 8.6084 11.414 10.768 1.3029 1.6844 0.56602-4.5556 0.59723-7.6295-0.1888-1.1534 0.54082-2.2054 0.85988-2.6644 1.1963-1.4257 2.3767 0.80066 3.0799 2.1053 0.70333 1.3048 0.92183 2.8288 1.6361 4.1276 1.1611 2.1102 3.534 3.3598 5.9259 3.6425 2.3919 0.28264 5.8172 0.99137 8.0872 0.18588-2.0465-0.9692-4.8285-3.218-5.1927-5.2422-0.34804-1.9337 0.48619-3.864 0.71445-5.8154 0.38375-3.2825-1.2833-6.8933-4.3409-8.1466-0.82511-0.33823-1.7137-0.50127-2.5388-0.83918-0.82513-0.3379-1.6218-0.90444-1.9251-1.743-0.3034-0.83855 0.09264-1.9538 0.95728-2.1721 2.0129-0.63538 12.62 0.94061 10.86-1.9077-1.4699-2.515-8.1064-5.3856-10.958-6.8392z" fill="url(#linearGradient162)"/><path d="m-76.371 697.87c6.2097-3.8191 12.548-1.6469 17.606 3.537 6.25 6.4068 5.5446 13.39 1.5706 18.633-3.4203 4.0991-8.7823 8.6084-11.414 10.768-1.3029 1.6844-0.56602-4.5556-0.59723-7.6295 0.1888-1.1534-0.54082-2.2054-0.85988-2.6644-1.1963-1.4257-2.3767 0.80065-3.0799 2.1053-0.70332 1.3048-0.92183 2.8288-1.6361 4.1276-1.1611 2.1102-3.534 3.3598-5.9259 3.6425-2.3919 0.28264-5.8172 0.99137-8.0872 0.18588 2.0465-0.9692 4.8285-3.218 5.1927-5.2422 0.34804-1.9337-0.4862-3.864-0.71445-5.8154-0.38375-3.2825 1.2833-6.8933 4.3409-8.1466 0.82511-0.33823 1.7137-0.50127 2.5388-0.83918 0.82513-0.33789 1.6218-0.90444 1.9251-1.743 0.30312-0.83865-0.09264-1.9538-0.95728-2.1721-2.0129-0.63538-12.62 0.94061-10.86-1.9077 1.4699-2.515 8.1064-5.3856 10.958-6.8392z" fill="url(#linearGradient163)"/></g><g transform="rotate(-90 -259.48 317.66)" stroke="#090909" stroke-width="6"><path d="m-68.331 644.8c4.8394 5.4522 3.8009 12.072-0.42606 17.953-5.2242 7.2675-12.224 7.7855-18.077 4.7822-4.6307-2.6565-10.003-7.154-12.587-9.3704-1.8851-0.99057 4.3881-1.3485 7.4099-1.913 1.1687-0.0144 2.078-0.91558 2.4746-1.3095 1.1963-1.4257-1.2012-2.2016-2.6081-2.6675-1.4071-0.46606-2.9459-0.41661-4.349-0.89451-2.2798-0.77698-3.9225-2.8969-4.6162-5.2034-0.6937-2.3065-1.9865-5.5567-1.5874-7.932 1.3098 1.8471 4.0075 4.1964 6.0643 4.2035 1.9647 7e-3 3.7209-1.1498 5.6029-1.7134 3.166-0.94792 7.0114 0.0668 8.7767 2.8603 0.47637 0.75385 0.79124 1.6006 1.2673 2.3545 0.47605 0.75392 1.1723 1.4401 2.0508 1.5932 0.8785 0.15315 1.9081-0.43051 1.9728-1.3199 0.2762-2.0927-3.1178-12.265-0.0071-11.026 2.7321 1.0108 6.7114 7.048 8.6381 9.6036z" fill="url(#linearGradient164)"/><path d="m8.6995 644.8c-4.8393 5.4522-3.8009 12.072 0.42606 17.953 5.2242 7.2675 12.224 7.7855 18.077 4.7822 4.6307-2.6565 10.003-7.154 12.587-9.3704 1.8851-0.99057-4.3881-1.3485-7.4099-1.913-1.1687-0.0143-2.078-0.91558-2.4746-1.3095-1.1963-1.4257 1.2012-2.2016 2.6081-2.6675 1.4071-0.46606 2.9459-0.41661 4.349-0.89451 2.2798-0.77698 3.9225-2.8969 4.6162-5.2034 0.6937-2.3065 1.9864-5.5567 1.5874-7.932-1.3098 1.8471-4.0075 4.1964-6.0643 4.2035-1.9647 7e-3 -3.7209-1.1498-5.6029-1.7134-3.166-0.94792-7.0114 0.0668-8.7767 2.8603-0.47637 0.75385-0.79124 1.6006-1.2673 2.3545-0.47605 0.75392-1.1723 1.4401-2.0508 1.5932-0.8785 0.15315-1.9081-0.43051-1.9728-1.3199-0.2762-2.0927 3.1178-12.265 0.0071-11.026-2.7321 1.0108-6.7114 7.048-8.6381 9.6036z" fill="url(#linearGradient165)"/></g><path d="m73.405 68.726c-1.8387-0.11074-5.749-0.69779-7.2811-0.38803-2.495 14.817-2.5099 21.932 0 39.304 1.6009 0.295 4.8642 0.19379 7.2811-0.20454-2.3686-16.799-2.3743-23.976 0-38.711z" fill="url(#linearGradient166)" stroke="#000" stroke-width="4.5"/><g transform="translate(-9e-6 -.19607)" fill="none" stroke="#000" stroke-width="4.5"><path d="m64.395 81.03-8.0819-1.4251"/><path d="m64.395 95.362-8.0819 1.4251"/></g></svg>
