<?xml version="1.0" encoding="UTF-8" standalone="no"?>
<svg
   width="239"
   height="239"
   viewBox="0 0 239 239"
   fill="none"
   version="1.1"
   id="svg9"
   sodipodi:docname="loot-crate-04.svg"
   inkscape:version="1.4.3 (0d15f75042, 2025-12-25)"
   xmlns:inkscape="http://www.inkscape.org/namespaces/inkscape"
   xmlns:sodipodi="http://sodipodi.sourceforge.net/DTD/sodipodi-0.dtd"
   xmlns="http://www.w3.org/2000/svg"
   xmlns:svg="http://www.w3.org/2000/svg">
  <defs
     id="defs9" />
  <sodipodi:namedview
     id="namedview9"
     pagecolor="#ffffff"
     bordercolor="#000000"
     borderopacity="0.25"
     inkscape:showpageshadow="2"
     inkscape:pageopacity="0.0"
     inkscape:pagecheckerboard="0"
     inkscape:deskcolor="#d1d1d1"
     inkscape:zoom="1.6966527"
     inkscape:cx="158.25278"
     inkscape:cy="85.757091"
     inkscape:window-width="1920"
     inkscape:window-height="1017"
     inkscape:window-x="1920"
     inkscape:window-y="0"
     inkscape:window-maximized="1"
     inkscape:current-layer="svg9" />
  <path
     d="M232.084 6.64453H6.80859V231.92H232.084V6.64453Z"
     fill="#EA333D"
     id="path1"
     style="fill:#eabe00;fill-opacity:1" />
  <path
     fill-rule="evenodd"
     clip-rule="evenodd"
     d="M0.707031 0.542969H238.187V238.023H0.707031V0.542969ZM12.9109 12.7469V225.819H225.983V12.7469H12.9109Z"
     fill="#191919"
     id="path2" />
  <path
     d="M194.805 43.9238H44.0859V194.643H194.805V43.9238Z"
     fill="#AF1C25"
     id="path3"
     style="fill:#c69c00;fill-opacity:1" />
  <path
     fill-rule="evenodd"
     clip-rule="evenodd"
     d="M37.8555 37.6914H201.04V200.876H37.8555V37.6914ZM50.3217 50.1576V188.41H188.574V50.1576H50.3217Z"
     fill="#191919"
     id="path4" />
  <path
     d="M74.827 43.98L194.585 163.935L194.816 194.637L162.82 194.513L44.447 75.5469L44.0977 43.918L74.827 43.98Z"
     fill="#FF6C74"
     id="path5"
     style="fill:#ffe974;fill-opacity:1" />
  <path
     fill-rule="evenodd"
     clip-rule="evenodd"
     d="M37.7969 37.6719L77.4188 37.7518L200.8 161.336L201.099 200.894L160.221 200.736L38.244 78.1478L37.7969 37.6719ZM50.4018 50.1636L50.6535 72.9454L165.423 188.29L188.538 188.379L188.373 166.533L72.2387 50.2076L50.4018 50.1636Z"
     fill="#191919"
     id="path6" />
  <path
     d="M44.1441 163.902L164.099 44.144L194.801 43.9121L194.677 75.9085L75.711 194.282L44.082 194.631L44.1441 163.902Z"
     fill="#FF6C74"
     id="path7"
     style="fill:#ffe974;fill-opacity:1" />
  <path
     fill-rule="evenodd"
     clip-rule="evenodd"
     d="M201.058 37.6328L200.9 78.5107L78.312 200.487L37.8359 200.935L37.9159 161.313L161.501 37.9316L201.058 37.6328ZM166.697 50.3589L50.3717 166.493L50.3276 188.33L73.1095 188.078L188.454 73.3089L188.543 50.1939L166.697 50.3589Z"
     fill="#191919"
     id="path8" />
  <path
     d="m 81.369582,168.77062 c -0.0151,0.076 -0.0452,0.181 -0.0905,0.317 -0.0452,0.106 -0.1358,0.227 -0.2715,0.362 l -0.4299,-0.43 c 0.0452,-0.045 0.1508,-0.09 0.3167,-0.135 0.1509,-0.061 0.3093,-0.098 0.4752,-0.114 z m 4.5708,-2.851 c 0.1659,0.166 0.2338,0.355 0.2036,0.566 -0.0151,0.196 -0.0754,0.392 -0.181,0.588 -0.1056,0.197 -0.2263,0.362 -0.3621,0.498 -0.1206,0.151 -0.2036,0.249 -0.2489,0.294 -0.0905,0.091 -0.2489,0.189 -0.4751,0.295 -0.2263,0.105 -0.3998,0.218 -0.5205,0.339 -0.0603,0.06 -0.2036,0.234 -0.4299,0.52 -0.2263,0.287 -0.4752,0.596 -0.7467,0.928 -0.2564,0.317 -0.4978,0.619 -0.7241,0.905 -0.2112,0.272 -0.3469,0.438 -0.4073,0.498 -0.0905,0.091 -0.279,0.173 -0.5656,0.249 -0.2716,0.09 -0.5129,0.121 -0.7241,0.09 -0.166,-0.015 -0.3545,-0.113 -0.5657,-0.294 -0.2263,-0.196 -0.4299,-0.324 -0.6109,-0.384 -0.1811,-0.061 -0.4224,-0.091 -0.7241,-0.091 -0.3168,-0.015 -0.626,-0.038 -0.9277,-0.068 -0.4224,-0.06 -0.7996,-0.211 -1.1314,-0.452 -0.347,-0.257 -0.7166,-0.445 -1.1088,-0.566 -0.1659,-0.045 -0.3695,-0.068 -0.6109,-0.068 -0.2564,-0.015 -0.5129,-0.03 -0.7693,-0.045 -0.2414,-0.03 -0.4752,-0.068 -0.7015,-0.113 -0.2112,-0.061 -0.3696,-0.174 -0.4752,-0.34 -0.2564,-0.377 -0.4374,-0.618 -0.543,-0.724 -0.1207,-0.12 -0.2037,-0.173 -0.2489,-0.158 -0.0302,0 -0.0528,0.022 -0.0679,0.068 -0.0302,0.03 -0.0905,0 -0.181,-0.091 -0.2866,-0.286 -0.5582,-0.573 -0.8146,-0.86 -0.2715,-0.301 -0.4073,-0.754 -0.4073,-1.357 0,-0.242 0.0679,-0.521 0.2036,-0.838 0.1509,-0.331 0.2112,-0.633 0.1811,-0.905 -0.0151,-0.166 -0.0604,-0.331 -0.1358,-0.497 -0.0754,-0.197 -0.1659,-0.378 -0.2715,-0.543 -0.0905,-0.181 -0.181,-0.332 -0.2716,-0.453 -0.1056,-0.136 -0.1885,-0.234 -0.2489,-0.294 -0.5279,-0.528 -1.0861,-1.026 -1.6744,-1.494 -0.5883,-0.497 -1.1314,-0.784 -1.6292,-0.859 -0.2112,-0.031 -0.445,-0.023 -0.7014,0.022 -0.2414,0.03 -0.4827,0.076 -0.7241,0.136 -0.2564,0.045 -0.4903,0.098 -0.7014,0.158 -0.1961,0.046 -0.3395,0.068 -0.43,0.068 -0.0603,-0.03 -0.1282,-0.037 -0.2036,-0.022 -0.0603,0 -0.1509,-0.061 -0.2715,-0.181 -0.1056,-0.106 -0.2188,-0.295 -0.3394,-0.566 -0.1207,-0.272 -0.1358,-0.483 -0.0453,-0.634 0.1358,-0.256 0.3243,-0.535 0.5657,-0.837 0.2413,-0.302 0.4978,-0.588 0.7693,-0.86 0.2565,-0.286 0.4827,-0.528 0.6788,-0.724 0.2112,-0.211 0.347,-0.347 0.4073,-0.407 0.0453,-0.045 0.1433,-0.128 0.2942,-0.249 0.1659,-0.136 0.3545,-0.279 0.5657,-0.43 0.2262,-0.166 0.4525,-0.317 0.6788,-0.452 0.2414,-0.151 0.4676,-0.257 0.6788,-0.317 0.166,-0.046 0.4073,-0.061 0.7241,-0.046 0.3168,0.016 0.6486,0.061 0.9956,0.136 0.362,0.061 0.7165,0.144 1.0635,0.249 0.3319,0.091 0.5808,0.189 0.7467,0.294 0.1508,0.091 0.3319,0.212 0.5431,0.362 0.2111,0.151 0.3997,0.279 0.5656,0.385 0.0151,0.106 0.0227,0.279 0.0227,0.52 0.2413,0.031 0.4676,0.091 0.6788,0.181 0.2112,0.061 0.3771,0.151 0.4978,0.272 0.2866,0.287 0.4827,0.754 0.5883,1.403 0.1056,0.649 0.1659,1.312 0.181,1.991 0.0151,0.679 0.0151,1.282 0,1.81 -0.0151,0.528 0,0.815 0.0453,0.86 0.0452,0.045 0.1659,0.121 0.362,0.226 0.1961,0.076 0.4149,0.159 0.6562,0.249 0.2565,0.076 0.5204,0.159 0.792,0.249 0.2715,0.061 0.5053,0.098 0.7014,0.113 0.7543,0.091 1.4859,0.279 2.1949,0.566 0.6939,0.272 1.3199,0.475 1.8781,0.611 0.2715,0.06 0.626,0.098 1.0634,0.113 0.4375,-0.015 0.875,-0.015 1.3124,0 0.4526,0 0.875,0.03 1.2672,0.091 0.3771,0.045 0.6486,0.15 0.8146,0.316 z m -7.4671,7.558 c 0.1659,0.166 0.2112,0.392 0.1358,0.679 -0.0755,0.256 -0.1961,0.513 -0.3621,0.769 -0.1659,0.257 -0.3394,0.49 -0.5204,0.702 -0.1659,0.196 -0.264,0.309 -0.2942,0.339 -0.1055,0.106 -0.3243,0.264 -0.6561,0.475 -0.3168,0.196 -0.6034,0.377 -0.8599,0.543 -0.2564,0.166 -0.5129,0.392 -0.7693,0.679 -0.2565,0.287 -0.445,0.49 -0.5657,0.611 -0.1056,0.106 -0.2037,0.294 -0.2942,0.566 -0.0905,0.271 -0.2187,0.49 -0.3846,0.656 -0.2414,0.241 -0.4903,0.4 -0.7467,0.475 -0.2414,0.06 -0.4149,0.143 -0.5205,0.249 -0.1206,0.121 -0.1885,0.219 -0.2036,0.294 -0.0151,0.076 -0.083,0.174 -0.2037,0.294 -0.1961,0.196 -0.4676,0.332 -0.8145,0.408 -0.3319,0.06 -0.6185,-0.031 -0.8599,-0.272 -0.1207,-0.121 -0.1885,-0.219 -0.2036,-0.294 -0.0151,-0.106 -0.0377,-0.189 -0.0679,-0.249 0,-0.06 0.0528,-0.219 0.1584,-0.475 0.0905,-0.272 0.1735,-0.566 0.2489,-0.883 0.0905,-0.332 0.1357,-0.648 0.1357,-0.95 0.0151,-0.317 -0.0528,-0.551 -0.2036,-0.701 l -7.5802,-7.581 c -0.1207,-0.12 -0.2112,-0.181 -0.2715,-0.181 -0.0754,-0.015 -0.1509,-0.03 -0.2263,-0.045 -0.2866,-0.256 -0.528,-0.513 -0.7241,-0.769 -0.2112,-0.272 -0.4374,-0.528 -0.6788,-0.77 -0.2263,-0.256 -0.5129,-0.497 -0.8598,-0.724 -0.3319,-0.241 -0.7769,-0.46 -1.3351,-0.656 -0.2262,-0.075 -0.4978,0 -0.8145,0.226 -0.3168,0.197 -0.5959,0.385 -0.8373,0.566 -0.0452,-0.045 -0.1131,-0.068 -0.2036,-0.068 -0.0754,-0.015 -0.1735,-0.083 -0.2942,-0.203 -0.015,-0.016 -0.0452,-0.061 -0.0905,-0.136 -0.0603,-0.091 -0.1131,-0.189 -0.1584,-0.294 -0.0452,-0.136 -0.0678,-0.264 -0.0678,-0.385 0.015,-0.136 0.0678,-0.249 0.1584,-0.339 0.181,-0.181 0.3771,-0.393 0.5883,-0.634 0.2112,-0.241 0.4073,-0.468 0.5883,-0.679 0.1961,-0.226 0.3696,-0.415 0.5204,-0.566 0.1509,-0.181 0.2565,-0.301 0.3168,-0.362 0.0603,-0.06 0.1659,-0.12 0.3168,-0.181 0.1508,-0.09 0.3092,-0.173 0.4752,-0.248 0.1659,-0.076 0.3243,-0.144 0.4751,-0.204 0.1509,-0.091 0.2565,-0.166 0.3168,-0.226 0.1056,-0.106 0.2037,-0.325 0.2942,-0.657 0.1056,-0.347 0.2338,-0.595 0.3846,-0.746 0.1358,-0.136 0.3696,-0.264 0.7015,-0.385 0.3319,-0.151 0.5808,-0.189 0.7467,-0.113 0.2413,0.121 0.543,0.302 0.9051,0.543 0.3469,0.226 0.6562,0.475 0.9277,0.747 0.0453,0.045 0.0905,0.12 0.1358,0.226 0.0452,0.106 0.098,0.219 0.1584,0.339 0.0452,0.106 0.098,0.219 0.1584,0.34 0.0603,0.09 0.1282,0.158 0.2036,0.203 0.362,0.212 0.7543,0.453 1.1766,0.724 0.4224,0.272 0.6939,0.468 0.8146,0.589 0.166,0.166 0.3168,0.437 0.4526,0.814 0.1357,0.378 0.3469,0.694 0.6335,0.951 0.1358,0.105 0.2414,0.271 0.3168,0.498 0.0604,0.211 0.1509,0.377 0.2715,0.497 0.0453,0.046 0.1434,0.113 0.2942,0.204 0.1358,0.075 0.2866,0.166 0.4526,0.272 0.181,0.09 0.362,0.196 0.543,0.316 0.1659,0.106 0.3017,0.211 0.4073,0.317 0.1207,0.121 0.2564,0.272 0.4073,0.453 0.1508,0.181 0.3092,0.324 0.4752,0.43 0.1357,0.075 0.2715,0.12 0.4073,0.135 0.1508,0 0.2866,0.061 0.4073,0.181 0.1206,0.121 0.2413,0.362 0.362,0.724 0.1207,0.362 0.2414,0.604 0.362,0.724 0.0453,0.046 0.1811,0.166 0.4073,0.363 0.2414,0.181 0.5205,0.399 0.8372,0.656 0.3017,0.241 0.6185,0.498 0.9504,0.769 0.3319,0.272 0.626,0.505 0.8825,0.702 0.0754,0.075 0.181,0.09 0.3167,0.045 0.1207,-0.061 0.2565,-0.136 0.4073,-0.227 0.1509,-0.12 0.3017,-0.226 0.4526,-0.316 0.1508,-0.121 0.2941,-0.189 0.4299,-0.204 0.1509,0 0.347,0.045 0.5883,0.136 0.2565,0.075 0.445,0.173 0.5657,0.294 z m -6.8787,-0.543 c 0.0754,0.136 0.1433,0.279 0.2036,0.43 0.0453,0.136 0.008,0.264 -0.1131,0.385 -0.1056,0.105 -0.1886,0.158 -0.2489,0.158 -0.0754,-0.015 -0.1584,-0.023 -0.2489,-0.023 -0.0905,-0.03 -0.1961,-0.015 -0.3168,0.046 -0.1358,0.045 -0.3168,0.181 -0.5431,0.407 l -0.4299,-0.43 c 0.4677,-0.287 0.8523,-0.671 1.154,-1.154 0.0151,0.045 0.0377,0.083 0.0679,0.113 0.0151,0.045 0.0302,0.075 0.0453,0.091 0.015,0.015 0.0226,0.052 0.0226,0.113 0.181,0 0.3168,-0.046 0.4073,-0.136 z m -0.2263,-12.762 h -0.2715 v 0.181 l 0.2489,-0.023 z m 1.1766,0.136 c -0.0603,-0.061 -0.1659,-0.091 -0.3168,-0.091 -0.1508,0 -0.2941,0.023 -0.4299,0.068 -0.1508,0.03 -0.2564,0.091 -0.3168,0.181 -0.0754,0.076 -0.0678,0.159 0.0227,0.249 0.1206,0.121 0.362,0.241 0.724,0.362 0.3621,0.091 0.6562,0.159 0.8825,0.204 -0.0905,-0.181 -0.1735,-0.355 -0.2489,-0.521 -0.0905,-0.181 -0.1961,-0.331 -0.3168,-0.452 z m -0.181,0.995 -0.1358,0.136 0.2037,0.43 0.181,-0.09 z m -9.8429,2.557 c -0.0453,-0.045 -0.1132,-0.083 -0.2037,-0.113 -0.0754,-0.045 -0.1357,-0.045 -0.181,0 -0.0452,0.045 0,0.091 0.1358,0.136 0.1207,0.03 0.2036,0.023 0.2489,-0.023 z m -0.4073,0.317 c -0.0453,0.045 -0.1358,0.076 -0.2715,0.091 -0.1358,-0.015 -0.264,0.037 -0.3847,0.158 -0.1056,0.106 -0.1584,0.219 -0.1584,0.339 0.0151,0.106 0.007,0.174 -0.0226,0.204 -0.1358,-0.045 -0.2791,-0.038 -0.4299,0.023 -0.1358,0.045 -0.2263,0.09 -0.2716,0.135 0.1358,0.046 0.2866,0.091 0.4526,0.136 0.181,0.03 0.2941,0.068 0.3394,0.113 0.0905,-0.09 0.181,-0.211 0.2715,-0.362 0.1056,-0.166 0.2187,-0.264 0.3394,-0.294 0,0.181 0.0226,0.309 0.0679,0.385 0.0453,0.075 0.0151,0.166 -0.0905,0.271 -0.1207,0.121 -0.2112,0.196 -0.2715,0.227 -0.0604,0.03 -0.0905,0.09 -0.0905,0.181 l 0.4978,0.497 c 0.1056,-0.377 0.1357,-0.754 0.0905,-1.131 -0.0453,-0.377 -0.0679,-0.701 -0.0679,-0.973 z m 1.2219,1.041 -0.3394,-0.339 c -0.0453,0.135 -0.0906,0.286 -0.1358,0.452 -0.0302,0.151 -0.0226,0.249 0.0226,0.294 0.0905,0 0.1735,-0.053 0.2489,-0.158 0.0905,-0.121 0.1584,-0.204 0.2037,-0.249 z m 11.0195,0.43 c -0.0452,0.045 -0.0452,0.105 0,0.181 0.0453,0.045 0.0905,0.09 0.1358,0.136 -0.0453,-0.046 -0.0679,-0.113 -0.0679,-0.204 0,-0.121 -0.0226,-0.158 -0.0679,-0.113 z m 0.9051,0.452 -0.1584,-0.067 c -0.1056,0.045 -0.0679,0.158 0.1132,0.339 0.0452,-0.045 0.0678,-0.098 0.0678,-0.158 0,-0.031 -0.007,-0.068 -0.0226,-0.114 z m -10.386,-0.067 c -0.3017,-0.121 -0.6486,-0.166 -1.0408,-0.136 -0.3772,0.015 -0.709,0.09 -0.9956,0.226 l 0.3394,0.339 c 0.2112,-0.12 0.3846,-0.173 0.5204,-0.158 0.1358,-0.015 0.2564,0.015 0.362,0.091 0.1056,0.045 0.2188,0.113 0.3395,0.203 0.1206,0.091 0.2639,0.174 0.4299,0.249 -0.2565,-0.347 -0.2414,-0.618 0.0452,-0.814 z m -1.9686,0.384 c -0.1357,-0.136 -0.2715,-0.166 -0.4072,-0.09 -0.1358,0.045 -0.2339,0.068 -0.2942,0.068 0.1358,0.045 0.2866,0.075 0.4525,0.09 0.166,0.015 0.2489,-0.007 0.2489,-0.068 z m 15.3641,0.159 -0.4073,-0.408 c -0.0905,0 -0.2263,0.015 -0.4073,0.046 -0.166,0.015 -0.2716,0.045 -0.3168,0.09 0.0452,0.045 0.0452,0.091 0,0.136 -0.0453,0.015 -0.008,0.083 0.1131,0.204 0.1207,0.12 0.3017,0.165 0.5431,0.135 0.2263,-0.045 0.3847,-0.113 0.4752,-0.203 z m -12.6714,0.181 c -0.0452,-0.046 -0.1131,-0.083 -0.2036,-0.113 -0.0905,-0.061 -0.1811,-0.091 -0.2716,-0.091 0,0.121 -0.008,0.204 -0.0226,0.249 -0.0151,0.045 -0.0226,0.083 -0.0226,0.113 0.1207,0.03 0.2263,0.03 0.3168,0 0.0905,-0.06 0.1584,-0.113 0.2036,-0.158 z m 9.2772,0.226 -0.1583,-0.158 -0.2489,0.248 0.1583,0.159 z m -10.0918,-0.045 -0.181,0.09 0.1131,0.34 0.2037,-0.068 z m -0.6562,0.384 c -0.0452,-0.045 -0.1282,-0.098 -0.2489,-0.158 -0.1207,-0.091 -0.2036,-0.158 -0.2489,-0.204 l -0.3394,0.34 c 0.1358,0.045 0.2866,0.06 0.4526,0.045 0.1659,-0.015 0.2941,-0.023 0.3846,-0.023 z m 1.5839,0.046 h -0.181 v 0.407 l 0.181,0.045 z m 12.1962,0.113 c -0.0452,-0.046 -0.1207,-0.076 -0.2263,-0.091 -0.1055,-0.045 -0.181,-0.09 -0.2262,-0.136 0,0.091 0.0301,0.227 0.0905,0.408 0.0603,0.181 0.0905,0.317 0.0905,0.407 0.0453,-0.045 0.0905,-0.136 0.1358,-0.272 0.0452,-0.165 0.0905,-0.271 0.1357,-0.316 z m 0.7015,0.294 h -0.2716 v 0.181 l 0.2489,-0.023 z m 1.2897,-0.023 -0.181,0.091 0.1132,0.339 0.2036,-0.068 z m -15.4319,0.498 -0.5204,-0.52 -0.1584,0.158 0.5204,0.52 z m 1.6292,0.181 -0.4299,-0.43 -0.1584,0.159 0.4299,0.429 z m 11.7663,-0.09 -0.1584,-0.159 -0.2489,0.249 0.1584,0.158 z m 1.5613,0.339 c 0,-0.211 -0.1132,-0.324 -0.3395,-0.339 -0.0452,0.045 -0.0678,0.158 -0.0678,0.339 0.0151,0.166 0.0452,0.271 0.0905,0.317 z m -12.875,0.023 -0.2489,-0.249 -0.1584,0.158 0.2489,0.249 z m 0.4978,0.95 c -0.0453,-0.045 -0.1132,-0.053 -0.2037,-0.023 -0.0905,0 -0.181,0 -0.2715,0 0.0452,0.046 0.1207,0.076 0.2263,0.091 0.1206,0 0.2036,-0.023 0.2489,-0.068 z m -1.0183,-0.113 h -0.4525 c 0,0.06 -0.0151,0.136 -0.0453,0.226 -0.0151,0.045 -0.0301,0.076 -0.0452,0.091 0.0452,0.045 0.1131,0.083 0.2036,0.113 0.0453,0.015 0.083,0.022 0.1132,0.022 0.0452,-0.045 0.0829,-0.113 0.1131,-0.203 0.0302,-0.121 0.0679,-0.204 0.1131,-0.249 z m 1.154,1.063 -0.7014,-0.52 -0.1584,0.158 0.7014,0.521 z m 1.4029,0.046 -0.8824,-0.702 c -0.0453,0.045 -0.0906,0.121 -0.1358,0.226 -0.0302,0.091 -0.0679,0.159 -0.1131,0.204 l 0.7014,0.701 z m 1.8781,0.61 c -0.2263,-0.135 -0.4375,-0.286 -0.6336,-0.452 -0.2112,-0.181 -0.4073,-0.317 -0.5883,-0.407 -0.0301,0.03 -0.0528,0.068 -0.0679,0.113 0,0.03 -0.007,0.068 -0.0226,0.113 l -0.0452,0.136 c 0.0905,0.09 0.2111,0.151 0.362,0.181 0.1358,0.015 0.2263,0.045 0.2715,0.09 0,0.151 -0.0301,0.287 -0.0905,0.408 -0.0754,0.105 -0.1433,0.173 -0.2036,0.203 0.1357,0.045 0.2866,0.091 0.4525,0.136 0.181,0.03 0.3243,-0.008 0.4299,-0.113 0.1207,-0.121 0.1735,-0.189 0.1584,-0.204 -0.0151,-0.045 -0.0226,-0.113 -0.0226,-0.204 z m -0.9051,0.725 c -0.181,-0.091 -0.3922,-0.166 -0.6336,-0.227 -0.2262,-0.075 -0.4299,-0.158 -0.6109,-0.249 0.0453,0.136 0.0905,0.332 0.1358,0.589 0.0603,0.241 0.1433,0.445 0.2489,0.611 0.1357,-0.136 0.2941,-0.249 0.4751,-0.34 0.1811,-0.09 0.3093,-0.218 0.3847,-0.384 z m 1.335,0.701 -0.2489,-0.249 -0.1584,0.159 0.2489,0.248 z m -0.9503,0.226 c -0.0302,-0.03 -0.0604,-0.045 -0.0905,-0.045 -0.0453,-0.015 -0.0905,-0.03 -0.1358,-0.045 l -0.1358,-0.045 0.0227,0.475 z m 2.2175,1.041 -0.2489,-0.249 -0.1584,0.159 0.2489,0.249 z m -0.8373,0.34 c -0.0452,0.045 -0.0754,0.12 -0.0905,0.226 -0.015,0.075 0.0227,0.158 0.1132,0.249 0,-0.091 0.007,-0.174 0.0226,-0.249 0.0151,-0.106 0,-0.181 -0.0453,-0.226 z m 2.0139,0.294 -0.3847,-0.159 -0.0905,0.181 0.3394,0.113 z m -2.308,0.135 c -0.0453,-0.045 -0.1131,-0.082 -0.2037,-0.113 -0.0754,-0.045 -0.1357,-0.045 -0.181,0 -0.0452,0.046 0,0.091 0.1358,0.136 0.1207,0.03 0.2036,0.023 0.2489,-0.023 z m 3.8014,0.725 -0.4073,-0.408 -0.4299,0.023 v 0.407 l 0.4073,0.407 z m 22.414,-23.772 c 0.1056,0.105 0.2414,0.302 0.4073,0.588 0.1811,0.272 0.3319,0.573 0.4526,0.905 0.1207,0.332 0.1961,0.664 0.2263,0.996 0.015,0.317 -0.0755,0.573 -0.2716,0.769 -0.0905,0.091 -0.2564,0.196 -0.4978,0.317 -0.2413,0.121 -0.4224,0.241 -0.543,0.362 -0.0604,0.06 -0.1509,0.181 -0.2716,0.362 -0.1357,0.166 -0.279,0.339 -0.4299,0.521 -0.1357,0.196 -0.2715,0.377 -0.4073,0.543 -0.1357,0.166 -0.2338,0.279 -0.2941,0.339 -0.2716,0.272 -0.5657,0.535 -0.8825,0.792 -0.3168,0.256 -0.7392,0.392 -1.2671,0.407 -0.1358,-0.196 -0.264,-0.46 -0.3847,-0.792 -0.1358,-0.347 -0.2187,-0.671 -0.2489,-0.973 0.3319,-0.482 0.7241,-0.935 1.1766,-1.357 0.4526,-0.453 0.7618,-0.928 0.9277,-1.426 0.1056,-0.256 0.1283,-0.49 0.0679,-0.701 -0.0754,-0.227 -0.181,-0.438 -0.3168,-0.634 -0.1357,-0.226 -0.2715,-0.437 -0.4072,-0.633 -0.1358,-0.197 -0.2263,-0.408 -0.2716,-0.634 -0.0452,-0.196 0.0151,-0.422 0.181,-0.679 0.166,-0.256 0.3168,-0.437 0.4526,-0.543 0.1659,-0.015 0.362,0 0.5883,0.045 0.2263,0.046 0.4299,0.129 0.6109,0.249 0.2112,0.151 0.4677,0.362 0.7694,0.634 0.3017,0.241 0.5129,0.422 0.6335,0.543 z m -9.5714,5.996 c -0.0452,0.045 -0.1055,0.106 -0.181,0.181 -0.0905,0.06 -0.181,0.091 -0.2715,0.091 -0.0905,-0.091 -0.1358,-0.212 -0.1358,-0.362 0.0151,-0.166 0.0227,-0.295 0.0227,-0.385 0.0905,0 0.181,0.06 0.2715,0.181 0.1056,0.106 0.2036,0.204 0.2941,0.294 z m 1.0862,0.724 -0.5205,0.521 c -0.2564,-0.196 -0.3922,-0.302 -0.4073,-0.317 l -0.0678,-0.023 -0.2942,-0.294 0.0679,-0.068 c 0.0302,-0.03 0.0905,-0.06 0.181,-0.09 0.0754,-0.015 0.1433,0.007 0.2036,0.068 0.0755,0.045 0.1509,0.045 0.2263,0 l 0.2037,-0.204 z m 1.5386,1.403 c -0.0905,0 -0.1282,0.023 -0.1131,0.068 0,0.03 -0.0604,0.106 -0.181,0.226 -0.1207,0.121 -0.2037,0.144 -0.2489,0.068 -0.0453,-0.105 -0.1132,-0.158 -0.2037,-0.158 -0.0301,0.03 -0.0754,0.136 -0.1357,0.317 -0.0453,0.165 -0.0302,0.316 0.0452,0.452 l -0.5883,0.588 c -0.0905,-0.06 -0.1358,-0.271 -0.1358,-0.633 h -0.2715 c 0,0.09 0,0.166 0,0.226 0.0151,0.045 0,0.091 -0.0453,0.136 l -0.4072,-0.407 c 0,-0.091 0.007,-0.189 0.0226,-0.295 0.0302,-0.12 0.0226,-0.248 -0.0226,-0.384 -0.0906,0 -0.1584,0.022 -0.2037,0.068 -0.0302,0.03 -0.0679,0.068 -0.1131,0.113 l -0.3168,-0.317 0.0226,-0.611 c 0.181,0.091 0.3847,0.143 0.611,0.158 0.2413,0 0.4299,0.023 0.5656,0.068 -0.0452,0.046 -0.098,0.113 -0.1584,0.204 -0.0754,0.075 -0.1131,0.158 -0.1131,0.249 0.0453,0.045 0.0754,0.09 0.0905,0.136 0.0151,0.015 0.0679,0.022 0.1584,0.022 l -0.0226,-0.068 c 0,-0.06 -0.0302,-0.12 -0.0905,-0.181 l 0.3394,-0.339 c 0.0754,0.106 0.1886,0.173 0.3394,0.204 0.1508,0.03 0.2942,0.067 0.4299,0.113 -0.0452,-0.136 -0.0679,-0.264 -0.0679,-0.385 0.0151,-0.136 -0.0226,-0.249 -0.1131,-0.339 0.2414,0.271 0.5506,0.505 0.9277,0.701 z m -5.3627,-19.346 c 0.0905,0.09 0.264,0.324 0.5205,0.701 0.2715,0.362 0.5732,0.679 0.9051,0.95 0.0452,0.106 0.0754,0.287 0.0905,0.544 0,0.241 -0.0528,0.414 -0.1584,0.52 -0.1207,0.121 -0.2866,0.181 -0.4978,0.181 -0.2112,0 -0.4149,-0.023 -0.611,-0.068 -0.2112,-0.06 -0.3997,-0.128 -0.5657,-0.204 -0.1659,-0.075 -0.2715,-0.12 -0.3167,-0.135 -0.1358,-0.046 -0.2867,-0.061 -0.4526,-0.046 -0.181,0 -0.3243,0.038 -0.4299,0.114 -0.2565,0.196 -0.528,0.377 -0.8146,0.543 -0.2715,0.15 -0.5732,0.301 -0.9051,0.452 -0.1659,0.076 -0.3469,0.211 -0.5431,0.407 -0.181,0.181 -0.4148,0.295 -0.7014,0.34 -0.1056,0.015 -0.2715,-0.015 -0.4978,-0.091 -0.2414,-0.09 -0.4224,-0.196 -0.5431,-0.316 -0.1056,-0.106 -0.1659,-0.272 -0.181,-0.498 0,-0.242 0.0604,-0.453 0.181,-0.634 0.0755,-0.105 0.2037,-0.203 0.3847,-0.294 0.1659,-0.106 0.3017,-0.241 0.4073,-0.407 0.1207,-0.181 0.2715,-0.392 0.4525,-0.634 0.166,-0.256 0.3319,-0.498 0.4978,-0.724 0.166,-0.256 0.3168,-0.468 0.4526,-0.633 0.1358,-0.197 0.2338,-0.325 0.2942,-0.385 0.1055,-0.106 0.2639,-0.249 0.4751,-0.43 0.1961,-0.196 0.3772,-0.302 0.5431,-0.317 0.362,-0.06 0.7241,0.045 1.0861,0.317 0.3771,0.256 0.6864,0.505 0.9277,0.747 z m 4.8875,7.059 c 0.0906,0.091 0.1735,0.234 0.249,0.43 0.0603,0.181 0.1659,0.332 0.3167,0.453 0.2112,0.151 0.445,0.309 0.7015,0.475 0.2564,0.166 0.4601,0.355 0.6109,0.566 0.0755,0.105 0.1433,0.264 0.2037,0.475 0.0603,0.211 0.0679,0.37 0.0226,0.475 -0.4224,0.362 -0.7467,0.536 -0.973,0.521 -0.2413,-0.031 -0.4525,-0.106 -0.6335,-0.227 -0.1962,-0.135 -0.4149,-0.249 -0.6562,-0.339 -0.2414,-0.121 -0.5733,-0.091 -0.9956,0.09 -0.1509,0.061 -0.3168,0.196 -0.4979,0.408 -0.1659,0.196 -0.3544,0.369 -0.5656,0.52 -0.2263,0.136 -0.4677,0.211 -0.7241,0.226 -0.2565,0.015 -0.5431,-0.135 -0.8599,-0.452 -0.3167,-0.317 -0.4223,-0.619 -0.3167,-0.905 0.0905,-0.302 0.2413,-0.604 0.4525,-0.905 0.2112,-0.332 0.3998,-0.657 0.5657,-0.973 0.1659,-0.317 0.1584,-0.657 -0.0226,-1.019 -0.0755,-0.135 -0.2037,-0.309 -0.3847,-0.52 -0.181,-0.211 -0.2866,-0.422 -0.3168,-0.634 l 0.8825,-0.882 c 0.1508,0 0.3319,0.045 0.543,0.136 0.2112,0.06 0.3696,0.128 0.4752,0.203 0.181,0.151 0.3696,0.325 0.5657,0.521 0.2112,0.181 0.4073,0.362 0.5883,0.543 0.181,0.181 0.3394,0.354 0.4752,0.52 0.1358,0.136 0.2338,0.234 0.2941,0.294 z m 0.7694,9.459 c 0.1056,0.105 0.1584,0.234 0.1584,0.384 0,0.121 0.0301,0.242 0.0905,0.362 0.1357,0.196 0.3319,0.393 0.5883,0.589 0.2414,0.181 0.4525,0.362 0.6336,0.543 0.1206,0.12 0.2338,0.309 0.3394,0.565 0.1056,0.227 0.1207,0.468 0.0452,0.725 -0.0754,0.256 -0.2489,0.535 -0.5204,0.837 -0.2564,0.317 -0.445,0.535 -0.5657,0.656 -0.0603,0.06 -0.2413,0.241 -0.543,0.543 -0.2867,0.317 -0.6034,0.664 -0.9504,1.041 -0.3469,0.377 -0.6713,0.716 -0.973,1.018 -0.2866,0.317 -0.4601,0.505 -0.5204,0.566 -0.0754,0.075 -0.2263,0.136 -0.4526,0.181 -0.2262,0.045 -0.3997,0.053 -0.5204,0.022 l -0.4299,-0.429 c 0.0151,-0.106 0.0377,-0.249 0.0679,-0.43 0.0301,-0.212 0.0452,-0.408 0.0452,-0.589 0.0151,-0.196 0.0151,-0.377 0,-0.543 0,-0.181 -0.0301,-0.301 -0.0905,-0.362 -0.4224,-0.483 -0.8674,-0.988 -1.335,-1.516 -0.4827,-0.543 -0.973,-1.078 -1.4708,-1.606 -0.4827,-0.543 -0.9579,-1.049 -1.4255,-1.516 -0.4827,-0.483 -0.9126,-0.898 -1.2898,-1.245 -0.181,-0.151 -0.3545,-0.385 -0.5204,-0.701 -0.181,-0.332 -0.3319,-0.559 -0.4525,-0.679 -0.1056,-0.106 -0.264,-0.204 -0.4752,-0.294 -0.1961,-0.106 -0.3621,-0.227 -0.4978,-0.362 -0.5431,-0.543 -1.0861,-1.087 -1.6292,-1.63 -0.5431,-0.543 -1.1012,-1.071 -1.6744,-1.584 -0.1056,-0.075 -0.2338,-0.158 -0.3847,-0.248 -0.1358,-0.106 -0.2715,-0.166 -0.4073,-0.181 -0.4525,-0.091 -0.807,-0.083 -1.0635,0.022 -0.2715,0.091 -0.4978,0.196 -0.6788,0.317 -0.181,0.09 -0.347,0.151 -0.4978,0.181 -0.1509,0.03 -0.3394,-0.068 -0.5657,-0.294 -0.1358,-0.136 -0.2338,-0.385 -0.2941,-0.747 -0.0755,-0.377 -0.0227,-0.656 0.1583,-0.837 0.1207,-0.121 0.2867,-0.226 0.4979,-0.317 0.2111,-0.09 0.3771,-0.196 0.4978,-0.317 0.1055,-0.105 0.1583,-0.249 0.1583,-0.43 0.0151,-0.196 0.083,-0.354 0.2037,-0.475 0.0603,-0.06 0.2112,-0.151 0.4525,-0.271 0.2565,-0.136 0.5356,-0.279 0.8373,-0.43 0.2866,-0.166 0.5506,-0.309 0.7919,-0.43 0.2414,-0.151 0.3922,-0.257 0.4526,-0.317 0.0905,-0.09 0.1584,-0.279 0.2036,-0.566 0.0453,-0.286 0.1282,-0.49 0.2489,-0.611 0.1056,-0.105 0.2791,-0.203 0.5204,-0.294 0.2414,-0.12 0.4601,-0.158 0.6562,-0.113 0.4224,0.121 0.7317,0.264 0.9278,0.43 0.181,0.151 0.3092,0.309 0.3846,0.475 0.0755,0.166 0.1207,0.332 0.1358,0.498 0.0302,0.151 0.098,0.279 0.2036,0.385 l 2.919,2.919 c 0.1056,0.105 0.2564,0.181 0.4525,0.226 0.181,0.03 0.3168,0.075 0.4073,0.136 0.1961,0.135 0.3771,0.347 0.5431,0.633 0.181,0.272 0.3846,0.536 0.6109,0.792 0.5883,0.649 1.2596,1.305 2.0139,1.969 0.7542,0.664 1.4707,1.335 2.1496,2.014 0.1206,0.12 0.2715,0.256 0.4525,0.407 0.181,0.121 0.3696,0.249 0.5657,0.385 0.1961,0.105 0.3696,0.218 0.5204,0.339 0.1509,0.091 0.2489,0.158 0.2942,0.204 z m -4.073,-1.177 c 0.1056,0.106 0.166,0.257 0.1811,0.453 0.0151,0.196 0.0678,0.339 0.1584,0.43 -0.1056,0.045 -0.3168,0.09 -0.6336,0.135 -0.3168,0.015 -0.5355,-0.037 -0.6562,-0.158 -0.1207,-0.121 -0.1961,-0.211 -0.2263,-0.272 -0.0301,-0.09 -0.0452,-0.181 -0.0452,-0.271 0.1357,-0.045 0.264,-0.023 0.3846,0.068 0.1207,0.06 0.1886,0.128 0.2037,0.203 0,0.031 0.007,0.053 0.0226,0.068 l 0.0905,0.091 c 0.0151,0.015 0.0377,0.022 0.0679,0.022 0.0302,0 0.0679,-0.022 0.1131,-0.067 -0.0301,-0.151 -0.1056,-0.272 -0.2262,-0.363 -0.1056,-0.105 -0.1961,-0.211 -0.2716,-0.316 -0.0603,-0.03 -0.1508,-0.046 -0.2715,-0.046 -0.1207,-0.03 -0.2263,-0.09 -0.3168,-0.181 l 0.3394,-0.339 c 0.1358,0.136 0.3244,0.234 0.5657,0.294 0.2263,0.045 0.3998,0.128 0.5204,0.249 z m -8.6663,-7.761 -0.3394,0.339 c 0.1358,0.046 0.2489,0.128 0.3394,0.249 0.0906,0.121 0.166,0.181 0.2263,0.181 l 0.1584,-0.158 c -0.0302,-0.121 -0.0905,-0.242 -0.181,-0.362 -0.1056,-0.136 -0.1735,-0.219 -0.2037,-0.249 z m -1.0634,0.656 c 0,0.091 0.0377,0.204 0.1131,0.339 0.0754,0.136 0.1584,0.204 0.2489,0.204 0.0453,-0.136 0.0151,-0.256 -0.0905,-0.362 -0.0905,-0.121 -0.181,-0.181 -0.2715,-0.181 z m 2.851,0.86 c -0.0452,-0.045 -0.1056,-0.091 -0.181,-0.136 -0.0603,-0.06 -0.1358,-0.09 -0.2263,-0.09 0,0.09 0.0528,0.143 0.1584,0.158 0.1207,0 0.2037,0.023 0.2489,0.068 z m -1.1087,0.068 -0.43,-0.43 c -0.0452,0.045 -0.0603,0.151 -0.0452,0.317 0,0.15 0,0.271 0,0.362 0.0905,0 0.181,-0.03 0.2715,-0.091 0.0905,-0.06 0.1584,-0.113 0.2037,-0.158 z m 2.3985,1.222 -0.2489,-0.249 -0.1584,0.158 0.2489,0.249 z m 0.543,1.086 -0.4299,-0.43 -0.1584,0.158 0.4299,0.43 z m -0.724,-0.317 -0.2037,-0.068 -0.1131,0.566 0.2036,0.022 z m 1.8554,0.272 c -0.0453,-0.046 -0.1131,-0.053 -0.2036,-0.023 -0.0906,0 -0.1811,0 -0.2716,0 0.0453,0.045 0.1207,0.075 0.2263,0.09 0.1207,0 0.2036,-0.022 0.2489,-0.067 z m 0,0.724 -0.3394,-0.34 -0.3394,0.34 0.3394,0.339 z m 0.7693,0.135 -0.2489,-0.249 -0.1584,0.159 0.2489,0.249 z m -2.3758,-0.203 -0.1811,0.09 0.1132,0.34 0.1584,-0.068 z m 0.5656,0.927 -0.2489,-0.248 -0.1584,0.158 0.249,0.249 z m 2.8511,0.453 c -0.1358,-0.136 -0.2866,-0.272 -0.4526,-0.407 -0.1508,-0.151 -0.2715,-0.227 -0.362,-0.227 -0.0452,0.046 0,0.166 0.1358,0.362 0.1357,0.166 0.2489,0.295 0.3394,0.385 0.0302,-0.03 0.0603,-0.045 0.0905,-0.045 0.0302,0 0.0679,-0.008 0.1131,-0.023 z m 0.2263,0.272 -0.2489,-0.249 -0.1584,0.158 0.2489,0.249 z m -1.9234,-0.928 c -0.1206,-0.121 -0.2111,-0.181 -0.2715,-0.181 -0.0754,-0.015 -0.1358,-0.045 -0.181,-0.091 l -0.3394,0.34 c 0.0452,0.045 0.098,0.098 0.1584,0.158 0.0452,0.045 0.1131,0.068 0.2036,0.068 -0.1056,0.196 -0.1056,0.362 0,0.498 0.1056,0.136 0.2263,0.271 0.3621,0.407 0.1508,0.121 0.279,0.264 0.3846,0.43 0.1056,0.166 0.1056,0.377 0,0.634 l 0.4073,0.407 c 0.0453,-0.045 0.0604,-0.106 0.0453,-0.181 -0.0302,-0.091 0.0151,-0.196 0.1357,-0.317 0.1207,-0.121 0.2489,-0.173 0.3847,-0.158 0.1358,-0.015 0.2489,0.007 0.3394,0.068 0.0302,0 0.0604,-0.061 0.0905,-0.182 l 0.0453,-0.135 c -0.0905,0 -0.1961,-0.015 -0.3168,-0.046 -0.1358,-0.045 -0.2263,-0.075 -0.2715,-0.09 -0.0453,0.015 -0.1056,0.06 -0.1811,0.136 -0.0754,0.045 -0.1508,0.075 -0.2262,0.09 l -0.3621,-0.362 c 0.1056,-0.196 0.1433,-0.324 0.1132,-0.384 -0.0151,-0.076 -0.1132,-0.174 -0.2942,-0.295 0.0302,-0.12 0.0302,-0.256 0,-0.407 -0.0452,-0.166 -0.1207,-0.302 -0.2263,-0.407 z m 2.6927,1.787 c -0.0453,-0.045 -0.1207,-0.105 -0.2263,-0.181 -0.1207,-0.09 -0.2187,-0.128 -0.2941,-0.113 l -0.2263,0.226 0.3168,0.317 c 0.0754,0.015 0.1584,-0.007 0.2489,-0.068 0.0754,-0.075 0.1357,-0.135 0.181,-0.181 z m -0.2715,0.815 c -0.0905,-0.091 -0.2037,-0.174 -0.3394,-0.249 -0.1358,-0.075 -0.2263,-0.136 -0.2716,-0.181 l -0.3167,0.317 v 0.362 c -0.2112,0 -0.3621,0.045 -0.4526,0.136 0.1659,0.075 0.3168,0.196 0.4526,0.362 0.1206,0.15 0.3394,0.188 0.6561,0.113 0,-0.091 -0.0452,-0.196 -0.1357,-0.317 -0.1056,-0.136 -0.1509,-0.241 -0.1358,-0.317 0.1358,-0.045 0.2489,-0.083 0.3394,-0.113 0.0905,-0.03 0.1584,-0.068 0.2037,-0.113 z m 0.2036,1.38 -0.181,0.091 0.1131,0.339 0.1584,-0.068 z m 1.4255,0.068 -0.3394,-0.339 c -0.0452,0.045 -0.0678,0.098 -0.0678,0.158 0.015,0.045 -0.0378,0.128 -0.1584,0.249 -0.1207,0.121 -0.2112,0.166 -0.2716,0.136 -0.0754,-0.046 -0.1357,-0.046 -0.181,0 0.2715,0.181 0.5732,0.422 0.9051,0.724 0.3319,0.302 0.626,0.596 0.8825,0.882 0,-0.181 -0.0151,-0.347 -0.0453,-0.498 -0.0151,-0.165 -0.0829,-0.309 -0.2036,-0.429 -0.1207,-0.121 -0.2338,-0.189 -0.3394,-0.204 -0.1056,-0.045 -0.2037,-0.068 -0.2942,-0.068 0,-0.09 0.008,-0.204 0.0226,-0.339 0.0151,-0.136 0.0453,-0.227 0.0905,-0.272 z m 15.727398,-11.337 -0.362,0.362 -0.023,-0.476 c 0.03,0.031 0.068,0.053 0.113,0.068 0.091,0.03 0.181,0.046 0.272,0.046 z m -0.407,0.995 -0.3624,-0.362 c 0.1354,-0.045 0.2414,-0.03 0.3164,0.045 0.076,0.076 0.091,0.181 0.046,0.317 z m 0.792,0.068 -0.159,0.158 -0.317,-0.316 0.159,-0.159 z m 6.018,-19.098 c 0.121,0.121 0.166,0.212 0.136,0.272 -0.015,0.045 -0.015,0.106 0,0.181 0.136,0.196 0.325,0.385 0.566,0.566 0.256,0.166 0.46,0.354 0.611,0.565 0.166,0.196 0.339,0.43 0.52,0.702 0.196,0.256 0.332,0.513 0.408,0.769 0.135,0.498 0.309,1.018 0.52,1.561 0.211,0.513 0.392,1.041 0.543,1.584 0.136,0.528 0.219,1.064 0.249,1.607 0.015,0.528 -0.098,1.063 -0.339,1.606 -0.061,0.151 -0.114,0.325 -0.159,0.521 -0.045,0.166 -0.083,0.309 -0.113,0.43 l -0.566,0.384 c 0.242,0.272 0.385,0.551 0.43,0.838 0.03,0.271 0.008,0.535 -0.068,0.792 -0.09,0.241 -0.211,0.467 -0.362,0.678 -0.166,0.197 -0.309,0.355 -0.43,0.476 -0.105,0.105 -0.226,0.166 -0.362,0.181 -0.135,0.015 -0.256,0.075 -0.362,0.181 -0.075,0.075 -0.113,0.188 -0.113,0.339 0,0.151 0,0.317 0,0.498 0,0.181 -0.022,0.37 -0.068,0.566 -0.03,0.181 -0.12,0.347 -0.271,0.497 -0.106,0.106 -0.226,0.136 -0.362,0.091 -0.136,-0.045 -0.257,-0.015 -0.362,0.09 -0.121,0.121 -0.166,0.227 -0.136,0.317 0.03,0.091 -0.015,0.196 -0.136,0.317 -0.045,0.045 -0.136,0.121 -0.271,0.226 -0.121,0.091 -0.272,0.181 -0.453,0.272 -0.151,0.09 -0.317,0.166 -0.498,0.226 -0.181,0.06 -0.347,0.076 -0.497,0.045 -0.106,-0.015 -0.219,-0.068 -0.34,-0.158 -0.121,-0.091 -0.234,-0.189 -0.339,-0.294 -0.181,-0.181 -0.302,-0.438 -0.362,-0.77 -0.046,-0.347 0.03,-0.618 0.226,-0.814 0.106,-0.106 0.211,-0.181 0.317,-0.226 0.12,-0.061 0.241,-0.151 0.362,-0.272 0.301,-0.302 0.52,-0.611 0.656,-0.928 0.136,-0.347 0.219,-0.716 0.249,-1.108 0.045,-0.408 0.053,-0.853 0.023,-1.335 -0.031,-0.483 -0.053,-1.019 -0.068,-1.607 0,-0.06 -0.038,-0.143 -0.114,-0.249 -0.09,-0.121 -0.158,-0.234 -0.203,-0.339 -0.136,-0.438 -0.272,-0.785 -0.407,-1.041 -0.136,-0.287 -0.272,-0.513 -0.408,-0.679 -0.151,-0.181 -0.294,-0.339 -0.43,-0.475 -0.135,-0.136 -0.264,-0.309 -0.384,-0.521 -0.046,-0.105 -0.098,-0.279 -0.159,-0.52 -0.045,-0.256 -0.113,-0.43 -0.203,-0.52 -0.121,-0.121 -0.219,-0.174 -0.295,-0.159 -0.075,-0.015 -0.15,-0.03 -0.226,-0.045 -0.181,-0.241 -0.392,-0.468 -0.633,-0.679 -0.257,-0.226 -0.513,-0.437 -0.77,-0.633 -0.271,-0.181 -0.565,-0.34 -0.882,-0.476 -0.302,-0.15 -0.566,-0.339 -0.792,-0.565 -0.0605,-0.061 -0.0982,-0.159 -0.1133,-0.294 -0.0151,-0.136 -0.0452,-0.272 -0.0905,-0.408 -0.362,0 -0.7769,-0.037 -1.2445,-0.113 -0.482698,-0.09 -0.965398,-0.166 -1.448098,-0.226 -0.4978,-0.076 -0.973,-0.098 -1.4256,-0.068 -0.4374,0.015 -0.807,0.128 -1.1087,0.339 -0.1358,0.106 -0.2791,0.234 -0.4299,0.385 -0.1509,0.151 -0.3168,0.302 -0.4978,0.453 -0.166,0.135 -0.3545,0.264 -0.5657,0.384 -0.2263,0.106 -0.4752,0.174 -0.7467,0.204 -0.1509,0 -0.3998,-0.053 -0.7467,-0.159 -0.347,-0.105 -0.5808,-0.218 -0.7015,-0.339 -0.2112,-0.211 -0.2564,-0.498 -0.1358,-0.86 0.1056,-0.377 0.264,-0.671 0.4752,-0.882 0.1961,-0.196 0.4224,-0.423 0.6788,-0.679 0.2565,-0.257 0.4979,-0.498 0.7241,-0.724 0.2263,-0.257 0.4299,-0.475 0.611,-0.656 0.181,-0.181 0.3017,-0.302 0.362,-0.362 0.1056,-0.106 0.362,-0.287 0.7693,-0.543 0.3922,-0.272 0.7467,-0.491 1.0635,-0.657 0.181,-0.09 0.4073,-0.135 0.6788,-0.135 0.2716,0 0.5431,0 0.8146,0 0.0302,-0.031 0.0377,-0.129 0.0227,-0.295 -0.0151,-0.165 0.0301,-0.301 0.1357,-0.407 0.0453,-0.045 0.1886,-0.098 0.4299,-0.158 0.2414,-0.091 0.528,-0.166 0.859898,-0.227 0.3319,-0.09 0.6562,-0.158 0.973,-0.203 0.3318,-0.061 0.6034,-0.106 0.8143,-0.136 0.046,0.015 0.128,0.068 0.249,0.158 0.121,0.091 0.249,0.144 0.385,0.159 0.633,0.06 1.161,0.166 1.584,0.317 0.422,0.12 0.784,0.271 1.086,0.452 0.286,0.166 0.535,0.37 0.747,0.611 0.226,0.226 0.452,0.468 0.678,0.724 0.121,0.151 0.302,0.302 0.543,0.453 0.227,0.136 0.453,0.271 0.679,0.407 0.227,0.106 0.438,0.211 0.634,0.317 0.196,0.075 0.324,0.143 0.384,0.203 z m -6.245,14.573 c 0.106,0.105 0.166,0.211 0.181,0.316 0.031,0.091 0.068,0.189 0.113,0.294 0.182,0.272 0.363,0.498 0.544,0.679 0.196,0.166 0.384,0.325 0.565,0.475 0.181,0.121 0.355,0.264 0.521,0.43 0.151,0.151 0.279,0.355 0.384,0.611 0.061,0.181 0.196,0.362 0.408,0.543 0.211,0.181 0.354,0.385 0.43,0.611 0.015,0.076 0.03,0.196 0.045,0.362 0,0.151 -0.008,0.264 -0.023,0.34 -0.075,0.196 -0.181,0.392 -0.317,0.588 -0.12,0.211 -0.241,0.377 -0.362,0.498 -0.105,0.105 -0.286,0.196 -0.543,0.271 -0.241,0.091 -0.43,0.204 -0.565,0.34 -0.212,0.211 -0.453,0.452 -0.724,0.724 -0.272,0.271 -0.544,0.528 -0.815,0.769 -0.257,0.257 -0.483,0.483 -0.679,0.679 -0.196,0.196 -0.3242,0.324 -0.3845,0.385 -0.1056,0.105 -0.166,0.226 -0.1811,0.362 -0.0151,0.136 -0.0754,0.256 -0.181,0.362 -0.1207,0.12 -0.2489,0.188 -0.3847,0.203 -0.1357,0.016 -0.2639,0.008 -0.3846,-0.022 -0.1207,-0.061 -0.2263,-0.121 -0.316798,-0.181 -0.0905,-0.091 -0.1659,-0.166 -0.2263,-0.226 -0.2112,-0.212 -0.3771,-0.468 -0.4978,-0.77 -0.1056,-0.317 -0.0754,-0.558 0.0905,-0.724 0.1207,-0.121 0.2037,-0.173 0.2489,-0.158 0.0453,0.015 0.1283,-0.038 0.2489,-0.159 0.316798,-0.316 0.475198,-0.55 0.475198,-0.701 0,-0.181 -0.0679,-0.355 -0.2036,-0.521 -0.120698,-0.181 -0.271598,-0.392 -0.452598,-0.633 -0.181,-0.272 -0.3017,-0.649 -0.362,-1.131 -0.1358,-0.046 -0.3017,-0.046 -0.4978,0 -0.1961,0.015 -0.3545,-0.023 -0.4752,-0.114 -0.2112,-0.15 -0.4526,-0.331 -0.7241,-0.543 -0.2564,-0.226 -0.445,-0.399 -0.5657,-0.52 v -0.226 c -0.5279,-0.468 -1.0257,-0.936 -1.4934,-1.403 -0.4827,-0.483 -1.0333,-1.064 -1.6518,-1.743 -0.1056,-0.135 -0.1659,-0.347 -0.181,-0.633 -0.0302,-0.302 -0.0981,-0.505 -0.2036,-0.611 -0.1056,-0.106 -0.2716,-0.166 -0.4978,-0.181 -0.2263,-0.045 -0.4149,-0.113 -0.5657,-0.204 -0.3922,-0.241 -0.8146,-0.558 -1.2672,-0.95 -0.4525,-0.392 -0.8523,-0.777 -1.1992,-1.154 -0.0151,-0.076 -0.0377,-0.159 -0.0679,-0.249 -0.0302,-0.121 -0.0679,-0.204 -0.1131,-0.249 -0.2565,-0.106 -0.4903,-0.279 -0.7015,-0.52 -0.2112,-0.242 -0.3922,-0.423 -0.543,-0.543 -0.1207,0.03 -0.1962,0.09 -0.2263,0.181 -0.0302,0.09 -0.0981,0.188 -0.2037,0.294 -0.0452,0.045 -0.1357,0.105 -0.2715,0.181 -0.1358,0.045 -0.2866,0.105 -0.4525,0.181 -0.166,0.075 -0.3395,0.158 -0.5205,0.249 -0.1659,0.075 -0.2941,0.158 -0.3846,0.249 -0.2716,0 -0.528,-0.121 -0.7694,-0.362 -0.3017,-0.302 -0.4525,-0.589 -0.4525,-0.86 0,-0.272 0.181,-0.589 0.543,-0.951 0.0453,-0.045 0.1509,-0.135 0.3168,-0.271 0.166,-0.166 0.3545,-0.34 0.5657,-0.521 0.2263,-0.196 0.4526,-0.392 0.6788,-0.588 0.2414,-0.211 0.4601,-0.4 0.6562,-0.566 0.1509,-0.15 0.4375,-0.226 0.8599,-0.226 0.0452,-0.226 0.098,-0.445 0.1584,-0.656 0.0754,-0.226 0.1734,-0.4 0.2941,-0.52 0.0453,-0.046 0.1282,-0.129 0.2489,-0.249 0.1207,-0.121 0.264,-0.234 0.4299,-0.34 0.1509,-0.12 0.3168,-0.226 0.4978,-0.317 0.166,-0.105 0.3394,-0.158 0.5205,-0.158 0.2112,0 0.4299,0.053 0.6562,0.158 0.2262,0.076 0.445,0.174 0.6562,0.295 0.1961,0.105 0.3695,0.218 0.5204,0.339 0.1508,0.091 0.2564,0.166 0.3168,0.226 0.1056,0.106 0.1885,0.264 0.2489,0.475 0.0603,0.212 0.1508,0.393 0.2715,0.544 0.1056,0.135 0.2791,0.324 0.5204,0.565 0.2565,0.226 0.528,0.483 0.8146,0.77 0.2715,0.271 0.5355,0.55 0.792,0.837 0.2715,0.271 0.4752,0.52 0.6109,0.746 0.1056,0.197 0.2866,0.347 0.5431,0.453 0.2564,0.075 0.4978,0.211 0.7241,0.407 0.4827,0.423 0.9956,0.92 1.5386,1.494 0.528,0.558 1.025798,1.101 1.493398,1.629 0.0755,0.105 0.1207,0.256 0.1358,0.452 0.0302,0.181 0.1056,0.332 0.2263,0.453 0.0603,0.06 0.1659,0.121 0.3168,0.181 0.1357,0.045 0.2866,0.09 0.4525,0.136 0.166,0.045 0.324,0.098 0.475,0.158 0.136,0.045 0.234,0.098 0.294,0.159 z m 1.358,-15.84 c -0.045,0.046 -0.083,0.098 -0.113,0.159 -0.015,0.045 -0.083,0.128 -0.204,0.249 -0.09,0.09 -0.226,0.135 -0.407,0.135 -0.196,-0.015 -0.385,-0.037 -0.566,-0.067 0.136,0.045 0.287,0.09 0.453,0.135 0.166,0.015 0.317,0.046 0.452,0.091 -0.075,0.166 -0.052,0.294 0.068,0.384 0.121,0.091 0.242,0.166 0.362,0.227 -0.015,-0.257 -0.037,-0.506 -0.068,-0.747 -0.03,-0.241 -0.022,-0.43 0.023,-0.566 z m -4.796998,0.77 h -0.2716 v 0.181 h 0.2716 z m 5.882998,0.543 -0.43,-0.43 c -0.045,0.136 -0.045,0.286 0,0.452 0.03,0.151 0.068,0.249 0.113,0.295 z m -1.425,0.158 c -0.181,0 -0.362,-0.06 -0.543,-0.181 -0.166,-0.136 -0.332,-0.256 -0.498,-0.362 -0.076,0.075 -0.113,0.158 -0.113,0.249 0.015,0.075 0.022,0.158 0.022,0.249 l 0.407,0.407 c 0.091,-0.09 0.159,-0.128 0.204,-0.113 0.045,-0.015 0.091,-0.015 0.136,0 0.045,-0.015 0.09,-0.03 0.136,-0.045 0.06,-0.03 0.143,-0.098 0.249,-0.204 z m -0.657,0.385 -0.135,0.136 0.203,0.384 0.159,-0.068 z m 0.951,0.136 -0.317,0.316 0.43,0.43 c 0.09,-0.181 0.105,-0.332 0.045,-0.452 -0.06,-0.151 -0.113,-0.249 -0.158,-0.294 z m 3.054,0.475 c -0.09,-0.091 -0.15,-0.121 -0.181,-0.091 -0.045,0.015 -0.128,0.083 -0.248,0.204 -0.121,0.121 -0.234,0.143 -0.34,0.068 -0.106,-0.076 -0.226,-0.091 -0.362,-0.046 -0.09,-0.181 -0.189,-0.369 -0.294,-0.565 -0.106,-0.226 -0.226,-0.407 -0.362,-0.543 0.045,0.045 0.09,0.105 0.136,0.181 0.06,0.06 0.09,0.136 0.09,0.226 -0.211,0 -0.362,0.045 -0.452,0.136 0.045,0.045 0.113,0.113 0.203,0.203 0.091,0.091 0.144,0.189 0.159,0.295 -0.227,0.075 -0.4,0.052 -0.521,-0.068 0,-0.242 -0.075,-0.392 -0.226,-0.453 -0.076,0.076 -0.091,0.166 -0.045,0.272 0.06,0.09 0.113,0.158 0.158,0.203 -0.136,0.136 -0.234,0.264 -0.294,0.385 -0.06,0.121 -0.113,0.204 -0.158,0.249 l 0.316,0.317 c 0.046,-0.046 0.083,-0.113 0.113,-0.204 0.046,-0.106 0.129,-0.143 0.249,-0.113 -0.015,0.166 -0.06,0.302 -0.135,0.407 -0.076,0.106 -0.114,0.189 -0.114,0.249 0.046,0.045 0.151,0.091 0.317,0.136 0.151,0.03 0.272,0.045 0.362,0.045 -0.045,-0.045 -0.06,-0.105 -0.045,-0.181 0.015,-0.105 0.045,-0.181 0.091,-0.226 0.286,0.105 0.475,0.083 0.565,-0.068 -0.045,-0.045 -0.09,-0.106 -0.136,-0.181 -0.03,-0.091 -0.022,-0.158 0.023,-0.204 0.121,0.061 0.219,0.144 0.294,0.249 0.076,0.076 0.128,0.144 0.159,0.204 0.03,-0.091 0.098,-0.143 0.203,-0.159 0.106,-0.045 0.219,-0.067 0.34,-0.067 0.135,-0.016 0.264,-0.023 0.384,-0.023 0.136,-0.015 0.234,-0.038 0.294,-0.068 -0.045,-0.045 -0.082,-0.113 -0.113,-0.204 -0.015,-0.045 -0.022,-0.098 -0.022,-0.158 -0.046,0.045 -0.091,0.091 -0.136,0.136 -0.045,0.045 -0.113,0.068 -0.204,0.068 0,-0.091 -0.022,-0.174 -0.068,-0.249 -0.045,-0.106 -0.045,-0.227 0,-0.362 z m 2.286,2.647 c -0.03,-0.151 -0.106,-0.302 -0.226,-0.452 -0.121,-0.151 -0.264,-0.295 -0.43,-0.43 -0.166,-0.136 -0.332,-0.257 -0.498,-0.362 -0.181,-0.121 -0.332,-0.196 -0.453,-0.227 0.091,0.091 0.211,0.181 0.362,0.272 0.151,0.09 0.249,0.204 0.294,0.339 -0.256,-0.075 -0.445,-0.053 -0.565,0.068 0.271,0.091 0.528,0.226 0.769,0.407 0.241,0.151 0.49,0.28 0.747,0.385 z m 0.271,0.045 h -0.181 v 0.453 h 0.181 z m -0.113,0.521 c 0,0.181 -0.007,0.384 -0.022,0.611 0,0.211 0.037,0.384 0.113,0.52 0.105,-0.166 0.128,-0.339 0.068,-0.52 -0.046,-0.196 -0.098,-0.4 -0.159,-0.611 z m 0.453,1.493 c -0.091,0 -0.204,0.038 -0.34,0.113 -0.151,0.061 -0.294,0.114 -0.43,0.159 l 0.136,0.362 z m -17.445998,1.607 -0.1358,-0.136 -0.3168,0.498 0.1358,0.136 z m 0.5204,0.701 c -0.0452,-0.045 -0.1282,-0.083 -0.2489,-0.113 -0.1207,-0.03 -0.2263,-0.045 -0.3168,-0.045 l 0.0227,0.475 z m 0.6562,0.385 -0.2263,-0.226 -0.1583,0.158 0.2262,0.226 z m -0.6109,0.158 c -0.0604,0 -0.1132,0.008 -0.1584,0.023 -0.0453,-0.015 -0.0981,-0.023 -0.1584,-0.023 l -0.1358,0.046 c 0.0905,0.09 0.1886,0.128 0.2942,0.113 0.0905,-0.03 0.1433,-0.083 0.1584,-0.159 z m -0.9277,0.294 -0.4978,-0.497 -0.1584,0.158 0.4978,0.498 z m 1.9912,0.136 c 0.0452,0.045 0.0301,0.106 -0.0453,0.181 l -0.1131,0.113 c 0.0603,0.061 0.1357,0.091 0.2263,0.091 0.0452,0.015 0.098,0.023 0.1583,0.023 0,-0.091 -0.0301,-0.166 -0.0905,-0.227 -0.0452,-0.075 -0.0905,-0.136 -0.1357,-0.181 z m -0.5205,0.611 c 0.0905,-0.181 0.0905,-0.317 0,-0.407 -0.0905,-0.091 -0.2036,-0.068 -0.3394,0.068 z m -1.7875,-0.339 -0.1358,0.136 0.2037,0.384 0.1583,-0.068 z m 3.1904,0.882 -0.724,-0.498 c -0.0453,0.046 -0.0453,0.121 0,0.227 0.0603,0.09 0.1131,0.158 0.1584,0.203 l -0.4526,0.453 0.3394,0.339 c 0.0754,-0.166 0.2037,-0.294 0.3847,-0.384 0.1659,-0.106 0.264,-0.219 0.2941,-0.34 z m 0.611,0.656 -0.3168,-0.316 c -0.0453,0.045 -0.0679,0.158 -0.0679,0.339 0,0.151 0.0226,0.249 0.0679,0.294 z m -0.7467,-0.067 c -0.0905,0 -0.1735,0.037 -0.2489,0.113 -0.0755,0.045 -0.1358,0.09 -0.181,0.135 l 0.3167,0.317 c 0.0453,-0.045 0.0905,-0.136 0.1358,-0.271 0.0302,-0.151 0.0226,-0.249 -0.0226,-0.294 z m 1.9007,0.905 -0.3168,-0.317 -0.1584,0.158 0.3168,0.317 z m -1.2445,0.067 -0.1358,0.136 0.3168,0.498 0.1358,-0.136 z m 1.5386,0.86 c -0.1357,-0.045 -0.2715,-0.09 -0.4073,-0.135 -0.1508,-0.061 -0.2941,-0.068 -0.4299,-0.023 l 0.7015,0.701 c 0.0905,-0.09 0.1357,-0.181 0.1357,-0.271 0,-0.091 0,-0.181 0,-0.272 z m 0.6562,0.838 c -0.1056,-0.016 -0.2489,-0.008 -0.4299,0.022 -0.181,0 -0.3243,-0.007 -0.4299,-0.022 0.0905,0.09 0.2338,0.143 0.4299,0.158 0.1961,-0.015 0.3394,-0.068 0.4299,-0.158 z m 0.4752,0.656 c -0.4676,-0.046 -0.8523,-0.023 -1.154,0.068 l 0.6336,0.633 c -0.0302,-0.06 -0.0604,-0.105 -0.0905,-0.136 -0.0453,-0.045 -0.008,-0.128 0.1131,-0.248 0.1207,-0.121 0.2263,-0.181 0.3168,-0.181 0.1056,-0.016 0.1659,-0.061 0.181,-0.136 z m 0.7241,1.403 -0.4073,-0.408 -0.1584,0.159 0.4073,0.407 z m 1.515998,1.425 c -0.2715,-0.181 -0.497798,-0.347 -0.678798,-0.498 -0.181,-0.15 -0.3168,-0.226 -0.4073,-0.226 -0.0453,0.045 -0.0905,0.151 -0.1358,0.317 -0.0452,0.136 -0.0678,0.249 -0.0678,0.339 0.1357,0.046 0.3318,0.076 0.5883,0.091 0.2715,0 0.505298,-0.008 0.701398,-0.023 z m 1.9908,0.136 c -0.271,0 -0.55,-0.008 -0.8368,-0.023 -0.2866,-0.045 -0.5657,-0.068 -0.8372,-0.068 l 0.3394,0.34 c 0.1659,0.015 0.3093,0.007 0.4299,-0.023 0.1358,-0.045 0.2565,-0.045 0.3617,0 0.046,0.015 0.106,0.076 0.181,0.181 0.076,0.076 0.159,0.113 0.249,0.113 0,-0.09 0.008,-0.188 0.023,-0.294 0.015,-0.105 0.045,-0.181 0.09,-0.226 z m 28.768,-23.88 c -0.09,0.271 -0.226,0.573 -0.407,0.905 -0.166,0.347 -0.309,0.58 -0.43,0.701 l -1.131,1.131 c -0.166,0.166 -0.332,0.272 -0.498,0.317 -0.136,0.045 -0.347,0.091 -0.634,0.136 l 0.023,-0.023 -0.023,0.023 c -0.015,0.015 -0.03,0.03 -0.045,0.045 -0.03,0 -0.06,0.015 -0.09,0.046 -0.061,0.06 -0.212,0.256 -0.453,0.588 -0.226,0.317 -0.475,0.671 -0.747,1.063 -0.271,0.393 -0.528,0.755 -0.769,1.086 -0.226,0.317 -0.37,0.506 -0.43,0.566 -0.105,0.106 -0.241,0.181 -0.407,0.226 -0.166,0.046 -0.302,0.121 -0.407,0.227 -0.121,0.12 -0.151,0.211 -0.091,0.271 0.06,0.061 0.03,0.151 -0.09,0.272 -0.197,0.196 -0.506,0.309 -0.928,0.339 -0.407,0.015 -0.687,-0.053 -0.837,-0.204 -0.151,-0.15 -0.227,-0.331 -0.227,-0.543 -0.015,-0.226 0,-0.452 0.046,-0.678 0.06,-0.242 0.12,-0.483 0.181,-0.724 0.06,-0.242 0.098,-0.461 0.113,-0.657 -0.121,-0.12 -0.302,-0.271 -0.543,-0.452 -0.242,-0.211 -0.491,-0.4 -0.747,-0.566 -0.256,-0.166 -0.505,-0.279 -0.747,-0.339 -0.226,-0.076 -0.399,-0.053 -0.52,0.068 -0.091,0.09 -0.128,0.188 -0.113,0.294 0.015,0.105 -0.038,0.218 -0.159,0.339 -0.12,0.121 -0.309,0.219 -0.565,0.294 -0.257,0.076 -0.445,0.174 -0.566,0.294 -0.121,0.121 -0.189,0.28 -0.204,0.476 -0.015,0.196 -0.083,0.354 -0.203,0.475 -0.046,0.045 -0.151,0.105 -0.317,0.181 -0.151,0.06 -0.324,0.113 -0.521,0.158 -0.181,0.03 -0.362,0.045 -0.543,0.045 -0.166,-0.015 -0.294,-0.067 -0.384,-0.158 -0.091,-0.09 -0.151,-0.241 -0.181,-0.452 -0.046,-0.227 -0.068,-0.461 -0.068,-0.702 0,-0.241 0.015,-0.468 0.045,-0.679 0.045,-0.226 0.091,-0.392 0.136,-0.498 0.09,-0.15 0.188,-0.309 0.294,-0.475 0.106,-0.166 0.226,-0.317 0.362,-0.452 0.03,-0.302 -0.015,-0.513 -0.136,-0.634 -0.12,-0.121 -0.226,-0.226 -0.317,-0.317 -0.181,-0.181 -0.384,-0.309 -0.61,-0.384 -0.227,-0.076 -0.461,-0.144 -0.702,-0.204 -0.256,-0.075 -0.505,-0.173 -0.747,-0.294 -0.241,-0.121 -0.445,-0.309 -0.611,-0.566 -0.045,-0.105 -0.09,-0.226 -0.135,-0.362 -0.046,-0.136 -0.129,-0.234 -0.249,-0.294 -0.257,-0.015 -0.513,0 -0.77,0.045 -0.256,0.015 -0.52,-0.007 -0.792,-0.068 -0.196,-0.045 -0.445,-0.173 -0.746,-0.384 -0.317,-0.227 -0.573,-0.392 -0.77,-0.498 -0.181,-0.091 -0.445,-0.158 -0.792,-0.204 -0.362,-0.06 -0.603,-0.151 -0.724,-0.271 -0.06,-0.061 -0.196,-0.272 -0.407,-0.634 -0.211,-0.362 -0.422,-0.754 -0.633,-1.176 -0.212,-0.45299 -0.4,-0.86799 -0.566,-1.24499 -0.166,-0.407 -0.234,-0.671 -0.204,-0.792 0.121,-0.362 0.211,-0.633 0.272,-0.815 0.06,-0.181 0.113,-0.324 0.158,-0.429 0.045,-0.106 0.098,-0.189 0.159,-0.249 0.045,-0.076 0.135,-0.181 0.271,-0.317 0.166,-0.166 0.332,-0.332 0.498,-0.498 0.166,-0.166 0.445,-0.188 0.837,-0.068 0.347,0.076 0.724,0.257 1.131,0.543 0.408,0.257 0.807,0.445 1.2,0.566 0.905,0.241 1.674,0.483 2.308,0.724 0.633,0.211 1.206,0.422 1.719,0.634 0.498,0.196 0.958,0.399 1.381,0.611 0.437,0.196 0.905,0.407 1.403,0.633 0.301,0.121 0.678,0.317 1.131,0.58799 0.452,0.272 0.852,0.506 1.199,0.702 0.211,0.121 0.498,0.211 0.86,0.271 0.362,0.031 0.686,0.114 0.973,0.249 0.618,0.227 1.229,0.46 1.833,0.702 0.603,0.241 1.071,0.558 1.403,0.95 0.362,0.121 0.792,0.219 1.289,0.294 0.498,0.076 1.011,0.106 1.539,0.091 0.181,-0.03 0.415,-0.098 0.702,-0.204 0.286,-0.136 0.528,-0.181 0.724,-0.136 0.105,0.015 0.233,0.083 0.384,0.204 0.151,0.091 0.272,0.181 0.362,0.272 z m -18.26,1.47 c 0.106,0.106 0.174,0.264 0.204,0.475 0.015,0.197 0.06,0.378 0.135,0.544 0.287,0.618 0.642,1.335 1.064,2.149 0.407,0.8 0.807,1.577 1.199,2.331 0.392,0.754 0.739,1.403 1.041,1.946 0.287,0.528 0.46,0.822 0.52,0.882 0.302,0.302 0.611,0.46 0.928,0.475 0.302,0 0.596,-0.037 0.883,-0.113 0.271,-0.09 0.528,-0.166 0.769,-0.226 0.241,-0.06 0.453,0 0.634,0.181 0.166,0.166 0.256,0.392 0.271,0.679 0.015,0.256 -0.03,0.437 -0.136,0.543 -0.045,0.045 -0.203,0.204 -0.475,0.475 -0.256,0.256 -0.566,0.566 -0.928,0.928 -0.362,0.362 -0.739,0.739 -1.131,1.131 -0.392,0.392 -0.724,0.739 -0.996,1.041 -0.015,0.075 -0.03,0.151 -0.045,0.226 0,0.091 -0.06,0.196 -0.181,0.317 -0.045,0.045 -0.143,0.098 -0.294,0.158 -0.151,0.061 -0.317,0.106 -0.498,0.136 -0.181,0.03 -0.354,0.038 -0.52,0.023 -0.181,0 -0.317,-0.045 -0.407,-0.136 -0.136,-0.136 -0.197,-0.347 -0.182,-0.633 0.016,-0.287 0.053,-0.596 0.114,-0.928 0.045,-0.347 0.09,-0.679 0.135,-0.996 0.046,-0.317 0.038,-0.581 -0.022,-0.792 -0.091,-0.241 -0.249,-0.52 -0.475,-0.837 -0.227,-0.347 -0.445,-0.717 -0.657,-1.109 -0.12,-0.241 -0.294,-0.626 -0.52,-1.154 -0.226,-0.528 -0.468,-1.116 -0.724,-1.765 -0.241,-0.663 -0.49,-1.35 -0.747,-2.059 -0.256,-0.709 -0.483,-1.357 -0.679,-1.946 -0.03,-0.09 -0.128,-0.234 -0.294,-0.43 -0.181,-0.211 -0.347,-0.437 -0.498,-0.678 -0.15,-0.272 -0.249,-0.536 -0.294,-0.792 -0.06,-0.272 0.015,-0.513 0.227,-0.725 0.15,-0.15 0.354,-0.203 0.61,-0.158 0.272,0.03 0.544,0.106 0.815,0.226 0.272,0.091 0.52,0.204 0.747,0.34 0.226,0.136 0.362,0.226 0.407,0.271 z m 0.453,-5.33999 c -0.181,-0.12 -0.385,-0.158 -0.611,-0.113 -0.242,0.03 -0.393,0.06 -0.453,0.091 0.091,0.06 0.166,0.15 0.226,0.271 0.046,0.10599 0.046,0.18099 0,0.22599 l -0.475,-0.33899 v -0.724 c -0.181,0 -0.347,0.015 -0.498,0.045 -0.15,0.03 -0.294,0.068 -0.43,0.113 0,-0.09 -0.022,-0.173 -0.067,-0.249 -0.061,-0.09 -0.091,-0.181 -0.091,-0.271 -0.075,-0.015 -0.151,-0.03 -0.226,-0.045 -0.091,-0.031 -0.181,-0.061 -0.272,-0.091 -0.105,-0.015 -0.203,-0.038 -0.294,-0.068 l -0.52,0.521 c 0.135,0.045 0.294,0.083 0.475,0.113 0.166,0.015 0.317,0.045 0.452,0.09 -0.045,0.106 -0.037,0.204 0.023,0.294 0.06,0.091 0.091,0.181 0.091,0.272 -0.061,0 -0.099,0.008 -0.114,0.023 -0.015,0.015 -0.045,0.03 -0.09,0.045 -0.03,0.03 -0.06,0.045 -0.091,0.045 l 0.43,0.42999 c 0.106,-0.166 0.219,-0.264 0.34,-0.294 0.105,-0.045 0.218,-0.038 0.339,0.023 0.121,0.03 0.241,0.09 0.362,0.181 0.136,0.075 0.272,0.15 0.407,0.226 0.166,-0.076 0.332,-0.091 0.498,-0.045 0.181,0.03 0.355,0.052 0.521,0.067 0,0.212 0.075,0.347 0.226,0.408 0.03,-0.121 0.03,-0.272 0,-0.453 -0.015,-0.196 -0.068,-0.339 -0.158,-0.43 -0.121,0.121 -0.227,0.136 -0.317,0.046 0,-0.091 0.053,-0.15899 0.158,-0.20399 0.091,-0.06 0.144,-0.128 0.159,-0.204 z m -1.675,1.08599 c -0.045,-0.045 -0.121,-0.105 -0.226,-0.181 -0.106,-0.075 -0.181,-0.09 -0.226,-0.045 -0.046,0.045 -0.008,0.098 0.113,0.158 0.136,0.046 0.249,0.068 0.339,0.068 z m 4.458,-0.113 c -0.045,-0.045 -0.144,-0.083 -0.294,-0.113 -0.151,-0.06 -0.272,-0.09 -0.362,-0.09 0,0.09 0,0.211 0,0.362 -0.016,0.135 0,0.226 0.045,0.271 0.09,-0.09 0.203,-0.173 0.339,-0.249 0.136,-0.075 0.227,-0.136 0.272,-0.181 z m -1.471,0.159 c -0.136,-0.046 -0.287,-0.076 -0.453,-0.091 -0.166,-0.015 -0.294,0.023 -0.384,0.113 0.045,0.136 0.12,0.257 0.226,0.362 0.091,0.091 0.158,0.159 0.204,0.204 -0.046,-0.045 -0.091,-0.06 -0.136,-0.045 -0.06,0 -0.03,-0.061 0.09,-0.181 0.061,-0.061 0.106,-0.076 0.136,-0.046 0.015,0.015 0.038,0.038 0.068,0.068 0.015,0.015 0.03,0.03 0.045,0.046 0.015,0.015 0.053,-0.008 0.113,-0.068 0.106,-0.106 0.151,-0.196 0.136,-0.272 0,-0.03 -0.015,-0.06 -0.045,-0.09 z m 2.466,0.203 -0.995,-0.181 -0.045,0.181 0.972,0.204 z m -3.643,0.294 -0.611,-0.611 c -0.03,0.031 -0.098,0.038 -0.203,0.023 -0.106,-0.045 -0.181,-0.09 -0.227,-0.136 l -0.339,0.34 c 0,0.09 0,0.151 0,0.181 -0.015,0.015 0.038,0.083 0.158,0.203 0.121,0.121 0.31,0.159 0.566,0.114 0.257,-0.076 0.475,-0.114 0.656,-0.114 z m 4.956,0.204 c -0.136,-0.045 -0.264,-0.038 -0.385,0.023 -0.121,0.03 -0.249,0.022 -0.385,-0.023 l -0.316,0.317 0.203,0.43 c 0.242,-0.091 0.362,-0.242 0.362,-0.453 0.151,0 0.294,-0.022 0.43,-0.068 0.121,-0.06 0.151,-0.135 0.091,-0.226 z m -2.467,-0.113 -0.43,0.43 0.249,0.43 0.408,-0.408 c 0,-0.09 -0.023,-0.173 -0.068,-0.248 -0.061,-0.091 -0.113,-0.159 -0.159,-0.204 z m -0.52,0.837 -0.611,-0.611 -0.158,0.159 0.611,0.611 z m 5.566,1.132 -0.679,-0.679 c -0.09,0 -0.196,0.015 -0.316,0.045 -0.106,0.015 -0.181,0.045 -0.227,0.09 0.046,0.046 0.129,0.068 0.249,0.068 0.121,0 0.227,0 0.317,0 0,0.091 -0.015,0.196 -0.045,0.317 -0.03,0.121 -0.045,0.226 -0.045,0.317 0.211,0 0.46,-0.053 0.746,-0.158 z m -1.289,-0.385 c -0.136,-0.136 -0.28,-0.249 -0.43,-0.34 -0.151,-0.09 -0.423,-0.135 -0.815,-0.135 -0.045,0.045 -0.068,0.098 -0.068,0.158 0,0.06 -0.06,0.151 -0.181,0.272 -0.105,0.105 -0.211,0.135 -0.317,0.09 -0.105,-0.045 -0.218,-0.098 -0.339,-0.158 -0.106,-0.076 -0.226,-0.121 -0.362,-0.136 -0.121,-0.03 -0.257,0.03 -0.407,0.181 l 0.882,0.882 c 0.226,-0.196 0.407,-0.316 0.543,-0.362 0.151,-0.06 0.287,-0.09 0.407,-0.09 0.091,0.181 0.159,0.369 0.204,0.566 0.03,0.181 0.053,0.384 0.068,0.611 0.211,0 0.317,-0.091 0.317,-0.272 0.135,0.136 0.226,0.256 0.271,0.362 0.03,0.091 0.061,0.151 0.091,0.181 l 0.317,-0.317 c -0.046,-0.226 -0.046,-0.392 0,-0.498 0.045,-0.135 0.09,-0.241 0.135,-0.316 0.03,-0.091 0.03,-0.181 0,-0.272 -0.03,-0.09 -0.135,-0.226 -0.316,-0.407 z m 2.421,1.244 -0.34,-0.339 -0.158,0.158 0.339,0.34 z m 6.177,0.476 -0.294,-0.295 c -0.181,0 -0.392,-0.015 -0.634,-0.045 -0.241,-0.06 -0.452,-0.06 -0.633,0 l 0.565,0.566 c 0.106,0.136 0.264,0.219 0.476,0.249 0.211,0.03 0.384,0.022 0.52,-0.023 z m -3.711,-0.453 c -0.166,-0.166 -0.324,-0.249 -0.475,-0.249 -0.151,-0.03 -0.294,-0.007 -0.43,0.068 -0.136,0.045 -0.272,0.136 -0.407,0.271 -0.136,0.106 -0.279,0.204 -0.43,0.295 0.271,0.09 0.467,0.12 0.588,0.09 0.136,-0.045 0.279,-0.068 0.43,-0.068 0.106,0.015 0.181,0.046 0.226,0.091 0.061,0.03 0.121,0.06 0.181,0.09 0.046,0.015 0.113,0.023 0.204,0.023 0.075,-0.015 0.204,-0.053 0.385,-0.113 -0.046,-0.045 -0.076,-0.106 -0.091,-0.181 0,-0.091 -0.06,-0.196 -0.181,-0.317 z m -2.195,0.701 c -0.09,0 -0.181,0.061 -0.271,0.181 -0.076,0.106 -0.136,0.181 -0.181,0.227 l 0.543,0.317 c 0,-0.091 -0.008,-0.219 -0.023,-0.385 0,-0.181 -0.023,-0.294 -0.068,-0.34 z m 0.475,0.249 -0.158,0.068 0.113,0.34 0.181,-0.046 z m 2.037,-0.271 c -0.045,0.045 -0.136,0.105 -0.272,0.181 -0.12,0.06 -0.203,0.113 -0.249,0.158 0.046,0.136 0.121,0.211 0.227,0.226 0.105,0.016 0.181,0.091 0.226,0.227 -0.03,0.03 -0.06,0.09 -0.091,0.181 -0.015,0.045 -0.03,0.075 -0.045,0.09 0.121,0.03 0.234,-0.007 0.34,-0.113 0.09,-0.121 0.158,-0.203 0.203,-0.249 -0.09,-0.09 -0.158,-0.188 -0.203,-0.294 -0.046,-0.136 -0.091,-0.271 -0.136,-0.407 z m -0.113,1.335 c -0.091,-0.091 -0.196,-0.166 -0.317,-0.226 -0.136,-0.076 -0.226,-0.091 -0.272,-0.046 0,0.091 0.031,0.211 0.091,0.362 0.06,0.121 0.113,0.204 0.158,0.249 z m -1.019,0.022 -0.158,0.068 0.204,0.611 0.181,-0.045 z m 1.064,0.204 c -0.121,0.091 -0.249,0.174 -0.385,0.249 -0.135,0.075 -0.234,0.143 -0.294,0.204 0.211,0.15 0.355,0.324 0.43,0.52 0.06,0.181 0.151,0.302 0.272,0.362 0.03,-0.211 0.045,-0.422 0.045,-0.633 0,-0.242 -0.023,-0.476 -0.068,-0.702 z m 8.633,-8.72299 -0.159,0.384 -0.135,-0.135 0.113,-0.34 z m -0.498,0.452 -0.43,0.43 -0.045,-0.136 c -0.03,-0.09 -0.068,-0.158 -0.113,-0.203 0.045,-0.046 0.12,-0.076 0.226,-0.091 0.106,-0.045 0.226,-0.045 0.362,0 z m -3.643,-21.201605 c 0.075,0.0754 0.121,0.2262 0.136,0.4525 0.015,0.2263 0.068,0.3998 0.158,0.5204 0.377,0.4375 0.792,0.8827 1.245,1.3347 0.437,0.438 0.882,0.883 1.335,1.335 0.075,0.076 0.128,0.264 0.158,0.566 0.015,0.287 -0.06,0.513 -0.226,0.679 -0.091,0.09 -0.287,0.196 -0.589,0.317 -0.286,0.105005 -0.497,0.135005 -0.633,0.09001 -0.166,-0.04501 -0.362,-0.121005 -0.588,-0.226005 -0.212,-0.121 -0.445,-0.249 -0.702,-0.385 -0.256,-0.136 -0.52,-0.249 -0.792,-0.339 -0.271,-0.121 -0.558,-0.196 -0.86,-0.226 -0.347,-0.046 -0.746,-0.023 -1.199,0.067 -0.468,0.076 -0.905,0.197 -1.312,0.362 -0.151,0.061 -0.287,0.181 -0.408,0.363 -0.135,0.165 -0.294,0.294 -0.475,0.384005 -0.136,0.076 -0.279,0.113 -0.43,0.113 -0.135,-0.015 -0.264,-0.052 -0.384,-0.113 -0.121,-0.06001 -0.219,-0.113005 -0.294,-0.158005 -0.091,-0.061 -0.144,-0.098 -0.159,-0.113 -0.196,-0.196 -0.309,-0.4 -0.339,-0.611 -0.03,-0.242 -0.015,-0.468 0.045,-0.679 0.06,-0.211 0.158,-0.415 0.294,-0.611 0.136,-0.196 0.272,-0.362 0.407,-0.498 0.061,-0.06 0.219,-0.188 0.476,-0.385 0.256,-0.196 0.565,-0.414 0.927,-0.6557 0.347,-0.2565 0.732,-0.5054 1.154,-0.7467 0.423,-0.2716 0.838,-0.4903 1.245,-0.6562 0.392,-0.181 0.747,-0.2942 1.063,-0.3394 0.332,-0.0604 0.581,-0.0076 0.747,0.1584 z m 6.336,19.006605 c 0.135,0.136 0.279,0.325 0.43,0.566 0.166,0.226 0.294,0.475 0.384,0.747 0.091,0.241 0.128,0.49 0.113,0.746 0,0.242 -0.098,0.461 -0.294,0.657 -0.136,0.135 -0.354,0.294 -0.656,0.475 -0.302,0.181 -0.649,0.377 -1.041,0.588 -0.392,0.18099 -0.799,0.36199 -1.222,0.54299 -0.422,0.181 -0.814,0.347 -1.176,0.498 -0.347,0.136 -0.641,0.249 -0.883,0.339 -0.241,0.091 -0.384,0.144 -0.43,0.159 -0.618,0.075 -1.191,0.09 -1.719,0.045 -0.528,-0.045 -1.019,-0.128 -1.471,-0.249 -0.453,-0.151 -0.875,-0.317 -1.267,-0.498 -0.393,-0.211 -0.762,-0.414 -1.109,-0.611 -0.151,-0.09 -0.377,-0.16499 -0.679,-0.22599 -0.302,-0.09 -0.566,-0.188 -0.792,-0.294 -0.196,-0.075 -0.4,-0.173 -0.611,-0.294 -0.211,-0.151 -0.415,-0.294 -0.611,-0.43 -0.181,-0.151 -0.347,-0.287 -0.498,-0.407 -0.15,-0.121 -0.256,-0.212 -0.316,-0.272 -0.106,-0.105 -0.181,-0.256 -0.227,-0.452 -0.045,-0.197 -0.135,-0.378 -0.271,-0.544 -0.634,-0.724 -1.214,-1.44 -1.742,-2.149 -0.528,-0.739 -0.981,-1.463 -1.358,-2.172 -0.091,-0.151 -0.136,-0.377 -0.136,-0.679 0,-0.332 -0.015,-0.604 -0.045,-0.815 -0.06,-0.513 -0.106,-1.101 -0.136,-1.765 -0.03,-0.694 0.008,-1.289 0.113,-1.787 0.046,-0.196 0.196,-0.498 0.453,-0.905 0.241,-0.423 0.445,-0.807 0.611,-1.154 0.06,-0.121 0.098,-0.295 0.113,-0.521 0.015,-0.226 0.098,-0.415 0.249,-0.565 0.181,-0.181 0.377,-0.423 0.588,-0.725 0.196,-0.316 0.355,-0.535 0.475,-0.656 0.664,-0.663 1.283,-0.709 1.856,-0.135 0.392,0.392 0.611,0.731 0.656,1.018 0.06,0.271 0.068,0.581 0.023,0.927 -0.046,0.347 -0.083,0.762 -0.114,1.245 -0.015,0.468 0.091,1.101 0.317,1.901 0.045,0.135 0.061,0.332 0.045,0.588 0,0.241 0.031,0.422 0.091,0.543 0.211,0.302 0.46,0.656 0.747,1.064 0.286,0.377 0.573,0.739 0.86,1.086 0.286,0.347 0.535,0.656 0.746,0.927 0.227,0.257 0.37,0.415 0.43,0.476 0.045,0.045 0.151,0.15 0.317,0.316 0.151,0.151 0.332,0.332 0.543,0.543 0.211,0.181 0.43,0.37 0.656,0.566 0.211,0.181 0.4,0.324 0.566,0.43 0.166,0.075 0.4,0.158 0.701,0.249 0.302,0.06 0.724,0.151 1.267,0.271 0.498,0.106 1.049,0.189 1.652,0.249 0.604,0.061 1.215,0.068 1.833,0.023 0.121,0 0.279,-0.038 0.475,-0.113 0.211,-0.091 0.385,-0.128 0.521,-0.113 0.196,0.045 0.377,0.151 0.543,0.316 0.166,0.166 0.309,0.31 0.43,0.43 z m -11.834,-2.783 c -0.091,0.091 -0.227,0.151 -0.408,0.181 -0.181,0 -0.324,0.053 -0.43,0.159 -0.12,0.12 -0.181,0.241 -0.181,0.362 0,0.12 0,0.271 0,0.452 0.091,0 0.166,0.03 0.227,0.091 0.06,0.06 0.135,0.09 0.226,0.09 0,-0.09 0.03,-0.166 0.09,-0.226 0.046,-0.075 0.091,-0.136 0.136,-0.181 l 0.362,0.543 -0.136,0.136 c 0.136,0.196 0.234,0.339 0.295,0.43 0.075,0.075 0.256,0.181 0.543,0.316 -0.046,0.046 -0.061,0.136 -0.046,0.272 0.015,0.106 -0.045,0.211 -0.181,0.317 l -0.475,0.475 c -0.045,-0.106 -0.045,-0.256 0,-0.453 0.045,-0.196 0.121,-0.392 0.226,-0.588 -0.09,0 -0.15,0.03 -0.181,0.091 -0.045,0.045 -0.09,0.09 -0.135,0.135 -0.136,-0.045 -0.272,-0.12 -0.408,-0.226 -0.135,-0.136 -0.264,-0.234 -0.384,-0.294 -0.046,-0.015 -0.121,0 -0.227,0.045 -0.12,0.03 -0.233,-0.007 -0.339,-0.113 -0.121,-0.121 -0.226,-0.347 -0.317,-0.679 -0.09,-0.332 -0.158,-0.565 -0.203,-0.701 -0.151,0 -0.317,-0.091 -0.498,-0.272 -0.196,-0.196 -0.362,-0.407 -0.498,-0.633 l 0.339,-0.34 c 0.121,0.151 0.272,0.317 0.453,0.498 0.196,0.166 0.4,0.309 0.611,0.43 0.045,-0.136 0.121,-0.226 0.226,-0.272 0.121,-0.06 0.249,-0.113 0.385,-0.158 0,-0.09 -0.015,-0.151 -0.045,-0.181 -0.016,-0.045 -0.046,-0.09 -0.091,-0.136 0.045,0.046 0.143,0.068 0.294,0.068 0.151,-0.03 0.272,-0.045 0.362,-0.045 z m 7.376,4.48 c 0.06,0.031 0.121,0.136 0.181,0.317 0.06,0.181 0.038,0.325 -0.068,0.43 -0.06,0.06 -0.09,0.091 -0.09,0.091 -0.015,-0.015 -0.03,-0.031 -0.046,-0.046 -0.015,-0.015 -0.022,-0.022 -0.022,-0.022 -0.015,-0.015 -0.053,0.007 -0.113,0.068 -0.121,0.12 -0.151,0.181 -0.091,0.181 0.076,-0.015 0.136,0 0.181,0.045 l -0.837,0.023 c 0,-0.091 0.015,-0.166 0.045,-0.227 0.046,-0.075 0.068,-0.158 0.068,-0.249 -0.136,-0.045 -0.286,-0.045 -0.452,0 -0.166,0.015 -0.295,-0.022 -0.385,-0.113 0.045,-0.045 0.098,-0.083 0.158,-0.113 0.061,-0.06 0.136,-0.09 0.227,-0.09 0,-0.091 -0.016,-0.166 -0.046,-0.227 -0.015,-0.075 -0.022,-0.158 -0.022,-0.249 0.196,0.046 0.415,0.083 0.656,0.114 0.241,0 0.46,0.022 0.656,0.067 z m -10.092,-10.544 -0.181,0.091 0.113,0.339 0.204,-0.068 z m -0.317,0.498 -0.158,-0.159 -0.249,0.249 0.159,0.159 z m 0,0.543 c -0.045,-0.045 -0.105,-0.075 -0.181,-0.091 -0.075,-0.015 -0.143,-0.022 -0.203,-0.022 -0.061,0 -0.128,0.038 -0.204,0.113 l -0.136,0.136 c 0.272,0.06 0.476,0.068 0.611,0.022 0.151,-0.06 0.189,-0.113 0.113,-0.158 z m 0.589,-0.045 -0.181,0.09 0.113,0.34 0.204,-0.068 z m 0.158,1.335 -0.407,-0.408 -0.34,0.34 c 0.091,0.09 0.136,0.196 0.136,0.317 0,0.12 0.023,0.248 0.068,0.384 -0.136,0.046 -0.241,0.106 -0.317,0.181 -0.06,0.061 -0.135,0.091 -0.226,0.091 0,-0.091 0.038,-0.174 0.113,-0.249 0.076,-0.076 0.136,-0.136 0.181,-0.181 l -0.452,-0.226 c -0.046,0.135 -0.076,0.316 -0.091,0.543 -0.015,0.196 -0.015,0.377 0,0.543 0.045,-0.046 0.113,-0.083 0.204,-0.113 0.09,-0.061 0.158,-0.068 0.203,-0.023 -0.09,0.271 -0.173,0.551 -0.248,0.837 -0.061,0.272 -0.114,0.521 -0.159,0.747 0.091,-0.091 0.189,-0.204 0.294,-0.34 0.091,-0.15 0.181,-0.271 0.272,-0.362 0.136,0.046 0.279,0.083 0.43,0.114 0.136,0.015 0.264,0.083 0.384,0.203 0.121,0.121 0.129,0.219 0.023,0.294 -0.121,0.061 -0.211,0.106 -0.271,0.136 0.422,0.241 0.716,0.475 0.882,0.702 0.091,-0.091 0.121,-0.181 0.091,-0.272 -0.046,-0.106 -0.061,-0.196 -0.046,-0.271 0.121,0 0.227,0.045 0.317,0.135 -0.317,-0.317 -0.634,-0.618 -0.95,-0.905 -0.317,-0.286 -0.574,-0.603 -0.77,-0.95 0.121,-0.03 0.227,0 0.317,0.09 0.091,0.061 0.181,0.091 0.272,0.091 0.03,-0.121 0.052,-0.249 0.068,-0.385 0,-0.151 -0.083,-0.339 -0.249,-0.566 0.09,0 0.158,0.023 0.203,0.068 l 0.046,0.046 z m 20.003,0.09 c -0.106,-0.105 -0.294,-0.219 -0.566,-0.339 -0.271,-0.121 -0.49,-0.234 -0.656,-0.34 -0.166,0.257 -0.317,0.468 -0.453,0.634 -0.135,0.166 -0.264,0.339 -0.384,0.52 -0.106,0.166 -0.219,0.37 -0.34,0.611 -0.12,0.212 -0.264,0.506 -0.43,0.883 -0.09,0.211 -0.211,0.452 -0.362,0.724 -0.15,0.241 -0.309,0.49 -0.475,0.747 -0.151,0.241 -0.294,0.46 -0.43,0.656 -0.12,0.181 -0.203,0.294 -0.249,0.339 -0.12,0.121 -0.218,0.189 -0.294,0.204 -0.075,0.015 -0.173,0.083 -0.294,0.203 -0.015,0.016 -0.045,0.046 -0.09,0.091 -0.061,0.03 -0.106,0.09 -0.136,0.181 -0.03,0.06 -0.038,0.143 -0.023,0.249 0,0.09 0.053,0.188 0.159,0.294 0.045,0.045 0.173,0.158 0.384,0.339 0.211,0.151 0.46,0.31 0.747,0.476 0.287,0.135 0.588,0.226 0.905,0.271 0.317,0.015 0.588,-0.09 0.815,-0.317 0.06,-0.06 0.188,-0.249 0.384,-0.565 0.196,-0.317 0.423,-0.694 0.679,-1.132 0.241,-0.452 0.49,-0.912 0.747,-1.38 0.241,-0.483 0.445,-0.897 0.611,-1.244 0.09,-0.212 0.135,-0.423 0.135,-0.634 0.016,-0.226 0.008,-0.43 -0.022,-0.611 -0.03,-0.211 -0.083,-0.385 -0.159,-0.52 -0.075,-0.166 -0.143,-0.279 -0.203,-0.34 z m -14.097,5.499 c 0.015,-0.166 -0.008,-0.264 -0.068,-0.294 -0.06,-0.061 -0.136,-0.091 -0.226,-0.091 -0.091,0 -0.189,0.008 -0.294,0.023 -0.091,0 -0.174,-0.023 -0.249,-0.068 0.075,0.075 0.181,0.181 0.317,0.317 0.15,0.12 0.324,0.158 0.52,0.113 z m -2.534,0.86 c -0.046,-0.046 -0.113,-0.083 -0.204,-0.114 -0.075,-0.045 -0.136,-0.045 -0.181,0 -0.045,0.046 0,0.091 0.136,0.136 0.12,0.03 0.203,0.023 0.249,-0.022 z m -1.267,0.633 -0.181,0.091 0.113,0.339 0.203,-0.068 z m 2.986,0.724 c -0.211,-0.06 -0.43,-0.158 -0.656,-0.294 -0.241,-0.151 -0.46,-0.249 -0.656,-0.294 -0.03,0.03 -0.06,0.06 -0.091,0.09 -0.03,0 -0.06,0.015 -0.09,0.046 l -0.091,0.09 c 0.151,0.091 0.347,0.226 0.589,0.407 0.241,0.181 0.43,0.31 0.565,0.385 z m 1.449,-0.09 -0.544,-0.091 -0.045,0.181 0.521,0.113 z m -2.784,0.203 c -0.12,-0.03 -0.256,-0.015 -0.407,0.046 -0.136,0.045 -0.226,0.09 -0.271,0.135 0.181,0 0.339,-0.007 0.475,-0.022 0.135,-0.046 0.203,-0.098 0.203,-0.159 z m 7.264,0.385 c -0.121,-0.03 -0.272,-0.091 -0.453,-0.181 -0.166,-0.106 -0.294,-0.204 -0.384,-0.294 -0.091,0.09 -0.129,0.219 -0.114,0.384 0.031,0.151 0.068,0.249 0.114,0.295 0.09,-0.091 0.218,-0.129 0.384,-0.114 0.181,0 0.332,-0.03 0.453,-0.09 z m -3.44,-0.407 c -0.075,0.075 -0.098,0.143 -0.068,0.203 0.016,0.046 0.023,0.113 0.023,0.204 -0.136,-0.045 -0.287,-0.06 -0.452,-0.045 -0.166,-0.015 -0.295,-0.023 -0.385,-0.023 0.151,0.181 0.392,0.287 0.724,0.317 0.317,0.015 0.535,-0.023 0.656,-0.113 -0.09,-0.091 -0.181,-0.196 -0.271,-0.317 -0.091,-0.151 -0.166,-0.226 -0.227,-0.226 z m -1.697,0.927 c -0.045,-0.196 -0.203,-0.339 -0.475,-0.43 -0.271,-0.09 -0.437,-0.135 -0.498,-0.135 -0.03,0.03 -0.075,0.105 -0.135,0.226 -0.031,0.06 -0.053,0.113 -0.068,0.158 0.151,0.031 0.354,0.083 0.611,0.159 0.271,0.06 0.46,0.068 0.565,0.022 z m 4.775,0.023 -0.521,0.294 c 0.046,0.136 0.136,0.211 0.272,0.226 0.136,-0.015 0.226,-0.045 0.271,-0.09 z m -2.037,0.498 -0.249,-0.249 -0.339,0.339 0.249,0.249 z m 19.737,-18.017005 -0.136,0.135 -0.249,-0.248 0.136,-0.136 z m 0.068,0.294 c 0.121,0.121 0.219,0.264 0.294,0.43 0.06,0.151 0.158,0.294 0.294,0.43 -0.166,-0.227 -0.347,-0.347 -0.543,-0.362 -0.045,0.135 -0.038,0.264 0.023,0.384 0.06,0.091 0.09,0.227 0.09,0.408005 -0.09,0.09 -0.211,0.15 -0.362,0.181 -0.136,0.015 -0.264,0.083 -0.384,0.203 -0.061,0.061 -0.076,0.106 -0.046,0.136 0.015,0.015 0.046,0.03 0.091,0.045 0.03,0 0.053,0.008 0.068,0.023 0.015,0.015 -0.008,0.053 -0.068,0.113 l -0.272,0.272 -0.475,-0.476 c -0.105,-0.105 -0.256,-0.301 -0.452,-0.588 -0.212,-0.302005 -0.34,-0.550005 -0.385,-0.747005 -0.03,0 -0.053,0.008 -0.068,0.023 -0.03,0.03 -0.045,0.075 -0.045,0.136 -0.045,-0.045 -0.083,-0.098 -0.113,-0.159 -0.061,-0.12 -0.068,-0.203 -0.023,-0.248 0.091,0 0.173,-0.008 0.249,-0.023 0.075,-0.045 0.158,-0.068 0.249,-0.068 0.075,0.075 0.113,0.234 0.113,0.475 0.09,0 0.158,-0.022 0.204,-0.068 0.045,-0.075 0.128,-0.173 0.248,-0.294 0.121,-0.121 0.159,-0.219 0.114,-0.294 -0.046,-0.075 -0.046,-0.136 0,-0.181 0.181,0 0.392,0.015 0.633,0.045 0.257,0.015 0.445,0.083 0.566,0.204 z m -5.702,-18.1926 c 0.045,0.0453 0.143,0.1584 0.294,0.3395 0.151,0.181 0.324,0.3997 0.52,0.6562 0.196,0.2262 0.4,0.46 0.611,0.7014 0.196,0.2263 0.377,0.4224 0.543,0.5883 0.121,0.1207 0.219,0.3093 0.295,0.5657 0.075,0.2263 0.128,0.4601 0.158,0.7014 -0.241,0.2716 -0.49,0.4149 -0.747,0.43 -0.271,0 -0.55,-0.0528 -0.837,-0.1584 -0.287,-0.1358 -0.581,-0.2791 -0.882,-0.4299 -0.317,-0.166 -0.649,-0.2716 -0.996,-0.3168 -0.226,0.1961 -0.468,0.3771 -0.724,0.543 -0.242,0.1509 -0.49,0.264 -0.747,0.3394 -0.256,0.0755 -0.505,0.0981 -0.747,0.0679 -0.256,-0.0452 -0.497,-0.181 -0.724,-0.4073 -0.316,-0.3168 -0.475,-0.626 -0.475,-0.9277 -0.015,-0.3168 0.061,-0.6185 0.226,-0.9051 0.166,-0.3168 0.385,-0.6109 0.657,-0.8825 0.256,-0.2866 0.513,-0.5581 0.769,-0.8145 0.362,-0.3621 0.664,-0.6185 0.905,-0.7694 0.241,-0.1508 0.46,-0.2187 0.656,-0.2036 0.196,0.0151 0.392,0.1056 0.589,0.2715 0.181,0.1509 0.399,0.3545 0.656,0.6109 z m -10.273,9.8203 c 0.075,0.0755 0.143,0.1886 0.204,0.3395 0.06,0.1508 0.105,0.3167 0.135,0.4978 0.03,0.1508 0.046,0.3017 0.046,0.4525 0,0.1509 -0.038,0.264 -0.114,0.3394 -0.105,0.1056 -0.211,0.181 -0.316,0.2263 -0.106,0.0452 -0.212,0.1207 -0.317,0.2263 -0.362,0.362 -0.513,0.7542 -0.453,1.1766 0.046,0.4073 0.159,0.807 0.34,1.1992 0.181,0.3923 0.347,0.7543 0.498,1.0862 0.15,0.3017 0.158,0.5205 0.022,0.6565 -0.166,0.166 -0.362,0.256 -0.588,0.271 -0.242,0 -0.483,-0.03 -0.724,-0.09 -0.226,-0.076 -0.423,-0.151 -0.589,-0.227 -0.181,-0.09 -0.286,-0.15 -0.316,-0.1806 l -2.376,-2.3759 c 0.03,-0.1508 0.068,-0.3394 0.113,-0.5657 0.06,-0.2413 0.121,-0.4676 0.181,-0.6788 0.075,-0.2263 0.151,-0.4224 0.226,-0.5883 0.061,-0.181 0.121,-0.3017 0.181,-0.3621 0.046,-0.0452 0.136,-0.1206 0.272,-0.2262 0.12,-0.1207 0.256,-0.2414 0.407,-0.3621 0.166,-0.1357 0.332,-0.2715 0.498,-0.4073 0.166,-0.1357 0.309,-0.2489 0.43,-0.3394 0.317,-0.2564 0.716,-0.3846 1.199,-0.3846 0.468,-0.0151 0.815,0.0905 1.041,0.3167 z m 20.274,6.5163 c 0.257,0.257 0.377,0.619 0.362,1.087 -0.03,0.452 -0.181,0.814 -0.452,1.086 l -5.522,5.159005 c -0.075,0.075 -0.203,0.158 -0.384,0.249 -0.181,0.09 -0.377,0.166 -0.588,0.226 -0.227,0.045 -0.438,0.075 -0.634,0.09 -0.196,-0.015 -0.355,-0.083 -0.475,-0.203 -0.091,-0.091 -0.144,-0.189 -0.159,-0.294 -0.015,-0.106 -0.037,-0.234 -0.068,-0.385 0.151,-0.241 0.31,-0.566 0.476,-0.973 0.166,-0.407 0.249,-0.822 0.249,-1.245 0,-0.12 -0.076,-0.241 -0.227,-0.362 -0.135,-0.135 -0.226,-0.316 -0.271,-0.543 l -2.24,-2.240005 c -0.106,-0.105 -0.347,-0.286 -0.724,-0.543 -0.378,-0.286 -0.732,-0.535 -1.064,-0.747 -0.196,-0.135 -0.392,-0.331 -0.588,-0.588 -0.196,-0.286 -0.415,-0.5354 -0.656,-0.7465 -0.302,-0.2414 -0.589,-0.528 -0.86,-0.8599 -0.272,-0.3319 -0.558,-0.6185 -0.86,-0.8598 -0.181,-0.1207 -0.438,-0.2716 -0.769,-0.4526 -0.317,-0.1961 -0.536,-0.3545 -0.657,-0.4751 -0.09,-0.0906 -0.143,-0.2339 -0.158,-0.43 -0.015,-0.2262 -0.091,-0.4374 -0.226,-0.6335 -0.257,-0.3168 -0.566,-0.6562 -0.928,-1.0183 -0.377,-0.3771 -0.762,-0.7316 -1.154,-1.0635 -0.091,-0.0603 -0.226,-0.1056 -0.407,-0.1357 -0.196,-0.0453 -0.355,-0.1282 -0.475,-0.2489 -0.151,-0.1509 -0.249,-0.3394 -0.295,-0.5657 -0.06,-0.2414 -0.068,-0.4752 -0.022,-0.7015 0.03,-0.2413 0.09,-0.4676 0.181,-0.6788 0.105,-0.2263 0.226,-0.4073 0.362,-0.543 0.12,-0.1207 0.309,-0.2489 0.565,-0.3847 0.257,-0.1358 0.445,-0.264 0.566,-0.3847 0.06,-0.0603 0.166,-0.181 0.317,-0.362 0.166,-0.1961 0.332,-0.3922 0.498,-0.5883 0.166,-0.2263 0.324,-0.4299 0.475,-0.611 0.151,-0.2112 0.249,-0.3394 0.294,-0.3846 0.317,-0.3168 0.641,-0.445 0.973,-0.3847 0.347,0.0453 0.656,0.2036 0.928,0.4752 0.105,0.1056 0.143,0.2791 0.113,0.5204 -0.03,0.2414 -0.038,0.445 -0.023,0.6109 0.317,0.1962 0.672,0.4903 1.064,0.8825 0.407,0.3771 0.731,0.7166 0.973,1.0183 0.181,0.2111 0.422,0.4525 0.724,0.724 0.302,0.2716 0.566,0.5506 0.792,0.8372 0.09,0.1509 0.181,0.3621 0.271,0.6336 0.106,0.2565 0.294,0.4148 0.566,0.4752 0.407,0.1056 0.777,0.3243 1.109,0.6562 0.332,0.3319 0.626,0.7014 0.882,1.1087 0.272,0.3922 0.528,0.7844 0.77,1.1767 0.226,0.3771 0.437,0.6637 0.633,0.8598 0.045,0.0452 0.166,0.1207 0.362,0.2263 0.196,0.1056 0.415,0.2338 0.656,0.3846 0.242,0.1207 0.491,0.264 0.747,0.43 0.241,0.1508 0.445,0.3092 0.611,0.4751 0.196,0.1961 0.392,0.4375 0.588,0.7241 0.196,0.287 0.438,0.513 0.724,0.679 0.151,0.09 0.355,0.158 0.611,0.203 0.257,0.046 0.498,0.031 0.724,-0.045 0.106,-0.015 0.234,-0.068 0.385,-0.158 0.151,-0.091 0.302,-0.166 0.453,-0.226 0.135,-0.076 0.279,-0.114 0.43,-0.114 0.165,-0.015 0.316,0.046 0.452,0.181 z m -16.676,-8.2133 -0.34,-0.3394 -0.135,0.1357 0.339,0.3395 z m 1.946,0 c -0.212,-0.0905 -0.43,-0.1584 -0.657,-0.2037 -0.226,-0.0754 -0.467,-0.1056 -0.724,-0.0905 0,-0.0905 -0.037,-0.1885 -0.113,-0.2941 -0.075,-0.1056 -0.158,-0.1584 -0.249,-0.1584 0,0.181 0.03,0.362 0.091,0.543 0.045,0.166 0.121,0.3017 0.226,0.4073 0.121,0.1207 0.196,0.166 0.226,0.1358 0.015,-0.0453 0.038,-0.0377 0.068,0.0226 0.061,0.0302 0.159,0.0528 0.294,0.0679 0.136,-0.0151 0.227,0 0.272,0.0453 -0.151,0.2112 -0.4,0.3092 -0.747,0.2941 -0.332,-0.0302 -0.55,-0.1584 -0.656,-0.3846 0.392,0.2413 0.664,0.4374 0.815,0.5883 0.166,0.1357 0.316,0.2715 0.452,0.4073 -0.045,-0.0453 -0.083,-0.0679 -0.113,-0.0679 -0.045,-0.0151 -0.007,-0.083 0.113,-0.2037 0.061,-0.0603 0.106,-0.0754 0.136,-0.0452 0.03,0.0301 0.06,0.0754 0.09,0.1357 0.031,0.0604 0.061,0.1358 0.091,0.2263 0.03,0.0604 0.083,0.0981 0.158,0.1131 l 0.498,-0.4978 c -0.03,-0.1206 -0.121,-0.2111 -0.271,-0.2715 -0.151,-0.0603 -0.242,-0.1508 -0.272,-0.2715 0.045,-0.0453 0.091,-0.1207 0.136,-0.2263 0.045,-0.1357 0.09,-0.2263 0.136,-0.2715 z m 1.131,1.0861 -0.52,-0.5204 -0.136,0.1357 0.52,0.5205 z m 0.407,0.0905 c -0.09,0 -0.211,0.0302 -0.362,0.0905 -0.166,0.0453 -0.294,0.1132 -0.384,0.2037 l 0.339,0.3394 c 0.091,-0.0905 0.173,-0.2037 0.249,-0.3394 0.06,-0.1509 0.113,-0.2489 0.158,-0.2942 z m 0.159,-0.0679 -0.113,0.1132 0.181,0.4073 0.181,-0.0453 z m -0.023,1.0635 -0.339,-0.3394 -0.136,0.1358 0.339,0.3394 z m 0.996,0.0905 -0.476,-0.2489 -0.067,0.1584 0.407,0.2263 z m -1.584,0.0905 c -0.136,-0.0452 -0.242,-0.0301 -0.317,0.0453 -0.075,0.0754 -0.091,0.181 -0.045,0.3168 z m 2.127,0.4526 -0.475,-0.2489 -0.068,0.1584 0.407,0.2263 z m -2.195,0.2036 -0.317,-0.3168 c -0.121,-0.1206 -0.271,-0.2111 -0.452,-0.2715 -0.166,-0.0754 -0.317,-0.1357 -0.453,-0.181 0.226,0.2263 0.43,0.4601 0.611,0.7015 0.166,0.2262 0.271,0.4525 0.317,0.6788 0.09,-0.0905 0.151,-0.1961 0.181,-0.3168 0.015,-0.1358 0.053,-0.2338 0.113,-0.2942 z m 2.444,0.8146 -0.905,-0.6788 c -0.046,0.0453 -0.083,0.1131 -0.114,0.2036 -0.03,0.0906 -0.067,0.1584 -0.113,0.2037 l 0.408,0.4073 c 0.12,-0.0302 0.256,-0.0453 0.407,-0.0453 0.166,-0.0151 0.271,-0.0452 0.317,-0.0905 z m -1.381,-0.3394 -0.158,0.0679 0.113,0.3394 0.181,-0.0453 z m 2.716,0.6336 -0.34,-0.3394 c -0.045,0.0452 -0.06,0.1206 -0.045,0.2262 0.015,0.0755 0.023,0.1584 0.023,0.2489 0.03,-0.0301 0.06,-0.0452 0.09,-0.0452 0.045,-0.0151 0.091,-0.0302 0.136,-0.0453 z m -0.295,0.1584 h -0.271 v 0.181 h 0.271 z m -1.9,0.0905 h -0.272 v 0.181 h 0.272 z m 2.987,0.6788 h -0.905 c 0,-0.2414 -0.068,-0.3847 -0.204,-0.4299 -0.03,0.1207 -0.038,0.264 -0.023,0.4299 0.03,0.1508 0.083,0.2489 0.159,0.2942 0.12,-0.0302 0.309,-0.0528 0.565,-0.0679 0.242,-0.0302 0.43,0.1131 0.566,0.4299 0,-0.0905 -0.023,-0.2037 -0.068,-0.3394 -0.045,-0.1358 -0.075,-0.2414 -0.09,-0.3168 z m -1.856,0.4978 -0.95,-0.6788 c 0.045,0.1357 0.083,0.3092 0.113,0.5204 0.015,0.1961 0.045,0.3621 0.09,0.4978 0.046,-0.0452 0.068,-0.098 0.068,-0.1584 0,-0.0603 0,-0.1357 0,-0.2263 0.136,0.0453 0.272,0.0755 0.408,0.0906 0.135,0.015 0.226,0 0.271,-0.0453 z m 0.656,-0.0679 c -0.06,0 -0.113,0.0076 -0.158,0.0226 -0.045,-0.015 -0.098,-0.0226 -0.158,-0.0226 l -0.136,0.0453 c 0.09,0.0905 0.188,0.1282 0.294,0.1131 0.09,-0.0302 0.143,-0.083 0.158,-0.1584 z m 0.068,0.2942 c -0.09,0.0905 -0.234,0.1433 -0.43,0.1584 -0.211,0 -0.362,0.0452 -0.452,0.1357 0.045,0.1358 0.151,0.2866 0.317,0.4526 0.15,0.1508 0.286,0.2413 0.407,0.2715 l 0.407,-0.4073 c 0,-0.0905 -0.03,-0.1961 -0.09,-0.3168 -0.061,-0.1508 -0.114,-0.2489 -0.159,-0.2941 z m 1.516,-0.0679 c -0.075,0.0754 -0.113,0.1433 -0.113,0.2036 0,0.0604 0,0.1358 0,0.2263 -0.09,0 -0.211,-0.0151 -0.362,-0.0452 -0.151,-0.0604 -0.287,-0.0302 -0.407,0.0905 -0.121,0.1207 -0.174,0.2187 -0.159,0.2941 0,0.0604 -0.022,0.1132 -0.067,0.1584 0.09,0.0905 0.196,0.166 0.316,0.2263 0.121,0.0603 0.196,0.1508 0.227,0.2715 -0.287,-0.1056 -0.468,-0.0905 -0.543,0.0453 0.135,0.1357 0.279,0.2489 0.429,0.3394 0.136,0.0754 0.227,0.1358 0.272,0.181 0.045,-0.0452 0.045,-0.1056 0,-0.181 -0.045,-0.0754 -0.008,-0.1735 0.113,-0.2942 0.121,-0.1206 0.211,-0.1508 0.272,-0.0905 0.06,0.0604 0.15,0.0302 0.271,-0.0905 0.106,-0.1056 0.159,-0.2036 0.159,-0.2941 0,-0.1207 -0.023,-0.2339 -0.068,-0.3395 -0.046,-0.1055 -0.106,-0.2111 -0.181,-0.3167 -0.061,-0.1207 -0.113,-0.2489 -0.159,-0.3847 z m 1.991,2.0822 c -0.09,0 -0.188,-0.038 -0.294,-0.1136 -0.12,-0.0905 -0.203,-0.1584 -0.249,-0.2037 0.046,0.1358 0.053,0.2793 0.023,0.4303 -0.03,0.12 -0.015,0.241 0.045,0.362 0.076,-0.076 0.106,-0.136 0.091,-0.181 0,-0.061 0,-0.136 0,-0.227 0.09,0 0.166,0 0.226,0 0.06,0 0.113,-0.022 0.158,-0.067 z m -1.38,-0.6567 c -0.181,0.0905 -0.354,0.2037 -0.52,0.3394 -0.166,0.1358 -0.294,0.2493 -0.385,0.3393 0.091,0.091 0.181,0.121 0.272,0.091 0.105,-0.046 0.196,-0.061 0.271,-0.046 0.03,0.121 0.113,0.234 0.249,0.34 0.136,0.105 0.264,0.173 0.385,0.203 -0.091,-0.181 -0.159,-0.384 -0.204,-0.61 -0.045,-0.2569 -0.068,-0.4757 -0.068,-0.6567 z m 2.331,1.4707 c -0.242,-0.121 -0.46,-0.188 -0.656,-0.204 -0.212,-0.03 -0.385,-0.022 -0.521,0.023 l 0.498,0.724 c 0.166,-0.075 0.294,-0.173 0.385,-0.294 0.105,-0.136 0.203,-0.219 0.294,-0.249 z m -1.041,1.222 -0.158,0.068 0.113,0.339 0.181,-0.045 z m 21.755,-18.9043 c 0.106,0.1056 0.242,0.3017 0.408,0.5883 0.181,0.2715 0.332,0.5732 0.452,0.9051 0.121,0.3318 0.196,0.6637 0.226,0.9956 0.016,0.3168 -0.075,0.5732 -0.271,0.7693 -0.091,0.0905 -0.257,0.1961 -0.498,0.3168 -0.241,0.1207 -0.422,0.2414 -0.543,0.362 -0.06,0.0604 -0.151,0.1811 -0.271,0.3621 -0.136,0.1659 -0.28,0.3394 -0.43,0.5204 -0.136,0.1961 -0.272,0.3771 -0.408,0.5431 -0.135,0.1659 -0.233,0.279 -0.294,0.3394 -0.271,0.2715 -0.566,0.5355 -0.882,0.7919 -0.317,0.2565 -0.739,0.3922 -1.267,0.4073 -0.136,-0.1961 -0.264,-0.4601 -0.385,-0.7919 -0.136,-0.347 -0.219,-0.6713 -0.249,-0.973 0.332,-0.4827 0.724,-0.9353 1.177,-1.3577 0.452,-0.4525 0.761,-0.9277 0.927,-1.4255 0.106,-0.2564 0.129,-0.4902 0.068,-0.7014 -0.075,-0.2263 -0.181,-0.4375 -0.317,-0.6336 -0.135,-0.2263 -0.271,-0.4375 -0.407,-0.6336 -0.136,-0.1961 -0.226,-0.4073 -0.271,-0.6335 -0.046,-0.1961 0.015,-0.4224 0.181,-0.6789 0.166,-0.2564 0.316,-0.4374 0.452,-0.543 0.166,-0.0151 0.362,0 0.589,0.0452 0.226,0.0453 0.429,0.1283 0.61,0.2489 0.212,0.1509 0.468,0.3621 0.77,0.6336 0.301,0.2414 0.513,0.4224 0.633,0.5431 z m -9.571,5.9962 c -0.045,0.0453 -0.106,0.1056 -0.181,0.181 -0.091,0.0604 -0.181,0.0906 -0.272,0.0906 -0.09,-0.0906 -0.135,-0.2112 -0.135,-0.3621 0.015,-0.1659 0.022,-0.2941 0.022,-0.3846 0.091,0 0.181,0.0603 0.272,0.181 0.105,0.1056 0.203,0.2036 0.294,0.2941 z m 1.086,0.7241 -0.52,0.5204 c -0.257,-0.1961 -0.393,-0.3017 -0.408,-0.3167 l -0.068,-0.0227 -0.294,-0.2941 0.068,-0.0679 c 0.03,-0.0302 0.091,-0.0604 0.181,-0.0905 0.076,-0.0151 0.144,0.0075 0.204,0.0679 0.075,0.0452 0.151,0.0452 0.226,0 l 0.204,-0.2037 z m 1.539,1.4029 c -0.091,0 -0.128,0.0226 -0.113,0.0679 0,0.0302 -0.061,0.1056 -0.181,0.2263 -0.121,0.1206 -0.204,0.1433 -0.249,0.0678 -0.046,-0.1056 -0.113,-0.1583 -0.204,-0.1583 -0.03,0.0301 -0.075,0.1357 -0.136,0.3167 -0.045,0.166 -0.03,0.3168 0.046,0.4526 l -0.589,0.5883 c -0.09,-0.0603 -0.136,-0.2715 -0.136,-0.6336 h -0.271 c 0,0.0905 0,0.166 0,0.2263 0.015,0.0453 0,0.0905 -0.045,0.1358 l -0.408,-0.4073 c 0,-0.0905 0.008,-0.1886 0.023,-0.2942 0.03,-0.1207 0.023,-0.2489 -0.023,-0.3846 -0.09,0 -0.158,0.0226 -0.203,0.0678 -0.03,0.0302 -0.068,0.0679 -0.113,0.1132 l -0.317,-0.3168 0.022,-0.611 c 0.181,0.0906 0.385,0.1434 0.611,0.1584 0.242,0 0.43,0.0227 0.566,0.0679 -0.045,0.0453 -0.098,0.1132 -0.158,0.2037 -0.076,0.0754 -0.113,0.1584 -0.113,0.2489 0.045,0.0452 0.075,0.0905 0.09,0.1357 0.015,0.0151 0.068,0.0227 0.158,0.0227 l -0.022,-0.0679 c 0,-0.0604 -0.03,-0.1207 -0.091,-0.181 l 0.34,-0.3395 c 0.075,0.1056 0.188,0.1735 0.339,0.2037 0.151,0.0302 0.294,0.0679 0.43,0.1131 -0.045,-0.1357 -0.068,-0.264 -0.068,-0.3846 0.015,-0.1358 -0.022,-0.2489 -0.113,-0.3394 0.241,0.2715 0.551,0.5053 0.928,0.7014 z m -5.363,-19.3464 c 0.091,0.0905 0.264,0.3243 0.52,0.7014 0.272,0.3621 0.574,0.6788 0.906,0.9504 0.045,0.1056 0.075,0.2866 0.09,0.543 0,0.2414 -0.053,0.4149 -0.158,0.5205 -0.121,0.1206 -0.287,0.181 -0.498,0.181 -0.211,0 -0.415,-0.0227 -0.611,-0.0679 -0.211,-0.0603 -0.4,-0.1282 -0.566,-0.2037 -0.166,-0.0754 -0.271,-0.1206 -0.317,-0.1357 -0.135,-0.0453 -0.286,-0.0604 -0.452,-0.0453 -0.181,0 -0.324,0.0377 -0.43,0.1132 -0.256,0.1961 -0.528,0.3771 -0.815,0.543 -0.271,0.1509 -0.573,0.3017 -0.905,0.4526 -0.166,0.0754 -0.347,0.2112 -0.543,0.4073 -0.181,0.181 -0.415,0.2941 -0.701,0.3394 -0.106,0.0151 -0.272,-0.0151 -0.498,-0.0905 -0.241,-0.0905 -0.422,-0.1961 -0.543,-0.3168 -0.106,-0.1056 -0.166,-0.2715 -0.181,-0.4978 0,-0.2414 0.06,-0.4526 0.181,-0.6336 0.075,-0.1056 0.204,-0.2036 0.385,-0.2941 0.166,-0.1056 0.301,-0.2414 0.407,-0.4073 0.121,-0.1811 0.271,-0.3923 0.452,-0.6336 0.166,-0.2565 0.332,-0.4978 0.498,-0.7241 0.166,-0.2564 0.317,-0.4676 0.453,-0.6336 0.136,-0.1961 0.234,-0.3243 0.294,-0.3846 0.106,-0.1056 0.264,-0.2489 0.475,-0.4299 0.196,-0.1961 0.377,-0.3017 0.543,-0.3168 0.362,-0.0604 0.724,0.0452 1.086,0.3168 0.377,0.2564 0.687,0.5053 0.928,0.7467 z m 4.888,7.0597 c 0.09,0.0905 0.173,0.2338 0.248,0.4299 0.061,0.1811 0.166,0.3319 0.317,0.4526 0.211,0.1508 0.445,0.3092 0.702,0.4752 0.256,0.1659 0.46,0.3545 0.611,0.5656 0.075,0.1056 0.143,0.264 0.203,0.4752 0.061,0.2112 0.068,0.3696 0.023,0.4752 -0.422,0.362 -0.747,0.5355 -0.973,0.5204 -0.241,-0.0301 -0.453,-0.1056 -0.634,-0.2262 -0.196,-0.1358 -0.414,-0.2489 -0.656,-0.3395 -0.241,-0.1206 -0.573,-0.0905 -0.995,0.0906 -0.151,0.0603 -0.317,0.1961 -0.498,0.4072 -0.166,0.1962 -0.355,0.3696 -0.566,0.5205 -0.226,0.1357 -0.468,0.2112 -0.724,0.2263 -0.256,0.015 -0.543,-0.1358 -0.86,-0.4526 -0.317,-0.3168 -0.422,-0.6185 -0.317,-0.9051 0.091,-0.3017 0.242,-0.6034 0.453,-0.9051 0.211,-0.3319 0.4,-0.6562 0.566,-0.973 0.166,-0.3168 0.158,-0.6562 -0.023,-1.0182 -0.075,-0.1358 -0.204,-0.3092 -0.385,-0.5204 -0.181,-0.2112 -0.286,-0.4224 -0.316,-0.6336 l 0.882,-0.8825 c 0.151,0 0.332,0.0453 0.543,0.1358 0.211,0.0603 0.37,0.1282 0.475,0.2036 0.181,0.1509 0.37,0.3244 0.566,0.5205 0.211,0.181 0.407,0.362 0.588,0.543 0.181,0.1811 0.34,0.3545 0.475,0.5205 0.136,0.1357 0.234,0.2338 0.295,0.2941 z m 0.769,9.4583 c 0.105,0.1056 0.158,0.2338 0.158,0.3846 0,0.1207 0.03,0.2414 0.091,0.3621 0.136,0.1961 0.332,0.3922 0.588,0.5883 0.241,0.181 0.453,0.362 0.634,0.5431 0.12,0.1206 0.233,0.3092 0.339,0.5656 0.106,0.2263 0.121,0.4677 0.045,0.7241 -0.075,0.2565 -0.249,0.5355 -0.52,0.8372 -0.257,0.3168 -0.445,0.5355 -0.566,0.6562 -0.06,0.0604 -0.241,0.2414 -0.543,0.5431 -0.286,0.3168 -0.603,0.6637 -0.95,1.0408 -0.347,0.3772 -0.671,0.7166 -0.973,1.0183 -0.287,0.3168 -0.46,0.5053 -0.521,0.5657 -0.075,0.0754 -0.226,0.1357 -0.452,0.181 -0.226,0.0452 -0.4,0.0528 -0.521,0.0226 l -0.429,-0.4299 c 0.015,-0.1056 0.037,-0.2489 0.067,-0.4299 0.031,-0.2112 0.046,-0.4073 0.046,-0.5883 0.015,-0.1961 0.015,-0.3772 0,-0.5431 0,-0.181 -0.031,-0.3017 -0.091,-0.362 -0.422,-0.4828 -0.867,-0.9881 -1.335,-1.5161 -0.483,-0.543 -0.973,-1.0786 -1.471,-1.6065 -0.482,-0.5431 -0.958,-1.0484 -1.425,-1.5161 -0.483,-0.4827 -0.913,-0.8975 -1.29,-1.2445 -0.181,-0.1508 -0.354,-0.3846 -0.52,-0.7014 -0.181,-0.3319 -0.332,-0.5582 -0.453,-0.6788 -0.106,-0.1056 -0.264,-0.2037 -0.475,-0.2942 -0.196,-0.1056 -0.362,-0.2263 -0.498,-0.362 -0.543,-0.5431 -1.086,-1.0862 -1.629,-1.6292 -0.543,-0.5431 -1.101,-1.071 -1.675,-1.5839 -0.105,-0.0755 -0.233,-0.1584 -0.384,-0.2489 -0.136,-0.1056 -0.272,-0.166 -0.407,-0.1811 -0.453,-0.0905 -0.808,-0.0829 -1.064,0.0227 -0.271,0.0905 -0.498,0.1961 -0.679,0.3168 -0.181,0.0905 -0.347,0.1508 -0.498,0.181 -0.15,0.0301 -0.339,-0.0679 -0.565,-0.2942 -0.136,-0.1357 -0.234,-0.3846 -0.294,-0.7467 -0.076,-0.3771 -0.023,-0.6562 0.158,-0.8372 0.121,-0.1207 0.287,-0.2263 0.498,-0.3168 0.211,-0.0905 0.377,-0.1961 0.498,-0.3168 0.105,-0.1056 0.158,-0.2489 0.158,-0.4299 0.015,-0.1961 0.083,-0.3545 0.204,-0.4752 0.06,-0.0603 0.211,-0.1508 0.452,-0.2715 0.257,-0.1358 0.536,-0.2791 0.837,-0.4299 0.287,-0.1659 0.551,-0.3093 0.792,-0.4299 0.242,-0.1509 0.393,-0.2565 0.453,-0.3168 0.09,-0.0905 0.158,-0.2791 0.204,-0.5657 0.045,-0.2866 0.128,-0.4903 0.248,-0.6109 0.106,-0.1056 0.279,-0.2037 0.521,-0.2942 0.241,-0.1207 0.46,-0.1584 0.656,-0.1131 0.422,0.1206 0.732,0.264 0.928,0.4299 0.181,0.1508 0.309,0.3092 0.384,0.4752 0.076,0.1659 0.121,0.3318 0.136,0.4978 0.03,0.1508 0.098,0.279 0.204,0.3846 l 2.919,2.919 c 0.105,0.1056 0.256,0.181 0.452,0.2262 0.181,0.0302 0.317,0.0755 0.408,0.1358 0.196,0.1358 0.377,0.347 0.543,0.6336 0.181,0.2715 0.384,0.5355 0.611,0.7919 0.588,0.6487 1.259,1.3049 2.013,1.9686 0.755,0.6638 1.471,1.335 2.15,2.0139 0.121,0.1206 0.272,0.2564 0.453,0.4073 0.181,0.1206 0.369,0.2489 0.565,0.3846 0.196,0.1056 0.37,0.2188 0.521,0.3394 0.151,0.0905 0.249,0.1584 0.294,0.2037 z m -4.073,-1.1766 c 0.106,0.1055 0.166,0.2564 0.181,0.4525 0.015,0.1961 0.068,0.3394 0.158,0.4299 -0.105,0.0453 -0.316,0.0905 -0.633,0.1358 -0.317,0.0151 -0.536,-0.0377 -0.656,-0.1584 -0.121,-0.1207 -0.196,-0.2112 -0.227,-0.2715 -0.03,-0.0905 -0.045,-0.1811 -0.045,-0.2716 0.136,-0.0452 0.264,-0.0226 0.385,0.0679 0.12,0.0604 0.188,0.1282 0.203,0.2037 0,0.0301 0.008,0.0528 0.023,0.0678 l 0.091,0.0906 c 0.015,0.015 0.037,0.0226 0.067,0.0226 0.031,0 0.068,-0.0226 0.114,-0.0679 -0.031,-0.1508 -0.106,-0.2715 -0.227,-0.362 -0.105,-0.1056 -0.196,-0.2112 -0.271,-0.3168 -0.061,-0.0302 -0.151,-0.0453 -0.272,-0.0453 -0.12,-0.0301 -0.226,-0.0905 -0.317,-0.181 l 0.34,-0.3394 c 0.136,0.1358 0.324,0.2338 0.566,0.2942 0.226,0.0452 0.399,0.1282 0.52,0.2489 z m -8.666,-7.7613 -0.34,0.3395 c 0.136,0.0452 0.249,0.1282 0.34,0.2489 0.09,0.1206 0.166,0.181 0.226,0.181 l 0.158,-0.1584 c -0.03,-0.1207 -0.09,-0.2414 -0.181,-0.3621 -0.105,-0.1357 -0.173,-0.2187 -0.203,-0.2489 z m -1.064,0.6562 c 0,0.0906 0.038,0.2037 0.113,0.3395 0.076,0.1357 0.159,0.2036 0.249,0.2036 0.045,-0.1358 0.015,-0.2564 -0.09,-0.362 -0.091,-0.1207 -0.181,-0.1811 -0.272,-0.1811 z m 2.851,0.8599 c -0.045,-0.0453 -0.105,-0.0905 -0.181,-0.1358 -0.06,-0.0603 -0.136,-0.0905 -0.226,-0.0905 0,0.0905 0.053,0.1433 0.158,0.1584 0.121,0 0.204,0.0226 0.249,0.0679 z m -1.109,0.0679 -0.429,-0.43 c -0.046,0.0453 -0.061,0.1509 -0.046,0.3168 0,0.1509 0,0.2716 0,0.3621 0.091,0 0.181,-0.0302 0.272,-0.0905 0.09,-0.0604 0.158,-0.1132 0.203,-0.1584 z m 2.399,1.2218 -0.249,-0.2489 -0.158,0.1584 0.249,0.2489 z m 0.543,1.0862 -0.43,-0.43 -0.158,0.1584 0.43,0.43 z m -0.724,-0.3168 -0.204,-0.0679 -0.113,0.5657 0.204,0.0226 z m 1.855,0.2715 c -0.045,-0.0452 -0.113,-0.0528 -0.203,-0.0226 -0.091,0 -0.181,0 -0.272,0 0.045,0.0452 0.121,0.0754 0.227,0.0905 0.12,0 0.203,-0.0226 0.248,-0.0679 z m 0,0.7241 -0.339,-0.3394 -0.339,0.3394 0.339,0.3394 z m 0.77,0.1358 -0.249,-0.249 -0.159,0.1584 0.249,0.2489 z m -2.376,-0.2037 -0.181,0.0905 0.113,0.3394 0.158,-0.0679 z m 0.566,0.9277 -0.249,-0.2489 -0.159,0.1584 0.249,0.2489 z m 2.851,0.4526 c -0.136,-0.1358 -0.287,-0.2716 -0.453,-0.4073 -0.151,-0.1509 -0.271,-0.2263 -0.362,-0.2263 -0.045,0.0453 0,0.1659 0.136,0.362 0.136,0.166 0.249,0.2942 0.339,0.3847 0.03,-0.0302 0.061,-0.0452 0.091,-0.0452 0.03,0 0.068,-0.0076 0.113,-0.0227 z m 0.226,0.2715 -0.249,-0.2489 -0.158,0.1584 0.248,0.2489 z m -1.923,-0.9277 c -0.121,-0.1207 -0.212,-0.181 -0.272,-0.181 -0.075,-0.0151 -0.136,-0.0453 -0.181,-0.0905 l -0.339,0.3394 c 0.045,0.0452 0.098,0.098 0.158,0.1584 0.045,0.0452 0.113,0.0678 0.204,0.0678 -0.106,0.1961 -0.106,0.3621 0,0.4978 0.105,0.1358 0.226,0.2716 0.362,0.4073 0.151,0.1207 0.279,0.264 0.384,0.43 0.106,0.1659 0.106,0.3771 0,0.6335 l 0.408,0.4073 c 0.045,-0.0452 0.06,-0.1056 0.045,-0.181 -0.03,-0.0905 0.015,-0.1961 0.136,-0.3168 0.12,-0.1207 0.249,-0.1735 0.384,-0.1584 0.136,-0.0151 0.249,0.0076 0.34,0.0679 0.03,0 0.06,-0.0603 0.09,-0.181 l 0.045,-0.1358 c -0.09,0 -0.196,-0.0151 -0.316,-0.0452 -0.136,-0.0453 -0.227,-0.0755 -0.272,-0.0905 -0.045,0.015 -0.105,0.0603 -0.181,0.1357 -0.075,0.0453 -0.151,0.0754 -0.226,0.0905 l -0.362,-0.362 c 0.105,-0.1961 0.143,-0.3243 0.113,-0.3847 -0.015,-0.0754 -0.113,-0.1735 -0.294,-0.2941 0.03,-0.1207 0.03,-0.2565 0,-0.4073 -0.045,-0.166 -0.121,-0.3017 -0.226,-0.4073 z m 2.692,1.7875 c -0.045,-0.0452 -0.12,-0.1055 -0.226,-0.181 -0.121,-0.0905 -0.219,-0.1282 -0.294,-0.1131 l -0.226,0.2263 0.316,0.3167 c 0.076,0.0151 0.159,-0.0075 0.249,-0.0678 0.076,-0.0755 0.136,-0.1358 0.181,-0.1811 z m -0.271,0.8146 c -0.091,-0.0905 -0.204,-0.1734 -0.34,-0.2489 -0.135,-0.0754 -0.226,-0.1357 -0.271,-0.181 l -0.317,0.3168 v 0.362 c -0.211,0 -0.362,0.0453 -0.453,0.1358 0.166,0.0754 0.317,0.1961 0.453,0.362 0.121,0.1509 0.339,0.1886 0.656,0.1132 0,-0.0905 -0.045,-0.1961 -0.136,-0.3168 -0.105,-0.1358 -0.15,-0.2414 -0.135,-0.3168 0.135,-0.0452 0.249,-0.083 0.339,-0.1131 0.091,-0.0302 0.158,-0.0679 0.204,-0.1132 z m 0.203,1.3803 -0.181,0.0905 0.113,0.3394 0.159,-0.0679 z m 1.426,0.0679 -0.34,-0.3394 c -0.045,0.0452 -0.067,0.098 -0.067,0.1584 0.015,0.0452 -0.038,0.1282 -0.159,0.2489 -0.121,0.1207 -0.211,0.1659 -0.271,0.1357 -0.076,-0.0452 -0.136,-0.0452 -0.181,0 0.271,0.1811 0.573,0.4224 0.905,0.7241 0.332,0.3017 0.626,0.5959 0.882,0.8825 0,-0.181 -0.015,-0.347 -0.045,-0.4978 -0.015,-0.166 -0.083,-0.3093 -0.204,-0.4299 -0.12,-0.1207 -0.234,-0.1886 -0.339,-0.2037 -0.106,-0.0452 -0.204,-0.0679 -0.294,-0.0679 0,-0.0905 0.007,-0.2036 0.022,-0.3394 0.015,-0.1357 0.046,-0.2263 0.091,-0.2715 z m 15.727,-11.3376 -0.362,0.3621 -0.023,-0.4752 c 0.031,0.0301 0.068,0.0528 0.114,0.0679 0.09,0.0301 0.181,0.0452 0.271,0.0452 z m -0.407,0.9956 -0.362,-0.362 c 0.136,-0.0453 0.241,-0.0302 0.317,0.0452 0.075,0.0755 0.09,0.1811 0.045,0.3168 z m 0.792,0.0679 -0.159,0.1584 -0.316,-0.3168 0.158,-0.1584 z m 6.019,-19.0975 c 0.12,0.1206 0.166,0.2112 0.135,0.2715 -0.015,0.0452 -0.015,0.1056 0,0.181 0.136,0.1961 0.325,0.3847 0.566,0.5657 0.257,0.1659 0.46,0.3545 0.611,0.5657 0.166,0.1961 0.34,0.4299 0.521,0.7014 0.196,0.2565 0.331,0.5129 0.407,0.7694 0.136,0.4978 0.309,1.0182 0.52,1.5613 0.211,0.5128 0.392,1.0408 0.543,1.5839 0.136,0.5279 0.219,1.0635 0.249,1.6065 0.015,0.528 -0.098,1.0635 -0.339,1.6066 -0.061,0.1508 -0.113,0.3243 -0.159,0.5204 -0.045,0.1659 -0.083,0.3092 -0.113,0.4299 l -0.565,0.3847 c 0.241,0.2715 0.384,0.5506 0.43,0.8372 0.03,0.2715 0.007,0.5355 -0.068,0.792 -0.091,0.2413 -0.212,0.4676 -0.362,0.6788 -0.166,0.1961 -0.31,0.3545 -0.43,0.4752 -0.106,0.1056 -0.227,0.1659 -0.362,0.181 -0.136,0.0151 -0.257,0.0754 -0.362,0.181 -0.076,0.0754 -0.114,0.1886 -0.114,0.3394 0,0.1509 0,0.3168 0,0.4978 0,0.181 -0.022,0.3696 -0.067,0.5657 -0.031,0.181 -0.121,0.347 -0.272,0.4978 -0.106,0.1056 -0.226,0.1358 -0.362,0.0905 -0.136,-0.0452 -0.256,-0.0151 -0.362,0.0905 -0.121,0.1207 -0.166,0.2263 -0.136,0.3168 0.03,0.0905 -0.015,0.1961 -0.136,0.3168 -0.045,0.0452 -0.135,0.1207 -0.271,0.2263 -0.121,0.0905 -0.272,0.181 -0.453,0.2715 -0.15,0.0905 -0.316,0.1659 -0.497,0.2263 -0.181,0.0603 -0.347,0.0754 -0.498,0.0452 -0.106,-0.0151 -0.219,-0.0679 -0.34,-0.1584 -0.12,-0.0905 -0.233,-0.1885 -0.339,-0.2941 -0.181,-0.181 -0.302,-0.4375 -0.362,-0.7694 -0.045,-0.3469 0.03,-0.6184 0.226,-0.8145 0.106,-0.1056 0.211,-0.1811 0.317,-0.2263 0.121,-0.0604 0.241,-0.1509 0.362,-0.2715 0.302,-0.3017 0.52,-0.611 0.656,-0.9278 0.136,-0.3469 0.219,-0.7165 0.249,-1.1087 0.045,-0.4073 0.053,-0.8523 0.023,-1.335 -0.03,-0.4828 -0.053,-1.0183 -0.068,-1.6066 0,-0.0603 -0.038,-0.1433 -0.113,-0.2489 -0.091,-0.1207 -0.159,-0.2338 -0.204,-0.3394 -0.136,-0.4375 -0.271,-0.7844 -0.407,-1.0409 -0.136,-0.2866 -0.272,-0.5128 -0.408,-0.6788 -0.15,-0.181 -0.294,-0.3394 -0.429,-0.4752 -0.136,-0.1357 -0.264,-0.3092 -0.385,-0.5204 -0.045,-0.1056 -0.098,-0.2791 -0.159,-0.5204 -0.045,-0.2565 -0.113,-0.4299 -0.203,-0.5204 -0.121,-0.1207 -0.219,-0.1735 -0.294,-0.1584 -0.076,-0.0151 -0.151,-0.0302 -0.227,-0.0453 -0.181,-0.2414 -0.392,-0.4676 -0.633,-0.6788 -0.257,-0.2263 -0.513,-0.4375 -0.769,-0.6336 -0.272,-0.181 -0.566,-0.3394 -0.883,-0.4752 -0.302,-0.1508 -0.566,-0.3394 -0.792,-0.5656 -0.06,-0.0604 -0.098,-0.1584 -0.113,-0.2942 -0.015,-0.1358 -0.045,-0.2715 -0.091,-0.4073 -0.362,0 -0.776,-0.0377 -1.244,-0.1131 -0.483,-0.0905 -0.966,-0.166 -1.448,-0.2263 -0.498,-0.0754 -0.973,-0.0981 -1.426,-0.0679 -0.437,0.0151 -0.807,0.1282 -1.109,0.3394 -0.135,0.1056 -0.279,0.2338 -0.429,0.3847 -0.151,0.1508 -0.317,0.3017 -0.498,0.4525 -0.166,0.1358 -0.355,0.264 -0.566,0.3847 -0.226,0.1056 -0.475,0.1735 -0.747,0.2037 -0.15,0 -0.399,-0.0528 -0.746,-0.1584 -0.347,-0.1056 -0.581,-0.2188 -0.702,-0.3395 -0.211,-0.2111 -0.256,-0.4978 -0.136,-0.8598 0.106,-0.3771 0.264,-0.6713 0.476,-0.8825 0.196,-0.1961 0.422,-0.4223 0.678,-0.6788 0.257,-0.2564 0.498,-0.4978 0.725,-0.7241 0.226,-0.2564 0.429,-0.4751 0.61,-0.6562 0.181,-0.181 0.302,-0.3017 0.363,-0.362 0.105,-0.1056 0.362,-0.2866 0.769,-0.5431 0.392,-0.2715 0.747,-0.4902 1.063,-0.6561 0.181,-0.0906 0.408,-0.1358 0.679,-0.1358 0.272,0 0.543,0 0.815,0 0.03,-0.0302 0.037,-0.1282 0.022,-0.2942 -0.015,-0.1659 0.031,-0.3017 0.136,-0.4073 0.045,-0.0452 0.189,-0.098 0.43,-0.1584 0.241,-0.0905 0.528,-0.1659 0.86,-0.2262 0.332,-0.0905 0.656,-0.1584 0.973,-0.2037 0.332,-0.0603 0.603,-0.1056 0.814,-0.1357 0.046,0.015 0.129,0.0678 0.249,0.1583 0.121,0.0906 0.249,0.1434 0.385,0.1584 0.634,0.0604 1.162,0.166 1.584,0.3168 0.422,0.1207 0.784,0.2716 1.086,0.4526 0.287,0.1659 0.536,0.3696 0.747,0.6109 0.226,0.2263 0.452,0.4676 0.679,0.7241 0.12,0.1508 0.301,0.3017 0.543,0.4525 0.226,0.1358 0.452,0.2716 0.678,0.4073 0.227,0.1056 0.438,0.2112 0.634,0.3168 0.196,0.0754 0.324,0.1433 0.385,0.2037 z m -6.245,14.572 c 0.105,0.1056 0.165,0.2112 0.181,0.3168 0.03,0.0905 0.067,0.1886 0.113,0.2942 0.181,0.2715 0.362,0.4978 0.543,0.6788 0.196,0.1659 0.384,0.3243 0.565,0.4752 0.181,0.1206 0.355,0.2639 0.521,0.4299 0.151,0.1508 0.279,0.3545 0.385,0.6109 0.06,0.181 0.196,0.3621 0.407,0.5431 0.211,0.181 0.354,0.3846 0.43,0.6109 0.015,0.0754 0.03,0.1961 0.045,0.3621 0,0.1508 -0.008,0.2639 -0.023,0.3394 -0.075,0.1961 -0.181,0.3922 -0.316,0.5883 -0.121,0.2112 -0.242,0.3771 -0.362,0.4978 -0.106,0.1056 -0.287,0.1961 -0.543,0.2715 -0.242,0.0905 -0.43,0.2037 -0.566,0.3394 -0.211,0.2112 -0.453,0.4526 -0.724,0.7241 -0.272,0.2715 -0.543,0.528 -0.815,0.7693 -0.256,0.2565 -0.483,0.4828 -0.679,0.6789 -0.196,0.1961 -0.324,0.3243 -0.384,0.3846 -0.106,0.1056 -0.166,0.2263 -0.181,0.3621 -0.015,0.1357 -0.076,0.2564 -0.181,0.362 -0.121,0.1207 -0.249,0.1886 -0.385,0.2036 -0.136,0.0151 -0.264,0.0076 -0.385,-0.0226 -0.12,-0.0603 -0.226,-0.1207 -0.316,-0.181 -0.091,-0.0905 -0.166,-0.1659 -0.227,-0.2263 -0.211,-0.2112 -0.377,-0.4676 -0.498,-0.7693 -0.105,-0.3168 -0.075,-0.5581 0.091,-0.7241 0.121,-0.1207 0.204,-0.1735 0.249,-0.1584 0.045,0.0151 0.128,-0.0377 0.249,-0.1584 0.317,-0.3167 0.475,-0.5506 0.475,-0.7014 0,-0.181 -0.068,-0.3545 -0.204,-0.5204 -0.12,-0.1811 -0.271,-0.3923 -0.452,-0.6336 -0.181,-0.2715 -0.302,-0.6487 -0.362,-1.1314 -0.136,-0.0452 -0.302,-0.0452 -0.498,0 -0.196,0.0151 -0.355,-0.0226 -0.475,-0.1131 -0.211,-0.1509 -0.453,-0.3319 -0.724,-0.5431 -0.257,-0.2263 -0.445,-0.3997 -0.566,-0.5204 v -0.2263 c -0.528,-0.4676 -1.026,-0.9353 -1.493,-1.4029 -0.483,-0.4827 -1.034,-1.0635 -1.652,-1.7423 -0.106,-0.1358 -0.166,-0.347 -0.181,-0.6336 -0.03,-0.3017 -0.098,-0.5053 -0.204,-0.6109 -0.106,-0.1056 -0.271,-0.1659 -0.498,-0.181 -0.226,-0.0453 -0.415,-0.1132 -0.565,-0.2037 -0.393,-0.2413 -0.815,-0.5581 -1.268,-0.9503 -0.452,-0.3922 -0.852,-0.7769 -1.199,-1.154 -0.015,-0.0754 -0.038,-0.1584 -0.068,-0.2489 -0.03,-0.1207 -0.068,-0.2037 -0.113,-0.2489 -0.256,-0.1056 -0.49,-0.2791 -0.701,-0.5205 -0.211,-0.2413 -0.392,-0.4223 -0.543,-0.543 -0.121,0.0302 -0.196,0.0905 -0.227,0.181 -0.03,0.0905 -0.098,0.1886 -0.203,0.2942 -0.046,0.0452 -0.136,0.1056 -0.272,0.181 -0.136,0.0452 -0.286,0.1056 -0.452,0.181 -0.166,0.0754 -0.34,0.1584 -0.521,0.2489 -0.166,0.0754 -0.294,0.1584 -0.384,0.2489 -0.272,0 -0.528,-0.1207 -0.77,-0.362 -0.301,-0.3017 -0.452,-0.5883 -0.452,-0.8599 0,-0.2715 0.181,-0.5883 0.543,-0.9503 0.045,-0.0453 0.151,-0.1358 0.317,-0.2716 0.165,-0.1659 0.354,-0.3394 0.565,-0.5204 0.226,-0.1961 0.453,-0.3922 0.679,-0.5883 0.241,-0.2112 0.46,-0.3998 0.656,-0.5657 0.151,-0.1508 0.438,-0.2263 0.86,-0.2263 0.045,-0.2262 0.098,-0.445 0.158,-0.6562 0.076,-0.2262 0.174,-0.3997 0.295,-0.5204 0.045,-0.0452 0.128,-0.1282 0.249,-0.2489 0.12,-0.1207 0.264,-0.2338 0.429,-0.3394 0.151,-0.1207 0.317,-0.2263 0.498,-0.3168 0.166,-0.1056 0.34,-0.1584 0.521,-0.1584 0.211,0 0.43,0.0528 0.656,0.1584 0.226,0.0754 0.445,0.1735 0.656,0.2942 0.196,0.1056 0.37,0.2187 0.52,0.3394 0.151,0.0905 0.257,0.1659 0.317,0.2263 0.106,0.1056 0.189,0.2639 0.249,0.4751 0.061,0.2112 0.151,0.3922 0.272,0.5431 0.105,0.1358 0.279,0.3243 0.52,0.5657 0.257,0.2263 0.528,0.4827 0.815,0.7693 0.271,0.2715 0.535,0.5506 0.792,0.8372 0.271,0.2716 0.475,0.5205 0.611,0.7467 0.105,0.1961 0.286,0.347 0.543,0.4526 0.256,0.0754 0.497,0.2112 0.724,0.4073 0.482,0.4224 0.995,0.9202 1.538,1.4934 0.528,0.5581 1.026,1.1012 1.494,1.6292 0.075,0.1056 0.121,0.2564 0.136,0.4525 0.03,0.181 0.105,0.3319 0.226,0.4526 0.06,0.0603 0.166,0.1206 0.317,0.181 0.135,0.0452 0.286,0.0905 0.452,0.1357 0.166,0.0453 0.325,0.0981 0.475,0.1584 0.136,0.0453 0.234,0.0981 0.295,0.1584 z m 1.357,-15.8392 c -0.045,0.0453 -0.083,0.0981 -0.113,0.1584 -0.015,0.0453 -0.083,0.1282 -0.204,0.2489 -0.09,0.0905 -0.226,0.1358 -0.407,0.1358 -0.196,-0.0151 -0.385,-0.0377 -0.566,-0.0679 0.136,0.0453 0.287,0.0905 0.453,0.1358 0.166,0.0151 0.317,0.0452 0.453,0.0905 -0.076,0.1659 -0.053,0.2941 0.067,0.3846 0.121,0.0906 0.242,0.166 0.362,0.2263 -0.015,-0.2564 -0.037,-0.5053 -0.067,-0.7467 -0.031,-0.2413 -0.023,-0.4299 0.022,-0.5657 z m -4.797,0.7694 h -0.271 v 0.181 h 0.271 z m 5.883,0.543 -0.43,-0.4299 c -0.045,0.1358 -0.045,0.2866 0,0.4525 0.031,0.1509 0.068,0.2489 0.114,0.2942 z m -1.425,0.1584 c -0.181,0 -0.362,-0.0603 -0.543,-0.181 -0.166,-0.1358 -0.332,-0.2565 -0.498,-0.362 -0.076,0.0754 -0.113,0.1583 -0.113,0.2489 0.015,0.0754 0.022,0.1583 0.022,0.2489 l 0.408,0.4073 c 0.09,-0.0906 0.158,-0.1283 0.203,-0.1132 0.046,-0.0151 0.091,-0.0151 0.136,0 0.045,-0.0151 0.091,-0.0302 0.136,-0.0452 0.06,-0.0302 0.143,-0.0981 0.249,-0.2037 z m -0.656,0.3847 -0.136,0.1357 0.203,0.3847 0.159,-0.0679 z m 0.95,0.1357 -0.317,0.3168 0.43,0.4299 c 0.091,-0.181 0.106,-0.3318 0.045,-0.4525 -0.06,-0.1509 -0.113,-0.2489 -0.158,-0.2942 z m 3.055,0.4752 c -0.091,-0.0905 -0.151,-0.1207 -0.181,-0.0905 -0.046,0.0151 -0.129,0.083 -0.249,0.2037 -0.121,0.1206 -0.234,0.1433 -0.34,0.0678 -0.105,-0.0754 -0.226,-0.0905 -0.362,-0.0452 -0.09,-0.181 -0.188,-0.3696 -0.294,-0.5657 -0.105,-0.2263 -0.226,-0.4073 -0.362,-0.5431 0.045,0.0453 0.091,0.1056 0.136,0.1811 0.06,0.0603 0.09,0.1357 0.09,0.2262 -0.211,0 -0.362,0.0453 -0.452,0.1358 0.045,0.0453 0.113,0.1131 0.203,0.2036 0.091,0.0906 0.144,0.1886 0.159,0.2942 -0.226,0.0754 -0.4,0.0528 -0.521,-0.0679 0,-0.2413 -0.075,-0.3922 -0.226,-0.4525 -0.075,0.0754 -0.09,0.1659 -0.045,0.2715 0.06,0.0905 0.113,0.1584 0.158,0.2036 -0.135,0.1358 -0.234,0.264 -0.294,0.3847 -0.06,0.1207 -0.113,0.2037 -0.158,0.2489 l 0.317,0.3168 c 0.045,-0.0453 0.082,-0.1131 0.113,-0.2037 0.045,-0.1055 0.128,-0.1433 0.249,-0.1131 -0.016,0.1659 -0.061,0.3017 -0.136,0.4073 -0.076,0.1056 -0.113,0.1886 -0.113,0.2489 0.045,0.0453 0.15,0.0905 0.316,0.1358 0.151,0.0301 0.272,0.0452 0.362,0.0452 -0.045,-0.0452 -0.06,-0.1056 -0.045,-0.181 0.015,-0.1056 0.045,-0.181 0.091,-0.2263 0.286,0.1056 0.475,0.083 0.565,-0.0678 -0.045,-0.0453 -0.09,-0.1056 -0.135,-0.1811 -0.031,-0.0905 -0.023,-0.1584 0.022,-0.2036 0.121,0.0603 0.219,0.1433 0.294,0.2489 0.076,0.0754 0.129,0.1433 0.159,0.2036 0.03,-0.0905 0.098,-0.1433 0.203,-0.1584 0.106,-0.0452 0.219,-0.0678 0.34,-0.0678 0.136,-0.0151 0.264,-0.0227 0.385,-0.0227 0.135,-0.0151 0.233,-0.0377 0.294,-0.0679 -0.046,-0.0452 -0.083,-0.1131 -0.113,-0.2036 -0.016,-0.0453 -0.023,-0.098 -0.023,-0.1584 -0.045,0.0453 -0.091,0.0905 -0.136,0.1358 -0.045,0.0452 -0.113,0.0679 -0.203,0.0679 0,-0.0906 -0.023,-0.1735 -0.068,-0.2489 -0.046,-0.1056 -0.046,-0.2263 0,-0.3621 z m 2.285,2.6474 c -0.03,-0.1508 -0.106,-0.3017 -0.226,-0.4525 -0.121,-0.1509 -0.264,-0.2942 -0.43,-0.4299 -0.166,-0.1358 -0.332,-0.2565 -0.498,-0.3621 -0.181,-0.1207 -0.332,-0.1961 -0.453,-0.2263 0.091,0.0906 0.212,0.1811 0.362,0.2716 0.151,0.0905 0.249,0.2036 0.295,0.3394 -0.257,-0.0754 -0.445,-0.0528 -0.566,0.0679 0.271,0.0905 0.528,0.2262 0.769,0.4073 0.242,0.1508 0.491,0.279 0.747,0.3846 z m 0.272,0.0453 h -0.181 v 0.4525 h 0.181 z m -0.114,0.5204 c 0,0.181 -0.007,0.3847 -0.022,0.611 0,0.2111 0.037,0.3846 0.113,0.5204 0.106,-0.166 0.128,-0.3394 0.068,-0.5204 -0.045,-0.1962 -0.098,-0.3998 -0.159,-0.611 z m 0.453,1.4934 c -0.091,0 -0.204,0.0377 -0.339,0.1132 -0.151,0.0603 -0.295,0.1131 -0.43,0.1583 l 0.135,0.3621 z m -17.446,1.6066 -0.136,-0.1358 -0.316,0.4978 0.135,0.1358 z m 0.521,0.7014 c -0.046,-0.0452 -0.129,-0.083 -0.249,-0.1131 -0.121,-0.0302 -0.227,-0.0453 -0.317,-0.0453 l 0.023,0.4752 z m 0.656,0.3847 -0.226,-0.2263 -0.159,0.1584 0.226,0.2263 z m -0.611,0.1584 c -0.06,0 -0.113,0.0075 -0.159,0.0226 -0.045,-0.0151 -0.098,-0.0226 -0.158,-0.0226 l -0.136,0.0452 c 0.091,0.0905 0.189,0.1283 0.294,0.1132 0.091,-0.0302 0.144,-0.083 0.159,-0.1584 z m -0.928,0.2941 -0.498,-0.4978 -0.158,0.1584 0.498,0.4978 z m 1.991,0.1358 c 0.046,0.0453 0.031,0.1056 -0.045,0.181 l -0.113,0.1132 c 0.06,0.0603 0.136,0.0905 0.226,0.0905 0.046,0.015 0.098,0.0226 0.159,0.0226 0,-0.0905 -0.031,-0.1659 -0.091,-0.2263 -0.045,-0.0754 -0.09,-0.1357 -0.136,-0.181 z m -0.52,0.6109 c 0.09,-0.181 0.09,-0.3167 0,-0.4073 -0.091,-0.0905 -0.204,-0.0678 -0.339,0.0679 z m -1.788,-0.3394 -0.135,0.1358 0.203,0.3847 0.159,-0.0679 z m 3.191,0.8825 -0.724,-0.4978 c -0.045,0.0452 -0.045,0.1207 0,0.2263 0.06,0.0905 0.113,0.1584 0.158,0.2036 l -0.452,0.4526 0.339,0.3394 c 0.075,-0.166 0.204,-0.2942 0.385,-0.3847 0.166,-0.1056 0.264,-0.2187 0.294,-0.3394 z m 0.611,0.6562 -0.317,-0.3168 c -0.045,0.0453 -0.068,0.1584 -0.068,0.3394 0,0.1509 0.023,0.2489 0.068,0.2942 z m -0.747,-0.0679 c -0.09,0 -0.173,0.0377 -0.249,0.1131 -0.075,0.0453 -0.136,0.0906 -0.181,0.1358 l 0.317,0.3168 c 0.045,-0.0453 0.09,-0.1358 0.136,-0.2715 0.03,-0.1509 0.022,-0.2489 -0.023,-0.2942 z m 1.901,0.9051 -0.317,-0.3168 -0.158,0.1584 0.316,0.3168 z m -1.245,0.0679 -0.135,0.1358 0.316,0.4978 0.136,-0.1358 z m 1.539,0.8598 c -0.136,-0.0452 -0.272,-0.0905 -0.407,-0.1357 -0.151,-0.0604 -0.295,-0.0679 -0.43,-0.0227 l 0.701,0.7015 c 0.091,-0.0905 0.136,-0.181 0.136,-0.2715 0,-0.0906 0,-0.1811 0,-0.2716 z m 0.656,0.8372 c -0.105,-0.015 -0.249,-0.0075 -0.43,0.0227 -0.181,0 -0.324,-0.0076 -0.43,-0.0227 0.091,0.0906 0.234,0.1433 0.43,0.1584 0.196,-0.0151 0.34,-0.0678 0.43,-0.1584 z m 0.475,0.6562 c -0.467,-0.0452 -0.852,-0.0226 -1.154,0.0679 l 0.634,0.6336 c -0.03,-0.0604 -0.06,-0.1056 -0.091,-0.1358 -0.045,-0.0452 -0.007,-0.1282 0.114,-0.2489 0.12,-0.1207 0.226,-0.181 0.316,-0.181 0.106,-0.0151 0.166,-0.0603 0.181,-0.1358 z m 0.724,1.4029 -0.407,-0.4073 -0.158,0.1584 0.407,0.4073 z m 1.516,1.4256 c -0.271,-0.1811 -0.497,-0.347 -0.678,-0.4978 -0.181,-0.1509 -0.317,-0.2263 -0.408,-0.2263 -0.045,0.0452 -0.09,0.1508 -0.135,0.3168 -0.046,0.1357 -0.068,0.2489 -0.068,0.3394 0.135,0.0452 0.332,0.0754 0.588,0.0905 0.272,0 0.505,-0.0076 0.701,-0.0226 z m 1.992,0.1357 c -0.272,0 -0.551,-0.0075 -0.838,-0.0226 -0.286,-0.0453 -0.565,-0.0679 -0.837,-0.0679 l 0.34,0.3394 c 0.166,0.0151 0.309,0.0076 0.43,-0.0226 0.135,-0.0453 0.256,-0.0453 0.362,0 0.045,0.0151 0.105,0.0754 0.181,0.181 0.075,0.0754 0.158,0.1132 0.249,0.1132 0,-0.0905 0.007,-0.1886 0.022,-0.2942 0.015,-0.1056 0.045,-0.181 0.091,-0.2263 z"
     fill="#000000"
     id="path9" />
</svg>
