<?xml version="1.0" encoding="UTF-8" standalone="no"?>
<svg
   width="148"
   height="148"
   version="1.1"
   id="svg6"
   sodipodi:docname="player-king-lava.svg"
   inkscape:version="1.4.2 (ebf0e940d0, 2025-05-08)"
   xmlns:inkscape="http://www.inkscape.org/namespaces/inkscape"
   xmlns:sodipodi="http://sodipodi.sourceforge.net/DTD/sodipodi-0.dtd"
   xmlns:xlink="http://www.w3.org/1999/xlink"
   xmlns="http://www.w3.org/2000/svg"
   xmlns:svg="http://www.w3.org/2000/svg">
  <sodipodi:namedview
     id="namedview6"
     pagecolor="#ffffff"
     bordercolor="#000000"
     borderopacity="0.25"
     inkscape:showpageshadow="2"
     inkscape:pageopacity="0.0"
     inkscape:pagecheckerboard="0"
     inkscape:deskcolor="#d1d1d1"
     inkscape:zoom="1.3699324"
     inkscape:cx="19.34402"
     inkscape:cy="129.56843"
     inkscape:window-width="1920"
     inkscape:window-height="1017"
     inkscape:window-x="0"
     inkscape:window-y="0"
     inkscape:window-maximized="1"
     inkscape:current-layer="svg6" />
  <defs
     id="defs2">
    <linearGradient
       id="linearGradient13"
       inkscape:collect="always">
      <stop
         style="stop-color:#f4f4f4;stop-opacity:1;"
         offset="0.18762262"
         id="stop12" />
      <stop
         style="stop-color:#b0b0b0;stop-opacity:1;"
         offset="1"
         id="stop13" />
    </linearGradient>
    <linearGradient
       id="linearGradient11"
       inkscape:collect="always">
      <stop
         style="stop-color:#f4f4f4;stop-opacity:1;"
         offset="0.18762262"
         id="stop10" />
      <stop
         style="stop-color:#b0b0b0;stop-opacity:1;"
         offset="1"
         id="stop11" />
    </linearGradient>
    <linearGradient
       id="linearGradient9"
       inkscape:collect="always">
      <stop
         style="stop-color:#f4f4f4;stop-opacity:1;"
         offset="0.18762262"
         id="stop8" />
      <stop
         style="stop-color:#b0b0b0;stop-opacity:1;"
         offset="1"
         id="stop9" />
    </linearGradient>
    <linearGradient
       id="a">
      <stop
         offset="0"
         stop-color="#9b9b9b"
         id="stop1" />
      <stop
         offset="1"
         stop-color="#fff"
         id="stop2" />
    </linearGradient>
    <linearGradient
       xlink:href="#a"
       id="b"
       gradientUnits="userSpaceOnUse"
       gradientTransform="rotate(-90 94.954 171.268) scale(1.70811)"
       x1="71.621"
       y1="99.306"
       x2="113.125"
       y2="99.306" />
    <linearGradient
       xlink:href="#a"
       id="c"
       gradientUnits="userSpaceOnUse"
       gradientTransform="rotate(-90 94.954 171.268) scale(1.70811)"
       x1="71.639"
       y1="76.797"
       x2="113.027"
       y2="76.797" />
    <linearGradient
       xlink:href="#a"
       id="d"
       gradientUnits="userSpaceOnUse"
       gradientTransform="rotate(-90 94.954 171.268) scale(1.70811)"
       x1="98.247"
       y1="107.222"
       x2="131.002"
       y2="107.222" />
    <linearGradient
       xlink:href="#a"
       id="e"
       gradientUnits="userSpaceOnUse"
       gradientTransform="rotate(-90 94.954 171.268) scale(1.70811)"
       x1="98.05"
       y1="68.832"
       x2="130.747"
       y2="68.832" />
    <linearGradient
       xlink:href="#a"
       id="f"
       gradientUnits="userSpaceOnUse"
       gradientTransform="rotate(-90 94.954 171.268) scale(1.70811)"
       x1="107.178"
       y1="99.68"
       x2="146.684"
       y2="78.911" />
    <linearGradient
       inkscape:collect="always"
       xlink:href="#linearGradient13"
       id="linearGradient607"
       x1="1163.3611"
       y1="903.63306"
       x2="1102.467"
       y2="1472.8103"
       gradientUnits="userSpaceOnUse"
       gradientTransform="translate(-3257.7739,-1669.4194)" />
    <linearGradient
       id="linearGradient606"
       inkscape:collect="always">
      <stop
         style="stop-color:#f4f4f4;stop-opacity:1;"
         offset="0.18762262"
         id="stop606" />
      <stop
         style="stop-color:#b0b0b0;stop-opacity:1;"
         offset="1"
         id="stop607" />
    </linearGradient>
    <linearGradient
       inkscape:collect="always"
       xlink:href="#linearGradient9"
       id="linearGradient608"
       gradientUnits="userSpaceOnUse"
       gradientTransform="rotate(-98.807663,-1457.3259,2377.4973)"
       x1="1163.3611"
       y1="903.63306"
       x2="1102.467"
       y2="1472.8103" />
    <linearGradient
       inkscape:collect="always"
       xlink:href="#linearGradient606"
       id="linearGradient609"
       gradientUnits="userSpaceOnUse"
       gradientTransform="rotate(-165.23959,-603.13739,1215.8588)"
       x1="1163.3611"
       y1="903.63306"
       x2="1102.467"
       y2="1472.8103" />
    <linearGradient
       inkscape:collect="always"
       xlink:href="#linearGradient11"
       id="linearGradient610"
       gradientUnits="userSpaceOnUse"
       gradientTransform="rotate(104.73993,199.37835,-260.06117)"
       x1="1163.3611"
       y1="903.63306"
       x2="1102.467"
       y2="1472.8103" />
  </defs>
  <path
     style="stroke:#090909;stroke-width:177.696;stroke-dasharray:none;stroke-opacity:1;fill:url(#linearGradient607)"
     d="m -1571.2914,-204.0318 c -79.3691,276.452301 -321.8506,381.75528 -607.1036,365.21428 -352.529,-20.454 -517.718,-242.708984 -541.355,-501.16698 -9.3632,-210.41751 26.9452,-484.43714 46.1711,-617.36965 -6.8376,-83.73685 137.6636,117.69321 220.3321,206.43671 25.176,38.631 74.4192,49.88079 95.9226,54.7668 72.7801,9.72535 47.9612,-86.54686 33.7502,-143.26686 -14.211,-56.729 -48.378,-106.948 -62.109,-163.792 -22.295,-92.372 13.615,-191.903 75.795,-263.759 62.18,-71.856 143.1418,-183.6133 230.7118,-220.5193 -33.8553,82.6745 -55.1098,222.1993 -11.8808,290.8723 41.29,65.604 116.943,99.664 175.495,150.453 98.49,85.444 145.953,234.999 90.193,352.849 -15.047,31.80199 -36.604,60.188 -51.66,91.981 -15.056,31.79299 -23.202,69.48999 -9.738,101.99399 13.464,32.504 54.666,54.47 85.667,37.831 75.5558,-35.0252 342.7343,-363.08713 367.2014,-233.27094 24.0639,112.38214 -92.9693,372.54545 -137.3928,490.74665 z"
     id="path1-0"
     sodipodi:nodetypes="ccccccccscccsssccc"
     transform="matrix(0.03677251,-0.0056947,0.0056947,0.03677251,155.86268,52.97277)" />
  <path
     style="stroke:#090909;stroke-width:177.696;stroke-dasharray:none;stroke-opacity:1;fill:url(#linearGradient608)"
     d="m -2840.0534,-589.57867 c 285.3452,36.10341 426.5347,259.60171 453.8661,544.023706 33.7657,351.503814 -160.5749,548.776044 -412.3659,611.708844 -206.5026,41.4715 -482.8506,47.5487 -617.1595,48.90379 -81.7023,19.57861 95.2267,-154.0613 170.2657,-249.34289 34.3207,-30.79434 37.8978,-81.17933 39.4336,-103.17733 -1.5332,-73.41101 -92.8701,-34.14381 -146.7452,-11.4155 -53.8841,22.7297 -98.2795,64.1832 -152.3506,86.4561 -87.869,36.17592 -191.7248,15.92942 -272.2544,-34.5149 -80.5295,-50.4444 -203.3657,-113.33942 -253.245,-194.22581 86.8835,20.7971 228.0174,20.4372 289.2614,-32.797099 58.5082,-50.848199 80.5827,-130.824305 121.8075,-196.462601 69.3559,-110.4116 209.8799,-180.2145 334.878,-143.157 33.731,10.0001 65.0831,26.9565 98.8066,36.9669 33.7234,10.0104 72.2232,12.2882 102.2823,-5.9939 30.0591,-18.2822 45.4573,-62.3618 24.2677,-90.4495 -46.1811,-69.3018 -411.2845,-283.09751 -286.7455,-327.15331 107.3724,-40.9878 382.3878,34.8296 505.9972,60.6305 z"
     id="path1-0-9"
     sodipodi:nodetypes="ccccccccscccsssccc"
     transform="matrix(0.03677251,-0.0056947,0.0056947,0.03677251,155.86268,52.97277)" />
  <path
     style="stroke:#090909;stroke-width:177.696;stroke-dasharray:none;stroke-opacity:1;fill:url(#linearGradient609)"
     d="m -2753.6246,391.22008 c 147.1838,-247.1077 408.4921,-287.15676 680.1174,-198.48549 335.6842,109.59557 438.7962,366.60239 395.8039,622.55339 -44.5555,205.85922 -149.4797,461.58552 -201.9395,585.23292 -14.7223,82.7155 -103.1351,-148.883 -160.4655,-255.7599 -14.5029,-43.7705 -59.2549,-67.1951 -78.8038,-77.3984 -67.9005,-27.9473 -68.4287,71.4712 -69.1377,129.94 -0.7111,58.4776 19.5337,115.7444 18.3289,174.2109 -1.9751,95.004 -62.0582,182.1014 -140.4936,235.7441 -78.4354,53.6426 -185.1987,141.0846 -279.2817,154.4618 53.8017,-71.3207 109.9026,-200.8259 85.5965,-278.2465 -23.2129,-73.9588 -87.6916,-126.1695 -131.3715,-190.2002 -73.4705,-107.7174 -81.264,-264.4296 2.6814,-364.18402 22.6529,-26.91894 50.7307,-48.87585 73.39,-75.78381 22.6593,-26.90789 40.1408,-61.28549 35.4025,-96.14709 -4.7385,-34.8617 -38.9844,-66.6002 -73.2016,-58.4086 -81.986,14.61939 -423.9304,263.78409 -414.5159,132.01819 5.3628,-114.80449 184.8177,-336.5648 257.8902,-439.54729 z"
     id="path1-0-9-2"
     sodipodi:nodetypes="ccccccccscccsssccc"
     transform="matrix(0.03677251,-0.0056947,0.0056947,0.03677251,155.86268,52.97277)" />
  <path
     style="stroke:#090909;stroke-width:177.696;stroke-dasharray:none;stroke-opacity:1;fill:url(#linearGradient610)"
     d="m -1847.6545,739.09398 c -247.1602,-147.0955 -287.3027,-408.38949 -198.7286,-680.046457 109.4756,-335.723413 366.4454,-438.927323 622.4118,-396.026373 205.8752,44.48185 461.63885,149.31471 585.30515,201.73021 82.72071,14.69277 -148.84619,103.18835 -255.70255,160.556888 -43.7653,14.518571 -67.1739,59.278948 -77.3702,78.831562 -27.923,67.91049 71.4957,68.4031 129.9646,69.0911 58.47786,0.6903 115.73745,-19.57493 174.20435,-18.3911 95.0047,1.94117 182.1236,61.9931 235.7943,140.40945 53.6708,78.41612 141.1509,185.14822 154.5617,279.22632 -71.34,-53.7762 -200.86519,-109.8307 -278.277,-85.497 -73.95069,23.2393 -126.13829,87.7367 -190.1533,131.4395 -107.69115,73.50899 -264.40065,81.3585 -364.18495,-2.5512 -26.9271,-22.6433 -48.894,-50.71321 -75.8101,-73.3629 -26.916,-22.6497 -61.2997,-40.1189 -96.1597,-35.3681 -34.8599,4.75099 -66.5861,39.0082 -58.3824,73.2225 14.6487,81.9807 263.9355,423.83602 132.1663,414.4686 -114.8064,-5.3218 -336.6307,-184.6973 -439.6394,-257.733 z"
     id="path1-0-9-2-7"
     sodipodi:nodetypes="ccccccccscccsssccc"
     inkscape:transform-center-x="-1.613877"
     inkscape:transform-center-y="4.8382123"
     transform="matrix(0.03677251,-0.0056947,0.0056947,0.03677251,155.86268,52.97277)" />
</svg>
