<?xml version="1.0" encoding="UTF-8" standalone="no"?>
<svg
   width="128"
   height="128"
   viewBox="0 0 128 128"
   version="1.1"
   xml:space="preserve"
   style="clip-rule:evenodd;fill-rule:evenodd;stroke-linejoin:round;stroke-miterlimit:2"
   id="svg19"
   sodipodi:docname="skeleton knife rugged (1).svg"
   inkscape:version="1.4.4 (dcaf3e7, 2026-05-05)"
   inkscape:export-filename="loot-melee-skeleton-knife-rugged.svg"
   inkscape:export-xdpi="96"
   inkscape:export-ydpi="96"
   xmlns:inkscape="http://www.inkscape.org/namespaces/inkscape"
   xmlns:sodipodi="http://sodipodi.sourceforge.net/DTD/sodipodi-0.dtd"
   xmlns="http://www.w3.org/2000/svg"
   xmlns:svg="http://www.w3.org/2000/svg"><sodipodi:namedview
   id="namedview19"
   pagecolor="#ffffff"
   bordercolor="#000000"
   borderopacity="0.25"
   inkscape:showpageshadow="2"
   inkscape:pageopacity="0.0"
   inkscape:pagecheckerboard="0"
   inkscape:deskcolor="#d1d1d1"
   inkscape:zoom="6.3046875"
   inkscape:cx="43.935564"
   inkscape:cy="64.793061"
   inkscape:window-width="1920"
   inkscape:window-height="1009"
   inkscape:window-x="-8"
   inkscape:window-y="-8"
   inkscape:window-maximized="1"
   inkscape:current-layer="svg19"><inkscape:page
     x="0"
     y="0"
     width="128"
     height="128"
     id="page2"
     margin="0"
     bleed="0" /></sodipodi:namedview>
    <g
   id="g19"><path
     id="path1"
     style="clip-rule:evenodd;display:inline;fill-rule:evenodd;stroke-linejoin:round;stroke-miterlimit:2"
     d="m 380.74375,2480.2984 c 0,0 414.20118,116.0643 631.69815,148.1393 225.943,33.32 723.9769,51.819 723.9769,51.819 23.986,37.515 51.9866,11.0371 71.6446,14.9331 48.881,9.688 28.1779,63.4008 80.9619,65.0928 41.25,1.322 42.7201,-76.5744 139.2901,-105.9354 116.99,-35.569 468.3487,24.0781 626.9757,16.8901 141.245,-6.4 331.6576,-112.7549 339.3336,-190.9389 -7.676,-78.184 -198.0886,-184.4964 -339.3336,-190.8964 -158.627,-7.188 -509.9857,52.4591 -626.9757,16.8901 -96.57,-29.361 -98.0401,-107.2574 -139.2901,-105.9354 -52.784,1.692 -32.0809,55.4048 -80.9619,65.0928 -19.658,3.896 -47.6586,-22.5819 -71.6446,14.9331 0,0 -498.0339,18.4989 -723.9769,51.8189 -217.49697,32.075 -631.69815,148.0969 -631.69815,148.0969 z m 1015.57565,0.043 a 15.35412,15.354792 0 0 1 15.3585,-15.3585 15.35412,15.354792 0 0 1 15.3585,15.3585 15.35412,15.354792 0 0 1 -15.3585,15.3585 15.35412,15.354792 0 0 1 -15.3585,-15.3585 z m 78.7921,0 a 18.307156,18.30758 0 0 1 18.3366,-18.2941 18.307156,18.30758 0 0 1 18.2941,18.2941 18.307156,18.30758 0 0 1 -18.2941,18.2941 18.307156,18.30758 0 0 1 -18.3366,-18.2941 z m 88.1093,1.0636 a 22.649,22.441841 0 0 1 22.6336,-22.4634 22.649,22.441841 0 0 1 22.6336,22.4634 22.649,22.441841 0 0 1 -22.6336,22.4209 22.649,22.441841 0 0 1 -22.6336,-22.4209 z m 89.3431,-1.1061 a 28.233,28.233 0 0 1 28.2069,-28.2069 28.233,28.233 0 0 1 28.2494,28.2069 28.233,28.233 0 0 1 -28.2494,28.2494 28.233,28.233 0 0 1 -28.2069,-28.2494 z m 103.8081,0 a 118.11252,118.165 0 0 1 118.1456,-118.1456 118.11252,118.165 0 0 1 118.1031,118.1456 118.11252,118.165 0 0 1 -118.1031,118.1881 118.11252,118.165 0 0 1 -118.1456,-118.1881 z m 1028.8921,0 a 28.233,28.233 0 0 1 28.2069,-28.2069 28.233,28.233 0 0 1 28.2494,28.2069 28.233,28.233 0 0 1 -28.2494,28.2494 28.233,28.233 0 0 1 -28.2069,-28.2494 z"
     transform="matrix(0,0.045908,-0.045908,0,177.86749,-13.479184)" /><path
     id="path2"
     style="clip-rule:evenodd;display:inline;fill:url(#_Linear1);fill-rule:evenodd;stroke-linejoin:round;stroke-miterlimit:2"
     d="m 524.76963,2483.3308 c 0,0 285.53847,59.7174 487.63147,92.2004 201.014,32.309 732.6784,44.5499 732.6784,44.5499 15.991,27.338 47.1945,28.5903 47.1945,28.5903 89.802,-11.591 100.3169,45.781 100.3169,45.781 53.367,-84.954 122.2437,-105.0209 194.5237,-109.2999 v -203.6433 c -72.28,-4.279 -141.1567,-24.3459 -194.5237,-109.2999 0,0 -10.5149,57.3264 -100.3169,45.7354 0,0 -31.2035,1.2523 -47.1945,28.5903 0,0 -531.6644,12.2409 -732.6784,44.5499 -202.093,32.483 -487.63147,92.2459 -487.63147,92.2459 z m 837.00797,0 a 16.456399,16.457119 0 0 1 16.4611,-16.4611 16.456399,16.457119 0 0 1 16.4611,16.4611 16.456399,16.457119 0 0 1 -16.4611,16.4611 16.456399,16.457119 0 0 1 -16.4611,-16.4611 z m 84.4486,0 a 19.621435,19.62189 0 0 1 19.653,-19.6074 19.621435,19.62189 0 0 1 19.6074,19.6074 19.621435,19.62189 0 0 1 -19.6074,19.6074 19.621435,19.62189 0 0 1 -19.653,-19.6074 z m 94.4347,1.14 a 24.274982,24.052951 0 0 1 24.2585,-24.0761 24.274982,24.052951 0 0 1 24.2584,24.0761 24.274982,24.052951 0 0 1 -24.2584,24.0305 24.274982,24.052951 0 0 1 -24.2585,-24.0305 z m 95.7571,-1.1856 a 30.259859,30.259859 0 0 1 30.2319,-30.2318 30.259859,30.259859 0 0 1 30.2774,30.2318 30.259859,30.259859 0 0 1 -30.2774,30.2775 30.259859,30.259859 0 0 1 -30.2319,-30.2775 z m 111.2606,0 a 126.59187,126.64812 0 0 1 126.6273,-126.6273 126.59187,126.64812 0 0 1 126.5817,126.6273 126.59187,126.64812 0 0 1 -126.5817,126.673 126.59187,126.64812 0 0 1 -126.6273,-126.673 z"
     transform="matrix(0,0.042833,-0.042833,0,170.36851,-7.705973)" /><path
     id="path3"
     style="clip-rule:evenodd;display:inline;fill:url(#_Linear2);fill-rule:evenodd;stroke-linejoin:round;stroke-miterlimit:2"
     d="m 2761.0756,2603.3142 c 109.65,-16.848 203.1803,-90.0271 203.8723,-120.0161 -0.692,-29.989 -94.2223,-99.7937 -203.8723,-116.6417 z m 89.3737,-120.0161 a 30.259994,30.259994 0 0 1 30.232,-30.232 30.259994,30.259994 0 0 1 30.2776,30.232 30.259994,30.259994 0 0 1 -30.2776,30.2776 30.259994,30.259994 0 0 1 -30.232,-30.2776 z"
     transform="matrix(0,0.04283281,-0.04283281,0,170.36859,-7.706034)" /><path
     id="path4"
     style="clip-rule:evenodd;display:inline;fill:url(#_Linear3);fill-rule:evenodd;stroke-linejoin:round;stroke-miterlimit:2"
     d="m 524.72778,2483.2981 c 0,0 353.98169,0.6208 355.44269,0.8208 23.135,3.16 219.85373,29.6555 413.85473,43.5925 97.566,7.01 226.9957,14.9499 318.9637,24.8969 51.678,5.588 132.0997,67.4862 132.0997,67.4862 15.991,27.338 47.1948,28.5905 47.1948,28.5905 89.802,-11.591 100.2718,45.7356 100.2718,45.7356 73.798,-111.587 194.2965,-109.1635 194.2965,-109.1635 l 0.2736,-203.7811 c 0,0 -124.0971,-0.3743 -194.5701,-109.3003 0,0 -10.4698,57.3722 -100.2718,45.7812 0,0 -31.2038,1.2524 -47.1948,28.5904 0,0 -80.4217,61.8516 -132.0997,67.4406 -91.968,9.947 -221.3977,17.887 -318.9637,24.897 -185.193,13.304 -376.70813,37.9877 -413.80913,42.9997 -4.218,0.57 -355.48829,1.4135 -355.48829,1.4135 z m 837.05732,0.046 a 16.456472,16.457192 0 0 1 16.4611,-16.4611 16.456472,16.457192 0 0 1 16.4612,16.4611 16.456472,16.457192 0 0 1 -16.4612,16.4612 16.456472,16.457192 0 0 1 -16.4611,-16.4612 z m 84.449,0 a 19.621522,19.621977 0 0 1 19.653,-19.6075 19.621522,19.621977 0 0 1 19.6075,19.6075 19.621522,19.621977 0 0 1 -19.6075,19.6075 19.621522,19.621977 0 0 1 -19.653,-19.6075 z m 94.4351,1.14 a 24.27509,24.053058 0 0 1 24.2585,-24.0762 24.27509,24.053058 0 0 1 24.2586,24.0762 24.27509,24.053058 0 0 1 -24.2586,24.0306 24.27509,24.053058 0 0 1 -24.2585,-24.0306 z m 95.7575,-1.1856 a 30.259994,30.259994 0 0 1 30.232,-30.232 30.259994,30.259994 0 0 1 30.2776,30.232 30.259994,30.259994 0 0 1 -30.2776,30.2776 30.259994,30.259994 0 0 1 -30.232,-30.2776 z m 111.2611,0 a 126.59243,126.64868 0 0 1 126.6278,-126.6279 126.59243,126.64868 0 0 1 126.5823,126.6279 126.59243,126.64868 0 0 1 -126.5823,126.6735 126.59243,126.64868 0 0 1 -126.6278,-126.6735 z"
     transform="matrix(0,0.04283281,-0.04283281,0,170.36859,-7.706034)" /><path
     d="m 2190.027,2589.545 c 154.854,-0.575 311.452,23.364 541.658,25.318 v -253.18 c -230.206,1.955 -386.804,25.893 -541.658,25.318 z"
     style="clip-rule:evenodd;display:inline;fill:url(#_Linear4);fill-rule:evenodd;stroke-linejoin:round;stroke-miterlimit:2"
     id="path5"
     transform="matrix(0,0.042833,-0.042833,0,170.58089,-9.352861)" /></g>
    
    
    
    
    
    
    
    
    
    <defs
   id="defs19"><linearGradient
     id="_Linear1"
     x1="0"
     y1="0"
     x2="1"
     y2="0"
     gradientUnits="userSpaceOnUse"
     gradientTransform="matrix(1562.3552,0,0,422.25411,524.7503,2483.315)"><stop
       offset="0"
       style="stop-color:rgb(79,80,80);stop-opacity:1"
       id="stop12" /><stop
       offset="1"
       style="stop-color:rgb(189,189,189);stop-opacity:1"
       id="stop13" /></linearGradient><linearGradient
     id="_Linear2"
     x1="0"
     y1="0"
     x2="1"
     y2="0"
     gradientUnits="userSpaceOnUse"
     gradientTransform="matrix(1188.1484,0,0,1379.3945,898.95706,2484.9776)"><stop
       offset="0"
       style="stop-color:rgb(195,195,195);stop-opacity:1"
       id="stop14" /><stop
       offset="1"
       style="stop-color:rgb(132,132,132);stop-opacity:1"
       id="stop15" /></linearGradient><linearGradient
     id="_Linear3"
     x1="0"
     y1="0"
     x2="1"
     y2="0"
     gradientUnits="userSpaceOnUse"
     gradientTransform="matrix(1212.9669,0,0,422.25411,874.13855,2483.315)"><stop
       offset="0"
       style="stop-color:rgb(195,195,195);stop-opacity:1"
       id="stop16" /><stop
       offset="1"
       style="stop-color:rgb(132,132,132);stop-opacity:1"
       id="stop17" /></linearGradient><linearGradient
     id="_Linear4"
     x1="0"
     y1="0"
     x2="1"
     y2="0"
     gradientUnits="userSpaceOnUse"
     gradientTransform="matrix(673.98433,-530.23269,247.83975,315.0317,2125.5543,2764.8062)"><stop
       offset="0"
       style="stop-color:rgb(38,18,0);stop-opacity:1"
       id="stop18" /><stop
       offset="1"
       style="stop-color:rgb(166,25,0);stop-opacity:1"
       id="stop19" /></linearGradient></defs>
</svg>
